<svg width="32" height="32" viewBox="0 0 32 32" fill="none" xmlns="http://www.w3.org/2000/svg">
<path d="M10.8333 8.55663L11.7426 8.03165C12.7049 7.4761 13.5382 8.91947 12.576 9.47503L11.6667 10L12.576 10.525C13.5382 11.0805 12.7049 12.5239 11.7426 11.9684L10.8333 11.4434V12.4933C10.8333 12.9536 10.4603 13.3267 10 13.3267C9.53978 13.3267 9.16668 12.9536 9.16668 12.4933V11.4434L8.25739 11.9684C7.29514 12.5239 6.46181 11.0805 7.42406 10.525L8.33335 10L7.42406 9.47503C6.46181 8.91947 7.29514 7.4761 8.25739 8.03165L9.16668 8.55663V7.50667C9.16668 7.04644 9.53978 6.67334 10 6.67334C10.4603 6.67334 10.8333 7.04644 10.8333 7.50667V8.55663Z" fill="white"/>
<path d="M17 16.6667H22.6879C24.8971 16.6667 26.6879 14.8759 26.6879 12.6667C26.6879 10.4576 24.8971 8.66675 22.6879 8.66675C21.9454 8.66675 21.2302 8.87036 20.6087 9.24913C20.137 9.53653 19.9877 10.1518 20.2751 10.6234C20.5625 11.0951 21.1778 11.2444 21.6494 10.957C21.9596 10.768 22.3151 10.6667 22.6879 10.6667C23.7925 10.6667 24.6879 11.5622 24.6879 12.6667C24.6879 13.7713 23.7925 14.6667 22.6879 14.6667H17C16.4477 14.6667 16 15.1145 16 15.6667C16 16.219 16.4477 16.6667 17 16.6667Z" fill="white"/>
<path d="M9 20.6667H20.6684C21.4048 20.6667 22.0017 21.2637 22.0017 22.0001C22.0017 22.7365 21.4048 23.3334 20.6684 23.3334C20.4195 23.3334 20.183 23.2661 19.9763 23.1401C19.5047 22.8527 18.8894 23.0021 18.602 23.4737C18.3146 23.9453 18.4639 24.5606 18.9355 24.848C19.4536 25.1637 20.0497 25.3334 20.6684 25.3334C22.5093 25.3334 24.0017 23.841 24.0017 22.0001C24.0017 20.1591 22.5093 18.6667 20.6684 18.6667H9C8.44772 18.6667 8 19.1145 8 19.6667C8 20.219 8.44772 20.6667 9 20.6667Z" fill="white"/>
</svg>
