<svg width="32" height="32" viewBox="0 0 32 32" fill="none" xmlns="http://www.w3.org/2000/svg">
<path fill-rule="evenodd" clip-rule="evenodd" d="M13.3436 7.00117C12.558 7.64686 11.9073 8.45409 11.444 9.37623C11.1873 9.34778 10.9279 9.33337 10.6666 9.33337C8.07738 9.33337 5.81646 10.7392 4.60553 12.8292C3.13446 12.1899 1.95738 11.0012 1.33331 9.52205C2.07969 9.83695 2.9 10.011 3.76098 10.011C7.21276 10.011 10.011 7.21282 10.011 3.76104C10.011 2.90007 9.83689 2.07975 9.52199 1.33337C11.7409 2.26958 13.3063 4.45036 13.3436 7.00117V7.00117Z" fill="white"/>
<path fill-rule="evenodd" clip-rule="evenodd" d="M9.49997 24.5566L10.4093 24.0317C11.3715 23.4761 12.2048 24.9195 11.2426 25.475L10.3333 26L11.2426 26.525C12.2048 27.0805 11.3715 28.5239 10.4093 27.9684L9.49997 27.4434V28.4933C9.49997 28.9536 9.12688 29.3267 8.66664 29.3267C8.2064 29.3267 7.83331 28.9536 7.83331 28.4933V27.4434L6.92402 27.9684C5.96177 28.5239 5.12843 27.0805 6.09068 26.525L6.99997 26L6.09068 25.475C5.12843 24.9195 5.96177 23.4761 6.92402 24.0317L7.83331 24.5566V23.5067C7.83331 23.0464 8.2064 22.6733 8.66664 22.6733C9.12688 22.6733 9.49997 23.0464 9.49997 23.5067V24.5566Z" fill="white"/>
<path fill-rule="evenodd" clip-rule="evenodd" d="M25.5 24.5566L26.4093 24.0317C27.3715 23.4761 28.2048 24.9195 27.2426 25.475L26.3333 26L27.2426 26.525C28.2048 27.0805 27.3715 28.5239 26.4093 27.9684L25.5 27.4434V28.4933C25.5 28.9536 25.1269 29.3267 24.6666 29.3267C24.2064 29.3267 23.8333 28.9536 23.8333 28.4933V27.4434L22.924 27.9684C21.9618 28.5239 21.1284 27.0805 22.0907 26.525L23 26L22.0907 25.475C21.1284 24.9195 21.9618 23.4761 22.924 24.0317L23.8333 24.5566V23.5067C23.8333 23.0464 24.2064 22.6733 24.6666 22.6733C25.1269 22.6733 25.5 23.0464 25.5 23.5067V24.5566Z" fill="white"/>
<path fill-rule="evenodd" clip-rule="evenodd" d="M17.5 27.2233L18.4093 26.6983C19.3715 26.1427 20.2048 27.5861 19.2426 28.1417L18.3333 28.6666L19.2426 29.1916C20.2048 29.7472 19.3715 31.1905 18.4093 30.635L17.5 30.11V31.16C17.5 31.6202 17.1269 31.9933 16.6666 31.9933C16.2064 31.9933 15.8333 31.6202 15.8333 31.16V30.11L14.924 30.635C13.9618 31.1905 13.1284 29.7472 14.0907 29.1916L15 28.6666L14.0907 28.1417C13.1284 27.5861 13.9618 26.1427 14.924 26.6983L15.8333 27.2233V26.1733C15.8333 25.7131 16.2064 25.34 16.6666 25.34C17.1269 25.34 17.5 25.7131 17.5 26.1733V27.2233Z" fill="white"/>
<path fill-rule="evenodd" clip-rule="evenodd" d="M10.6667 21.3334C7.90526 21.3334 5.66669 19.0948 5.66669 16.3334C5.66669 13.572 7.90526 11.3334 10.6667 11.3334C11.4062 11.3334 12.1082 11.4939 12.7397 11.782C13.1612 9.25755 15.3559 7.33337 18 7.33337C20.9455 7.33337 23.3334 9.72119 23.3334 12.6667C23.3334 13.2632 23.2354 13.8369 23.0548 14.3724C23.5413 14.1339 24.0883 14 24.6667 14C26.6917 14 28.3334 15.6417 28.3334 17.6667C28.3334 19.6918 26.6917 21.3334 24.6667 21.3334H10.6667Z" fill="white"/>
</svg>
