<svg width="32" height="32" viewBox="0 0 32 32" fill="none" xmlns="http://www.w3.org/2000/svg">
<path fill-rule="evenodd" clip-rule="evenodd" d="M13.3436 7.00117C12.558 7.64686 11.9073 8.45409 11.444 9.37623C11.1873 9.34778 10.9279 9.33337 10.6666 9.33337C8.07738 9.33337 5.81646 10.7392 4.60553 12.8292C3.13446 12.1899 1.95738 11.0012 1.33331 9.52205C2.07969 9.83695 2.9 10.011 3.76098 10.011C7.21276 10.011 10.011 7.21282 10.011 3.76104C10.011 2.90007 9.83689 2.07975 9.52199 1.33337C11.7409 2.26958 13.3063 4.45036 13.3436 7.00117V7.00117Z" fill="white"/>
<path fill-rule="evenodd" clip-rule="evenodd" d="M10.6667 21.3334C7.90526 21.3334 5.66669 19.0948 5.66669 16.3334C5.66669 13.572 7.90526 11.3334 10.6667 11.3334C11.4062 11.3334 12.1082 11.4939 12.7397 11.782C13.1612 9.25755 15.3559 7.33337 18 7.33337C20.9455 7.33337 23.3334 9.72119 23.3334 12.6667C23.3334 13.2632 23.2354 13.8369 23.0548 14.3724C23.5413 14.1339 24.0883 14 24.6667 14C26.6917 14 28.3334 15.6417 28.3334 17.6667C28.3334 19.6918 26.6917 21.3334 24.6667 21.3334H10.6667Z" fill="white"/>
<path fill-rule="evenodd" clip-rule="evenodd" d="M13.5 24.5566L14.4093 24.0317C15.3715 23.4761 16.2048 24.9195 15.2426 25.475L14.3333 26L15.2426 26.525C16.2048 27.0805 15.3715 28.5239 14.4093 27.9684L13.5 27.4434V28.4933C13.5 28.9536 13.1269 29.3267 12.6666 29.3267C12.2064 29.3267 11.8333 28.9536 11.8333 28.4933V27.4434L10.924 27.9684C9.96177 28.5239 9.12843 27.0805 10.0907 26.525L11 26L10.0907 25.475C9.12843 24.9195 9.96177 23.4761 10.924 24.0317L11.8333 24.5566V23.5067C11.8333 23.0464 12.2064 22.6733 12.6666 22.6733C13.1269 22.6733 13.5 23.0464 13.5 23.5067V24.5566Z" fill="white"/>
<path fill-rule="evenodd" clip-rule="evenodd" d="M22.8333 25.89L23.7426 25.365C24.7049 24.8095 25.5382 26.2528 24.576 26.8084L23.6667 27.3334L24.576 27.8584C25.5382 28.4139 24.7049 29.8573 23.7426 29.3017L22.8333 28.7768V29.8267C22.8333 30.2869 22.4603 30.66 22 30.66C21.5398 30.66 21.1667 30.2869 21.1667 29.8267V28.7768L20.2574 29.3017C19.2951 29.8573 18.4618 28.4139 19.4241 27.8584L20.3333 27.3334L19.4241 26.8084C18.4618 26.2528 19.2951 24.8095 20.2574 25.365L21.1667 25.89V24.84C21.1667 24.3798 21.5398 24.0067 22 24.0067C22.4603 24.0067 22.8333 24.3798 22.8333 24.84V25.89Z" fill="white"/>
</svg>
