<svg width="32" height="32" viewBox="0 0 32 32" fill="none" xmlns="http://www.w3.org/2000/svg">
<path fill-rule="evenodd" clip-rule="evenodd" d="M13.3436 7.00117C12.558 7.64686 11.9073 8.45409 11.444 9.37623C11.1873 9.34778 10.9279 9.33337 10.6666 9.33337C8.07738 9.33337 5.81646 10.7392 4.60553 12.8292C3.13446 12.1899 1.95738 11.0012 1.33331 9.52205C2.07969 9.83695 2.9 10.011 3.76098 10.011C7.21276 10.011 10.011 7.21282 10.011 3.76104C10.011 2.90007 9.83689 2.07975 9.52199 1.33337C11.7409 2.26958 13.3063 4.45036 13.3436 7.00117V7.00117Z" fill="white"/>
<path fill-rule="evenodd" clip-rule="evenodd" d="M10.6667 21.3334C7.90526 21.3334 5.66669 19.0948 5.66669 16.3334C5.66669 13.572 7.90526 11.3334 10.6667 11.3334C11.4062 11.3334 12.1082 11.4939 12.7397 11.782C13.1612 9.25755 15.3559 7.33337 18 7.33337C20.9455 7.33337 23.3334 9.72119 23.3334 12.6667C23.3334 13.2632 23.2354 13.8369 23.0548 14.3724C23.5413 14.1339 24.0883 14 24.6667 14C26.6917 14 28.3334 15.6417 28.3334 17.6667C28.3334 19.6918 26.6917 21.3334 24.6667 21.3334H10.6667Z" fill="white"/>
<path d="M8.74732 23.2695L6.74732 27.944C6.53007 28.4517 6.76558 29.0395 7.27334 29.2567C7.7811 29.474 8.36883 29.2385 8.58608 28.7307L10.5861 24.0562C10.8033 23.5485 10.5678 22.9607 10.0601 22.7435C9.5523 22.5262 8.96456 22.7617 8.74732 23.2695Z" fill="white"/>
<path d="M14.0806 23.2695L12.0806 27.944C11.8634 28.4517 12.0989 29.0395 12.6066 29.2567C13.1144 29.474 13.7021 29.2385 13.9194 28.7307L15.9194 24.0562C16.1366 23.5485 15.9011 22.9607 15.3934 22.7435C14.8856 22.5262 14.2979 22.7617 14.0806 23.2695Z" fill="white"/>
<path d="M19.4139 23.2695L17.4139 27.944C17.1967 28.4517 17.4322 29.0395 17.94 29.2567C18.4477 29.474 19.0355 29.2385 19.2527 28.7307L21.2527 24.0562C21.47 23.5485 21.2344 22.9607 20.7267 22.7435C20.2189 22.5262 19.6312 22.7617 19.4139 23.2695Z" fill="white"/>
<path d="M24.7473 23.2695L22.7473 27.944C22.53 28.4517 22.7655 29.0395 23.2733 29.2567C23.781 29.474 24.3688 29.2385 24.586 28.7307L26.586 24.0562C26.8033 23.5485 26.5678 22.9607 26.06 22.7435C25.5522 22.5262 24.9645 22.7617 24.7473 23.2695Z" fill="white"/>
</svg>
