<svg width="32" height="32" viewBox="0 0 32 32" fill="none" xmlns="http://www.w3.org/2000/svg">
<path fill-rule="evenodd" clip-rule="evenodd" d="M13.3436 7.00117C12.558 7.64686 11.9073 8.45409 11.444 9.37623C11.1873 9.34778 10.9279 9.33337 10.6666 9.33337C8.07738 9.33337 5.81646 10.7392 4.60553 12.8292C3.13446 12.1899 1.95738 11.0012 1.33331 9.52205C2.07969 9.83695 2.9 10.011 3.76098 10.011C7.21276 10.011 10.011 7.21282 10.011 3.76104C10.011 2.90007 9.83689 2.07975 9.52199 1.33337C11.7409 2.26958 13.3063 4.45036 13.3436 7.00117V7.00117Z" fill="white"/>
<path fill-rule="evenodd" clip-rule="evenodd" d="M10.6667 21.3334C7.90526 21.3334 5.66669 19.0948 5.66669 16.3334C5.66669 13.572 7.90526 11.3334 10.6667 11.3334C11.4062 11.3334 12.1082 11.4939 12.7397 11.782C13.1612 9.25755 15.3559 7.33337 18 7.33337C20.9455 7.33337 23.3334 9.72119 23.3334 12.6667C23.3334 13.2632 23.2354 13.8369 23.0548 14.3724C23.5413 14.1339 24.0883 14 24.6667 14C26.6917 14 28.3334 15.6417 28.3334 17.6667C28.3334 19.6918 26.6917 21.3334 24.6667 21.3334H10.6667Z" fill="white"/>
<path d="M10.8114 24.6175L9.41138 27.9501C9.19747 28.4593 9.43684 29.0454 9.94602 29.2593C10.4552 29.4732 11.0414 29.2339 11.2553 28.7247L12.6553 25.3921C12.8692 24.8829 12.6298 24.2967 12.1206 24.0828C11.6115 23.8689 11.0253 24.1083 10.8114 24.6175Z" fill="white"/>
<path d="M21.4781 24.6175L20.0781 27.9501C19.8642 28.4593 20.1035 29.0454 20.6127 29.2593C21.1219 29.4732 21.7081 29.2339 21.922 28.7247L23.322 25.3921C23.5359 24.8829 23.2965 24.2967 22.7873 24.0828C22.2781 23.8689 21.692 24.1083 21.4781 24.6175Z" fill="white"/>
<path d="M16.1447 23.2842L14.7447 26.6168C14.5308 27.126 14.7702 27.7122 15.2793 27.9261C15.7885 28.14 16.3747 27.9006 16.5886 27.3914L17.9886 24.0588C18.2025 23.5496 17.9631 22.9635 17.4539 22.7496C16.9448 22.5357 16.3586 22.775 16.1447 23.2842Z" fill="white"/>
</svg>
