<svg width="32" height="32" viewBox="0 0 32 32" fill="none" xmlns="http://www.w3.org/2000/svg">
<path fill-rule="evenodd" clip-rule="evenodd" d="M13.3436 7.00117C12.558 7.64686 11.9073 8.45409 11.444 9.37623C11.1873 9.34778 10.9279 9.33337 10.6666 9.33337C8.07738 9.33337 5.81646 10.7392 4.60553 12.8292C3.13446 12.1899 1.95738 11.0012 1.33331 9.52205C2.07969 9.83695 2.9 10.011 3.76098 10.011C7.21276 10.011 10.011 7.21282 10.011 3.76104C10.011 2.90007 9.83689 2.07975 9.52199 1.33337C11.7409 2.26958 13.3063 4.45036 13.3436 7.00117V7.00117Z" fill="white"/>
<path d="M17.5 25.89L18.4093 25.365C19.3715 24.8095 20.2048 26.2528 19.2426 26.8084L18.3333 27.3334L19.2426 27.8584C20.2048 28.4139 19.3715 29.8573 18.4093 29.3017L17.5 28.7768V29.8267C17.5 30.2869 17.1269 30.66 16.6666 30.66C16.2064 30.66 15.8333 30.2869 15.8333 29.8267V28.7768L14.924 29.3017C13.9618 29.8573 13.1284 28.4139 14.0907 27.8584L15 27.3334L14.0907 26.8084C13.1284 26.2528 13.9618 24.8095 14.924 25.365L15.8333 25.89V24.84C15.8333 24.3798 16.2064 24.0067 16.6666 24.0067C17.1269 24.0067 17.5 24.3798 17.5 24.84V25.89Z" fill="white"/>
<path fill-rule="evenodd" clip-rule="evenodd" d="M10.6667 21.3334C7.90526 21.3334 5.66669 19.0948 5.66669 16.3334C5.66669 13.572 7.90526 11.3334 10.6667 11.3334C11.4062 11.3334 12.1082 11.4939 12.7397 11.782C13.1612 9.25755 15.3559 7.33337 18 7.33337C20.9455 7.33337 23.3334 9.72119 23.3334 12.6667C23.3334 13.2632 23.2354 13.8369 23.0548 14.3724C23.5413 14.1339 24.0883 14 24.6667 14C26.6917 14 28.3334 15.6417 28.3334 17.6667C28.3334 19.6918 26.6917 21.3334 24.6667 21.3334H10.6667Z" fill="white"/>
</svg>
