<svg width="32" height="32" viewBox="0 0 32 32" fill="none" xmlns="http://www.w3.org/2000/svg">
<path fill-rule="evenodd" clip-rule="evenodd" d="M17.4752 6.98443C18.4464 5.96714 19.8158 5.33337 21.3333 5.33337C24.2788 5.33337 26.6666 7.72119 26.6666 10.6667C26.6666 12.0851 26.113 13.3742 25.2099 14.3296C24.4631 13.8153 23.5868 13.4755 22.6399 13.3691C22.3821 10.3434 20.2871 7.84182 17.4752 6.98443H17.4752Z" fill="white"/>
<path d="M20.6396 0.973207L20.9869 2.94282C21.2184 4.2559 19.2488 4.6032 19.0172 3.29012L18.6699 1.3205C18.4384 0.00742586 20.408 -0.33987 20.6396 0.973207Z" fill="white"/>
<path d="M27.697 3.32182L26.5499 4.96013C25.7851 6.05233 24.1468 4.90518 24.9116 3.81297L26.0587 2.17467C26.8235 1.08247 28.4618 2.22962 27.697 3.32182Z" fill="white"/>
<path d="M13.9884 4.30301L15.6268 5.45016C16.719 6.21493 15.5718 7.85324 14.4796 7.08847L12.8413 5.94132C11.7491 5.17655 12.8962 3.53824 13.9884 4.30301Z" fill="white"/>
<path d="M28.1871 14.2449L29.8254 15.3921C30.9176 16.1568 29.7704 17.7951 28.6782 17.0304L27.0399 15.8832C25.9477 15.1184 27.0949 13.4801 28.1871 14.2449Z" fill="white"/>
<path d="M31.0268 9.97287L29.0572 10.3202C27.7441 10.5517 27.3968 8.58209 28.7099 8.35055L30.6795 8.00326C31.9926 7.77173 32.3399 9.74134 31.0268 9.97287Z" fill="white"/>
<path fill-rule="evenodd" clip-rule="evenodd" d="M12.1667 25.89L13.076 25.365C14.0382 24.8095 14.8715 26.2528 13.9093 26.8084L13 27.3334L13.9093 27.8584C14.8715 28.4139 14.0382 29.8573 13.076 29.3017L12.1667 28.7768V29.8267C12.1667 30.2869 11.7936 30.66 11.3333 30.66C10.8731 30.66 10.5 30.2869 10.5 29.8267V28.7768L9.5907 29.3017C8.62845 29.8573 7.79512 28.4139 8.75737 27.8584L9.66666 27.3334L8.75737 26.8084C7.79512 26.2528 8.62845 24.8095 9.5907 25.365L10.5 25.89V24.84C10.5 24.3798 10.8731 24.0067 11.3333 24.0067C11.7936 24.0067 12.1667 24.3798 12.1667 24.84V25.89Z" fill="white"/>
<path fill-rule="evenodd" clip-rule="evenodd" d="M21.5 27.2233L22.4093 26.6983C23.3715 26.1427 24.2048 27.5861 23.2426 28.1417L22.3333 28.6666L23.2426 29.1916C24.2048 29.7472 23.3715 31.1905 22.4093 30.635L21.5 30.11V31.16C21.5 31.6202 21.1269 31.9933 20.6666 31.9933C20.2064 31.9933 19.8333 31.6202 19.8333 31.16V30.11L18.924 30.635C17.9618 31.1905 17.1284 29.7472 18.0907 29.1916L19 28.6666L18.0907 28.1417C17.1284 27.5861 17.9618 26.1427 18.924 26.6983L19.8333 27.2233V26.1733C19.8333 25.7131 20.2064 25.34 20.6666 25.34C21.1269 25.34 21.5 25.7131 21.5 26.1733V27.2233Z" fill="white"/>
<path fill-rule="evenodd" clip-rule="evenodd" d="M8 22.6666C5.23858 22.6666 3 20.428 3 17.6666C3 14.9052 5.23858 12.6666 8 12.6666C8.73949 12.6666 9.44149 12.8272 10.073 13.1153C10.4945 10.5908 12.6892 8.66663 15.3333 8.66663C18.2789 8.66663 20.6667 11.0544 20.6667 14C20.6667 14.5965 20.5687 15.1701 20.3881 15.7057C20.8746 15.4672 21.4216 15.3333 22 15.3333C24.025 15.3333 25.6667 16.9749 25.6667 19C25.6667 21.025 24.025 22.6666 22 22.6666H8Z" fill="white"/>
</svg>
