<svg width="32" height="32" viewBox="0 0 32 32" fill="none" xmlns="http://www.w3.org/2000/svg">
<path d="M8.16666 4.55663L9.07595 4.03165C10.0382 3.4761 10.8715 4.91947 9.90929 5.47503L9 6.00001L9.90929 6.52499C10.8715 7.08054 10.0382 8.52392 9.07595 7.96836L8.16666 7.44338V8.49334C8.16666 8.95358 7.79357 9.32667 7.33333 9.32667C6.87309 9.32667 6.49999 8.95358 6.49999 8.49334V7.44338L5.5907 7.96836C4.62845 8.52392 3.79512 7.08054 4.75737 6.52499L5.66666 6.00001L4.75737 5.47503C3.79512 4.91947 4.62845 3.4761 5.5907 4.03165L6.49999 4.55663V3.50667C6.49999 3.04644 6.87309 2.67334 7.33333 2.67334C7.79357 2.67334 8.16666 3.04644 8.16666 3.50667V4.55663Z" fill="white"/>
<path d="M25.5 4.55663L26.4093 4.03165C27.3715 3.4761 28.2048 4.91947 27.2426 5.47503L26.3333 6.00001L27.2426 6.52499C28.2048 7.08054 27.3715 8.52392 26.4093 7.96836L25.5 7.44338V8.49334C25.5 8.95358 25.1269 9.32667 24.6666 9.32667C24.2064 9.32667 23.8333 8.95358 23.8333 8.49334V7.44338L22.924 7.96836C21.9618 8.52392 21.1284 7.08054 22.0907 6.52499L23 6.00001L22.0907 5.47503C21.1284 4.91947 21.9618 3.4761 22.924 4.03165L23.8333 4.55663V3.50667C23.8333 3.04644 24.2064 2.67334 24.6666 2.67334C25.1269 2.67334 25.5 3.04644 25.5 3.50667V4.55663Z" fill="white"/>
<path d="M25.5 24.5566L26.4093 24.0317C27.3715 23.4761 28.2048 24.9195 27.2426 25.475L26.3333 26L27.2426 26.525C28.2048 27.0805 27.3715 28.5239 26.4093 27.9684L25.5 27.4434V28.4933C25.5 28.9536 25.1269 29.3267 24.6666 29.3267C24.2064 29.3267 23.8333 28.9536 23.8333 28.4933V27.4434L22.924 27.9684C21.9618 28.5239 21.1284 27.0805 22.0907 26.525L23 26L22.0907 25.475C21.1284 24.9195 21.9618 23.4761 22.924 24.0317L23.8333 24.5566V23.5067C23.8333 23.0464 24.2064 22.6733 24.6666 22.6733C25.1269 22.6733 25.5 23.0464 25.5 23.5067V24.5566Z" fill="white"/>
<path d="M7.66669 16.6667H14.688C16.8971 16.6667 18.688 14.8759 18.688 12.6667C18.688 10.4576 16.8971 8.66675 14.688 8.66675C13.9454 8.66675 13.2303 8.87036 12.6087 9.24913C12.1371 9.53653 11.9877 10.1518 12.2751 10.6234C12.5625 11.0951 13.1778 11.2444 13.6494 10.957C13.9597 10.768 14.3151 10.6667 14.688 10.6667C15.7925 10.6667 16.688 11.5622 16.688 12.6667C16.688 13.7713 15.7925 14.6667 14.688 14.6667H7.66669C7.1144 14.6667 6.66669 15.1145 6.66669 15.6667C6.66669 16.219 7.1144 16.6667 7.66669 16.6667Z" fill="white"/>
<path d="M5 20.6667H15.3351C16.0714 20.6667 16.6684 21.2637 16.6684 22.0001C16.6684 22.7365 16.0714 23.3334 15.3351 23.3334C15.0862 23.3334 14.8497 23.2661 14.643 23.1401C14.1713 22.8527 13.556 23.0021 13.2686 23.4737C12.9812 23.9453 13.1306 24.5606 13.6022 24.848C14.1203 25.1637 14.7164 25.3334 15.3351 25.3334C17.176 25.3334 18.6684 23.841 18.6684 22.0001C18.6684 20.1591 17.176 18.6667 15.3351 18.6667H5C4.44772 18.6667 4 19.1145 4 19.6667C4 20.219 4.44772 20.6667 5 20.6667Z" fill="white"/>
<path d="M19.6667 18.6667H22.0017C23.8427 18.6667 25.3351 17.1743 25.3351 15.3333C25.3351 13.4924 23.8427 12 22.0017 12C21.3831 12 20.7869 12.1697 20.2689 12.4854C19.7973 12.7728 19.6479 13.3881 19.9353 13.8597C20.2227 14.3314 20.838 14.4807 21.3096 14.1933C21.5163 14.0673 21.7529 14 22.0017 14C22.7381 14 23.3351 14.597 23.3351 15.3333C23.3351 16.0697 22.7381 16.6667 22.0017 16.6667H19.6667C19.1144 16.6667 18.6667 17.1144 18.6667 17.6667C18.6667 18.219 19.1144 18.6667 19.6667 18.6667Z" fill="white"/>
</svg>
