<svg width="32" height="32" viewBox="0 0 32 32" fill="none" xmlns="http://www.w3.org/2000/svg">
<path fill-rule="evenodd" clip-rule="evenodd" d="M16 18C17.1046 18 18 17.1046 18 16C18 14.8954 17.1046 14 16 14C14.8954 14 14 14.8954 14 16C14 17.1046 14.8954 18 16 18Z" fill="white"/>
<path fill-rule="evenodd" clip-rule="evenodd" d="M20.3334 13.3333C21.2538 13.3333 22 12.5871 22 11.6667C22 10.7462 21.2538 10 20.3334 10C19.4129 10 18.6667 10.7462 18.6667 11.6667C18.6667 12.5871 19.4129 13.3333 20.3334 13.3333Z" fill="white"/>
<path fill-rule="evenodd" clip-rule="evenodd" d="M11.6667 13.3333C12.5871 13.3333 13.3333 12.5871 13.3333 11.6667C13.3333 10.7462 12.5871 10 11.6667 10C10.7462 10 10 10.7462 10 11.6667C10 12.5871 10.7462 13.3333 11.6667 13.3333Z" fill="white"/>
<path fill-rule="evenodd" clip-rule="evenodd" d="M8.00002 17.3334C8.7364 17.3334 9.33335 16.7365 9.33335 16.0001C9.33335 15.2637 8.7364 14.6667 8.00002 14.6667C7.26364 14.6667 6.66669 15.2637 6.66669 16.0001C6.66669 16.7365 7.26364 17.3334 8.00002 17.3334Z" fill="white"/>
<path fill-rule="evenodd" clip-rule="evenodd" d="M3.66669 13.3333C4.21897 13.3333 4.66669 12.8855 4.66669 12.3333C4.66669 11.781 4.21897 11.3333 3.66669 11.3333C3.1144 11.3333 2.66669 11.781 2.66669 12.3333C2.66669 12.8855 3.1144 13.3333 3.66669 13.3333Z" fill="white"/>
<path fill-rule="evenodd" clip-rule="evenodd" d="M3.66669 21.3333C4.21897 21.3333 4.66669 20.8855 4.66669 20.3333C4.66669 19.781 4.21897 19.3333 3.66669 19.3333C3.1144 19.3333 2.66669 19.781 2.66669 20.3333C2.66669 20.8855 3.1144 21.3333 3.66669 21.3333Z" fill="white"/>
<path fill-rule="evenodd" clip-rule="evenodd" d="M27.6667 13.3333C28.219 13.3333 28.6667 12.8855 28.6667 12.3333C28.6667 11.781 28.219 11.3333 27.6667 11.3333C27.1144 11.3333 26.6667 11.781 26.6667 12.3333C26.6667 12.8855 27.1144 13.3333 27.6667 13.3333Z" fill="white"/>
<path fill-rule="evenodd" clip-rule="evenodd" d="M27.6667 21.3333C28.219 21.3333 28.6667 20.8855 28.6667 20.3333C28.6667 19.781 28.219 19.3333 27.6667 19.3333C27.1144 19.3333 26.6667 19.781 26.6667 20.3333C26.6667 20.8855 27.1144 21.3333 27.6667 21.3333Z" fill="white"/>
<path fill-rule="evenodd" clip-rule="evenodd" d="M24 17.3334C24.7364 17.3334 25.3334 16.7365 25.3334 16.0001C25.3334 15.2637 24.7364 14.6667 24 14.6667C23.2636 14.6667 22.6667 15.2637 22.6667 16.0001C22.6667 16.7365 23.2636 17.3334 24 17.3334Z" fill="white"/>
<path fill-rule="evenodd" clip-rule="evenodd" d="M16 9.33341C16.7364 9.33341 17.3334 8.73646 17.3334 8.00008C17.3334 7.2637 16.7364 6.66675 16 6.66675C15.2636 6.66675 14.6667 7.2637 14.6667 8.00008C14.6667 8.73646 15.2636 9.33341 16 9.33341Z" fill="white"/>
<path fill-rule="evenodd" clip-rule="evenodd" d="M24 9.33341C24.7364 9.33341 25.3334 8.73646 25.3334 8.00008C25.3334 7.2637 24.7364 6.66675 24 6.66675C23.2636 6.66675 22.6667 7.2637 22.6667 8.00008C22.6667 8.73646 23.2636 9.33341 24 9.33341Z" fill="white"/>
<path fill-rule="evenodd" clip-rule="evenodd" d="M8.00002 9.33341C8.7364 9.33341 9.33335 8.73646 9.33335 8.00008C9.33335 7.2637 8.7364 6.66675 8.00002 6.66675C7.26364 6.66675 6.66669 7.2637 6.66669 8.00008C6.66669 8.73646 7.26364 9.33341 8.00002 9.33341Z" fill="white"/>
<path fill-rule="evenodd" clip-rule="evenodd" d="M19.6667 4.66675C20.219 4.66675 20.6667 4.21903 20.6667 3.66675C20.6667 3.11446 20.219 2.66675 19.6667 2.66675C19.1144 2.66675 18.6667 3.11446 18.6667 3.66675C18.6667 4.21903 19.1144 4.66675 19.6667 4.66675Z" fill="white"/>
<path fill-rule="evenodd" clip-rule="evenodd" d="M12.3333 4.66675C12.8856 4.66675 13.3333 4.21903 13.3333 3.66675C13.3333 3.11446 12.8856 2.66675 12.3333 2.66675C11.781 2.66675 11.3333 3.11446 11.3333 3.66675C11.3333 4.21903 11.781 4.66675 12.3333 4.66675Z" fill="white"/>
<path fill-rule="evenodd" clip-rule="evenodd" d="M19.6667 28.6667C20.219 28.6667 20.6667 28.219 20.6667 27.6667C20.6667 27.1145 20.219 26.6667 19.6667 26.6667C19.1144 26.6667 18.6667 27.1145 18.6667 27.6667C18.6667 28.219 19.1144 28.6667 19.6667 28.6667Z" fill="white"/>
<path fill-rule="evenodd" clip-rule="evenodd" d="M12.3333 28.6667C12.8856 28.6667 13.3333 28.219 13.3333 27.6667C13.3333 27.1145 12.8856 26.6667 12.3333 26.6667C11.781 26.6667 11.3333 27.1145 11.3333 27.6667C11.3333 28.219 11.781 28.6667 12.3333 28.6667Z" fill="white"/>
<path fill-rule="evenodd" clip-rule="evenodd" d="M24 25.3334C24.7364 25.3334 25.3334 24.7365 25.3334 24.0001C25.3334 23.2637 24.7364 22.6667 24 22.6667C23.2636 22.6667 22.6667 23.2637 22.6667 24.0001C22.6667 24.7365 23.2636 25.3334 24 25.3334Z" fill="white"/>
<path fill-rule="evenodd" clip-rule="evenodd" d="M8.00002 25.3334C8.7364 25.3334 9.33335 24.7365 9.33335 24.0001C9.33335 23.2637 8.7364 22.6667 8.00002 22.6667C7.26364 22.6667 6.66669 23.2637 6.66669 24.0001C6.66669 24.7365 7.26364 25.3334 8.00002 25.3334Z" fill="white"/>
<path fill-rule="evenodd" clip-rule="evenodd" d="M20.3334 22.0001C21.2538 22.0001 22 21.2539 22 20.3334C22 19.4129 21.2538 18.6667 20.3334 18.6667C19.4129 18.6667 18.6667 19.4129 18.6667 20.3334C18.6667 21.2539 19.4129 22.0001 20.3334 22.0001Z" fill="white"/>
<path fill-rule="evenodd" clip-rule="evenodd" d="M11.6667 22.0001C12.5871 22.0001 13.3333 21.2539 13.3333 20.3334C13.3333 19.4129 12.5871 18.6667 11.6667 18.6667C10.7462 18.6667 10 19.4129 10 20.3334C10 21.2539 10.7462 22.0001 11.6667 22.0001Z" fill="white"/>
<path fill-rule="evenodd" clip-rule="evenodd" d="M16 25.3334C16.7364 25.3334 17.3334 24.7365 17.3334 24.0001C17.3334 23.2637 16.7364 22.6667 16 22.6667C15.2636 22.6667 14.6667 23.2637 14.6667 24.0001C14.6667 24.7365 15.2636 25.3334 16 25.3334Z" fill="white"/>
</svg>
