<svg width="32" height="32" viewBox="0 0 32 32" fill="none" xmlns="http://www.w3.org/2000/svg">
<path d="M17 15.3333H18.6879C20.8971 15.3333 22.6879 13.5424 22.6879 11.3333C22.6879 9.12411 20.8971 7.33325 18.6879 7.33325C17.9454 7.33325 17.2302 7.53686 16.6087 7.91564C16.137 8.20303 15.9877 8.81833 16.2751 9.28995C16.5625 9.76157 17.1778 9.91091 17.6494 9.62352C17.9596 9.43447 18.3151 9.33325 18.6879 9.33325C19.7925 9.33325 20.6879 10.2287 20.6879 11.3333C20.6879 12.4378 19.7925 13.3333 18.6879 13.3333H17C16.4477 13.3333 16 13.781 16 14.3333C16 14.8855 16.4477 15.3333 17 15.3333Z" fill="white"/>
<path fill-rule="evenodd" clip-rule="evenodd" d="M10.6667 14.3333C10.6667 13.781 11.1144 13.3333 11.6667 13.3333H13.6667C14.219 13.3333 14.6667 13.781 14.6667 14.3333C14.6667 14.8855 14.219 15.3333 13.6667 15.3333H11.6667C11.1144 15.3333 10.6667 14.8855 10.6667 14.3333Z" fill="white"/>
<path fill-rule="evenodd" clip-rule="evenodd" d="M9.33331 18.3333C9.33331 17.781 9.78103 17.3333 10.3333 17.3333H11C11.5523 17.3333 12 17.781 12 18.3333C12 18.8855 11.5523 19.3333 11 19.3333H10.3333C9.78103 19.3333 9.33331 18.8855 9.33331 18.3333Z" fill="white"/>
<path d="M14.3333 19.3333H19.335C20.0714 19.3333 20.6684 19.9302 20.6684 20.6666C20.6684 21.403 20.0714 21.9999 19.335 21.9999C19.0862 21.9999 18.8496 21.9326 18.6429 21.8066C18.1713 21.5192 17.556 21.6686 17.2686 22.1402C16.9812 22.6118 17.1306 23.2271 17.6022 23.5145C18.1202 23.8302 18.7164 23.9999 19.335 23.9999C21.176 23.9999 22.6684 22.5075 22.6684 20.6666C22.6684 18.8256 21.176 17.3333 19.335 17.3333H14.3333C13.781 17.3333 13.3333 17.781 13.3333 18.3333C13.3333 18.8855 13.781 19.3333 14.3333 19.3333Z" fill="white"/>
<path fill-rule="evenodd" clip-rule="evenodd" d="M4.33331 24.6667C4.8856 24.6667 5.33331 24.219 5.33331 23.6667C5.33331 23.1145 4.8856 22.6667 4.33331 22.6667C3.78103 22.6667 3.33331 23.1145 3.33331 23.6667C3.33331 24.219 3.78103 24.6667 4.33331 24.6667Z" fill="white"/>
<path fill-rule="evenodd" clip-rule="evenodd" d="M6.66665 17.3334C7.40303 17.3334 7.99998 16.7365 7.99998 16.0001C7.99998 15.2637 7.40303 14.6667 6.66665 14.6667C5.93027 14.6667 5.33331 15.2637 5.33331 16.0001C5.33331 16.7365 5.93027 17.3334 6.66665 17.3334Z" fill="white"/>
<path d="M23.6667 17.3334H26.0017C27.8427 17.3334 29.3351 15.841 29.3351 14.0001C29.3351 12.1591 27.8427 10.6667 26.0017 10.6667C25.3831 10.6667 24.7869 10.8365 24.2689 11.1522C23.7973 11.4396 23.6479 12.0549 23.9353 12.5265C24.2227 12.9981 24.838 13.1474 25.3096 12.8601C25.5163 12.7341 25.7529 12.6667 26.0017 12.6667C26.7381 12.6667 27.3351 13.2637 27.3351 14.0001C27.3351 14.7365 26.7381 15.3334 26.0017 15.3334H23.6667C23.1144 15.3334 22.6667 15.7811 22.6667 16.3334C22.6667 16.8857 23.1144 17.3334 23.6667 17.3334Z" fill="white"/>
<path fill-rule="evenodd" clip-rule="evenodd" d="M8.99998 12.0001C9.92045 12.0001 10.6666 11.2539 10.6666 10.3334C10.6666 9.41294 9.92045 8.66675 8.99998 8.66675C8.07951 8.66675 7.33331 9.41294 7.33331 10.3334C7.33331 11.2539 8.07951 12.0001 8.99998 12.0001Z" fill="white"/>
<path fill-rule="evenodd" clip-rule="evenodd" d="M3.66669 12C4.21897 12 4.66669 11.5523 4.66669 11C4.66669 10.4477 4.21897 10 3.66669 10C3.1144 10 2.66669 10.4477 2.66669 11C2.66669 11.5523 3.1144 12 3.66669 12Z" fill="white"/>
<path fill-rule="evenodd" clip-rule="evenodd" d="M9.33333 23.9999C10.0697 23.9999 10.6667 23.403 10.6667 22.6666C10.6667 21.9302 10.0697 21.3333 9.33333 21.3333C8.59695 21.3333 8 21.9302 8 22.6666C8 23.403 8.59695 23.9999 9.33333 23.9999Z" fill="white"/>
<path fill-rule="evenodd" clip-rule="evenodd" d="M3 19.3333C3.55228 19.3333 4 18.8855 4 18.3333C4 17.781 3.55228 17.3333 3 17.3333C2.44772 17.3333 2 17.781 2 18.3333C2 18.8855 2.44772 19.3333 3 19.3333Z" fill="white"/>
</svg>
