<svg width="32" height="32" viewBox="0 0 32 32" fill="none" xmlns="http://www.w3.org/2000/svg">
<path fill-rule="evenodd" clip-rule="evenodd" d="M21.3009 20C22.1378 18.8858 22.6337 17.5008 22.6337 16C22.6337 12.3181 19.649 9.33337 15.9671 9.33337C12.5102 9.33337 9.6678 11.9645 9.33331 15.3334H13.3004C15.1413 15.3334 16.6337 16.8258 16.6337 18.6667C16.6337 19.1408 16.5348 19.5917 16.3564 20H21.3009V20Z" fill="white"/>
<path d="M22.2659 3.47089L20.6993 7.25297C20.1891 8.48481 18.3413 7.71944 18.8516 6.4876L20.4182 2.70552C20.9284 1.47368 22.7762 2.23905 22.2659 3.47089Z" fill="white"/>
<path d="M29.288 11.5754L25.5059 13.142C24.2741 13.6522 23.5087 11.8044 24.7406 11.2942L28.5226 9.72761C29.7545 9.21737 30.5198 11.0651 29.288 11.5754Z" fill="white"/>
<path d="M28.5226 22.2716L24.7406 20.705C23.5087 20.1948 24.2741 18.347 25.5059 18.8573L29.288 20.4238C30.5198 20.9341 29.7545 22.7818 28.5226 22.2716Z" fill="white"/>
<path d="M6.48644 13.1438L2.70436 11.5772C1.47252 11.067 2.23789 9.2192 3.46973 9.72945L7.25181 11.296C8.48365 11.8063 7.71828 13.654 6.48644 13.1438Z" fill="white"/>
<path d="M11.5698 2.70552L13.1363 6.4876C13.6466 7.71944 11.7988 8.48481 11.2886 7.25297L9.722 3.47089C9.21175 2.23905 11.0595 1.47368 11.5698 2.70552Z" fill="white"/>
<path d="M4 19.3334H13.3333C13.8856 19.3334 14.3333 18.8857 14.3333 18.3334C14.3333 17.7811 13.8856 17.3334 13.3333 17.3334H4C3.44772 17.3334 3 17.7811 3 18.3334C3 18.8857 3.44772 19.3334 4 19.3334Z" fill="white"/>
<path d="M4 23.3334H18.6667C19.219 23.3334 19.6667 22.8857 19.6667 22.3334C19.6667 21.7811 19.219 21.3334 18.6667 21.3334H4C3.44772 21.3334 3 21.7811 3 22.3334C3 22.8857 3.44772 23.3334 4 23.3334Z" fill="white"/>
<path d="M4 27.3334H24C24.5523 27.3334 25 26.8857 25 26.3334C25 25.7811 24.5523 25.3334 24 25.3334H4C3.44772 25.3334 3 25.7811 3 26.3334C3 26.8857 3.44772 27.3334 4 27.3334Z" fill="white"/>
</svg>
