<svg width="32" height="32" viewBox="0 0 32 32" fill="none" xmlns="http://www.w3.org/2000/svg">
<path fill-rule="evenodd" clip-rule="evenodd" d="M6.25557 21.5387C4.40817 20.5347 2.93882 18.9232 2.11572 16.9723C3.2268 17.4411 4.44795 17.7002 5.72964 17.7002C10.8681 17.7002 15.0336 13.5347 15.0336 8.39626C15.0336 7.11458 14.7744 5.89343 14.3057 4.78235C17.6491 6.19296 19.9957 9.50162 19.9957 13.3584C19.9957 14.036 19.9233 14.6968 19.7857 15.3333H17.3932C15.5523 15.3333 14.0599 16.8257 14.0599 18.6666C14.0599 18.8949 14.0828 19.1179 14.1266 19.3333H9.39322C7.94817 19.3333 6.71788 20.2528 6.25557 21.5387V21.5387Z" fill="white"/>
<path d="M17.3333 19.3334H26.6666C27.2189 19.3334 27.6666 18.8857 27.6666 18.3334C27.6666 17.7811 27.2189 17.3334 26.6666 17.3334H17.3333C16.781 17.3334 16.3333 17.7811 16.3333 18.3334C16.3333 18.8857 16.781 19.3334 17.3333 19.3334Z" fill="white"/>
<path d="M9.33331 23.3334H28C28.5523 23.3334 29 22.8857 29 22.3334C29 21.7811 28.5523 21.3334 28 21.3334H9.33331C8.78103 21.3334 8.33331 21.7811 8.33331 22.3334C8.33331 22.8857 8.78103 23.3334 9.33331 23.3334Z" fill="white"/>
<path d="M5.33331 27.3334H28C28.5523 27.3334 29 26.8857 29 26.3334C29 25.7811 28.5523 25.3334 28 25.3334H5.33331C4.78103 25.3334 4.33331 25.7811 4.33331 26.3334C4.33331 26.8857 4.78103 27.3334 5.33331 27.3334Z" fill="white"/>
</svg>
