<svg width="32" height="32" viewBox="0 0 32 32" fill="none" xmlns="http://www.w3.org/2000/svg">
<path fill-rule="evenodd" clip-rule="evenodd" d="M9.33333 18.6667C6.38781 18.6667 4 16.2789 4 13.3333C4 10.3878 6.38781 8 9.33333 8C9.88887 8 10.4246 8.08494 10.9282 8.24254C11.6795 5.78633 13.9645 4 16.6667 4C19.9804 4 22.6667 6.68629 22.6667 10C22.6667 10.3128 22.6427 10.6199 22.5966 10.9198C23.0333 10.7561 23.5062 10.6667 24 10.6667C26.2091 10.6667 28 12.4575 28 14.6667C28 16.8758 26.2091 18.6667 24 18.6667H9.33333Z" fill="white"/>
<path d="M7.41394 20.603L5.41394 25.2775C5.19669 25.7852 5.4322 26.373 5.93996 26.5902C6.44772 26.8075 7.03546 26.572 7.25271 26.0642L9.25271 21.3897C9.46996 20.882 9.23445 20.2942 8.72669 20.077C8.21893 19.8597 7.63119 20.0952 7.41394 20.603Z" fill="white"/>
<path d="M12.7473 20.603L10.7473 25.2775C10.5301 25.7852 10.7656 26.373 11.2733 26.5902C11.7811 26.8075 12.3688 26.572 12.5861 26.0642L14.5861 21.3897C14.8033 20.882 14.5678 20.2942 14.0601 20.077C13.5523 19.8597 12.9646 20.0952 12.7473 20.603Z" fill="white"/>
<path d="M18.0806 20.603L16.0806 25.2775C15.8634 25.7852 16.0989 26.373 16.6066 26.5902C17.1144 26.8075 17.7021 26.572 17.9194 26.0642L19.9194 21.3897C20.1366 20.882 19.9011 20.2942 19.3934 20.077C18.8856 19.8597 18.2979 20.0952 18.0806 20.603Z" fill="white"/>
<path d="M23.4139 20.603L21.4139 25.2775C21.1967 25.7852 21.4322 26.373 21.94 26.5902C22.4477 26.8075 23.0355 26.572 23.2527 26.0642L25.2527 21.3897C25.47 20.882 25.2344 20.2942 24.7267 20.077C24.2189 19.8597 23.6312 20.0952 23.4139 20.603Z" fill="white"/>
</svg>
