<svg width="32" height="32" viewBox="0 0 32 32" fill="none" xmlns="http://www.w3.org/2000/svg">
<path fill-rule="evenodd" clip-rule="evenodd" d="M9.33333 18.6667C6.38781 18.6667 4 16.2789 4 13.3333C4 10.3878 6.38781 8 9.33333 8C9.88887 8 10.4246 8.08494 10.9282 8.24254C11.6795 5.78633 13.9645 4 16.6667 4C19.9804 4 22.6667 6.68629 22.6667 10C22.6667 10.3128 22.6427 10.6199 22.5966 10.9198C23.0333 10.7561 23.5062 10.6667 24 10.6667C26.2091 10.6667 28 12.4575 28 14.6667C28 16.8758 26.2091 18.6667 24 18.6667H9.33333Z" fill="white"/>
<path fill-rule="evenodd" clip-rule="evenodd" d="M12.1667 21.8899L13.076 21.3649C14.0382 20.8093 14.8715 22.2527 13.9093 22.8083L13 23.3333L13.9093 23.8582C14.8715 24.4138 14.0382 25.8572 13.076 25.3016L12.1667 24.7766V25.8266C12.1667 26.2868 11.7936 26.6599 11.3333 26.6599C10.8731 26.6599 10.5 26.2868 10.5 25.8266V24.7766L9.5907 25.3016C8.62845 25.8572 7.79512 24.4138 8.75737 23.8582L9.66666 23.3333L8.75737 22.8083C7.79512 22.2527 8.62845 20.8093 9.5907 21.3649L10.5 21.8899V20.8399C10.5 20.3797 10.8731 20.0066 11.3333 20.0066C11.7936 20.0066 12.1667 20.3797 12.1667 20.8399V21.8899V21.8899Z" fill="white"/>
<path fill-rule="evenodd" clip-rule="evenodd" d="M21.5 24.5566L22.4093 24.0317C23.3715 23.4761 24.2048 24.9195 23.2426 25.475L22.3333 26L23.2426 26.525C24.2048 27.0805 23.3715 28.5239 22.4093 27.9684L21.5 27.4434V28.4933C21.5 28.9536 21.1269 29.3267 20.6666 29.3267C20.2064 29.3267 19.8333 28.9536 19.8333 28.4933V27.4434L18.924 27.9684C17.9618 28.5239 17.1284 27.0805 18.0907 26.525L19 26L18.0907 25.475C17.1284 24.9195 17.9618 23.4761 18.924 24.0317L19.8333 24.5566V23.5067C19.8333 23.0464 20.2064 22.6733 20.6666 22.6733C21.1269 22.6733 21.5 23.0464 21.5 23.5067V24.5566Z" fill="white"/>
</svg>
