<svg width="32" height="32" viewBox="0 0 32 32" fill="none" xmlns="http://www.w3.org/2000/svg">
<path d="M21.5 23.2231L22.4093 22.6982C23.3715 22.1426 24.2048 23.586 23.2426 24.1415L22.3333 24.6665L23.2426 25.1915C24.2048 25.747 23.3715 27.1904 22.4093 26.6349L21.5 26.1099V27.1598C21.5 27.6201 21.1269 27.9932 20.6666 27.9932C20.2064 27.9932 19.8333 27.6201 19.8333 27.1598V26.1099L18.924 26.6349C17.9618 27.1904 17.1284 25.747 18.0907 25.1915L19 24.6665L18.0907 24.1415C17.1284 23.586 17.9618 22.1426 18.924 22.6982L19.8333 23.2231V22.1732C19.8333 21.7129 20.2064 21.3398 20.6666 21.3398C21.1269 21.3398 21.5 21.7129 21.5 22.1732V23.2231Z" fill="white"/>
<path fill-rule="evenodd" clip-rule="evenodd" d="M9.33333 18.6667C6.38781 18.6667 4 16.2789 4 13.3333C4 10.3878 6.38781 8 9.33333 8C9.88887 8 10.4246 8.08494 10.9282 8.24254C11.6795 5.78633 13.9645 4 16.6667 4C19.9804 4 22.6667 6.68629 22.6667 10C22.6667 10.3128 22.6427 10.6199 22.5966 10.9198C23.0333 10.7561 23.5062 10.6667 24 10.6667C26.2091 10.6667 28 12.4575 28 14.6667C28 16.8758 26.2091 18.6667 24 18.6667H9.33333Z" fill="white"/>
<path d="M6.81138 21.9508L5.41138 25.2834C5.19747 25.7926 5.43684 26.3788 5.94602 26.5927C6.4552 26.8066 7.04138 26.5672 7.25528 26.0581L8.65528 22.7255C8.86918 22.2163 8.62981 21.6301 8.12063 21.4162C7.61145 21.2023 7.02528 21.4417 6.81138 21.9508Z" fill="white"/>
<path d="M13.4781 20.6176L12.0781 23.9502C11.8642 24.4594 12.1035 25.0455 12.6127 25.2595C13.1219 25.4734 13.7081 25.234 13.922 24.7248L15.322 21.3922C15.5359 20.883 15.2965 20.2968 14.7873 20.0829C14.2781 19.869 13.692 20.1084 13.4781 20.6176Z" fill="white"/>
</svg>
