<svg width="32" height="32" viewBox="0 0 32 32" fill="none" xmlns="http://www.w3.org/2000/svg">
<path fill-rule="evenodd" clip-rule="evenodd" d="M9.33333 18.6667C6.38781 18.6667 4 16.2789 4 13.3333C4 10.3878 6.38781 8 9.33333 8C9.88887 8 10.4246 8.08494 10.9282 8.24254C11.6795 5.78633 13.9645 4 16.6667 4C19.9804 4 22.6667 6.68629 22.6667 10C22.6667 10.3128 22.6427 10.6199 22.5966 10.9198C23.0333 10.7561 23.5062 10.6667 24 10.6667C26.2091 10.6667 28 12.4575 28 14.6667C28 16.8758 26.2091 18.6667 24 18.6667H9.33333Z" fill="white"/>
<path fill-rule="evenodd" clip-rule="evenodd" d="M7.80472 20.4714L10.1952 22.8619C10.4556 23.1223 10.4556 23.5444 10.1952 23.8047L7.80472 26.1952C7.54437 26.4556 7.12226 26.4556 6.86191 26.1952L4.47139 23.8047C4.21104 23.5444 4.21104 23.1223 4.47139 22.8619L6.86191 20.4714C7.12226 20.211 7.54437 20.211 7.80472 20.4714Z" fill="white"/>
<path fill-rule="evenodd" clip-rule="evenodd" d="M23.8047 20.4714L26.1952 22.8619C26.4556 23.1223 26.4556 23.5444 26.1952 23.8047L23.8047 26.1952C23.5444 26.4556 23.1223 26.4556 22.8619 26.1952L20.4714 23.8047C20.211 23.5444 20.211 23.1223 20.4714 22.8619L22.8619 20.4714C23.1223 20.211 23.5444 20.211 23.8047 20.4714Z" fill="white"/>
<path fill-rule="evenodd" clip-rule="evenodd" d="M15.8047 24.4714L18.1952 26.8619C18.4556 27.1223 18.4556 27.5444 18.1952 27.8047L15.8047 30.1952C15.5444 30.4556 15.1223 30.4556 14.8619 30.1952L12.4714 27.8047C12.211 27.5444 12.211 27.1223 12.4714 26.8619L14.8619 24.4714C15.1223 24.211 15.5444 24.211 15.8047 24.4714Z" fill="white"/>
</svg>
