<svg width="32" height="32" viewBox="0 0 32 32" fill="none" xmlns="http://www.w3.org/2000/svg">
<path fill-rule="evenodd" clip-rule="evenodd" d="M17.6008 20L17.0804 21.3019L21.3333 21.3333L16 30.6667V24H12L12.8 20H17.6008Z" fill="white"/>
<path fill-rule="evenodd" clip-rule="evenodd" d="M9.33333 18.6667C6.38781 18.6667 4 16.2789 4 13.3333C4 10.3878 6.38781 8 9.33333 8C9.88887 8 10.4246 8.08494 10.9282 8.24254C11.6795 5.78633 13.9645 4 16.6667 4C19.9804 4 22.6667 6.68629 22.6667 10C22.6667 10.3128 22.6427 10.6199 22.5966 10.9198C23.0333 10.7561 23.5062 10.6667 24 10.6667C26.2091 10.6667 28 12.4575 28 14.6667C28 16.8758 26.2091 18.6667 24 18.6667H9.33333Z" fill="white"/>
<path fill-rule="evenodd" clip-rule="evenodd" d="M6.47141 20.4714L8.86193 22.8619C9.12228 23.1223 9.12228 23.5444 8.86193 23.8047L6.47141 26.1952C6.21106 26.4556 5.78895 26.4556 5.5286 26.1952L3.13807 23.8047C2.87772 23.5444 2.87772 23.1223 3.13807 22.8619L5.5286 20.4714C5.78895 20.211 6.21106 20.211 6.47141 20.4714Z" fill="white"/>
<path fill-rule="evenodd" clip-rule="evenodd" d="M26.4714 21.8048L28.8619 24.1953C29.1223 24.4556 29.1223 24.8777 28.8619 25.1381L26.4714 27.5286C26.2111 27.789 25.7889 27.789 25.5286 27.5286L23.1381 25.1381C22.8777 24.8777 22.8777 24.4556 23.1381 24.1953L25.5286 21.8048C25.7889 21.5444 26.2111 21.5444 26.4714 21.8048Z" fill="white"/>
</svg>
