<svg width="32" height="32" viewBox="0 0 32 32" fill="none" xmlns="http://www.w3.org/2000/svg">
<path fill-rule="evenodd" clip-rule="evenodd" d="M9.33333 18.6667C6.38781 18.6667 4 16.2789 4 13.3333C4 10.3878 6.38781 8 9.33333 8C9.88887 8 10.4246 8.08494 10.9282 8.24254C11.6795 5.78633 13.9645 4 16.6667 4C19.9804 4 22.6667 6.68629 22.6667 10C22.6667 10.3128 22.6427 10.6199 22.5966 10.9198C23.0333 10.7561 23.5062 10.6667 24 10.6667C26.2091 10.6667 28 12.4575 28 14.6667C28 16.8758 26.2091 18.6667 24 18.6667H9.33333Z" fill="white"/>
<path d="M10.8114 21.9508L9.41138 25.2834C9.19747 25.7926 9.43684 26.3788 9.94602 26.5927C10.4552 26.8066 11.0414 26.5672 11.2553 26.0581L12.6553 22.7255C12.8692 22.2163 12.6298 21.6301 12.1206 21.4162C11.6115 21.2023 11.0253 21.4417 10.8114 21.9508Z" fill="white"/>
<path d="M17.4781 20.6175L16.0781 23.9501C15.8642 24.4593 16.1035 25.0454 16.6127 25.2593C17.1219 25.4732 17.7081 25.2339 17.922 24.7247L19.322 21.3921C19.5359 20.8829 19.2965 20.2967 18.7873 20.0828C18.2781 19.8689 17.692 20.1083 17.4781 20.6175Z" fill="white"/>
</svg>
