<svg width="32" height="32" viewBox="0 0 32 32" fill="none" xmlns="http://www.w3.org/2000/svg">
<path d="M16.1667 23.2233L17.076 22.6983C18.0382 22.1427 18.8715 23.5861 17.9093 24.1417L17 24.6666L17.9093 25.1916C18.8715 25.7472 18.0382 27.1905 17.076 26.635L16.1667 26.11V27.16C16.1667 27.6202 15.7936 27.9933 15.3333 27.9933C14.8731 27.9933 14.5 27.6202 14.5 27.16V26.11L13.5907 26.635C12.6285 27.1905 11.7951 25.7472 12.7574 25.1916L13.6667 24.6666L12.7574 24.1417C11.7951 23.5861 12.6285 22.1427 13.5907 22.6983L14.5 23.2233V22.1733C14.5 21.7131 14.8731 21.34 15.3333 21.34C15.7936 21.34 16.1667 21.7131 16.1667 22.1733V23.2233Z" fill="white"/>
<path fill-rule="evenodd" clip-rule="evenodd" d="M9.33333 20C6.38781 20 4 17.6122 4 14.6667C4 11.7212 6.38781 9.33337 9.33333 9.33337C9.88887 9.33337 10.4246 9.41831 10.9282 9.57591C11.6795 7.11971 13.9645 5.33337 16.6667 5.33337C19.9804 5.33337 22.6667 8.01967 22.6667 11.3334C22.6667 11.6461 22.6427 11.9533 22.5966 12.2532C23.0333 12.0895 23.5062 12 24 12C26.2091 12 28 13.7909 28 16C28 18.2092 26.2091 20 24 20H9.33333Z" fill="white"/>
</svg>
