<svg width="32" height="32" viewBox="0 0 32 32" fill="none" xmlns="http://www.w3.org/2000/svg">
<path fill-rule="evenodd" clip-rule="evenodd" d="M17.6008 20L17.0804 21.3019L21.3333 21.3333L16 30.6667V24H12L12.8 20H17.6008Z" fill="white"/>
<path fill-rule="evenodd" clip-rule="evenodd" d="M9.33333 18.6667C6.38781 18.6667 4 16.2789 4 13.3333C4 10.3878 6.38781 8 9.33333 8C9.88887 8 10.4246 8.08494 10.9282 8.24254C11.6795 5.78633 13.9645 4 16.6667 4C19.9804 4 22.6667 6.68629 22.6667 10C22.6667 10.3128 22.6427 10.6199 22.5966 10.9198C23.0333 10.7561 23.5062 10.6667 24 10.6667C26.2091 10.6667 28 12.4575 28 14.6667C28 16.8758 26.2091 18.6667 24 18.6667H9.33333Z" fill="white"/>
</svg>
