<svg width="32" height="32" viewBox="0 0 32 32" fill="none" xmlns="http://www.w3.org/2000/svg">
<path fill-rule="evenodd" clip-rule="evenodd" d="M8.16666 21.8899L9.07595 21.3649C10.0382 20.8093 10.8715 22.2527 9.90929 22.8083L9 23.3333L9.90929 23.8582C10.8715 24.4138 10.0382 25.8572 9.07595 25.3016L8.16666 24.7766V25.8266C8.16666 26.2868 7.79357 26.6599 7.33333 26.6599C6.87309 26.6599 6.5 26.2868 6.5 25.8266V24.7766L5.5907 25.3016C4.62845 25.8572 3.79512 24.4138 4.75737 23.8582L5.66666 23.3333L4.75737 22.8083C3.79512 22.2527 4.62845 20.8093 5.5907 21.3649L6.5 21.8899V20.8399C6.5 20.3797 6.87309 20.0066 7.33333 20.0066C7.79357 20.0066 8.16666 20.3797 8.16666 20.8399V21.8899Z" fill="white"/>
<path fill-rule="evenodd" clip-rule="evenodd" d="M24.1667 21.8899L25.076 21.3649C26.0382 20.8093 26.8715 22.2527 25.9093 22.8083L25 23.3333L25.9093 23.8582C26.8715 24.4138 26.0382 25.8572 25.076 25.3016L24.1667 24.7766V25.8266C24.1667 26.2868 23.7936 26.6599 23.3333 26.6599C22.8731 26.6599 22.5 26.2868 22.5 25.8266V24.7766L21.5907 25.3016C20.6285 25.8572 19.7951 24.4138 20.7574 23.8582L21.6667 23.3333L20.7574 22.8083C19.7951 22.2527 20.6285 20.8093 21.5907 21.3649L22.5 21.8899V20.8399C22.5 20.3797 22.8731 20.0066 23.3333 20.0066C23.7936 20.0066 24.1667 20.3797 24.1667 20.8399V21.8899Z" fill="white"/>
<path fill-rule="evenodd" clip-rule="evenodd" d="M16.1667 24.5566L17.076 24.0317C18.0382 23.4761 18.8715 24.9195 17.9093 25.475L17 26L17.9093 26.525C18.8715 27.0805 18.0382 28.5239 17.076 27.9684L16.1667 27.4434V28.4933C16.1667 28.9536 15.7936 29.3267 15.3333 29.3267C14.8731 29.3267 14.5 28.9536 14.5 28.4933V27.4434L13.5907 27.9684C12.6285 28.5239 11.7951 27.0805 12.7574 26.525L13.6667 26L12.7574 25.475C11.7951 24.9195 12.6285 23.4761 13.5907 24.0317L14.5 24.5566V23.5067C14.5 23.0464 14.8731 22.6733 15.3333 22.6733C15.7936 22.6733 16.1667 23.0464 16.1667 23.5067V24.5566Z" fill="white"/>
<path fill-rule="evenodd" clip-rule="evenodd" d="M9.33333 18.6667C6.38781 18.6667 4 16.2789 4 13.3333C4 10.3878 6.38781 8 9.33333 8C9.88887 8 10.4246 8.08494 10.9282 8.24254C11.6795 5.78633 13.9645 4 16.6667 4C19.9804 4 22.6667 6.68629 22.6667 10C22.6667 10.3128 22.6427 10.6199 22.5966 10.9198C23.0333 10.7561 23.5062 10.6667 24 10.6667C26.2091 10.6667 28 12.4575 28 14.6667C28 16.8758 26.2091 18.6667 24 18.6667H9.33333Z" fill="white"/>
</svg>
