<svg width="32" height="32" viewBox="0 0 32 32" fill="none" xmlns="http://www.w3.org/2000/svg">
<path fill-rule="evenodd" clip-rule="evenodd" d="M16.2675 20L15.7471 21.3019L20 21.3333L14.6667 30.6667V24H10.6667L11.4667 20H16.2675Z" fill="white"/>
<path d="M6.81138 21.9508L5.41138 25.2834C5.19747 25.7926 5.43684 26.3788 5.94602 26.5927C6.4552 26.8066 7.04138 26.5672 7.25528 26.0581L8.65528 22.7255C8.86918 22.2163 8.62981 21.6301 8.12063 21.4162C7.61145 21.2023 7.02528 21.4417 6.81138 21.9508Z" fill="white"/>
<path d="M22.8114 20.6175L21.4114 23.9501C21.1975 24.4593 21.4368 25.0454 21.946 25.2593C22.4552 25.4732 23.0414 25.2339 23.2553 24.7247L24.6553 21.3921C24.8692 20.8829 24.6298 20.2967 24.1206 20.0828C23.6115 19.8689 23.0253 20.1083 22.8114 20.6175Z" fill="white"/>
<path fill-rule="evenodd" clip-rule="evenodd" d="M9.33333 18.6667C6.38781 18.6667 4 16.2789 4 13.3333C4 10.3878 6.38781 8 9.33333 8C9.88887 8 10.4246 8.08494 10.9282 8.24254C11.6795 5.78633 13.9645 4 16.6667 4C19.9804 4 22.6667 6.68629 22.6667 10C22.6667 10.3128 22.6427 10.6199 22.5966 10.9198C23.0333 10.7561 23.5062 10.6667 24 10.6667C26.2091 10.6667 28 12.4575 28 14.6667C28 16.8758 26.2091 18.6667 24 18.6667H9.33333Z" fill="white"/>
</svg>
