<svg xmlns="http://www.w3.org/2000/svg" width="24" height="24" viewBox="0 0 24 24"><g fill="#FFF"><path d="M11.5 14h-5c-.828 0-1.5-.672-1.5-1.5s.672-1.5 1.5-1.5h1c.828 0 1.5-.672 1.5-1.5s-.672-1.5-1.5-1.5h-4c-.828 0-1.5-.672-1.5-1.5s.672-1.5 1.5-1.5h11c.828 0 1.5.672 1.5 1.5s-.672 1.5-1.5 1.5-1.5.672-1.5 1.5.672 1.5 1.5 1.5h5c.828 0 1.5.672 1.5 1.5s-.672 1.5-1.5 1.5h-1c-.828 0-1.5.672-1.5 1.5s.672 1.5 1.5 1.5 1.5.672 1.5 1.5-.672 1.5-1.5 1.5h-8c-.828 0-1.5-.672-1.5-1.5s.672-1.5 1.5-1.5h1c.828 0 1.5-.672 1.5-1.5s-.672-1.5-1.5-1.5z"/><rect width="4" height="3" x="3" y="17" rx="1.5"/><rect width="4" height="3" x="18" y="5" rx="1.5"/></g></svg>