<svg width="32" height="32" viewBox="0 0 32 32" fill="none" xmlns="http://www.w3.org/2000/svg">
<path fill-rule="evenodd" clip-rule="evenodd" d="M22.5033 24.3578C18.8687 24.5734 15.8779 24.1237 13.5156 23.0197C11.6377 21.7024 10.3583 20.2171 9.84487 18.8394C13.2728 20.3012 17.5756 20.6911 22.7312 20.0236C22.7526 20.0676 22.7746 20.1115 22.7972 20.1552C23.5221 21.559 23.5543 23.1969 22.5033 24.3578ZM21.7489 26.2937C21.8271 27.2401 22.4823 28.2744 23.7143 29.3968C20.9062 29.641 18.5392 29.2236 16.6133 28.1446C15.4274 27.4803 14.5821 26.5337 14.0772 25.3051C16.2623 26.0596 18.8217 26.3875 21.7489 26.2937ZM22.2315 18.1697C17.054 18.8108 12.897 18.3066 9.73208 16.6757C9.73408 16.6698 9.7361 16.6639 9.73815 16.658C9.63542 16.6127 9.53409 16.5658 9.43417 16.5172C8.64155 16.0822 7.91363 15.5737 7.24995 14.992C5.58382 13.3789 4.66669 11.1381 4.66669 8.7619C4.66669 5.43066 9.43278 4 16.0953 4C22.7577 4 27.5238 5.43066 27.5238 8.7619C27.5238 11.6825 26.1426 14.4003 23.6639 16.0132C23.2943 16.2537 22.4718 16.7333 22.2651 17.7905C22.2421 17.908 22.2312 18.0351 22.2315 18.1697ZM16.0953 9.07937C21.0045 9.07937 24.9841 8.22658 24.9841 7.17461C24.9841 6.12264 21.0045 5.26985 16.0953 5.26985C11.1861 5.26985 7.20637 6.12264 7.20637 7.17461C7.20637 8.22658 11.1861 9.07937 16.0953 9.07937Z" fill="white"/>
</svg>
