<svg width="32" height="32" viewBox="0 0 32 32" fill="none" xmlns="http://www.w3.org/2000/svg">
<path fill-rule="evenodd" clip-rule="evenodd" d="M21.2196 18.6667H12.1138C12.0401 18.4582 12 18.2338 12 18.0001C12 16.8955 12.8955 16.0001 14 16.0001C14.7364 16.0001 15.3334 15.4031 15.3334 14.6667C15.3334 13.9304 14.7364 13.3334 14 13.3334H11.3334C10.2288 13.3334 9.33335 12.438 9.33335 11.3334C9.33335 10.2288 10.2288 9.33341 11.3334 9.33341H12C12.7364 9.33341 13.3334 8.73646 13.3334 8.00008C13.3334 7.2637 12.7364 6.66675 12 6.66675H8.66669C7.56212 6.66675 6.66669 5.77132 6.66669 4.66675C6.66669 3.56218 7.56212 2.66675 8.66669 2.66675H26C27.1046 2.66675 28 3.56218 28 4.66675C28 5.77132 27.1046 6.66675 26 6.66675H18.6667C17.9303 6.66675 17.3334 7.2637 17.3334 8.00008C17.3334 8.73646 17.9303 9.33341 18.6667 9.33341H22C23.1046 9.33341 24 10.2288 24 11.3334C24 12.438 23.1046 13.3334 22 13.3334H19.3334C18.597 13.3334 18 13.9304 18 14.6667C18 15.4031 18.597 16.0001 19.3334 16.0001C20.4379 16.0001 21.3334 16.8955 21.3334 18.0001C21.3334 18.2338 21.2933 18.4582 21.2196 18.6667Z" fill="white"/>
<path fill-rule="evenodd" clip-rule="evenodd" d="M23.3283 21.1579L27.43 28.3359C27.6127 28.6556 27.5016 29.0628 27.1819 29.2455C27.0812 29.3031 26.9672 29.3333 26.8512 29.3333H6.4821C6.11391 29.3333 5.81543 29.0349 5.81543 28.6667C5.81543 28.5506 5.84571 28.4366 5.90327 28.3359L10.005 21.1579C10.2 21.2695 10.4259 21.3333 10.6666 21.3333H13.3333V22.6667C13.3333 23.403 13.9303 24 14.6666 24C15.403 24 16 23.403 16 22.6667V21.3333C16 20.597 16.5969 20 17.3333 20C18.0697 20 18.6666 20.597 18.6666 21.3333C18.6666 22.0697 19.2636 22.6667 20 22.6667C20.7364 22.6667 21.3333 22.0697 21.3333 21.3333H22.6666C22.9074 21.3333 23.1333 21.2695 23.3283 21.1579Z" fill="white"/>
<path fill-rule="evenodd" clip-rule="evenodd" d="M4.00002 21.3334C4.7364 21.3334 5.33335 20.7365 5.33335 20.0001C5.33335 19.2637 4.7364 18.6667 4.00002 18.6667C3.26364 18.6667 2.66669 19.2637 2.66669 20.0001C2.66669 20.7365 3.26364 21.3334 4.00002 21.3334Z" fill="white"/>
<path fill-rule="evenodd" clip-rule="evenodd" d="M2.66665 13.3334C3.40303 13.3334 3.99998 12.7365 3.99998 12.0001C3.99998 11.2637 3.40303 10.6667 2.66665 10.6667C1.93027 10.6667 1.33331 11.2637 1.33331 12.0001C1.33331 12.7365 1.93027 13.3334 2.66665 13.3334Z" fill="white"/>
<path fill-rule="evenodd" clip-rule="evenodd" d="M6.66665 17.3334C7.40303 17.3334 7.99998 16.7365 7.99998 16.0001C7.99998 15.2637 7.40303 14.6667 6.66665 14.6667C5.93027 14.6667 5.33331 15.2637 5.33331 16.0001C5.33331 16.7365 5.93027 17.3334 6.66665 17.3334Z" fill="white"/>
<path fill-rule="evenodd" clip-rule="evenodd" d="M28 21.3334C28.7364 21.3334 29.3334 20.7365 29.3334 20.0001C29.3334 19.2637 28.7364 18.6667 28 18.6667C27.2636 18.6667 26.6667 19.2637 26.6667 20.0001C26.6667 20.7365 27.2636 21.3334 28 21.3334Z" fill="white"/>
<path fill-rule="evenodd" clip-rule="evenodd" d="M29.3333 13.3334C30.0697 13.3334 30.6667 12.7365 30.6667 12.0001C30.6667 11.2637 30.0697 10.6667 29.3333 10.6667C28.597 10.6667 28 11.2637 28 12.0001C28 12.7365 28.597 13.3334 29.3333 13.3334Z" fill="white"/>
<path fill-rule="evenodd" clip-rule="evenodd" d="M25.3333 17.3334C26.0697 17.3334 26.6667 16.7365 26.6667 16.0001C26.6667 15.2637 26.0697 14.6667 25.3333 14.6667C24.597 14.6667 24 15.2637 24 16.0001C24 16.7365 24.597 17.3334 25.3333 17.3334Z" fill="white"/>
</svg>
