<?xml version="1.0" encoding="UTF-8" standalone="no"?>
<svg
   width="85.503929pt"
   height="83pt"
   version="1.1"
   viewBox="0 0 85.503929 83.000002"
   id="svg10"
   xmlns="http://www.w3.org/2000/svg"
   xmlns:svg="http://www.w3.org/2000/svg">
  <defs
     id="defs14" />
  <g
     id="g8"
     transform="translate(-116.67,-56.328)">
    <g
       id="g834"
       transform="matrix(0.18322296,0,0,0.18322296,95.293378,46.007417)">
      <path
         d="m 191.84,410.82 -65.512,65.508 32.996,33 420,-420 -32.996,-33 -102.42,102.42 c 0,0 0.004,0 0,0 l -214.12,214.12 z"
         id="path2" />
      <path
         d="m 340.67,116.67 c 31.875,0 61.188,10.051 85.242,27.086 l -33.73,33.734 c -15.145,-9 -32.738,-14.156 -51.512,-14.156 -40.207,0 -75.016,23.637 -91.867,58.066 -3.5273,-0.52344 -7.1328,-0.79297 -10.801,-0.79297 -41.238,0 -74.668,34.188 -74.668,76.363 0,29.836 16.73,55.676 41.121,68.242 l -34.008,34.008 c -32.633,-22.25 -53.777,-60.098 -53.777,-102.25 0,-61.973 45.695,-114.62 106.41,-122.12 27.156,-35.18 69.516,-58.184 117.59,-58.184 z"
         id="path4" />
      <path
         d="M 480.67,373.33 H 328.33 l -46.664,46.668 h 199.01 c 57.684,0 102.66,-47.531 102.66,-103.94 0,-53.598 -40.609,-99.18 -94.145,-103.59 l -46.277,46.277 c 0.28125,3.1602 0.42188,6.3555 0.42188,9.5859 0,1.7266 -0.0391,3.4414 -0.12109,5.1523 2.0352,-1.875 4.2031,-3.5977 6.4883,-5.1523 8.8711,-6.0312 19.52,-9.543 30.969,-9.543 3.0938,0 6.125,0.25391 9.082,0.74609 26.609,4.4414 46.918,28.059 46.918,56.523 0,31.633 -25.074,57.273 -56,57.273 z"
         id="path6" />
    </g>
  </g>
</svg>
