<?xml version="1.0" encoding="UTF-8" standalone="no"?>
<svg
   xmlns:dc="http://purl.org/dc/elements/1.1/"
   xmlns:cc="http://creativecommons.org/ns#"
   xmlns:rdf="http://www.w3.org/1999/02/22-rdf-syntax-ns#"
   xmlns:svg="http://www.w3.org/2000/svg"
   xmlns="http://www.w3.org/2000/svg"
   id="svg4935"
   viewBox="0 0 32.000001 32"
   version="1.1"
   height="40"
   width="40">
  <metadata
     id="metadata5129">
    <rdf:RDF>
      <cc:Work
         rdf:about="">
        <dc:format>image/svg+xml</dc:format>
        <dc:type
           rdf:resource="http://purl.org/dc/dcmitype/StillImage" />
        <dc:title></dc:title>
      </cc:Work>
    </rdf:RDF>
  </metadata>
  <defs
     id="defs4937">
    <symbol
       style="overflow:visible"
       overflow="visible"
       id="z">
      <path
         id="path4940"
         d="m 10.5,-3.1562 c 1.0508,0 1.8516,-0.37891 2.4062,-1.1406 0.55078,-0.76953 0.82812,-1.8828 0.82812,-3.3438 0,-1.457 -0.27734,-2.5664 -0.82812,-3.3281 -0.55469,-0.76953 -1.3555,-1.1562 -2.4062,-1.1562 -1.0547,0 -1.8594,0.38672 -2.4219,1.1562 -0.55469,0.77344 -0.82812,1.8828 -0.82812,3.3281 0,1.4492 0.27344,2.5586 0.82812,3.3281 0.5625,0.77344 1.3672,1.1562 2.4219,1.1562 z m -3.25,-9.9219 c 0.67578,-0.88281 1.4219,-1.5391 2.2344,-1.9688 0.82031,-0.42578 1.7656,-0.64062 2.8281,-0.64062 1.8945,0 3.4453,0.75 4.6562,2.25 1.207,1.5 1.8125,3.4336 1.8125,5.7969 0,2.3555 -0.60547,4.2812 -1.8125,5.7812 -1.2109,1.5 -2.7617,2.25 -4.6562,2.25 -1.0625,0 -2.0078,-0.21094 -2.8281,-0.625 C 8.6719,-0.6602 7.9258,-1.32032 7.25,-2.21882 l 0,2.2188 -4.8906,0 0,-21.281 4.8906,0 z" />
    </symbol>
    <symbol
       style="overflow:visible"
       overflow="visible"
       id="u">
      <path
         id="path4943"
         d="m 0.34375,-15.312 4.8906,0 4.125,10.391 3.5,-10.391 4.8906,0 -6.4375,16.766 c -0.64844,1.6953 -1.4023,2.8828 -2.2656,3.5625 -0.86719,0.6875 -2,1.0312 -3.4062,1.0312 l -2.8438,0 0,-3.2188 1.5312,0 c 0.83203,0 1.4375,-0.13672 1.8125,-0.40625 C 6.52336,2.16093 6.82024,1.69218 7.03117,1.01645 L 7.17179,0.59457 Z" />
    </symbol>
    <symbol
       style="overflow:visible"
       overflow="visible"
       id="n">
      <path
         id="path4946"
         d="m 10.047,-11.359 c 1.1016,0 1.8945,-0.20312 2.375,-0.60938 0.47656,-0.41406 0.71875,-1.0938 0.71875,-2.0312 0,-0.92578 -0.24219,-1.5859 -0.71875,-1.9844 -0.48047,-0.40625 -1.2734,-0.60938 -2.375,-0.60938 l -2.2188,0 0,5.2344 z m -2.2188,3.6406 0,7.7188 -5.25,0 0,-20.406 8.0312,0 c 2.6875,0 4.6562,0.45312 5.9062,1.3594 1.2578,0.89844 1.8906,2.3203 1.8906,4.2656 0,1.3555 -0.32812,2.4648 -0.98438,3.3281 -0.64844,0.86719 -1.625,1.5 -2.9375,1.9062 0.71875,0.16797 1.3594,0.54297 1.9219,1.125 0.57031,0.57422 1.1484,1.4492 1.7344,2.625 l 2.8594,5.7969 -5.6094,0 -2.4844,-5.0781 c -0.5,-1.0195 -1.0117,-1.7109 -1.5312,-2.0781 -0.51172,-0.375 -1.1953,-0.5625 -2.0469,-0.5625 z" />
    </symbol>
    <symbol
       style="overflow:visible"
       overflow="visible"
       id="c">
      <path
         id="path4949"
         d="m 9.6406,-12.188 c -1.0859,0 -1.9141,0.39062 -2.4844,1.1719 -0.57422,0.78125 -0.85938,1.9062 -0.85938,3.375 0,1.4688 0.28516,2.5938 0.85938,3.375 0.57031,0.77344 1.3984,1.1562 2.4844,1.1562 1.0625,0 1.875,-0.38281 2.4375,-1.1562 0.57031,-0.78125 0.85938,-1.9062 0.85938,-3.375 0,-1.4688 -0.28906,-2.5938 -0.85938,-3.375 -0.5625,-0.78125 -1.375,-1.1719 -2.4375,-1.1719 z m 0,-3.5 c 2.6328,0 4.6914,0.71484 6.1719,2.1406 1.4766,1.418 2.2188,3.3867 2.2188,5.9062 0,2.5117 -0.74219,4.4805 -2.2188,5.9062 C 14.332,-0.317 12.2734,0.39 9.6406,0.39 6.9922,0.39 4.9258,-0.31703 3.4375,-1.735 1.9453,-3.1608 1.2031,-5.1295 1.2031,-7.6412 c 0,-2.5195 0.74219,-4.4883 2.2344,-5.9062 1.4883,-1.4258 3.5547,-2.1406 6.2031,-2.1406 z" />
    </symbol>
    <symbol
       style="overflow:visible"
       overflow="visible"
       id="e">
      <path
         id="path4952"
         d="m 12.766,-13.078 0,-8.2031 4.9219,0 0,21.281 -4.9219,0 0,-2.2188 c -0.66797,0.90625 -1.4062,1.5703 -2.2188,1.9844 -0.8126,0.4141 -1.7578,0.625 -2.8281,0.625 -1.8867,0 -3.4336,-0.75 -4.6406,-2.25 -1.2109,-1.5 -1.8125,-3.4258 -1.8125,-5.7812 0,-2.3633 0.60156,-4.2969 1.8125,-5.7969 1.207,-1.5 2.7539,-2.25 4.6406,-2.25 1.0625,0 2,0.21484 2.8125,0.64062 0.82031,0.42969 1.5664,1.0859 2.2344,1.9688 z m -3.2188,9.9219 c 1.0391,0 1.8359,-0.37891 2.3906,-1.1406 0.55078,-0.76953 0.82812,-1.8828 0.82812,-3.3438 0,-1.457 -0.27734,-2.5664 -0.82812,-3.3281 -0.55469,-0.76953 -1.3516,-1.1562 -2.3906,-1.1562 -1.043,0 -1.8398,0.38672 -2.3906,1.1562 -0.55469,0.76172 -0.82812,1.8711 -0.82812,3.3281 0,1.4609 0.27344,2.5742 0.82812,3.3438 0.55078,0.76172 1.3477,1.1406 2.3906,1.1406 z" />
    </symbol>
    <symbol
       style="overflow:visible"
       overflow="visible"
       id="b">
      <path
         id="path4955"
         d="m 13.734,-11.141 c -0.4375,-0.19531 -0.87109,-0.34375 -1.2969,-0.4375 -0.41797,-0.10156 -0.83984,-0.15625 -1.2656,-0.15625 -1.2617,0 -2.2305,0.40625 -2.9062,1.2188 -0.67969,0.80469 -1.0156,1.9531 -1.0156,3.4531 l 0,7.0625 -4.8906,0 0,-15.312 4.8906,0 0,2.5156 c 0.625,-1 1.3438,-1.7266 2.1562,-2.1875 0.82031,-0.46875 1.8008,-0.70312 2.9375,-0.70312 0.16406,0 0.34375,0.01172 0.53125,0.03125 0.19531,0.01172 0.47656,0.03906 0.84375,0.07813 z" />
    </symbol>
    <symbol
       style="overflow:visible"
       overflow="visible"
       id="f">
      <path
         id="path4958"
         d="m 2.3594,-15.312 4.8906,0 L 7.25,0 2.3594,0 Z m 0,-5.9688 4.8906,0 0,4 -4.8906,0 z" />
    </symbol>
    <symbol
       style="overflow:visible"
       overflow="visible"
       id="m">
      <path
         id="path4961"
         d="m 12.766,-2.5938 c -0.66797,0.88672 -1.4062,1.543 -2.2188,1.9688 C 9.7347,-0.20703 8.7894,0 7.7191,0 5.8519,0 4.3129,-0.73438 3.0941,-2.2031 1.8753,-3.6797 1.266,-5.5547 1.266,-7.8281 c 0,-2.2891 0.60938,-4.1641 1.8281,-5.625 1.2188,-1.4688 2.7578,-2.2031 4.625,-2.2031 1.0703,0 2.0156,0.21484 2.8281,0.64062 0.8125,0.41797 1.5508,1.0742 2.2188,1.9688 l 0,-2.2656 4.9219,0 0,13.766 c 0,2.457 -0.77734,4.3359 -2.3281,5.6406 -1.5547,1.3008 -3.8086,1.9531 -6.7656,1.9531 -0.94922,0 -1.8711,-0.074219 -2.7656,-0.21875 C 4.93016,5.68013 4.0317,5.45748 3.1255,5.15669 l 0,-3.8125 c 0.86328,0.48828 1.7031,0.85156 2.5156,1.0938 0.82031,0.23828 1.6484,0.35938 2.4844,0.35938 1.6016,0 2.7734,-0.35156 3.5156,-1.0469 0.75,-0.69922 1.125,-1.7969 1.125,-3.2969 z M 9.5472,-12.125 c -1.0117,0 -1.8047,0.375 -2.375,1.125 -0.5625,0.74219 -0.84375,1.7969 -0.84375,3.1719 0,1.3984 0.26953,2.4609 0.8125,3.1875 0.55078,0.71875 1.3516,1.0781 2.4062,1.0781 1.0195,0 1.8125,-0.36719 2.375,-1.1094 0.5625,-0.75 0.84375,-1.8008 0.84375,-3.1562 0,-1.375 -0.28125,-2.4297 -0.84375,-3.1719 -0.5625,-0.75 -1.3555,-1.125 -2.375,-1.125 z" />
    </symbol>
    <symbol
       style="overflow:visible"
       overflow="visible"
       id="l">
      <path
         id="path4964"
         d="m 7.8281,-16.438 0,12.453 1.8906,0 c 2.1562,0 3.8008,-0.53125 4.9375,-1.5938 1.1328,-1.0625 1.7031,-2.6133 1.7031,-4.6562 0,-2.0195 -0.57031,-3.5547 -1.7031,-4.6094 -1.125,-1.0625 -2.7734,-1.5938 -4.9375,-1.5938 z m -5.25,-3.9688 5.5469,0 c 3.0938,0 5.3984,0.21875 6.9219,0.65625 1.5195,0.4375 2.8203,1.1875 3.9062,2.25 0.95703,0.91797 1.6641,1.9805 2.125,3.1875 0.46875,1.1992 0.70312,2.5586 0.70312,4.0781 0,1.543 -0.23438,2.918 -0.70312,4.125 -0.46094,1.2109 -1.168,2.2773 -2.125,3.2031 -1.0938,1.0547 -2.4062,1.8047 -3.9375,2.25 C 13.4844,-0.21935 11.1875,-6e-4 8.125,-6e-4 l -5.5469,0 z" />
    </symbol>
    <symbol
       style="overflow:visible"
       overflow="visible"
       id="k">
      <path
         id="path4967"
         d="m 9.2188,-6.8906 c -1.0234,0 -1.793,0.17188 -2.3125,0.51562 -0.51172,0.34375 -0.76562,0.85547 -0.76562,1.5312 0,0.625 0.20703,1.1172 0.625,1.4688 0.41406,0.34375 0.98828,0.51562 1.7188,0.51562 0.92578,0 1.7031,-0.32812 2.3281,-0.98438 0.63281,-0.66406 0.95312,-1.4922 0.95312,-2.4844 l 0,-0.5625 z m 7.4688,-1.8438 0,8.7344 -4.9219,0 0,-2.2656 c -0.65625,0.92969 -1.3984,1.6055 -2.2188,2.0312 -0.82422,0.41406 -1.8242,0.625 -3,0.625 -1.5859,0 -2.8711,-0.45703 -3.8594,-1.375 -0.99219,-0.92578 -1.4844,-2.1289 -1.4844,-3.6094 0,-1.7891 0.61328,-3.1016 1.8438,-3.9375 1.2383,-0.84375 3.1797,-1.2656 5.8281,-1.2656 l 2.8906,0 0,-0.39062 c 0,-0.76953 -0.30859,-1.332 -0.92188,-1.6875 -0.61719,-0.36328 -1.5703,-0.54688 -2.8594,-0.54688 -1.0547,0 -2.0312,0.10547 -2.9375,0.3125 -0.89844,0.21094 -1.7305,0.52344 -2.5,0.9375 l 0,-3.7344 c 1.0391,-0.25 2.0859,-0.44141 3.1406,-0.57812 1.0625,-0.13281 2.125,-0.20312 3.1875,-0.20312 2.7578,0 4.75,0.54688 5.9688,1.6406 1.2266,1.0859 1.8438,2.8555 1.8438,5.3125 z" />
    </symbol>
    <symbol
       style="overflow:visible"
       overflow="visible"
       id="j">
      <path
         id="path4970"
         d="m 14.312,-14.828 0,3.7188 c -1.043,-0.4375 -2.0547,-0.76562 -3.0312,-0.98438 -0.98047,-0.21875 -1.9023,-0.32812 -2.7656,-0.32812 -0.92969,0 -1.6211,0.11719 -2.0781,0.34375 -0.44922,0.23047 -0.67188,0.58984 -0.67188,1.0781 0,0.38672 0.17188,0.68359 0.51562,0.89062 0.34375,0.21094 0.95703,0.36719 1.8438,0.46875 l 0.85938,0.125 c 2.5078,0.32422 4.1953,0.85156 5.0625,1.5781 0.86328,0.73047 1.2969,1.8711 1.2969,3.4219 0,1.6367 -0.60547,2.8672 -1.8125,3.6875 -1.1992,0.8125 -2.9922,1.2188 -5.375,1.2188 -1.0234,0 -2.0742,-0.078125 -3.1562,-0.23438 -1.0742,-0.15625 -2.1797,-0.39453 -3.3125,-0.71875 l 0,-3.7188 c 0.96875,0.48047 1.9609,0.83984 2.9844,1.0781 1.0312,0.23047 2.0781,0.34375 3.1406,0.34375 0.95703,0 1.6758,-0.12891 2.1562,-0.39062 0.47656,-0.26953 0.71875,-0.66406 0.71875,-1.1875 0,-0.4375 -0.16797,-0.75781 -0.5,-0.96875 -0.33594,-0.21875 -0.99609,-0.38281 -1.9844,-0.5 L 7.34339,-6.01551 c -2.1797,-0.26953 -3.7031,-0.77344 -4.5781,-1.5156 -0.875,-0.73828 -1.3125,-1.8594 -1.3125,-3.3594 0,-1.625 0.55078,-2.8281 1.6562,-3.6094 1.1133,-0.78906 2.8203,-1.1875 5.125,-1.1875 0.89453,0 1.8359,0.07422 2.8281,0.21875 1,0.13672 2.082,0.35156 3.25,0.64062 z" />
    </symbol>
    <symbol
       style="overflow:visible"
       overflow="visible"
       id="y">
      <path
         id="path4973"
         d="m 2.5781,-20.406 14.203,0 0,3.9688 -8.9531,0 0,3.7969 8.4219,0 0,3.9844 -8.4219,0 0,8.6562 -5.25,0 z" />
    </symbol>
    <symbol
       style="overflow:visible"
       overflow="visible"
       id="a">
      <path
         id="path4976"
         d="m 17.641,-7.7031 0,1.4062 -11.453,0 c 0.125,1.1484 0.53906,2.0078 1.25,2.5781 0.70703,0.57422 1.7031,0.85938 2.9844,0.85938 1.0312,0 2.082,-0.14844 3.1562,-0.45312 1.082,-0.3125 2.1914,-0.77344 3.3281,-1.3906 l 0,3.7656 c -1.1562,0.4375 -2.3125,0.76562 -3.4688,0.98438 -1.1562,0.22656 -2.3125,0.34375 -3.4688,0.34375 -2.7734,0 -4.9297,-0.70312 -6.4688,-2.1094 -1.5312,-1.4062 -2.2969,-3.3789 -2.2969,-5.9219 0,-2.5 0.75391,-4.4609 2.2656,-5.8906 1.5078,-1.4375 3.582,-2.1562 6.2188,-2.1562 2.4062,0 4.332,0.73047 5.7812,2.1875 1.4453,1.4492 2.1719,3.3828 2.1719,5.7969 z m -5.0312,-1.625 c 0,-0.92578 -0.27344,-1.6719 -0.8125,-2.2344 -0.54297,-0.57031 -1.25,-0.85938 -2.125,-0.85938 -0.94922,0 -1.7188,0.26562 -2.3125,0.79688 -0.5937,0.53126 -0.96484,1.2969 -1.1094,2.2969 z" />
    </symbol>
    <symbol
       style="overflow:visible"
       overflow="visible"
       id="d">
      <path
         id="path4979"
         d="m 17.75,-9.3281 0,9.3281 -4.9219,0 0,-7.1406 c 0,-1.3203 -0.03125,-2.2344 -0.09375,-2.7344 -0.0625,-0.5 -0.16797,-0.86719 -0.3125,-1.1094 -0.1875,-0.3125 -0.44922,-0.55469 -0.78125,-0.73438 -0.32422,-0.17578 -0.69531,-0.26562 -1.1094,-0.26562 -1.0234,0 -1.8242,0.39844 -2.4062,1.1875 -0.58594,0.78125 -0.875,1.8711 -0.875,3.2656 l 0,7.5312 -4.8906,0 0,-15.312 4.8906,0 0,2.2344 c 0.73828,-0.88281 1.5195,-1.5391 2.3438,-1.9688 0.83203,-0.42578 1.75,-0.64062 2.75,-0.64062 1.7695,0 3.1133,0.54688 4.0312,1.6406 0.91406,1.0859 1.375,2.6562 1.375,4.7188 z" />
    </symbol>
    <symbol
       style="overflow:visible"
       overflow="visible"
       id="x">
      <path
         id="path4982"
         d="m 10.75,-12.516 c 0.82031,0 1.4453,-0.17969 1.875,-0.54688 0.4375,-0.36328 0.65625,-0.89844 0.65625,-1.6094 0,-0.69531 -0.21875,-1.2266 -0.65625,-1.5938 -0.42969,-0.375 -1.0547,-0.5625 -1.875,-0.5625 l -2.9219,0 0,4.3125 z m 0.17188,8.9375 c 1.0625,0 1.8594,-0.22266 2.3906,-0.67188 0.53125,-0.44531 0.79688,-1.125 0.79688,-2.0312 0,-0.88281 -0.26562,-1.5469 -0.79688,-1.9844 -0.52344,-0.4375 -1.3203,-0.65625 -2.3906,-0.65625 l -3.0938,0 0,5.3438 z m 4.8906,-7.3438 c 1.1328,0.32422 2.0078,0.92969 2.625,1.8125 0.625,0.88672 0.9375,1.9688 0.9375,3.25 0,1.9688 -0.66797,3.4375 -2,4.4062 -1.3359,0.96875 -3.3555,1.4531 -6.0625,1.4531 l -8.7344,0 0,-20.406 7.8906,0 c 2.832,0 4.8828,0.42969 6.1562,1.2812 1.2812,0.85547 1.9219,2.2266 1.9219,4.1094 0,1 -0.23438,1.8516 -0.70312,2.5469 -0.46875,0.6875 -1.1484,1.2031 -2.0312,1.5469 z" />
    </symbol>
    <symbol
       style="overflow:visible"
       overflow="visible"
       id="i">
      <path
         id="path4985"
         d="m 14.719,-14.828 0,3.9844 c -0.65625,-0.45703 -1.3242,-0.79688 -2,-1.0156 -0.66797,-0.21875 -1.3594,-0.32812 -2.0781,-0.32812 -1.3672,0 -2.4336,0.40234 -3.2031,1.2031 -0.76172,0.79297 -1.1406,1.9062 -1.1406,3.3438 0,1.4297 0.37891,2.543 1.1406,3.3438 0.76953,0.79297 1.8359,1.1875 3.2031,1.1875 0.75781,0 1.4844,-0.10938 2.1719,-0.32812 0.6875,-0.22656 1.3203,-0.56641 1.9062,-1.0156 l 0,4 c -0.76172,0.28125 -1.5391,0.48828 -2.3281,0.625 -0.78125,0.14453 -1.5742,0.21875 -2.375,0.21875 -2.7617,0 -4.9219,-0.70703 -6.4844,-2.125 -1.5547,-1.4141 -2.3281,-3.3828 -2.3281,-5.9062 0,-2.5312 0.77344,-4.5039 2.3281,-5.9219 1.5625,-1.4141 3.7227,-2.125 6.4844,-2.125 0.80078,0 1.5938,0.07422 2.375,0.21875 0.78125,0.13672 1.5547,0.35156 2.3281,0.64062 z" />
    </symbol>
    <symbol
       style="overflow:visible"
       overflow="visible"
       id="w">
      <path
         id="path4988"
         d="m 2.3594,-21.281 4.8906,0 0,11.594 5.625,-5.625 5.6875,0 -7.4688,7.0312 8.0625,8.2812 -5.9375,0 -5.9688,-6.3906 0,6.3906 -4.8906,0 z" />
    </symbol>
    <symbol
       style="overflow:visible"
       overflow="visible"
       id="h">
      <path
         id="path4991"
         d="m 12.422,-21.281 0,3.2188 -2.7031,0 c -0.6875,0 -1.1719,0.125 -1.4531,0.375 -0.27344,0.25 -0.40625,0.6875 -0.40625,1.3125 l 0,1.0625 4.1875,0 0,3.5 -4.1875,0 0,11.812 -4.8906,0 0,-11.812 -2.4375,0 0,-3.5 2.4375,0 0,-1.0625 c 0,-1.6641 0.46094,-2.8984 1.3906,-3.7031 0.92578,-0.80078 2.3672,-1.2031 4.3281,-1.2031 z" />
    </symbol>
    <symbol
       style="overflow:visible"
       overflow="visible"
       id="v">
      <path
         id="path4994"
         d="m 2.3594,-21.281 4.8906,0 L 7.25,0 2.3594,0 Z" />
    </symbol>
    <symbol
       style="overflow:visible"
       overflow="visible"
       id="t">
      <path
         id="path4997"
         d="m 16.547,-12.766 c 0.61328,-0.94531 1.3477,-1.6719 2.2031,-2.1719 0.85156,-0.5 1.7891,-0.75 2.8125,-0.75 1.7578,0 3.0977,0.54688 4.0156,1.6406 0.92578,1.0859 1.3906,2.6562 1.3906,4.7188 l 0,9.3281 -4.9219,0 0,-7.9844 0,-0.35938 c 0.0078,-0.13281 0.01563,-0.32031 0.01563,-0.5625 0,-1.082 -0.16406,-1.8633 -0.48438,-2.3438 -0.3125,-0.48828 -0.82422,-0.73438 -1.5312,-0.73438 -0.92969,0 -1.6484,0.38672 -2.1562,1.1562 -0.51172,0.76172 -0.77344,1.8672 -0.78125,3.3125 l 0,7.5156 -4.9219,0 0,-7.9844 c 0,-1.6953 -0.14844,-2.7852 -0.4375,-3.2656 -0.29297,-0.48828 -0.8125,-0.73438 -1.5625,-0.73438 -0.9375,0 -1.6641,0.38672 -2.1719,1.1562 -0.51172,0.76172 -0.76562,1.8594 -0.76562,3.2969 l 0,7.5312 -4.9219,0 0,-15.312 4.9219,0 0,2.2344 c 0.60156,-0.86328 1.2891,-1.5156 2.0625,-1.9531 0.78125,-0.4375 1.6406,-0.65625 2.5781,-0.65625 1.0625,0 2,0.25781 2.8125,0.76562 0.8125,0.51172 1.4258,1.2305 1.8438,2.1562 z" />
    </symbol>
    <symbol
       style="overflow:visible"
       overflow="visible"
       id="g">
      <path
         id="path5000"
         d="m 7.7031,-19.656 0,4.3438 5.0469,0 0,3.5 -5.0469,0 0,6.5 c 0,0.71094 0.14062,1.1875 0.42188,1.4375 0.28126,0.25 0.83594,0.375 1.6719,0.375 l 2.5156,0 0,3.5 -4.1875,0 c -1.9375,0 -3.3125,-0.39844 -4.125,-1.2031 -0.80469,-0.8125 -1.2031,-2.1797 -1.2031,-4.1094 l 0,-6.5 -2.4219,0 0,-3.5 2.4219,0 0,-4.3438 z" />
    </symbol>
    <symbol
       style="overflow:visible"
       overflow="visible"
       id="s">
      <path
         id="path5003"
         d="m 17.75,-9.3281 0,9.3281 -4.9219,0 0,-7.1094 c 0,-1.3438 -0.03125,-2.2656 -0.09375,-2.7656 -0.0625,-0.5 -0.16797,-0.86719 -0.3125,-1.1094 -0.1875,-0.3125 -0.44922,-0.55469 -0.78125,-0.73438 -0.32422,-0.17578 -0.69531,-0.26562 -1.1094,-0.26562 -1.0234,0 -1.8242,0.39844 -2.4062,1.1875 -0.58594,0.78125 -0.875,1.8711 -0.875,3.2656 l 0,7.5312 -4.8906,0 0,-21.281 4.8906,0 0,8.2031 c 0.73828,-0.88281 1.5195,-1.5391 2.3438,-1.9688 0.83203,-0.42578 1.75,-0.64062 2.75,-0.64062 1.7695,0 3.1133,0.54688 4.0312,1.6406 0.91406,1.0859 1.375,2.6562 1.375,4.7188 z" />
    </symbol>
    <symbol
       style="overflow:visible"
       overflow="visible"
       id="r">
      <path
         id="path5006"
         d="m 2.5781,-20.406 5.875,0 7.4219,14 0,-14 4.9844,0 0,20.406 -5.875,0 -7.4219,-14 0,14 -4.9844,0 z" />
    </symbol>
    <symbol
       style="overflow:visible"
       overflow="visible"
       id="q">
      <path
         id="path5009"
         d="m 2.1875,-5.9688 0,-9.3438 4.9219,0 0,1.5312 c 0,0.83594 -0.00781,1.875 -0.015625,3.125 -0.011719,1.25 -0.015625,2.0859 -0.015625,2.5 0,1.2422 0.03125,2.1328 0.09375,2.6719 0.070313,0.54297 0.17969,0.93359 0.32812,1.1719 0.20703,0.32422 0.47266,0.57422 0.79688,0.75 0.32031,0.16797 0.69141,0.25 1.1094,0.25 1.0195,0 1.8203,-0.39062 2.4062,-1.1719 0.58203,-0.78125 0.875,-1.8672 0.875,-3.2656 l 0,-7.5625 4.8906,0 0,15.312 -4.8906,0 0,-2.2188 C 11.94531,-1.32096 11.1641,-0.6608 10.3437,-0.235 9.51948,0.17906 8.6093,0.39 7.6093,0.39 5.8476,0.39 4.5038,-0.14906 3.5781,-1.235 2.64841,-2.317 2.1875,-3.8952 2.1875,-5.9694 Z" />
    </symbol>
    <symbol
       style="overflow:visible"
       overflow="visible"
       id="p">
      <path
         id="path5012"
         d="m 2.5781,-20.406 8.7344,0 c 2.5938,0 4.582,0.57812 5.9688,1.7344 1.3945,1.1484 2.0938,2.7891 2.0938,4.9219 0,2.1367 -0.69922,3.7812 -2.0938,4.9375 -1.3867,1.1562 -3.375,1.7344 -5.9688,1.7344 l -3.4844,0 0,7.0781 -5.25,0 z m 5.25,3.8125 0,5.7031 2.9219,0 c 1.0195,0 1.8047,-0.25 2.3594,-0.75 0.5625,-0.5 0.84375,-1.2031 0.84375,-2.1094 0,-0.91406 -0.28125,-1.6172 -0.84375,-2.1094 -0.55469,-0.48828 -1.3398,-0.73438 -2.3594,-0.73438 z" />
    </symbol>
    <symbol
       style="overflow:visible"
       overflow="visible"
       id="o">
      <path
         id="path5015"
         d="m 2.3594,-15.312 4.8906,0 0,15.031 c 0,2.0508 -0.49609,3.6172 -1.4844,4.7031 -0.98047,1.082 -2.4062,1.625 -4.2812,1.625 l -2.4219,0 0,-3.2188 0.85938,0 c 0.92578,0 1.5625,-0.21094 1.9062,-0.625 0.35156,-0.41797 0.53125,-1.2461 0.53125,-2.4844 z m 0,-5.9688 4.8906,0 0,4 -4.8906,0 z" />
    </symbol>
  </defs>
  <g
     transform="matrix(0.07325954,0,0,0.07325954,-7.51264e-7,-0.48036025)"
     id="g5727">
    <path
       id="path5019"
       d="m 349.5826,345.46394 c -8.4141,1.1641 -16.75,1.7461 -24.781,1.7461 -98.812,0 -179.2,-80.387 -179.2,-179.2 0,-47.617 18.484,-92.457005 52.051,-126.260005 5.0781,-5.1133 6.3281,-12.898 3.1094,-19.344 -3.2188,-6.4453 -10.199,-10.121 -17.332,-9.1328 C 78.86,27.722235 0,118.32324 0,224.00324 c 0,117.34 95.465,212.8 212.8,212.8 57.109,0 110.73,-22.32 150.99,-62.867 5.0742,-5.1133 6.3281,-12.898 3.1133,-19.344 -3.2266,-6.4375 -10.18,-10.156 -17.324,-9.1367 z m -136.78,57.746 c -98.812,0 -179.2,-80.387 -179.2,-179.2 0,-72.508 44.066,-136.580005 108.01,-164.410005 -19.309,32.484 -29.609,69.676005 -29.609,108.410005 0,109.59 83.281,200.11 189.88,211.57 -26.812,15.418 -57.305,23.625 -89.078,23.625 z" />
    <path
       id="path5021"
       d="m 239.8426,111.12393 31.098,15.55101 15.547,31.098 c 1.418,2.8477 4.332,4.6367 7.5117,4.6367 3.1797,0 6.0938,-1.793 7.5156,-4.6367 l 15.547,-31.098 31.098,-15.55101 c 2.8438,-1.4219 4.6406,-4.332 4.6406,-7.5117 0,-3.1797 -1.7969,-6.085895 -4.6406,-7.515595 l -31.098,-15.539 -15.547,-31.098 c -1.4219,-2.8516 -4.3359,-4.6484 -7.5156,-4.6484 -3.1797,0 -6.0938,1.7969 -7.5156,4.6484 l -15.547,31.098 -31.098,15.539 c -2.8398,1.4258 -4.6406,4.331995 -4.6406,7.515595 0,3.1797 1.8008,6.0898 4.6445,7.5117 z" />
    <path
       id="path5023"
       d="m 432.1626,213.69394 -31.098,-15.539 -15.547,-31.098 c -1.4219,-2.8477 -4.3359,-4.6484 -7.5156,-4.6484 -3.1797,0 -6.0938,1.7969 -7.5156,4.6484 l -15.547,31.098 -31.098,15.539 c -2.8398,1.4297 -4.6406,4.3359 -4.6406,7.5156 0,3.1797 1.7969,6.0938 4.6406,7.5156 l 31.098,15.551 15.547,31.098 c 1.4219,2.8438 4.3359,4.6367 7.5156,4.6367 3.1797,0 6.0938,-1.793 7.5156,-4.6367 l 15.547,-31.098 31.098,-15.551 c 2.8438,-1.4219 4.6406,-4.3359 4.6406,-7.5156 0,-3.1797 -1.7969,-6.0859 -4.6406,-7.5156 z" />
  </g>
</svg>
