<?xml version="1.0" encoding="UTF-8" standalone="no"?>
<svg
   viewBox="0 0 969.66473 1000"
   fill="none"
   x="0px"
   y="0px"
   version="1.1"
   id="svg10"
   width="969.66473"
   height="1000"
   xmlns="http://www.w3.org/2000/svg"
   xmlns:svg="http://www.w3.org/2000/svg">
  <defs
     id="defs14" />
  <g
     id="g833"
     transform="matrix(12.464942,0,0,12.464942,-138.41446,-123.2471)">
    <path
       d="m 43.9243,22.4125 c 0.5,1.5 1.9,2.5 3.5,2.5 h 5.4 c 1.6,0 3,-1 3.5,-2.5 l 1.1,-3.5 c 1,-3 -1.2,-6.1 -4.4,-6.1 h -0.7 v -0.1 c 0.2,-0.6 0,-1.3 -0.4,-1.7 l -0.6,-0.6 c -0.7,-0.7 -1.7,-0.7 -2.4,0 l -0.6,0.6 c -0.5,0.5 -0.6,1.1 -0.4,1.7 v 0.1 h -0.7 c -3.2,0 -5.4,3.1 -4.4,6.1 z"
       fill="#000000"
       id="path2" />
    <path
       d="m 87.3243,23.6125 c -0.1,-0.3 -0.2,-0.5 -0.4,-0.7 -0.2,-0.2 -0.5,-0.3 -0.8,-0.3 -0.3,0 -0.6,0 -0.8,0.2 -0.2,0.1 -0.4,0.3 -0.6,0.6 -0.9,1.6 -2.6,4.5 -4.2,6.8 -4.7,6.8 -9.5,11.6 -16.3,11.8 -0.8,0 -1.6,-0.2 -2.3,-0.5 -2.2,-1 -3.5,-3.4 -3.1,-5.8 0,-1.1 0.4,-2.1 0.9,-3 0.6,-0.9 1.4,-1.6 2.4,-2.1 1.4,-0.7 3.3,-0.8 4.8,-0.5 0.8,0.1 1.6,0.4 2.3,0.8 0.7,0.4 1.1,0.3 1.2,-0.6 0.1,-2.1 -0.3,-4.9 -2.2,-6.2 -2.4,-1.7 -6.2,-0.5 -8.6,0.8 -2.5,1.3 -4.6,3.3 -6.4,5.5 -1.2,1.5 -2.4,3.1 -3.2,4.9 -0.9,-1.7 -2,-3.4 -3.2,-4.9 -1.8,-2.2 -3.9,-4.2 -6.4,-5.5 -2.3,-1.3 -6.1,-2.5 -8.6,-0.8 -1.9,1.3 -2.3,4.1 -2.2,6.2 0.1,0.8 0.5,1 1.2,0.6 0.7,-0.4 1.5,-0.7 2.3,-0.8 1.6,-0.3 3.4,-0.2 4.8,0.5 1,0.5 1.8,1.2 2.4,2.1 0.6,0.9 0.9,2 0.9,3 0.3,2.4 -1,4.8 -3.1,5.8 -0.7,0.3 -1.5,0.5 -2.3,0.5 -6.8,-0.2 -11.6,-5 -16.3,-11.8 -1.6,-2.3 -3.3,-5.2 -4.2,-6.8 -0.1,-0.3 -0.3,-0.5 -0.6,-0.6 -0.2,-0.1 -0.5,-0.2 -0.8,-0.2 -0.3,0 -0.5,0.1 -0.8,0.3 -0.2,0.2 -0.4,0.4 -0.4,0.7 -1.8,6.8 -2.1,13.9 -0.9,20.9 0.9,5.4 4.1,13.7 9.5,16.5 5.4,2.8 9.9,0.7 13,-0.9 1.8,-1 3,-1.5 4,-1.3 0.7,0.1 1,0.9 0.5,1.5 l -4,5 c -1.1,1.2 -1.4,2.8 -1.1,4.3 l -5.5,4.9 -1.2,-1.1 c 0.4,-0.8 0.6,-1.8 0.6,-2.7 0,-1.1 -0.9,-2 -2,-2 -1.1,0 -2,0.9 -2,2 0,1.3 -1.1,2.3 -2.3,2.3 -1.1,0 -2,0.9 -2,2 0,1.1 0.9,2 2,2 1.1,0 2.1,-0.3 3,-0.7 l 2.7,2.4 4.8,4.3 c 0.8,0.7 2.1,0.7 2.8,-0.2 0.7,-0.8 0.7,-2.1 -0.2,-2.8 l -3.1,-2.8 4.8,-4.3 c 0.7,0.4 1.6,0.6 2.5,0.4 2.6,-0.3 5.2,-1.6 7.5,-2.9 1.3,4.2 -4.2,7.6 -6.8,10 -1,1 -2.7,2.5 -1.5,4 0.7,0.9 2.1,1.2 3.1,1.5 0.5,0.1 1,0.2 1.5,0.4 2.1,0.5 4.1,1.4 5.9,2.7 0.4,0.3 0.7,0.5 1,0.8 0.2,0.2 0.5,0.3 0.8,0.3 0.3,0 0.6,-0.1 0.8,-0.3 0.3,-0.2 0.6,-0.5 1,-0.8 1.7,-1.3 3.7,-2.3 5.9,-2.7 0.5,-0.1 1,-0.2 1.5,-0.4 1.1,-0.3 2.4,-0.6 3.1,-1.5 1.2,-1.5 -0.5,-3.1 -1.5,-4 -2.5,-2.4 -8.1,-5.8 -6.8,-10 2.3,1.3 4.9,2.5 7.5,2.9 0.9,0.1 1.7,0 2.4,-0.4 l 4.7,4.2 c 0,0.2 -0.1,0.5 -0.1,0.7 0,3.5 2.8,6.3 6.3,6.3 3.5,0 6.3,-2.8 6.3,-6.3 0,-3.5 -2.8,-6.3 -6.3,-6.3 -1.8,0 -3.4,0.7 -4.5,1.9 l -4,-3.6 c 0.3,-1.5 0,-3.1 -1.1,-4.4 l -4,-5 c -0.4,-0.5 -0.1,-1.4 0.5,-1.5 1,-0.2 2.2,0.4 4,1.3 3.1,1.6 7.6,3.8 13,0.9 5.4,-2.8 8.5,-11.1 9.5,-16.5 1,-7 0.7,-14.1 -1,-21 z m -14.6,53.3 c 0.3,-0.9 1.2,-1.6 2.2,-1.6 1.3,0 2.3,1.1 2.3,2.3 0,1.3 -1.1,2.3 -2.3,2.3 -1.3,0 -2.3,-1.1 -2.3,-2.3 0,-0.2 0,-0.5 0.1,-0.7 z"
       fill="#000000"
       id="path4" />
  </g>
</svg>
