<?xml version="1.0" encoding="UTF-8" standalone="no"?>
<svg
   version="1.1"
   viewBox="-10 0 1000 1000"
   id="svg4"
   width="1000"
   height="1000"
   xmlns="http://www.w3.org/2000/svg"
   xmlns:svg="http://www.w3.org/2000/svg">
  <defs
     id="defs8" />
  <path
     fill="currentColor"
     d="M 990,500 Q 990,708 844,854 698,1000 490,1000 282,1000 136,854 -10,708 -10,500 -10,292 136,146 282,0 490,0 698,0 844,146 990,292 990,500 Z m -66.66667,0 q 0,-180 -126.66666,-306.66667 Q 670,66.66667 490,66.66667 q -180,0 -306.66667,126.66666 Q 56.666667,320 56.666667,500 q 0,180 126.666663,306.66667 Q 310,933.3333 490,933.3333 q 180,0 306.66667,-126.66663 Q 923.33333,680 923.33333,500 Z m -266.66666,0 q 0,69.33333 -48.66667,118 -48.66667,48.66667 -118,48.66667 -69.33333,0 -118,-48.66667 -48.66667,-48.66667 -48.66667,-118 0,-69.33333 48.66667,-118 48.66667,-48.66667 118,-48.66667 69.33333,0 118,48.66667 48.66667,48.66667 48.66667,118 z"
     id="path2"
     style="stroke-width:1.33333" />
</svg>
