<?xml version="1.0" encoding="UTF-8" standalone="no"?>
<!-- Created with Inkscape (http://www.inkscape.org/) -->

<svg
   width="1000"
   height="500"
   version="1.1"
   id="svg10"
   xmlns="http://www.w3.org/2000/svg"
   xmlns:svg="http://www.w3.org/2000/svg"
   xmlns:rdf="http://www.w3.org/1999/02/22-rdf-syntax-ns#"
   xmlns:cc="http://creativecommons.org/ns#"
   xmlns:dc="http://purl.org/dc/elements/1.1/">
  <defs
     id="defs5498" />
  <metadata
     id="metadata5594">
    <rdf:RDF>
      <cc:Work
         rdf:about="">
        <dc:format>image/svg+xml</dc:format>
        <dc:type
           rdf:resource="http://purl.org/dc/dcmitype/StillImage" />
      </cc:Work>
    </rdf:RDF>
  </metadata>
  <g
     id="g3962"
     transform="matrix(0,1.1111111,-1.1111111,0,1055.5555,-305.55555)">
    <path
       style="fill:#000000;fill-opacity:1;fill-rule:nonzero;stroke:none"
       d="M 275,545 V 890.14844 C 275,923 302,950 334.85156,950 H 664.69922 C 698,950 725,923 725,890.14844 V 545 Z m 0,0"
       id="path8" />
    <path
       id="path8-7"
       style="fill:#000000;fill-opacity:1;fill-rule:nonzero;stroke:none"
       d="m 410,50 v 90 H 334.85156 C 302,140 275,166.99999 275,199.85155 V 565 H 725 V 199.85155 C 725,166.99999 698,140 665.14844,140 H 590 V 50 Z m 20,20 h 140 c -0.002,30 0.003,60 0,90 h 95.14844 C 687.04161,160 705,177.95838 705,199.85155 V 545 H 295 V 199.85155 c 0,-21.89317 17.95839,-39.85156 39.85156,-39.85156 H 430 Z" />
  </g>
</svg>
