<?xml version="1.0" encoding="UTF-8" standalone="no"?>
<!-- Created with Inkscape (http://www.inkscape.org/) -->

<svg
   width="1000"
   height="500"
   version="1.1"
   id="svg10"
   xmlns="http://www.w3.org/2000/svg"
   xmlns:svg="http://www.w3.org/2000/svg"
   xmlns:rdf="http://www.w3.org/1999/02/22-rdf-syntax-ns#"
   xmlns:cc="http://creativecommons.org/ns#"
   xmlns:dc="http://purl.org/dc/elements/1.1/">
  <defs
     id="defs5498" />
  <metadata
     id="metadata5594">
    <rdf:RDF>
      <cc:Work
         rdf:about="">
        <dc:format>image/svg+xml</dc:format>
        <dc:type
           rdf:resource="http://purl.org/dc/dcmitype/StillImage" />
      </cc:Work>
    </rdf:RDF>
  </metadata>
  <g
     id="g3017"
     transform="matrix(0,1.1111111,-1.1111111,0,1055.5555,-305.55555)">
    <path
       id="path976"
       style="fill:#000000;fill-opacity:1;fill-rule:nonzero;stroke:none"
       d="m 410,50 v 90 H 334.85156 C 302,140 275,167 275,199.85156 V 475 H 438.46292 L 545,275 V 475 H 725 V 199.85156 C 725,167 698,140 665.14844,140 H 590 V 50 Z m 20,20 h 140 c 1.72218,22.049834 0,90 0,90 h 95.14844 C 687.04161,160 705,177.95839 705,199.85156 V 455 H 565 V 275 c -0.004,-9.17711 0,-80.02008 0,-80.02008 0,0 -33.33501,62.52154 -37.65234,70.61969 L 426.33712,455 H 295 V 199.85156 C 295,177.95839 312.95839,160 334.85156,160 H 430 Z" />
    <path
       style="fill:#000000;fill-opacity:1;fill-rule:nonzero;stroke:none"
       d="m 545,522.5 h 90 L 455,860 V 612.5 H 365 L 449.14844,455 H 275 V 890.14844 C 275,923 302,950 334.85156,950 H 664.69922 C 698,950 725,923 725,890.14844 V 455 H 545 Z m 0,0"
       id="path8" />
  </g>
</svg>
