<?xml version="1.0" encoding="UTF-8" standalone="no"?>
<!-- Created with Inkscape (http://www.inkscape.org/) -->

<svg
   width="1000"
   height="500.00003"
   version="1.1"
   id="svg10"
   xmlns="http://www.w3.org/2000/svg"
   xmlns:svg="http://www.w3.org/2000/svg"
   xmlns:rdf="http://www.w3.org/1999/02/22-rdf-syntax-ns#"
   xmlns:cc="http://creativecommons.org/ns#"
   xmlns:dc="http://purl.org/dc/elements/1.1/">
  <defs
     id="defs5498" />
  <metadata
     id="metadata5594">
    <rdf:RDF>
      <cc:Work
         rdf:about="">
        <dc:format>image/svg+xml</dc:format>
        <dc:type
           rdf:resource="http://purl.org/dc/dcmitype/StillImage" />
      </cc:Work>
    </rdf:RDF>
  </metadata>
  <g
     id="g3996"
     transform="matrix(0,1.1111111,-1.1111111,0,1055.5555,-305.55553)">
    <path
       style="fill:#000000;fill-opacity:1;fill-rule:nonzero;stroke:none"
       d="M 275,365 V 890.14844 C 275,923 302,950 334.85156,950 H 664.69922 C 698,950 725,923 725,890.14844 V 365 Z m 0,0"
       id="path8" />
    <path
       id="path8-6"
       style="fill:#000000;fill-opacity:1;fill-rule:nonzero;stroke:none"
       d="m 409.99998,50 v 90 h -75.14844 c -32.85156,0 -59.85156,27 -59.85156,59.85156 L 275,385 h 450 l 2e-5,-185.14844 C 725.00002,167 698.00002,140 665.14842,140 h -75.1484 V 50 Z m 20,20 h 140.00004 v 90 h 95.1484 c 21.8932,0 39.8516,17.95839 39.8516,39.85156 V 365 H 294.99998 V 199.85156 C 294.99998,177.95839 312.95837,160 334.85154,160 h 95.14844 z" />
  </g>
</svg>
