<?xml version="1.0" encoding="UTF-8" standalone="no"?>
<!-- Created with Inkscape (http://www.inkscape.org/) -->

<svg
   xmlns:dc="http://purl.org/dc/elements/1.1/"
   xmlns:cc="http://creativecommons.org/ns#"
   xmlns:rdf="http://www.w3.org/1999/02/22-rdf-syntax-ns#"
   xmlns:svg="http://www.w3.org/2000/svg"
   xmlns="http://www.w3.org/2000/svg"
   xmlns:sodipodi="http://sodipodi.sourceforge.net/DTD/sodipodi-0.dtd"
   xmlns:inkscape="http://www.inkscape.org/namespaces/inkscape"
   width="300"
   height="400"
   viewBox="0 0 300 400.00001"
   id="svg2"
   version="1.1"
   inkscape:version="0.91 r13725"
   sodipodi:docname="page.svg"
   inkscape:export-filename="/home/raa/Yandex.Disk/no_vcs/cal/page.png"
   inkscape:export-xdpi="90"
   inkscape:export-ydpi="90">
  <defs
     id="defs4">
    <style
       type="text/css"
       id="style6">.str0 {stroke:black;stroke-width:7.62} .fil1 {fill:#0E0E10} .fil0 {fill:#2B2B2D} .fil2 {fill:#C79634} .fil3 {fill:#CFAF6E}</style>
  </defs>
  <sodipodi:namedview
     id="base"
     pagecolor="#ffffff"
     bordercolor="#666666"
     borderopacity="1.0"
     inkscape:pageopacity="0.0"
     inkscape:pageshadow="2"
     inkscape:zoom="1.4"
     inkscape:cx="176.96395"
     inkscape:cy="228.70497"
     inkscape:document-units="px"
     inkscape:current-layer="layer1"
     showgrid="true"
     units="px"
     showguides="true"
     inkscape:guide-bbox="true"
     inkscape:snap-bbox="true"
     inkscape:bbox-paths="true"
     inkscape:bbox-nodes="true"
     inkscape:snap-bbox-edge-midpoints="true"
     inkscape:snap-bbox-midpoints="true"
     inkscape:object-paths="true"
     inkscape:snap-intersection-paths="true"
     inkscape:object-nodes="true"
     inkscape:snap-smooth-nodes="true"
     inkscape:snap-midpoints="true"
     inkscape:snap-object-midpoints="true"
     inkscape:snap-center="true"
     inkscape:snap-text-baseline="true"
     inkscape:window-width="1366"
     inkscape:window-height="744"
     inkscape:window-x="0"
     inkscape:window-y="24"
     inkscape:window-maximized="1"
     inkscape:snap-global="true">
    <inkscape:grid
       type="xygrid"
       id="grid3336" />
    <sodipodi:guide
       position="30,400.00001"
       orientation="1,0"
       id="guide3340" />
    <sodipodi:guide
       position="60,400.00001"
       orientation="1,0"
       id="guide3342" />
    <sodipodi:guide
       position="90,400.00001"
       orientation="1,0"
       id="guide3344" />
    <sodipodi:guide
       position="120,400.00001"
       orientation="1,0"
       id="guide3346" />
    <sodipodi:guide
       position="150,400.00001"
       orientation="1,0"
       id="guide3348" />
    <sodipodi:guide
       position="180,400.00001"
       orientation="1,0"
       id="guide3350" />
    <sodipodi:guide
       position="210,400.00001"
       orientation="1,0"
       id="guide3352" />
    <sodipodi:guide
       position="240,400.00001"
       orientation="1,0"
       id="guide3354" />
    <sodipodi:guide
       position="270,400.00001"
       orientation="1,0"
       id="guide3356" />
    <sodipodi:guide
       position="0,360.00001"
       orientation="0,1"
       id="guide3358" />
    <sodipodi:guide
       position="0,280.00001"
       orientation="0,1"
       id="guide3362" />
    <sodipodi:guide
       position="0,240.00001"
       orientation="0,1"
       id="guide3364" />
    <sodipodi:guide
       position="0,200"
       orientation="0,1"
       id="guide3366" />
    <sodipodi:guide
       position="0,160"
       orientation="0,1"
       id="guide3368" />
    <sodipodi:guide
       position="0,120"
       orientation="0,1"
       id="guide3370" />
    <sodipodi:guide
       position="0,80.000002"
       orientation="0,1"
       id="guide3372" />
    <sodipodi:guide
       position="0,40.000001"
       orientation="0,1"
       id="guide4320" />
    <sodipodi:guide
       position="0,320.00001"
       orientation="0,1"
       id="guide4328" />
  </sodipodi:namedview>
  <metadata
     id="metadata7">
    <rdf:RDF>
      <cc:Work
         rdf:about="">
        <dc:format>image/svg+xml</dc:format>
        <dc:type
           rdf:resource="http://purl.org/dc/dcmitype/StillImage" />
        <dc:title></dc:title>
      </cc:Work>
    </rdf:RDF>
  </metadata>
  <g
     inkscape:label="Layer 1"
     inkscape:groupmode="layer"
     id="layer1"
     transform="translate(0,-652.36216)">
    <text
       xml:space="preserve"
       style="font-style:normal;font-weight:normal;font-size:136.04730225px;line-height:125%;font-family:sans-serif;letter-spacing:0px;word-spacing:0px;fill:#000000;fill-opacity:1;stroke:none;stroke-width:1px;stroke-linecap:butt;stroke-linejoin:miter;stroke-opacity:1"
       x="76.766602"
       y="856.17468"
       id="text3473"
       sodipodi:linespacing="125%"><tspan
         sodipodi:role="line"
         id="tspan3475"
         x="76.766602"
         y="856.17468"
         style="font-style:normal;font-variant:normal;font-weight:normal;font-stretch:normal;font-size:125px;font-family:'Abril Fatface';-inkscape-font-specification:'Abril Fatface'">29</tspan></text>
    <text
       xml:space="preserve"
       style="font-style:normal;font-weight:normal;font-size:22.62296677px;line-height:125%;font-family:sans-serif;letter-spacing:0px;word-spacing:0px;fill:#000000;fill-opacity:1;stroke:none;stroke-width:1px;stroke-linecap:butt;stroke-linejoin:miter;stroke-opacity:1"
       x="64.648888"
       y="888.48969"
       id="text3477"
       sodipodi:linespacing="125%"><tspan
         sodipodi:role="line"
         id="tspan3479"
         x="64.648888"
         y="888.48969"
         style="font-style:normal;font-variant:normal;font-weight:normal;font-stretch:normal;font-size:22.5px;line-height:125%;font-family:'Playfair Display';-inkscape-font-specification:'Playfair Display, Normal';text-align:start;writing-mode:lr-tb;text-anchor:start">ПОНЕДЕЛЬНИК</tspan></text>
    <text
       xml:space="preserve"
       style="font-style:normal;font-weight:normal;font-size:33.38928223px;line-height:125%;font-family:sans-serif;letter-spacing:0px;word-spacing:0px;fill:#000000;fill-opacity:1;stroke:none;stroke-width:1px;stroke-linecap:butt;stroke-linejoin:miter;stroke-opacity:1"
       x="63.142822"
       y="754.92468"
       id="text3481"
       sodipodi:linespacing="125%"><tspan
         sodipodi:role="line"
         id="tspan3483"
         x="63.142822"
         y="754.92468"
         style="font-style:normal;font-variant:normal;font-weight:800;font-stretch:normal;font-size:31.25px;font-family:'Playfair Display';-inkscape-font-specification:'Playfair Display Ultra-Bold'">СЕНТЯБРЬ</tspan></text>
    <path
       inkscape:connector-curvature="0"
       style="fill:#000000;fill-opacity:1;fill-rule:evenodd;stroke:none;stroke-width:0.1;stroke-linecap:butt;stroke-linejoin:miter;stroke-miterlimit:4;stroke-dasharray:none;stroke-opacity:1"
       d="m 237.09641,682.43747 c -1.42291,-0.0852 -2.74674,0.18035 -3.86216,0.75492 -1.48725,0.76611 -2.70553,1.95192 -3.10726,3.52094 -0.40175,1.56902 0.19943,3.67055 1.1052,4.90094 0.90577,1.23038 2.34207,1.95371 3.58739,2.07152 1.2453,0.11781 2.38919,-0.27199 3.17669,-1.10522 0.78752,-0.83323 1.16497,-2.41539 0.96631,-3.38204 -0.19867,-0.96669 -0.78837,-1.52873 -1.5189,-1.86314 -0.35793,-0.16373 -1.17446,-0.34269 -1.83597,-0.0935 -0.68868,0.25926 -1.1924,0.71894 -1.25315,1.21693 -0.049,0.40265 -0.0388,0.50155 0.0302,0.84249 0.069,0.34094 0.40765,0.54354 0.40765,0.54354 0,0 -0.85192,0.22483 -1.17466,-0.0362 -0.26693,-0.21599 -0.4685,-0.80781 -0.50127,-0.98743 -0.055,-0.30156 -0.10714,-0.59114 -0.009,-1.03575 0.12987,-0.58839 0.58048,-1.31621 1.06596,-1.62459 0.85226,-0.54144 2.32175,-1.02355 3.82291,-0.48315 1.50116,0.5404 2.8296,2.97739 4.13999,4.55671 1.51026,1.82017 2.49319,3.99039 4.28191,5.65887 1.7887,1.66852 3.36201,2.86263 4.13998,3.33072 0.42426,0.25527 1.17806,0.62012 2.73281,0.84853 1.29608,0.19048 3.38775,0.20525 4.22152,0.1509 1.83391,-0.11936 3.71145,-0.42517 6.04541,-1.76953 0.3305,-0.19037 0.66685,-0.41537 1.00254,-0.61602 -0.19281,0.32339 -0.40845,0.64784 -0.59187,0.9663 -1.34436,2.33397 -1.65018,4.21149 -1.76954,6.04541 -0.0542,0.83376 -0.0395,2.92545 0.15106,4.22151 0.2284,1.55477 0.59325,2.30857 0.84853,2.73282 0.46809,0.77797 1.66219,2.35129 3.3307,4.13998 1.66847,1.78873 3.83872,2.76863 5.65889,4.27889 1.57932,1.31039 4.0163,2.64184 4.5567,4.14301 0.54039,1.50116 0.0583,2.96765 -0.48316,3.8199 -0.30838,0.48549 -1.03621,0.93902 -1.62459,1.06896 -0.44461,0.0982 -0.73417,0.046 -1.03574,-0.009 -0.17963,-0.0326 -0.77144,-0.23434 -0.98743,-0.50127 -0.26109,-0.32274 -0.0362,-1.17466 -0.0362,-1.17466 0,0 0.20258,0.3387 0.54354,0.40766 0.34094,0.069 0.43683,0.0792 0.83947,0.0302 0.498,-0.0607 0.96071,-0.56447 1.21997,-1.25316 0.24908,-0.6615 0.07,-1.47805 -0.0935,-1.83597 -0.3344,-0.73054 -0.89646,-1.32022 -1.86315,-1.5189 -0.96666,-0.19866 -2.5488,0.17881 -3.38204,0.9663 -0.83321,0.78751 -1.22296,1.92839 -1.1052,3.17367 0.11781,1.24532 0.84111,2.68463 2.07149,3.59042 1.23039,0.90575 3.33192,1.50693 4.90095,1.1052 1.56902,-0.40176 2.75486,-1.62002 3.52096,-3.10727 0.76609,-1.48723 0.98284,-3.34667 0.54957,-5.31464 -0.43323,-1.96792 -3.44847,-5.79779 -3.44847,-5.79779 0,0 2.05666,-1.04182 2.69053,-2.00205 0.63389,-0.96022 0.90285,-2.31989 0.8274,-3.45149 -0.0754,-1.13164 -0.48771,-2.2127 -1.17164,-3.03478 -0.68393,-0.82211 -1.39968,-1.17127 -2.38253,-1.44945 -0.98282,-0.27818 -2.15741,-0.32263 -3.14047,0.0846 -0.98305,0.40717 -2.0367,0.86156 -2.3463,1.96883 -0.30956,1.10727 -0.22679,2.40149 0.54658,2.97136 0.77339,0.56984 1.62601,0.76966 2.35232,0.42578 0.37763,-0.17889 0.85242,-0.23466 1.19882,-0.67037 0.31975,-0.40218 0.52543,-1.19278 0.52542,-1.19278 0,0 0.6559,0.36903 0.48314,1.10521 -0.075,0.31975 -0.30544,0.9566 -0.69149,1.32262 -0.50276,0.47674 -1.23152,0.66423 -1.86014,0.81833 -1.1113,0.27245 -2.35917,-0.0857 -3.45149,-0.76097 -1.09232,-0.67529 -1.96001,-1.87449 -2.65732,-2.96834 -0.6973,-1.09386 -1.25761,-2.03435 -1.55211,-3.51793 -0.29448,-1.48359 -0.0866,-3.90188 0.34423,-5.45354 0.43074,-1.55166 0.99874,-2.68399 1.9326,-3.7263 1.0517,-1.17391 2.04953,-2.2545 3.56928,-2.67241 0.86628,-0.23821 2.24447,-0.19849 3.05591,0.18722 0.86802,0.4126 1.61564,1.23061 1.93259,2.13793 0.36491,1.04459 0.24953,2.58608 -0.20533,3.3126 -0.22935,0.36646 -0.66301,0.7825 -1.03576,0.88477 -0.14858,0.0408 -0.51481,-0.0176 -0.63716,-0.18723 -0.17908,-0.24816 -0.0875,-0.65225 -0.0875,-0.65225 0,0 0.61254,0.30894 0.84853,-0.27781 0.20201,-0.50228 0.26577,-0.87458 0.29292,-1.47964 0.0272,-0.60509 -0.31373,-1.49455 -1.03576,-1.87522 -0.97346,-0.51322 -2.4703,-0.24612 -3.31561,0.19628 -0.73085,0.3825 -1.17465,1.52795 -1.17465,1.52795 0,0 -0.58373,1.51481 -0.32008,2.75395 0.21411,1.00623 1.19459,1.7151 1.83898,2.21646 1.43797,1.11885 4.30479,1.04975 5.72834,0.27478 1.42355,-0.77497 1.86619,-1.95525 2.24663,-3.32768 0.38038,-1.37251 0.38671,-3.20782 -0.17514,-4.67749 -0.56182,-1.46969 -1.5715,-2.47074 -2.75093,-3.07707 -1.17941,-0.60632 -2.0506,-0.82532 -2.93815,-1.0297 -1.10263,-0.25388 -2.57665,-0.23261 -3.79575,0.0513 -0.21949,0.0512 -0.40372,0.1124 -0.59185,0.17514 0.0566,-0.17481 0.11611,-0.34193 0.16307,-0.54353 0.28395,-1.2191 0.30521,-2.69312 0.0513,-3.79575 -0.20438,-0.88756 -0.42336,-1.75874 -1.02971,-2.93815 -0.60632,-1.17943 -1.60738,-2.18911 -3.07706,-2.75093 -1.46965,-0.56183 -3.30498,-0.55553 -4.67748,-0.17514 -1.37246,0.38044 -2.55575,0.82309 -3.33071,2.24664 -0.77499,1.42356 -0.84105,4.29037 0.2778,5.72834 0.50138,0.64438 1.21022,1.62489 2.21646,1.83899 1.23914,0.26367 2.75395,-0.32009 2.75395,-0.32009 0,0 1.14243,-0.44381 1.52494,-1.17466 0.44241,-0.84533 0.71252,-2.34517 0.19929,-3.31863 -0.38067,-0.72203 -1.27015,-1.05994 -1.87522,-1.03272 -0.60506,0.0272 -0.97737,0.0909 -1.47964,0.2929 -0.58676,0.23599 -0.27782,0.84853 -0.27782,0.84853 0,0 -0.40406,0.0915 -0.65224,-0.0875 -0.16956,-0.1223 -0.22804,-0.48858 -0.18723,-0.63716 0.10219,-0.37275 0.51529,-0.80637 0.88176,-1.03575 0.7265,-0.45484 2.271,-0.57027 3.31561,-0.20533 0.90732,0.31695 1.72532,1.0646 2.13793,1.93259 0.38571,0.81143 0.42545,2.18965 0.18722,3.05592 -0.41789,1.51974 -1.4985,2.51757 -2.67242,3.56926 -1.04228,0.93387 -2.17463,1.50186 -3.72629,1.93259 -1.55166,0.43077 -3.96998,0.63875 -5.45354,0.34425 -1.48359,-0.29448 -2.42406,-0.85482 -3.51793,-1.55212 -1.09387,-0.69731 -2.29302,-1.565 -2.96834,-2.65732 -0.67527,-1.09234 -1.03342,-2.34018 -0.76097,-3.45149 0.15414,-0.62861 0.33858,-1.35738 0.81531,-1.86014 0.36603,-0.38605 1.00589,-0.61952 1.32563,-0.69451 0.7362,-0.17275 1.10522,0.48315 1.10522,0.48315 0,0 -0.7906,0.20566 -1.19278,0.52542 -0.43569,0.34638 -0.49451,0.8242 -0.67338,1.20183 -0.34388,0.72631 -0.141,1.57896 0.42879,2.35234 0.56988,0.77338 1.8641,0.85612 2.97137,0.54655 1.10725,-0.30957 1.56165,-1.36324 1.96882,-2.34628 0.4072,-0.98309 0.36275,-2.15764 0.0846,-3.14048 -0.27818,-0.98285 -0.62736,-1.69861 -1.44945,-2.38253 -0.8221,-0.68393 -1.90618,-1.09618 -3.0378,-1.17163 -1.13162,-0.0754 -2.48824,0.19348 -3.44848,0.82739 -0.96021,0.63387 -2.00204,2.69054 -2.00204,2.69054 0,0 -3.82985,-3.01825 -5.79779,-3.45149 -0.49199,-0.10838 -0.97818,-0.17393 -1.45248,-0.20232 z m 38.18994,0.32915 a 3.9044349,3.9044349 0 0 0 -3.90446,3.90444 3.9044349,3.9044349 0 0 0 3.90446,3.90445 3.9044349,3.9044349 0 0 0 3.90445,-3.90445 3.9044349,3.9044349 0 0 0 -3.90445,-3.90444 z"
       id="path3430"
       inkscape:export-xdpi="90"
       inkscape:export-ydpi="90" />
    <path
       inkscape:connector-curvature="0"
       style="fill:#000000;fill-opacity:1;fill-rule:evenodd;stroke:none;stroke-width:0.1;stroke-linecap:butt;stroke-linejoin:miter;stroke-miterlimit:4;stroke-dasharray:none;stroke-opacity:1"
       d="m 62.903985,682.43747 c 1.42291,-0.0852 2.74674,0.18035 3.86216,0.75492 1.48725,0.76611 2.70553,1.95192 3.10726,3.52094 0.40175,1.56902 -0.19943,3.67055 -1.1052,4.90094 -0.90577,1.23038 -2.34207,1.95371 -3.58739,2.07152 -1.2453,0.11781 -2.38919,-0.27199 -3.17669,-1.10522 -0.78752,-0.83323 -1.16497,-2.41539 -0.96631,-3.38204 0.19867,-0.96669 0.78837,-1.52873 1.5189,-1.86314 0.35793,-0.16373 1.17446,-0.34269 1.83597,-0.0935 0.68868,0.25926 1.1924,0.71894 1.25315,1.21693 0.049,0.40265 0.0388,0.50155 -0.0302,0.84249 -0.069,0.34094 -0.40765,0.54354 -0.40765,0.54354 0,0 0.85192,0.22483 1.17466,-0.0362 0.26693,-0.21599 0.4685,-0.80781 0.50127,-0.98743 0.055,-0.30156 0.10714,-0.59114 0.009,-1.03575 -0.12987,-0.58839 -0.58048,-1.31621 -1.06596,-1.62459 -0.85226,-0.54144 -2.32175,-1.02355 -3.82291,-0.48315 -1.50116,0.5404 -2.8296,2.97739 -4.13999,4.55671 -1.51026,1.82017 -2.49319,3.99039 -4.28191,5.65887 -1.7887,1.66852 -3.36201,2.86263 -4.13998,3.33072 -0.424258,0.25527 -1.178058,0.62012 -2.732808,0.84853 -1.29608,0.19048 -3.38775,0.20525 -4.22152,0.1509 -1.833911,-0.11936 -3.711451,-0.42517 -6.045411,-1.76953 -0.3305,-0.19037 -0.66685,-0.41537 -1.00254,-0.61602 0.19281,0.32339 0.40845,0.64784 0.59187,0.9663 1.34436,2.33397 1.65018,4.21149 1.76954,6.04541 0.0542,0.83376 0.0395,2.92545 -0.15106,4.22151 -0.2284,1.55477 -0.59325,2.30857 -0.84853,2.73282 -0.46809,0.77797 -1.66219,2.35129 -3.3307,4.13998 -1.66847,1.78873 -3.83872,2.76863 -5.65889,4.27889 -1.57932,1.31039 -4.0163,2.64184 -4.5567,4.14301 -0.54039,1.50116 -0.0583,2.96765 0.48316,3.8199 0.30838,0.48549 1.03621,0.93902 1.62459,1.06896 0.44461,0.0982 0.73417,0.046 1.03574,-0.009 0.17963,-0.0326 0.77144,-0.23434 0.98743,-0.50127 0.26109,-0.32274 0.0362,-1.17466 0.0362,-1.17466 0,0 -0.20258,0.3387 -0.54354,0.40766 -0.34094,0.069 -0.43683,0.0792 -0.83947,0.0302 -0.498,-0.0607 -0.96071,-0.56447 -1.21997,-1.25316 -0.24908,-0.6615 -0.07,-1.47805 0.0935,-1.83597 0.3344,-0.73054 0.89646,-1.32022 1.86315,-1.5189 0.96666,-0.19866 2.5488,0.17881 3.38204,0.9663 0.83321,0.78751 1.22296,1.92839 1.1052,3.17367 -0.11781,1.24532 -0.84111,2.68463 -2.07149,3.59042 -1.23039,0.90575 -3.33192,1.50693 -4.90095,1.1052 -1.56902,-0.40176 -2.75486,-1.62002 -3.52096,-3.10727 -0.76609,-1.48723 -0.98284,-3.34667 -0.54957,-5.31464 0.43323,-1.96792 3.44847,-5.79779 3.44847,-5.79779 0,0 -2.05666,-1.04182 -2.69053,-2.00205 -0.63389,-0.96022 -0.90285,-2.31989 -0.8274,-3.45149 0.0754,-1.13164 0.48771,-2.2127 1.17164,-3.03478 0.68393,-0.82211 1.39968,-1.17127 2.38253,-1.44945 0.98282,-0.27818 2.15741,-0.32263 3.14047,0.0846 0.98305,0.40717 2.0367,0.86156 2.3463,1.96883 0.30956,1.10727 0.22679,2.40149 -0.54658,2.97136 -0.77339,0.56984 -1.62601,0.76966 -2.35232,0.42578 -0.37763,-0.17889 -0.85242,-0.23466 -1.19882,-0.67037 -0.31975,-0.40218 -0.52543,-1.19278 -0.52542,-1.19278 0,0 -0.6559,0.36903 -0.48314,1.10521 0.075,0.31975 0.30544,0.9566 0.69149,1.32262 0.50276,0.47674 1.23152,0.66423 1.86014,0.81833 1.1113,0.27245 2.35917,-0.0857 3.45149,-0.76097 1.09232,-0.67529 1.96001,-1.87449 2.65732,-2.96834 0.6973,-1.09386 1.25761,-2.03435 1.55211,-3.51793 0.29448,-1.48359 0.0866,-3.90188 -0.34423,-5.45354 -0.43074,-1.55166 -0.99874,-2.68399 -1.9326,-3.7263 -1.0517,-1.17391 -2.04953,-2.2545 -3.56928,-2.67241 -0.86628,-0.23821 -2.24447,-0.19849 -3.05591,0.18722 -0.86802,0.4126 -1.61564,1.23061 -1.93259,2.13793 -0.36491,1.04459 -0.24953,2.58608 0.20533,3.3126 0.22935,0.36646 0.66301,0.7825 1.03576,0.88477 0.14858,0.0408 0.51481,-0.0176 0.63716,-0.18723 0.17908,-0.24816 0.0875,-0.65225 0.0875,-0.65225 0,0 -0.61254,0.30894 -0.84853,-0.27781 -0.20201,-0.50228 -0.26577,-0.87458 -0.29292,-1.47964 -0.0272,-0.60509 0.31373,-1.49455 1.03576,-1.87522 0.97346,-0.51322 2.4703,-0.24612 3.31561,0.19628 0.73085,0.3825 1.17465,1.52795 1.17465,1.52795 0,0 0.58373,1.51481 0.32008,2.75395 -0.21411,1.00623 -1.19459,1.7151 -1.83898,2.21646 -1.43797,1.11885 -4.30479,1.04975 -5.72834,0.27478 -1.42355,-0.77497 -1.86619,-1.95525 -2.24663,-3.32768 -0.38038,-1.37251 -0.38671,-3.20782 0.17514,-4.67749 0.56182,-1.46969 1.5715,-2.47074 2.75093,-3.07707 1.17941,-0.60632 2.0506,-0.82532 2.93815,-1.0297 1.10263,-0.25388 2.57665,-0.23261 3.79575,0.0513 0.21949,0.0512 0.40372,0.1124 0.59185,0.17514 -0.0566,-0.17481 -0.11611,-0.34193 -0.16307,-0.54353 -0.28395,-1.2191 -0.30521,-2.69312 -0.0513,-3.79575 0.20438,-0.88756 0.42336,-1.75874 1.02971,-2.93815 0.60632,-1.17943 1.60738,-2.18911 3.07706,-2.75093 1.46965,-0.56183 3.30498,-0.55553 4.67748,-0.17514 1.37246,0.38044 2.555751,0.82309 3.330711,2.24664 0.77499,1.42356 0.84105,4.29037 -0.2778,5.72834 -0.50138,0.64438 -1.21022,1.62489 -2.216461,1.83899 -1.23914,0.26367 -2.75395,-0.32009 -2.75395,-0.32009 0,0 -1.14243,-0.44381 -1.52494,-1.17466 -0.44241,-0.84533 -0.71252,-2.34517 -0.19929,-3.31863 0.38067,-0.72203 1.27015,-1.05994 1.87522,-1.03272 0.60506,0.0272 0.97737,0.0909 1.47964,0.2929 0.58676,0.23599 0.27782,0.84853 0.27782,0.84853 0,0 0.40406,0.0915 0.65224,-0.0875 0.16956,-0.1223 0.22804,-0.48858 0.18723,-0.63716 -0.10219,-0.37275 -0.51529,-0.80637 -0.88176,-1.03575 -0.7265,-0.45484 -2.271,-0.57027 -3.31561,-0.20533 -0.90732,0.31695 -1.72532,1.0646 -2.13793,1.93259 -0.38571,0.81143 -0.42545,2.18965 -0.18722,3.05592 0.41789,1.51974 1.4985,2.51757 2.67242,3.56926 1.04228,0.93387 2.17463,1.50186 3.72629,1.93259 1.551661,0.43077 3.969981,0.63875 5.453541,0.34425 1.48359,-0.29448 2.42406,-0.85482 3.51793,-1.55212 1.093868,-0.69731 2.293018,-1.565 2.968338,-2.65732 0.67527,-1.09234 1.03342,-2.34018 0.76097,-3.45149 -0.15414,-0.62861 -0.33858,-1.35738 -0.81531,-1.86014 -0.36603,-0.38605 -1.00589,-0.61952 -1.32563,-0.69451 -0.7362,-0.17275 -1.10522,0.48315 -1.10522,0.48315 0,0 0.7906,0.20566 1.19278,0.52542 0.43569,0.34638 0.49451,0.8242 0.67338,1.20183 0.34388,0.72631 0.141,1.57896 -0.42879,2.35234 -0.56988,0.77338 -1.864098,0.85612 -2.971368,0.54655 -1.10725,-0.30957 -1.56165,-1.36324 -1.96882,-2.34628 -0.4072,-0.98309 -0.36275,-2.15764 -0.0846,-3.14048 0.27818,-0.98285 0.62736,-1.69861 1.44945,-2.38253 0.8221,-0.68393 1.906178,-1.09618 3.037798,-1.17163 1.13162,-0.0754 2.48824,0.19348 3.44848,0.82739 0.96021,0.63387 2.00204,2.69054 2.00204,2.69054 0,0 3.82985,-3.01825 5.79779,-3.45149 0.49199,-0.10838 0.97818,-0.17393 1.45248,-0.20232 z m -38.189939,0.32915 a 3.9044349,3.9044349 0 0 1 3.90446,3.90444 3.9044349,3.9044349 0 0 1 -3.90446,3.90445 3.9044349,3.9044349 0 0 1 -3.90445,-3.90445 3.9044349,3.9044349 0 0 1 3.90445,-3.90444 z"
       id="path3430-9"
       inkscape:export-xdpi="90"
       inkscape:export-ydpi="90" />
    <path
       inkscape:connector-curvature="0"
       style="fill:#000000;fill-opacity:1;fill-rule:evenodd;stroke:none;stroke-width:0.1;stroke-linecap:butt;stroke-linejoin:miter;stroke-miterlimit:4;stroke-dasharray:none;stroke-opacity:1"
       d="m 237.09641,1022.3466 c -1.42291,0.085 -2.74674,-0.1804 -3.86216,-0.755 -1.48725,-0.7661 -2.70553,-1.9518 -3.10726,-3.5209 -0.40175,-1.569 0.19943,-3.6705 1.1052,-4.9009 0.90577,-1.2304 2.34207,-1.9537 3.58739,-2.0715 1.2453,-0.1178 2.38919,0.272 3.17669,1.1052 0.78752,0.8332 1.16497,2.4154 0.96631,3.382 -0.19867,0.9667 -0.78837,1.5288 -1.5189,1.8632 -0.35793,0.1637 -1.17446,0.3427 -1.83597,0.094 -0.68868,-0.2593 -1.1924,-0.719 -1.25315,-1.2169 -0.049,-0.4027 -0.0388,-0.5016 0.0302,-0.8425 0.069,-0.341 0.40765,-0.5436 0.40765,-0.5436 0,0 -0.85192,-0.2248 -1.17466,0.036 -0.26693,0.216 -0.4685,0.8078 -0.50127,0.9875 -0.055,0.3015 -0.10714,0.5911 -0.009,1.0357 0.12987,0.5884 0.58048,1.3162 1.06596,1.6246 0.85226,0.5414 2.32175,1.0235 3.82291,0.4831 1.50116,-0.5404 2.8296,-2.9773 4.13999,-4.5567 1.51026,-1.8201 2.49319,-3.9904 4.28191,-5.6588 1.7887,-1.6686 3.36201,-2.8627 4.13998,-3.3308 0.42426,-0.2552 1.17806,-0.6201 2.73281,-0.8485 1.29608,-0.1905 3.38775,-0.2052 4.22152,-0.1509 1.83391,0.1194 3.71145,0.4252 6.04541,1.7695 0.3305,0.1904 0.66685,0.4154 1.00254,0.6161 -0.19281,-0.3234 -0.40845,-0.6479 -0.59187,-0.9663 -1.34436,-2.334 -1.65018,-4.2115 -1.76954,-6.04548 -0.0542,-0.83375 -0.0395,-2.92544 0.15106,-4.2215 0.2284,-1.55477 0.59325,-2.30857 0.84853,-2.73282 0.46809,-0.77797 1.66219,-2.35129 3.3307,-4.13998 1.66847,-1.78873 3.83872,-2.76863 5.65889,-4.27889 1.57932,-1.31039 4.0163,-2.64184 4.5567,-4.14301 0.54039,-1.50116 0.0583,-2.96765 -0.48316,-3.8199 -0.30838,-0.48549 -1.03621,-0.93902 -1.62459,-1.06896 -0.44461,-0.0982 -0.73417,-0.046 -1.03574,0.009 -0.17963,0.0326 -0.77144,0.23434 -0.98743,0.50127 -0.26109,0.32274 -0.0362,1.17466 -0.0362,1.17466 0,0 0.20258,-0.3387 0.54354,-0.40766 0.34094,-0.069 0.43683,-0.0792 0.83947,-0.0302 0.498,0.0607 0.96071,0.56447 1.21997,1.25316 0.24908,0.6615 0.07,1.47805 -0.0935,1.83597 -0.3344,0.73054 -0.89646,1.32022 -1.86315,1.5189 -0.96666,0.19866 -2.5488,-0.17881 -3.38204,-0.9663 -0.83321,-0.78751 -1.22296,-1.92839 -1.1052,-3.17367 0.11781,-1.24532 0.84111,-2.68463 2.07149,-3.59042 1.23039,-0.90575 3.33192,-1.50693 4.90095,-1.1052 1.56902,0.40176 2.75486,1.62002 3.52096,3.10727 0.76609,1.48723 0.98284,3.34667 0.54957,5.31464 -0.43323,1.96792 -3.44847,5.79779 -3.44847,5.79779 0,0 2.05666,1.04182 2.69053,2.00205 0.63389,0.96022 0.90285,2.31989 0.8274,3.45149 -0.0754,1.13164 -0.48771,2.2127 -1.17164,3.03478 -0.68393,0.82211 -1.39968,1.17127 -2.38253,1.44945 -0.98282,0.27818 -2.15741,0.32263 -3.14047,-0.0846 -0.98305,-0.40717 -2.0367,-0.86156 -2.3463,-1.96883 -0.30956,-1.10727 -0.22679,-2.40149 0.54658,-2.97136 0.77339,-0.56984 1.62601,-0.76966 2.35232,-0.42578 0.37763,0.17889 0.85242,0.23466 1.19882,0.67037 0.31975,0.40218 0.52543,1.19278 0.52542,1.19278 0,0 0.6559,-0.36903 0.48314,-1.10521 -0.075,-0.31975 -0.30544,-0.9566 -0.69149,-1.32262 -0.50276,-0.47674 -1.23152,-0.66423 -1.86014,-0.81833 -1.1113,-0.27245 -2.35917,0.0857 -3.45149,0.76097 -1.09232,0.67529 -1.96001,1.87449 -2.65732,2.96834 -0.6973,1.09386 -1.25761,2.03435 -1.55211,3.51793 -0.29448,1.48359 -0.0866,3.9019 0.34423,5.4536 0.43074,1.5516 0.99874,2.684 1.9326,3.7263 1.0517,1.1739 2.04953,2.2545 3.56928,2.6724 0.86628,0.2382 2.24447,0.1985 3.05591,-0.1872 0.86802,-0.4126 1.61564,-1.2307 1.93259,-2.138 0.36491,-1.0446 0.24953,-2.5861 -0.20533,-3.3126 -0.22935,-0.3664 -0.66301,-0.7825 -1.03576,-0.8847 -0.14858,-0.041 -0.51481,0.018 -0.63716,0.1872 -0.17908,0.2481 -0.0875,0.6522 -0.0875,0.6522 0,0 0.61254,-0.3089 0.84853,0.2778 0.20201,0.5023 0.26577,0.8746 0.29292,1.4797 0.0272,0.6051 -0.31373,1.4945 -1.03576,1.8752 -0.97346,0.5132 -2.4703,0.2461 -3.31561,-0.1963 -0.73085,-0.3825 -1.17465,-1.5279 -1.17465,-1.5279 0,0 -0.58373,-1.5148 -0.32008,-2.754 0.21411,-1.0062 1.19459,-1.7151 1.83898,-2.2164 1.43797,-1.11891 4.30479,-1.04981 5.72834,-0.27488 1.42355,0.77508 1.86619,1.95528 2.24663,3.32778 0.38038,1.3725 0.38671,3.2078 -0.17514,4.6775 -0.56182,1.4696 -1.5715,2.4707 -2.75093,3.077 -1.17941,0.6063 -2.0506,0.8253 -2.93815,1.0297 -1.10263,0.2539 -2.57665,0.2326 -3.79575,-0.051 -0.21949,-0.051 -0.40372,-0.1124 -0.59185,-0.1751 0.0566,0.1748 0.11611,0.3419 0.16307,0.5435 0.28395,1.2191 0.30521,2.6931 0.0513,3.7958 -0.20438,0.8875 -0.42336,1.7587 -1.02971,2.9381 -0.60632,1.1794 -1.60738,2.1891 -3.07706,2.7509 -1.46965,0.5618 -3.30498,0.5555 -4.67748,0.1751 -1.37246,-0.3804 -2.55575,-0.823 -3.33071,-2.2465 -0.77499,-1.4236 -0.84105,-4.2904 0.2778,-5.7284 0.50138,-0.6444 1.21022,-1.6249 2.21646,-1.839 1.23914,-0.2636 2.75395,0.3201 2.75395,0.3201 0,0 1.14243,0.4438 1.52494,1.1747 0.44241,0.8453 0.71252,2.3451 0.19929,3.3186 -0.38067,0.722 -1.27015,1.0599 -1.87522,1.0327 -0.60506,-0.027 -0.97737,-0.091 -1.47964,-0.2929 -0.58676,-0.236 -0.27782,-0.8485 -0.27782,-0.8485 0,0 -0.40406,-0.091 -0.65224,0.087 -0.16956,0.1223 -0.22804,0.4886 -0.18723,0.6372 0.10219,0.3727 0.51529,0.8063 0.88176,1.0357 0.7265,0.4548 2.271,0.5703 3.31561,0.2053 0.90732,-0.3169 1.72532,-1.0646 2.13793,-1.9326 0.38571,-0.8114 0.42545,-2.1896 0.18722,-3.0559 -0.41789,-1.5197 -1.4985,-2.5175 -2.67242,-3.5692 -1.04228,-0.9339 -2.17463,-1.5019 -3.72629,-1.9326 -1.55166,-0.4308 -3.96998,-0.6388 -5.45354,-0.3443 -1.48359,0.2945 -2.42406,0.8548 -3.51793,1.5521 -1.09387,0.6974 -2.29302,1.565 -2.96834,2.6574 -0.67527,1.0923 -1.03342,2.3401 -0.76097,3.4515 0.15414,0.6286 0.33858,1.3573 0.81531,1.8601 0.36603,0.386 1.00589,0.6195 1.32563,0.6945 0.7362,0.1728 1.10522,-0.4831 1.10522,-0.4831 0,0 -0.7906,-0.2057 -1.19278,-0.5255 -0.43569,-0.3463 -0.49451,-0.8242 -0.67338,-1.2018 -0.34388,-0.7263 -0.141,-1.579 0.42879,-2.3523 0.56988,-0.7734 1.8641,-0.8562 2.97137,-0.5466 1.10725,0.3096 1.56165,1.3633 1.96882,2.3463 0.4072,0.9831 0.36275,2.1576 0.0846,3.1405 -0.27818,0.9828 -0.62736,1.6986 -1.44945,2.3826 -0.8221,0.6839 -1.90618,1.0961 -3.0378,1.1716 -1.13162,0.075 -2.48824,-0.1935 -3.44848,-0.8274 -0.96021,-0.634 -2.00204,-2.6906 -2.00204,-2.6906 0,0 -3.82985,3.0182 -5.79779,3.4515 -0.49199,0.1083 -0.97818,0.174 -1.45248,0.2024 z m 38.18994,-0.3292 a 3.9044349,3.9044349 0 0 1 -3.90446,-3.9044 3.9044349,3.9044349 0 0 1 3.90446,-3.9044 3.9044349,3.9044349 0 0 1 3.90445,3.9044 3.9044349,3.9044349 0 0 1 -3.90445,3.9044 z"
       id="path3430-0"
       inkscape:export-xdpi="90"
       inkscape:export-ydpi="90" />
    <path
       inkscape:connector-curvature="0"
       style="fill:#000000;fill-opacity:1;fill-rule:evenodd;stroke:none;stroke-width:0.1;stroke-linecap:butt;stroke-linejoin:miter;stroke-miterlimit:4;stroke-dasharray:none;stroke-opacity:1"
       d="m 62.903996,1022.3466 c 1.42291,0.085 2.74674,-0.1803 3.86216,-0.7549 1.48725,-0.7661 2.70553,-1.9519 3.10726,-3.5209 0.40175,-1.569 -0.19943,-3.6706 -1.1052,-4.901 -0.90577,-1.2303 -2.34207,-1.9537 -3.58739,-2.0715 -1.2453,-0.1178 -2.38919,0.272 -3.17669,1.1052 -0.78752,0.8333 -1.16497,2.4154 -0.96631,3.3821 0.19867,0.9667 0.78837,1.5287 1.5189,1.8631 0.35793,0.1637 1.17446,0.3427 1.83597,0.094 0.68868,-0.2592 1.1924,-0.7189 1.25315,-1.2169 0.049,-0.4027 0.0388,-0.5016 -0.0302,-0.8425 -0.069,-0.3409 -0.40765,-0.5435 -0.40765,-0.5435 0,0 0.85192,-0.2249 1.17466,0.036 0.26693,0.2159 0.4685,0.8078 0.50127,0.9874 0.055,0.3015 0.10714,0.5911 0.009,1.0357 -0.12987,0.5884 -0.58048,1.3162 -1.06596,1.6246 -0.85226,0.5415 -2.32175,1.0236 -3.82291,0.4832 -1.50116,-0.5404 -2.82961,-2.9774 -4.14,-4.5567 -1.51026,-1.8202 -2.49319,-3.9904 -4.28191,-5.6589 -1.7887,-1.6685 -3.36201,-2.8626 -4.13998,-3.3307 -0.42426,-0.2553 -1.17806,-0.6201 -2.73281,-0.8486 -1.29608,-0.1904 -3.38775,-0.2052 -4.22152,-0.1509 -1.83391,0.1194 -3.71145,0.4252 -6.04541,1.7696 -0.3305,0.1903 -0.66685,0.4153 -1.00254,0.616 0.19281,-0.3234 0.40845,-0.6478 0.59187,-0.9663 1.34436,-2.334 1.65018,-4.2115 1.76954,-6.04538 0.0542,-0.8339 0.0395,-2.92558 -0.15106,-4.22158 -0.2284,-1.5548 -0.59325,-2.3086 -0.84853,-2.7328 -0.46809,-0.778 -1.66219,-2.3513 -3.3307,-4.14 -1.66847,-1.7888 -3.83872,-2.7687 -5.65889,-4.2789 -1.57932,-1.3104 -4.0163,-2.6419 -4.5567,-4.143 -0.54039,-1.5012 -0.0583,-2.9677 0.48316,-3.8199 0.30838,-0.4855 1.03621,-0.939 1.62459,-1.069 0.44461,-0.098 0.73417,-0.046 1.03574,0.01 0.17963,0.033 0.77144,0.2344 0.98743,0.5013 0.26109,0.3227 0.0362,1.1746 0.0362,1.1746 0,0 -0.20258,-0.3387 -0.54354,-0.4076 -0.34094,-0.069 -0.43683,-0.079 -0.83947,-0.03 -0.498,0.061 -0.96071,0.5645 -1.21997,1.2531 -0.24908,0.6615 -0.07,1.4781 0.0935,1.836 0.3344,0.7306 0.89646,1.3202 1.86315,1.5189 0.96666,0.1987 2.5488,-0.1788 3.38204,-0.9663 0.83321,-0.7875 1.22296,-1.9284 1.1052,-3.1737 -0.11781,-1.2453 -0.84111,-2.6846 -2.07149,-3.5904 -1.23039,-0.9057 -3.33192,-1.5069 -4.90095,-1.1052 -1.56902,0.4018 -2.75486,1.62 -3.52096,3.1073 -0.76609,1.4872 -0.98284,3.3467 -0.54957,5.3146 0.43323,1.968 3.44847,5.7978 3.44847,5.7978 0,0 -2.05666,1.0418 -2.69053,2.0021 -0.63389,0.9602 -0.90285,2.3199 -0.8274,3.4515 0.0754,1.1316 0.48771,2.2127 1.17164,3.0347 0.68393,0.8222 1.39968,1.1713 2.38253,1.4495 0.98282,0.2782 2.15741,0.3226 3.14047,-0.085 0.98305,-0.4072 2.0367,-0.8616 2.3463,-1.9688 0.30956,-1.1073 0.22679,-2.4015 -0.54658,-2.9714 -0.77339,-0.5698 -1.62601,-0.7697 -2.35232,-0.4258 -0.37763,0.1789 -0.85242,0.2347 -1.19882,0.6704 -0.31975,0.4022 -0.52543,1.1928 -0.52542,1.1928 0,0 -0.6559,-0.3691 -0.48314,-1.1052 0.075,-0.3198 0.30544,-0.9566 0.69149,-1.3227 0.50276,-0.4767 1.23152,-0.6642 1.86014,-0.8183 1.1113,-0.2724 2.35917,0.086 3.45149,0.761 1.09232,0.6753 1.96001,1.8745 2.65732,2.9683 0.6973,1.0939 1.25761,2.0344 1.55211,3.518 0.29448,1.4835 0.0866,3.90186 -0.34423,5.45356 -0.43074,1.5517 -0.99874,2.684 -1.9326,3.7263 -1.0517,1.1739 -2.04953,2.2545 -3.56928,2.6724 -0.86628,0.2382 -2.24447,0.1985 -3.05591,-0.1872 -0.86802,-0.4126 -1.61564,-1.2306 -1.93259,-2.1379 -0.36491,-1.0446 -0.24953,-2.5861 0.20533,-3.3126 0.22935,-0.3665 0.66301,-0.7825 1.03576,-0.8848 0.14858,-0.041 0.51481,0.018 0.63716,0.1872 0.17908,0.2482 0.0875,0.6523 0.0875,0.6523 0,0 -0.61254,-0.309 -0.84853,0.2778 -0.20201,0.5023 -0.26577,0.8746 -0.29292,1.4796 -0.0272,0.6051 0.31373,1.4946 1.03576,1.8752 0.97346,0.5133 2.4703,0.2462 3.31561,-0.1962 0.73085,-0.3825 1.17465,-1.528 1.17465,-1.528 0,0 0.58373,-1.5148 0.32008,-2.7539 -0.21411,-1.0063 -1.19459,-1.7151 -1.83898,-2.2165 -1.43797,-1.11898 -4.30479,-1.04988 -5.72834,-0.27478 -1.42355,0.77498 -1.86619,1.95528 -2.24663,3.32768 -0.38038,1.3725 -0.38671,3.2078 0.17514,4.6775 0.56182,1.4697 1.5715,2.4707 2.75093,3.0771 1.17941,0.6063 2.0506,0.8253 2.93815,1.0297 1.10263,0.2538 2.57665,0.2326 3.79575,-0.051 0.21949,-0.051 0.40372,-0.1124 0.59185,-0.1752 -0.0566,0.1748 -0.11611,0.3419 -0.16307,0.5435 -0.28395,1.2191 -0.30521,2.6932 -0.0513,3.7958 0.20438,0.8876 0.42336,1.7587 1.02971,2.9381 0.60632,1.1795 1.60738,2.1892 3.07706,2.751 1.46965,0.5618 3.30498,0.5555 4.67748,0.1751 1.37246,-0.3804 2.55575,-0.8231 3.33071,-2.2466 0.77499,-1.4236 0.84105,-4.2904 -0.2778,-5.7284 -0.50138,-0.6443 -1.21022,-1.6249 -2.21646,-1.839 -1.23914,-0.2636 -2.75395,0.3201 -2.75395,0.3201 0,0 -1.14243,0.4438 -1.52494,1.1747 -0.44241,0.8453 -0.71252,2.3452 -0.19929,3.3186 0.38067,0.7221 1.27015,1.06 1.87522,1.0327 0.60506,-0.027 0.97737,-0.091 1.47964,-0.2929 0.58676,-0.2359 0.27782,-0.8485 0.27782,-0.8485 0,0 0.40406,-0.091 0.65224,0.087 0.16956,0.1223 0.22804,0.4886 0.18723,0.6372 -0.10219,0.3727 -0.51529,0.8063 -0.88176,1.0357 -0.7265,0.4549 -2.271,0.5703 -3.31561,0.2054 -0.90732,-0.317 -1.72532,-1.0646 -2.13793,-1.9326 -0.38571,-0.8115 -0.42545,-2.1897 -0.18722,-3.056 0.41789,-1.5197 1.4985,-2.5175 2.67242,-3.5692 1.04228,-0.9339 2.17463,-1.5019 3.72629,-1.9326 1.55166,-0.4308 3.96998,-0.6388 5.45354,-0.3443 1.48359,0.2945 2.42406,0.8549 3.51793,1.5522 1.09387,0.6973 2.29302,1.565 2.96834,2.6573 0.67527,1.0923 1.03342,2.3402 0.76097,3.4515 -0.15414,0.6286 -0.33858,1.3574 -0.81531,1.8601 -0.36603,0.3861 -1.00589,0.6195 -1.32563,0.6945 -0.7362,0.1728 -1.10522,-0.4831 -1.10522,-0.4831 0,0 0.7906,-0.2057 1.19278,-0.5254 0.43569,-0.3464 0.49451,-0.8242 0.67338,-1.2019 0.34388,-0.7263 0.141,-1.5789 -0.42879,-2.3523 -0.56988,-0.7734 -1.8641,-0.8561 -2.97137,-0.5466 -1.10725,0.3096 -1.56165,1.3633 -1.96882,2.3463 -0.4072,0.9831 -0.36275,2.1577 -0.0846,3.1405 0.27818,0.9828 0.62736,1.6986 1.44945,2.3825 0.8221,0.684 1.90618,1.0962 3.0378,1.1717 1.13162,0.075 2.48824,-0.1935 3.44848,-0.8274 0.96021,-0.6339 2.00204,-2.6906 2.00204,-2.6906 0,0 3.82985,3.0183 5.7978,3.4515 0.49199,0.1084 0.97818,0.1739 1.45248,0.2023 z m -38.18995,-0.3291 a 3.9044349,3.9044349 0 0 0 3.90446,-3.9045 3.9044349,3.9044349 0 0 0 -3.90446,-3.9044 3.9044349,3.9044349 0 0 0 -3.90445,3.9044 3.9044349,3.9044349 0 0 0 3.90445,3.9045 z"
       id="path3430-5"
       inkscape:export-xdpi="90"
       inkscape:export-ydpi="90" />
    <text
       xml:space="preserve"
       style="font-style:normal;font-weight:normal;font-size:40px;line-height:125%;font-family:sans-serif;letter-spacing:0px;word-spacing:0px;fill:#000000;fill-opacity:1;stroke:none;stroke-width:1px;stroke-linecap:butt;stroke-linejoin:miter;stroke-opacity:1"
       x="40"
       y="912.36218"
       id="text4330"
       sodipodi:linespacing="125%"
       inkscape:export-xdpi="90"
       inkscape:export-ydpi="90"><tspan
         sodipodi:role="line"
         id="tspan4332"
         x="40"
         y="912.36218" /></text>
    <text
       xml:space="preserve"
       style="font-style:normal;font-weight:normal;font-size:17.47951698px;line-height:125%;font-family:sans-serif;letter-spacing:0px;word-spacing:0px;fill:#000000;fill-opacity:1;stroke:none;stroke-width:1px;stroke-linecap:butt;stroke-linejoin:miter;stroke-opacity:1"
       x="9.7203274"
       y="784.59784"
       id="text3375"
       sodipodi:linespacing="125%"><tspan
         sodipodi:role="line"
         id="tspan3377"
         x="9.7203274"
         y="784.59784"
         style="font-style:normal;font-variant:normal;font-weight:normal;font-stretch:normal;font-size:17.47951698px;line-height:125%;font-family:'Yanone Kaffeesatz';-inkscape-font-specification:'Yanone Kaffeesatz, Normal';text-align:start;writing-mode:lr-tb;text-anchor:start">Восх.</tspan><tspan
         sodipodi:role="line"
         x="9.7203274"
         y="806.44727"
         id="tspan3379"
         style="font-style:normal;font-variant:normal;font-weight:normal;font-stretch:normal;font-size:17.47951698px;line-height:125%;font-family:'Yanone Kaffeesatz';-inkscape-font-specification:'Yanone Kaffeesatz, Normal';text-align:start;writing-mode:lr-tb;text-anchor:start">06:29</tspan><tspan
         sodipodi:role="line"
         x="9.7203274"
         y="828.29663"
         id="tspan3381"
         style="font-style:normal;font-variant:normal;font-weight:normal;font-stretch:normal;font-size:17.47951698px;line-height:125%;font-family:'Yanone Kaffeesatz';-inkscape-font-specification:'Yanone Kaffeesatz, Normal';text-align:start;writing-mode:lr-tb;text-anchor:start">Зах.</tspan><tspan
         sodipodi:role="line"
         x="9.7203274"
         y="850.14606"
         id="tspan3383"
         style="font-style:normal;font-variant:normal;font-weight:normal;font-stretch:normal;font-size:17.47951698px;line-height:125%;font-family:'Yanone Kaffeesatz';-inkscape-font-specification:'Yanone Kaffeesatz, Normal';text-align:start;writing-mode:lr-tb;text-anchor:start">18:10</tspan><tspan
         sodipodi:role="line"
         x="9.7203274"
         y="871.99542"
         style="font-style:normal;font-variant:normal;font-weight:normal;font-stretch:normal;font-size:17.47951698px;line-height:125%;font-family:'Yanone Kaffeesatz';-inkscape-font-specification:'Yanone Kaffeesatz, Normal';text-align:start;writing-mode:lr-tb;text-anchor:start"
         id="tspan3389">Долг. дня</tspan><tspan
         sodipodi:role="line"
         x="9.7203274"
         y="893.84485"
         style="font-style:normal;font-variant:normal;font-weight:normal;font-stretch:normal;font-size:17.47951698px;line-height:125%;font-family:'Yanone Kaffeesatz';-inkscape-font-specification:'Yanone Kaffeesatz, Normal';text-align:start;writing-mode:lr-tb;text-anchor:start"
         id="tspan3391">11:40</tspan></text>
    <text
       xml:space="preserve"
       style="font-style:normal;font-weight:normal;font-size:40px;line-height:125%;font-family:sans-serif;letter-spacing:0px;word-spacing:0px;fill:#000000;fill-opacity:1;stroke:none;stroke-width:1px;stroke-linecap:butt;stroke-linejoin:miter;stroke-opacity:1"
       x="150"
       y="1042.3622"
       id="text3385"
       sodipodi:linespacing="125%"
       inkscape:export-xdpi="90"
       inkscape:export-ydpi="90"><tspan
         sodipodi:role="line"
         id="tspan3387"
         x="150"
         y="1042.3622" /></text>
    <path
       style="fill:#000000;fill-opacity:1;stroke:none;stroke-width:0.1;stroke-miterlimit:4;stroke-dasharray:none;stroke-opacity:1"
       d="m 17.5,750.36216 a 7.5,7.4999866 0 0 0 -7.5,7.5 7.5,7.4999866 0 0 0 7.5,7.5 7.5,7.4999866 0 0 0 7.5,-7.5 7.5,7.4999866 0 0 0 -7.5,-7.5 z m 0,1 a 6.5,6.4999886 0 0 1 6.5,6.5 6.5,6.4999886 0 0 1 -6.5,6.5 6.5,6.4999886 0 0 1 -6.5,-6.5 6.5,6.4999886 0 0 1 6.5,-6.5 z m 0,4 a 2.5,2.4999955 0 0 0 -2.5,2.5 2.5,2.4999955 0 0 0 2.5,2.5 2.5,2.4999955 0 0 0 2.5,-2.5 2.5,2.4999955 0 0 0 -2.5,-2.5 z"
       id="path3395"
       inkscape:export-xdpi="90"
       inkscape:export-ydpi="90"
       inkscape:connector-curvature="0" />
    <path
       style="opacity:1;fill:#000000;fill-opacity:1;stroke:none;stroke-width:0.1;stroke-miterlimit:4;stroke-dasharray:none;stroke-opacity:1"
       d="m 282.48984,750.36216 a 7.5,7.5 0 0 0 -2.01562,0.27734 7.5,7.5 0 0 1 5.51562,7.22266 7.5,7.5 0 0 1 -5.48633,7.22461 7.5,7.5 0 0 0 1.98633,0.27539 7.5,7.5 0 0 0 7.5,-7.5 7.5,7.5 0 0 0 -7.5,-7.5 z"
       id="path4176"
       inkscape:connector-curvature="0"
       inkscape:export-xdpi="90"
       inkscape:export-ydpi="90" />
    <rect
       style="opacity:1;fill:none;fill-opacity:1;stroke:#000000;stroke-width:0.83031845;stroke-miterlimit:4;stroke-dasharray:none;stroke-opacity:1"
       id="rect4195"
       width="139.16968"
       height="89.169685"
       x="80.415161"
       y="767.77734"
       inkscape:export-xdpi="90"
       inkscape:export-ydpi="90" />
    <rect
       style="opacity:1;fill:none;fill-opacity:1;stroke:#000000;stroke-width:0.49435154;stroke-miterlimit:4;stroke-dasharray:none;stroke-opacity:1"
       id="rect4195-8"
       width="179.50566"
       height="24.505648"
       x="60.247177"
       y="732.60931"
       inkscape:export-xdpi="90"
       inkscape:export-ydpi="90" />
    <rect
       style="opacity:1;fill:none;fill-opacity:1;stroke:#000000;stroke-width:0.49435154;stroke-miterlimit:4;stroke-dasharray:none;stroke-opacity:1"
       id="rect4195-8-1"
       width="179.50566"
       height="24.505648"
       x="60.247177"
       y="867.60931"
       inkscape:export-xdpi="90"
       inkscape:export-ydpi="90" />
  </g>
</svg>
