<?xml version="1.0" encoding="UTF-8"?>
<svg xmlns="http://www.w3.org/2000/svg" xmlns:xlink="http://www.w3.org/1999/xlink" width="1000" height="1000" viewBox="0 0 1000 1000" version="1.1">
<g id="surface1">
<path d="M 785.699219 415.492188 C 827.898438 434.925781 855.136719 477.398438 855.136719 523.726562 C 855.136719 589.4375 801.753906 642.890625 736.136719 642.890625 L 371.988281 642.890625 C 296.042969 642.890625 234.226562 581.074219 234.226562 505.144531 C 234.226562 449.21875 269.226562 397.78125 321.316406 377.144531 L 336.773438 371 L 340.007812 354.746094 C 353.917969 285.308594 415.371094 234.925781 486.0625 234.925781 C 527.355469 234.925781 567.136719 252.253906 595.226562 282.472656 L 607.898438 296.109375 L 625.84375 291.089844 C 636.082031 288.21875 646.464844 286.761719 656.71875 286.761719 C 714.84375 286.761719 763.71875 332.109375 768.007812 389.980469 L 769.335938 407.964844 Z M 765.355469 199.382812 C 856.082031 217.144531 924.570312 297 924.589844 392.910156 C 924.589844 438.507812 908.972656 480.363281 882.988281 513.761719 C 879.316406 460.289062 846.898438 412.199219 797.679688 389.527344 L 796.609375 389.035156 L 796.515625 387.871094 C 791.988281 326.800781 747.773438 277.308594 690.535156 262.871094 L 689.789062 255.746094 C 684.664062 205.671875 649.570312 159.855469 598.191406 136.109375 C 575.773438 125.78125 551.390625 120.328125 527.679688 120.328125 C 509.828125 120.328125 492.515625 123.34375 476.664062 129.183594 C 453.371094 109.945312 426.664062 96.34375 398.425781 89.019531 C 435.445312 38.507812 495.007812 5.5625 562.445312 5.5625 C 671.535156 5.5625 760.300781 91.527344 765.355469 199.382812 Z M 205.664062 505.144531 C 205.664062 522.910156 208.515625 540 213.71875 556.074219 C 209.117188 556.089844 206.097656 556.089844 205.882812 556.074219 C 127.390625 545.289062 67.953125 474.054688 76.445312 390.980469 C 82.300781 333.4375 123.390625 285.472656 177.136719 264.144531 L 186.828125 260.308594 C 187.5 260.054688 187.972656 259.472656 188.117188 258.761719 L 190.0625 249.019531 C 199.988281 199.4375 229.480469 154.601562 273.988281 130.582031 C 339.191406 95.382812 413.753906 110.910156 464.0625 156 C 466.589844 158.253906 468.84375 160.691406 471.152344 163.074219 C 502.554688 145.308594 545.828125 143.417969 586.226562 162.054688 C 629.808594 182.183594 657.464844 220.34375 661.371094 258.671875 C 659.808594 258.601562 658.316406 258.21875 656.753906 258.21875 C 643.898438 258.21875 630.898438 260.035156 618.152344 263.601562 L 616.988281 263.925781 L 616.152344 263.019531 C 582.679688 227.019531 535.261719 206.382812 486.082031 206.382812 C 401.773438 206.382812 328.570312 266.398438 312.007812 349.144531 L 311.789062 350.199219 L 310.789062 350.601562 C 247.898438 375.507812 205.664062 437.617188 205.664062 505.144531 Z M 205.664062 505.144531 "/>
<path d="M 347.273438 785.980469 C 323.21875 832.417969 268.328125 802.035156 291.417969 757.21875 C 311.019531 719.128906 358.109375 696.089844 358.109375 696.089844 C 358.109375 696.089844 366.308594 749.109375 347.273438 785.980469 Z M 475.835938 930.238281 C 451.78125 976.671875 396.890625 946.289062 419.980469 901.472656 C 439.582031 863.382812 486.671875 840.34375 486.671875 840.34375 C 486.671875 840.34375 494.871094 893.363281 475.835938 930.238281 Z M 715.816406 785.980469 C 691.761719 832.417969 636.871094 802.035156 659.964844 757.21875 C 679.5625 719.128906 726.65625 696.089844 726.65625 696.089844 C 726.65625 696.089844 734.835938 749.109375 715.816406 785.980469 Z M 715.816406 785.980469 "/>
<path d="M 561.328125 760.964844 C 564.546875 761.761719 566.582031 765.089844 565.761719 768.308594 L 565.453125 769.472656 C 564.671875 772.691406 561.363281 774.726562 558.144531 773.910156 L 516.238281 763.691406 L 526.472656 805.617188 C 527.308594 808.855469 525.273438 812.128906 521.980469 812.945312 L 520.816406 813.199219 C 517.601562 814.019531 514.289062 812 513.507812 808.761719 L 503.417969 767.601562 L 473.398438 797.453125 C 471.019531 799.78125 467.21875 799.78125 464.835938 797.398438 L 463.964844 796.546875 C 461.65625 794.164062 461.65625 790.328125 464.019531 787.945312 L 493.964844 758.238281 L 452.980469 748.21875 C 449.746094 747.453125 447.671875 744.183594 448.527344 740.890625 L 448.78125 739.726562 C 449.601562 736.453125 452.925781 734.492188 456.144531 735.273438 L 498.089844 745.507812 L 487.800781 703.582031 C 487.019531 700.382812 489.074219 697.019531 492.308594 696.253906 L 493.472656 695.964844 C 496.746094 695.164062 500.054688 697.164062 500.835938 700.398438 L 510.835938 741.492188 L 540.890625 711.710938 C 543.253906 709.363281 547.109375 709.363281 549.4375 711.761719 L 550.308594 712.617188 C 552.691406 714.980469 552.636719 718.800781 550.308594 721.164062 L 520.308594 750.910156 Z M 689.871094 903.253906 C 693.089844 904.035156 695.144531 907.382812 694.308594 910.601562 L 694 911.761719 C 693.21875 914.980469 689.910156 917.019531 686.691406 916.199219 L 644.78125 905.980469 L 655.019531 947.910156 C 655.855469 951.144531 653.816406 954.417969 650.527344 955.238281 L 649.363281 955.492188 C 646.144531 956.308594 642.835938 954.289062 642.054688 951.054688 L 631.964844 909.890625 L 601.945312 939.746094 C 599.5625 942.074219 595.761719 942.074219 593.382812 939.691406 L 592.507812 938.835938 C 590.199219 936.453125 590.199219 932.617188 592.5625 930.238281 L 622.507812 900.527344 L 581.527344 890.507812 C 578.289062 889.746094 576.21875 886.472656 577.074219 883.183594 L 577.328125 882.019531 C 578.144531 878.746094 581.472656 876.78125 584.691406 877.5625 L 626.636719 887.800781 L 616.34375 845.871094 C 615.5625 842.671875 617.617188 839.308594 620.855469 838.546875 L 622.019531 838.253906 C 625.289062 837.453125 628.601562 839.453125 629.382812 842.691406 L 639.382812 883.78125 L 669.4375 854 C 671.800781 851.65625 675.65625 851.65625 677.980469 854.054688 L 678.855469 854.910156 C 681.238281 857.273438 681.183594 861.089844 678.855469 863.453125 L 648.855469 893.199219 Z M 321.34375 903.253906 C 324.5625 904.035156 326.601562 907.382812 325.800781 910.601562 L 325.492188 911.761719 C 324.710938 914.980469 321.398438 917.019531 318.183594 916.199219 L 276.273438 905.980469 L 286.507812 947.910156 C 287.34375 951.144531 285.308594 954.417969 282.019531 955.238281 L 280.855469 955.492188 C 277.636719 956.308594 274.328125 954.289062 273.546875 951.054688 L 263.453125 909.890625 L 233.4375 939.746094 C 231.054688 942.074219 227.253906 942.074219 224.871094 939.691406 L 224 938.835938 C 221.691406 936.453125 221.691406 932.617188 224.054688 930.238281 L 254 900.527344 L 213.019531 890.507812 C 209.78125 889.746094 207.710938 886.472656 208.5625 883.183594 L 208.816406 882.019531 C 209.636719 878.746094 212.964844 876.78125 216.183594 877.5625 L 258.128906 887.800781 L 247.835938 845.871094 C 247.035156 842.671875 249.089844 839.308594 252.328125 838.546875 L 253.492188 838.253906 C 256.761719 837.453125 260.074219 839.453125 260.855469 842.691406 L 270.855469 883.78125 L 300.910156 854 C 303.273438 851.65625 307.128906 851.65625 309.453125 854.054688 L 310.328125 854.910156 C 312.710938 857.273438 312.65625 861.089844 310.328125 863.453125 L 280.328125 893.199219 Z M 321.34375 903.253906 "/>
</g>
</svg>
