<?xml version="1.0" encoding="UTF-8"?>
<svg xmlns="http://www.w3.org/2000/svg" xmlns:xlink="http://www.w3.org/1999/xlink" width="1000" height="1000" viewBox="0 0 1000 1000" version="1.1">
<g id="surface1">
<path d="M 785.699219 415.492188 C 827.898438 434.925781 855.136719 477.398438 855.136719 523.726562 C 855.136719 589.4375 801.753906 642.890625 736.136719 642.890625 L 371.988281 642.890625 C 296.042969 642.890625 234.226562 581.074219 234.226562 505.144531 C 234.226562 449.21875 269.226562 397.78125 321.316406 377.144531 L 336.773438 371 L 340.007812 354.746094 C 353.917969 285.308594 415.371094 234.925781 486.0625 234.925781 C 527.355469 234.925781 567.136719 252.253906 595.226562 282.472656 L 607.898438 296.109375 L 625.84375 291.089844 C 636.082031 288.21875 646.464844 286.761719 656.71875 286.761719 C 714.84375 286.761719 763.71875 332.109375 768.007812 389.980469 L 769.335938 407.964844 Z M 765.355469 199.382812 C 856.082031 217.144531 924.570312 297 924.589844 392.910156 C 924.589844 438.507812 908.972656 480.363281 882.988281 513.761719 C 879.316406 460.289062 846.898438 412.199219 797.679688 389.527344 L 796.609375 389.035156 L 796.515625 387.871094 C 791.988281 326.800781 747.773438 277.308594 690.535156 262.871094 L 689.789062 255.746094 C 684.664062 205.671875 649.570312 159.855469 598.191406 136.109375 C 575.773438 125.78125 551.390625 120.328125 527.679688 120.328125 C 509.828125 120.328125 492.515625 123.34375 476.664062 129.183594 C 453.371094 109.945312 426.664062 96.34375 398.425781 89.019531 C 435.445312 38.507812 495.007812 5.5625 562.445312 5.5625 C 671.535156 5.5625 760.300781 91.527344 765.355469 199.382812 Z M 205.664062 505.144531 C 205.664062 522.910156 208.515625 540 213.71875 556.074219 C 209.117188 556.089844 206.097656 556.089844 205.882812 556.074219 C 127.390625 545.289062 67.953125 474.054688 76.445312 390.980469 C 82.300781 333.4375 123.390625 285.472656 177.136719 264.144531 L 186.828125 260.308594 C 187.5 260.054688 187.972656 259.472656 188.117188 258.761719 L 190.0625 249.019531 C 199.988281 199.4375 229.480469 154.601562 273.988281 130.582031 C 339.191406 95.382812 413.753906 110.910156 464.0625 156 C 466.589844 158.253906 468.84375 160.691406 471.152344 163.074219 C 502.554688 145.308594 545.828125 143.417969 586.226562 162.054688 C 629.808594 182.183594 657.464844 220.34375 661.371094 258.671875 C 659.808594 258.601562 658.316406 258.21875 656.753906 258.21875 C 643.898438 258.21875 630.898438 260.035156 618.152344 263.601562 L 616.988281 263.925781 L 616.152344 263.019531 C 582.679688 227.019531 535.261719 206.382812 486.082031 206.382812 C 401.773438 206.382812 328.570312 266.398438 312.007812 349.144531 L 311.789062 350.199219 L 310.789062 350.601562 C 247.898438 375.507812 205.664062 437.617188 205.664062 505.144531 Z M 205.664062 505.144531 "/>
<path d="M 466.164062 759 C 469.382812 759.78125 471.417969 763.109375 470.601562 766.34375 L 470.289062 767.507812 C 469.507812 770.726562 466.199219 772.761719 462.980469 771.945312 L 421.074219 761.726562 L 431.308594 803.65625 C 432.144531 806.890625 430.109375 810.164062 426.816406 810.980469 L 425.65625 811.238281 C 422.4375 812.054688 419.128906 810.035156 418.34375 806.800781 L 408.253906 765.636719 L 378.238281 795.492188 C 375.855469 797.816406 372.054688 797.816406 369.671875 795.4375 L 368.800781 794.582031 C 366.492188 792.199219 366.492188 788.363281 368.855469 785.980469 L 398.800781 756.273438 L 357.816406 746.253906 C 354.582031 745.492188 352.507812 742.21875 353.363281 738.925781 L 353.617188 737.761719 C 354.4375 734.492188 357.761719 732.527344 360.980469 733.308594 L 402.925781 743.546875 L 392.636719 701.617188 C 391.855469 698.417969 393.910156 695.054688 397.144531 694.289062 L 398.308594 694 C 401.582031 693.199219 404.890625 695.199219 405.671875 698.4375 L 415.671875 739.527344 L 445.726562 709.746094 C 448.089844 707.398438 451.945312 707.398438 454.273438 709.800781 L 455.144531 710.65625 C 457.527344 713.019531 457.472656 716.835938 455.144531 719.199219 L 425.144531 748.945312 Z M 745.945312 759 C 749.144531 759.78125 751.199219 763.109375 750.398438 766.34375 L 750.089844 767.507812 C 749.308594 770.726562 746 772.761719 742.78125 771.945312 L 700.871094 761.726562 L 711.109375 803.65625 C 711.925781 806.890625 709.890625 810.164062 706.601562 810.980469 L 705.4375 811.238281 C 702.21875 812.054688 698.910156 810.035156 698.128906 806.800781 L 688.035156 765.636719 L 658.019531 795.492188 C 655.636719 797.816406 651.835938 797.816406 649.453125 795.4375 L 648.582031 794.582031 C 646.273438 792.199219 646.273438 788.363281 648.636719 785.980469 L 678.582031 756.273438 L 637.601562 746.253906 C 634.363281 745.492188 632.289062 742.21875 633.144531 738.925781 L 633.398438 737.761719 C 634.21875 734.492188 637.546875 732.527344 640.761719 733.308594 L 682.710938 743.546875 L 672.417969 701.617188 C 671.636719 698.417969 673.691406 695.054688 676.925781 694.289062 L 678.089844 694 C 681.363281 693.199219 684.671875 695.199219 685.453125 698.4375 L 695.453125 739.527344 L 725.507812 709.746094 C 727.871094 707.398438 731.726562 707.398438 734.054688 709.800781 L 734.925781 710.65625 C 737.308594 713.019531 737.253906 716.835938 734.925781 719.199219 L 704.925781 748.945312 Z M 745.945312 759 "/>
</g>
</svg>
