<?xml version="1.0" encoding="UTF-8"?>
<svg xmlns="http://www.w3.org/2000/svg" xmlns:xlink="http://www.w3.org/1999/xlink" width="1000" height="1000" viewBox="0 0 1000 1000" version="1.1">
<g id="surface1">
<path d="M 785.699219 415.492188 C 827.898438 434.925781 855.136719 477.398438 855.136719 523.726562 C 855.136719 589.4375 801.753906 642.890625 736.136719 642.890625 L 371.988281 642.890625 C 296.042969 642.890625 234.226562 581.074219 234.226562 505.144531 C 234.226562 449.21875 269.226562 397.78125 321.316406 377.144531 L 336.773438 371 L 340.007812 354.746094 C 353.917969 285.308594 415.371094 234.925781 486.0625 234.925781 C 527.355469 234.925781 567.136719 252.253906 595.226562 282.472656 L 607.898438 296.109375 L 625.84375 291.089844 C 636.082031 288.21875 646.464844 286.761719 656.71875 286.761719 C 714.84375 286.761719 763.71875 332.109375 768.007812 389.980469 L 769.335938 407.964844 Z M 765.355469 199.382812 C 856.082031 217.144531 924.570312 297 924.589844 392.910156 C 924.589844 438.507812 908.972656 480.363281 882.988281 513.761719 C 879.316406 460.289062 846.898438 412.199219 797.679688 389.527344 L 796.609375 389.035156 L 796.515625 387.871094 C 791.988281 326.800781 747.773438 277.308594 690.535156 262.871094 L 689.789062 255.746094 C 684.664062 205.671875 649.570312 159.855469 598.191406 136.109375 C 575.773438 125.78125 551.390625 120.328125 527.679688 120.328125 C 509.828125 120.328125 492.515625 123.34375 476.664062 129.183594 C 453.371094 109.945312 426.664062 96.34375 398.425781 89.019531 C 435.445312 38.507812 495.007812 5.5625 562.445312 5.5625 C 671.535156 5.5625 760.300781 91.527344 765.355469 199.382812 Z M 205.664062 505.144531 C 205.664062 522.910156 208.515625 540 213.71875 556.074219 C 209.117188 556.089844 206.097656 556.089844 205.882812 556.074219 C 127.390625 545.289062 67.953125 474.054688 76.445312 390.980469 C 82.300781 333.4375 123.390625 285.472656 177.136719 264.144531 L 186.828125 260.308594 C 187.5 260.054688 187.972656 259.472656 188.117188 258.761719 L 190.0625 249.019531 C 199.988281 199.4375 229.480469 154.601562 273.988281 130.582031 C 339.191406 95.382812 413.753906 110.910156 464.0625 156 C 466.589844 158.253906 468.84375 160.691406 471.152344 163.074219 C 502.554688 145.308594 545.828125 143.417969 586.226562 162.054688 C 629.808594 182.183594 657.464844 220.34375 661.371094 258.671875 C 659.808594 258.601562 658.316406 258.21875 656.753906 258.21875 C 643.898438 258.21875 630.898438 260.035156 618.152344 263.601562 L 616.988281 263.925781 L 616.152344 263.019531 C 582.679688 227.019531 535.261719 206.382812 486.082031 206.382812 C 401.773438 206.382812 328.570312 266.398438 312.007812 349.144531 L 311.789062 350.199219 L 310.789062 350.601562 C 247.898438 375.507812 205.664062 437.617188 205.664062 505.144531 Z M 205.664062 505.144531 "/>
<path d="M 406 759 C 409.199219 759.78125 411.253906 763.109375 410.453125 766.34375 L 410.144531 767.507812 C 409.363281 770.726562 406.054688 772.761719 402.835938 771.945312 L 360.925781 761.726562 L 371.164062 803.65625 C 372 806.890625 369.964844 810.164062 366.671875 810.980469 L 365.507812 811.238281 C 362.289062 812.054688 358.980469 810.035156 358.199219 806.800781 L 348.109375 765.636719 L 318.089844 795.492188 C 315.710938 797.816406 311.910156 797.816406 309.527344 795.4375 L 308.65625 794.582031 C 306.34375 792.199219 306.34375 788.363281 308.710938 785.980469 L 338.65625 756.273438 L 297.671875 746.253906 C 294.4375 745.492188 292.363281 742.21875 293.21875 738.925781 L 293.472656 737.761719 C 294.289062 734.492188 297.617188 732.527344 300.835938 733.308594 L 342.78125 743.546875 L 332.492188 701.617188 C 331.691406 698.417969 333.746094 695.054688 336.980469 694.289062 L 338.144531 694 C 341.417969 693.199219 344.726562 695.199219 345.507812 698.4375 L 355.507812 739.527344 L 385.5625 709.746094 C 387.925781 707.398438 391.78125 707.398438 394.109375 709.800781 L 394.980469 710.65625 C 397.363281 713.019531 397.308594 716.835938 394.980469 719.199219 L 364.980469 748.945312 Z M 300.5625 901.855469 C 303.78125 902.636719 305.816406 905.964844 305.019531 909.199219 L 304.710938 910.363281 C 303.925781 913.582031 300.617188 915.617188 297.398438 914.800781 L 255.492188 904.582031 L 265.726562 946.507812 C 266.546875 949.746094 264.507812 953.019531 261.21875 953.835938 L 260.054688 954.089844 C 256.835938 954.910156 253.527344 952.890625 252.746094 949.65625 L 242.65625 908.492188 L 212.636719 938.34375 C 210.253906 940.671875 206.453125 940.671875 204.074219 938.289062 L 203.199219 937.4375 C 200.890625 935.054688 200.890625 931.21875 203.253906 928.835938 L 233.199219 899.128906 L 192.21875 889.109375 C 188.980469 888.34375 186.910156 885.074219 187.761719 881.78125 L 188.019531 880.617188 C 188.835938 877.34375 192.164062 875.382812 195.382812 876.164062 L 237.328125 886.398438 L 227.035156 844.472656 C 226.253906 841.273438 228.308594 837.910156 231.546875 837.144531 L 232.710938 836.855469 C 235.980469 836.054688 239.289062 838.054688 240.074219 841.289062 L 250.074219 882.382812 L 280.128906 852.601562 C 282.492188 850.253906 286.34375 850.253906 288.671875 852.65625 L 289.546875 853.507812 C 291.925781 855.871094 291.871094 859.691406 289.546875 862.054688 L 259.546875 891.800781 Z M 578 901.855469 C 581.21875 902.636719 583.253906 905.964844 582.4375 909.199219 L 582.128906 910.363281 C 581.34375 913.582031 578.035156 915.617188 574.816406 914.800781 L 532.910156 904.582031 L 543.144531 946.507812 C 543.980469 949.746094 541.945312 953.019531 538.65625 953.835938 L 537.492188 954.089844 C 534.273438 954.910156 530.964844 952.890625 530.183594 949.65625 L 520.089844 908.492188 L 490.074219 938.34375 C 487.691406 940.671875 483.890625 940.671875 481.507812 938.289062 L 480.636719 937.4375 C 478.328125 935.054688 478.328125 931.21875 480.691406 928.835938 L 510.636719 899.128906 L 469.65625 889.109375 C 466.417969 888.34375 464.34375 885.074219 465.199219 881.78125 L 465.453125 880.617188 C 466.273438 877.34375 469.601562 875.382812 472.816406 876.164062 L 514.761719 886.398438 L 504.472656 844.472656 C 503.691406 841.273438 505.746094 837.910156 508.980469 837.144531 L 510.144531 836.855469 C 513.417969 836.054688 516.726562 838.054688 517.507812 841.289062 L 527.507812 882.382812 L 557.5625 852.601562 C 559.925781 850.253906 563.78125 850.253906 566.109375 852.65625 L 566.980469 853.507812 C 569.363281 855.871094 569.308594 859.691406 566.980469 862.054688 L 536.980469 891.800781 Z M 685.761719 759 C 688.964844 759.78125 691.019531 763.109375 690.199219 766.34375 L 689.890625 767.507812 C 689.109375 770.726562 685.800781 772.761719 682.582031 771.945312 L 640.671875 761.726562 L 650.910156 803.65625 C 651.746094 806.890625 649.710938 810.164062 646.417969 810.980469 L 645.253906 811.238281 C 642.035156 812.054688 638.726562 810.035156 637.945312 806.800781 L 627.855469 765.636719 L 597.835938 795.492188 C 595.453125 797.816406 591.65625 797.816406 589.273438 795.4375 L 588.398438 794.582031 C 586.089844 792.199219 586.089844 788.363281 588.453125 785.980469 L 618.398438 756.273438 L 577.417969 746.253906 C 574.183594 745.492188 572.109375 742.21875 572.964844 738.925781 L 573.21875 737.761719 C 574.035156 734.492188 577.363281 732.527344 580.582031 733.308594 L 622.527344 743.546875 L 612.238281 701.617188 C 611.453125 698.417969 613.507812 695.054688 616.746094 694.289062 L 617.910156 694 C 621.183594 693.199219 624.492188 695.199219 625.273438 698.4375 L 635.273438 739.527344 L 665.328125 709.746094 C 667.691406 707.398438 671.546875 707.398438 673.871094 709.800781 L 674.746094 710.65625 C 677.128906 713.019531 677.074219 716.835938 674.746094 719.199219 L 644.746094 748.945312 Z M 685.761719 759 "/>
</g>
</svg>
