<?xml version="1.0" encoding="UTF-8"?>
<svg xmlns="http://www.w3.org/2000/svg" xmlns:xlink="http://www.w3.org/1999/xlink" width="1000" height="1000" viewBox="0 0 1000 1000" version="1.1">
<g id="surface1">
<path d="M 785.699219 415.492188 C 827.898438 434.925781 855.136719 477.398438 855.136719 523.726562 C 855.136719 589.4375 801.753906 642.890625 736.136719 642.890625 L 371.988281 642.890625 C 296.042969 642.890625 234.226562 581.074219 234.226562 505.144531 C 234.226562 449.21875 269.226562 397.78125 321.316406 377.144531 L 336.773438 371 L 340.007812 354.746094 C 353.917969 285.308594 415.371094 234.925781 486.0625 234.925781 C 527.355469 234.925781 567.136719 252.253906 595.226562 282.472656 L 607.898438 296.109375 L 625.84375 291.089844 C 636.082031 288.21875 646.464844 286.761719 656.71875 286.761719 C 714.84375 286.761719 763.71875 332.109375 768.007812 389.980469 L 769.335938 407.964844 Z M 765.355469 199.382812 C 856.082031 217.144531 924.570312 297 924.589844 392.910156 C 924.589844 438.507812 908.972656 480.363281 882.988281 513.761719 C 879.316406 460.289062 846.898438 412.199219 797.679688 389.527344 L 796.609375 389.035156 L 796.515625 387.871094 C 791.988281 326.800781 747.773438 277.308594 690.535156 262.871094 L 689.789062 255.746094 C 684.664062 205.671875 649.570312 159.855469 598.191406 136.109375 C 575.773438 125.78125 551.390625 120.328125 527.679688 120.328125 C 509.828125 120.328125 492.515625 123.34375 476.664062 129.183594 C 453.371094 109.945312 426.664062 96.34375 398.425781 89.019531 C 435.445312 38.507812 495.007812 5.5625 562.445312 5.5625 C 671.535156 5.5625 760.300781 91.527344 765.355469 199.382812 Z M 205.664062 505.144531 C 205.664062 522.910156 208.515625 540 213.71875 556.074219 C 209.117188 556.089844 206.097656 556.089844 205.882812 556.074219 C 127.390625 545.289062 67.953125 474.054688 76.445312 390.980469 C 82.300781 333.4375 123.390625 285.472656 177.136719 264.144531 L 186.828125 260.308594 C 187.5 260.054688 187.972656 259.472656 188.117188 258.761719 L 190.0625 249.019531 C 199.988281 199.4375 229.480469 154.601562 273.988281 130.582031 C 339.191406 95.382812 413.753906 110.910156 464.0625 156 C 466.589844 158.253906 468.84375 160.691406 471.152344 163.074219 C 502.554688 145.308594 545.828125 143.417969 586.226562 162.054688 C 629.808594 182.183594 657.464844 220.34375 661.371094 258.671875 C 659.808594 258.601562 658.316406 258.21875 656.753906 258.21875 C 643.898438 258.21875 630.898438 260.035156 618.152344 263.601562 L 616.988281 263.925781 L 616.152344 263.019531 C 582.679688 227.019531 535.261719 206.382812 486.082031 206.382812 C 401.773438 206.382812 328.570312 266.398438 312.007812 349.144531 L 311.789062 350.199219 L 310.789062 350.601562 C 247.898438 375.507812 205.664062 437.617188 205.664062 505.144531 Z M 205.664062 505.144531 "/>
<path d="M 735.761719 759 C 738.980469 759.78125 741.035156 763.109375 740.199219 766.34375 L 739.890625 767.507812 C 739.109375 770.726562 735.800781 772.761719 732.582031 771.945312 L 690.671875 761.726562 L 700.910156 803.65625 C 701.746094 806.890625 699.710938 810.164062 696.417969 810.980469 L 695.253906 811.238281 C 692.035156 812.054688 688.726562 810.035156 687.945312 806.800781 L 677.855469 765.636719 L 647.835938 795.492188 C 645.453125 797.816406 641.65625 797.816406 639.273438 795.4375 L 638.398438 794.582031 C 636.089844 792.199219 636.089844 788.363281 638.453125 785.980469 L 668.398438 756.273438 L 627.417969 746.253906 C 624.183594 745.492188 622.109375 742.21875 622.964844 738.925781 L 623.21875 737.761719 C 624.035156 734.492188 627.363281 732.527344 630.582031 733.308594 L 672.527344 743.546875 L 662.238281 701.617188 C 661.453125 698.417969 663.507812 695.054688 666.746094 694.289062 L 667.910156 694 C 671.183594 693.199219 674.492188 695.199219 675.273438 698.4375 L 685.273438 739.527344 L 715.328125 709.746094 C 717.691406 707.398438 721.546875 707.398438 723.871094 709.800781 L 724.746094 710.65625 C 727.128906 713.019531 727.074219 716.835938 724.746094 719.199219 L 694.746094 748.945312 Z M 391.144531 759 C 394.363281 759.78125 396.398438 763.109375 395.601562 766.34375 L 395.289062 767.507812 C 394.507812 770.726562 391.199219 772.761719 387.980469 771.945312 L 346.074219 761.726562 L 356.308594 803.65625 C 357.128906 806.890625 355.089844 810.164062 351.800781 810.980469 L 350.636719 811.238281 C 347.417969 812.054688 344.109375 810.035156 343.328125 806.800781 L 333.238281 765.636719 L 303.21875 795.492188 C 300.835938 797.816406 297.035156 797.816406 294.65625 795.4375 L 293.78125 794.582031 C 291.472656 792.199219 291.472656 788.363281 293.835938 785.980469 L 323.78125 756.273438 L 282.800781 746.253906 C 279.5625 745.492188 277.492188 742.21875 278.34375 738.925781 L 278.601562 737.761719 C 279.417969 734.492188 282.746094 732.527344 285.964844 733.308594 L 327.910156 743.546875 L 317.617188 701.617188 C 316.835938 698.417969 318.890625 695.054688 322.128906 694.289062 L 323.289062 694 C 326.5625 693.199219 329.871094 695.199219 330.65625 698.4375 L 340.65625 739.527344 L 370.710938 709.746094 C 373.074219 707.398438 376.925781 707.398438 379.253906 709.800781 L 380.128906 710.65625 C 382.507812 713.019531 382.453125 716.835938 380.128906 719.199219 L 350.128906 748.945312 Z M 391.144531 759 "/>
<path d="M 564.308594 753.910156 L 513.128906 753.128906 L 555.089844 679.726562 L 490.308594 680.273438 L 435.34375 789.78125 L 483.199219 789.78125 L 416 955.761719 Z M 564.308594 753.910156 "/>
</g>
</svg>
