<?xml version="1.0" encoding="UTF-8"?>
<svg xmlns="http://www.w3.org/2000/svg" xmlns:xlink="http://www.w3.org/1999/xlink" width="1000" height="1000" viewBox="0 0 1000 1000" version="1.1">
<g id="surface1">
<path d="M 785.699219 415.492188 C 827.898438 434.925781 855.136719 477.398438 855.136719 523.726562 C 855.136719 589.4375 801.753906 642.890625 736.136719 642.890625 L 371.988281 642.890625 C 296.042969 642.890625 234.226562 581.074219 234.226562 505.144531 C 234.226562 449.21875 269.226562 397.78125 321.316406 377.144531 L 336.773438 371 L 340.007812 354.746094 C 353.917969 285.308594 415.371094 234.925781 486.0625 234.925781 C 527.355469 234.925781 567.136719 252.253906 595.226562 282.472656 L 607.898438 296.109375 L 625.84375 291.089844 C 636.082031 288.21875 646.464844 286.761719 656.71875 286.761719 C 714.84375 286.761719 763.71875 332.109375 768.007812 389.980469 L 769.335938 407.964844 Z M 765.355469 199.382812 C 856.082031 217.144531 924.570312 297 924.589844 392.910156 C 924.589844 438.507812 908.972656 480.363281 882.988281 513.761719 C 879.316406 460.289062 846.898438 412.199219 797.679688 389.527344 L 796.609375 389.035156 L 796.515625 387.871094 C 791.988281 326.800781 747.773438 277.308594 690.535156 262.871094 L 689.789062 255.746094 C 684.664062 205.671875 649.570312 159.855469 598.191406 136.109375 C 575.773438 125.78125 551.390625 120.328125 527.679688 120.328125 C 509.828125 120.328125 492.515625 123.34375 476.664062 129.183594 C 453.371094 109.945312 426.664062 96.34375 398.425781 89.019531 C 435.445312 38.507812 495.007812 5.5625 562.445312 5.5625 C 671.535156 5.5625 760.300781 91.527344 765.355469 199.382812 Z M 205.664062 505.144531 C 205.664062 522.910156 208.515625 540 213.71875 556.074219 C 209.117188 556.089844 206.097656 556.089844 205.882812 556.074219 C 127.390625 545.289062 67.953125 474.054688 76.445312 390.980469 C 82.300781 333.4375 123.390625 285.472656 177.136719 264.144531 L 186.828125 260.308594 C 187.5 260.054688 187.972656 259.472656 188.117188 258.761719 L 190.0625 249.019531 C 199.988281 199.4375 229.480469 154.601562 273.988281 130.582031 C 339.191406 95.382812 413.753906 110.910156 464.0625 156 C 466.589844 158.253906 468.84375 160.691406 471.152344 163.074219 C 502.554688 145.308594 545.828125 143.417969 586.226562 162.054688 C 629.808594 182.183594 657.464844 220.34375 661.371094 258.671875 C 659.808594 258.601562 658.316406 258.21875 656.753906 258.21875 C 643.898438 258.21875 630.898438 260.035156 618.152344 263.601562 L 616.988281 263.925781 L 616.152344 263.019531 C 582.679688 227.019531 535.261719 206.382812 486.082031 206.382812 C 401.773438 206.382812 328.570312 266.398438 312.007812 349.144531 L 311.789062 350.199219 L 310.789062 350.601562 C 247.898438 375.507812 205.664062 437.617188 205.664062 505.144531 Z M 205.664062 505.144531 "/>
<path d="M 392.289062 759 C 395.507812 759.78125 397.5625 763.109375 396.746094 766.34375 L 396.4375 767.507812 C 395.65625 770.726562 392.34375 772.761719 389.128906 771.945312 L 347.21875 761.726562 L 357.453125 803.65625 C 358.289062 806.890625 356.253906 810.164062 352.964844 810.980469 L 351.800781 811.238281 C 348.582031 812.054688 345.273438 810.035156 344.492188 806.800781 L 334.398438 765.636719 L 304.382812 795.492188 C 302 797.816406 298.199219 797.816406 295.816406 795.4375 L 294.945312 794.582031 C 292.636719 792.199219 292.636719 788.363281 295 785.980469 L 324.945312 756.273438 L 283.964844 746.253906 C 280.726562 745.492188 278.65625 742.21875 279.507812 738.925781 L 279.761719 737.761719 C 280.582031 734.492188 283.910156 732.527344 287.128906 733.308594 L 329.074219 743.546875 L 318.78125 701.617188 C 317.980469 698.417969 320.035156 695.054688 323.273438 694.289062 L 324.4375 694 C 327.710938 693.199219 331.019531 695.199219 331.800781 698.4375 L 341.800781 739.527344 L 371.855469 709.746094 C 374.21875 707.398438 378.074219 707.398438 380.398438 709.800781 L 381.273438 710.65625 C 383.65625 713.019531 383.601562 716.835938 381.273438 719.199219 L 351.273438 748.945312 Z M 679.273438 901.855469 C 682.492188 902.636719 684.546875 905.964844 683.710938 909.199219 L 683.398438 910.363281 C 682.617188 913.582031 679.308594 915.617188 676.089844 914.800781 L 634.183594 904.582031 L 644.417969 946.507812 C 645.253906 949.746094 643.21875 953.019531 639.925781 953.835938 L 638.761719 954.089844 C 635.546875 954.910156 632.238281 952.890625 631.453125 949.65625 L 621.363281 908.492188 L 591.34375 938.34375 C 588.964844 940.671875 585.164062 940.671875 582.78125 938.289062 L 581.910156 937.4375 C 579.601562 935.054688 579.601562 931.21875 581.964844 928.835938 L 611.910156 899.128906 L 570.925781 889.109375 C 567.691406 888.34375 565.617188 885.074219 566.472656 881.78125 L 566.726562 880.617188 C 567.546875 877.34375 570.871094 875.382812 574.089844 876.164062 L 616.035156 886.398438 L 605.746094 844.472656 C 604.964844 841.273438 607.019531 837.910156 610.253906 837.144531 L 611.417969 836.855469 C 614.691406 836.054688 618 838.054688 618.78125 841.289062 L 628.78125 882.382812 L 658.835938 852.601562 C 661.199219 850.253906 665.054688 850.253906 667.382812 852.65625 L 668.253906 853.507812 C 670.636719 855.871094 670.582031 859.691406 668.253906 862.054688 L 638.253906 891.800781 Z M 496.945312 901.855469 C 500.164062 902.636719 502.21875 905.964844 501.382812 909.199219 L 501.074219 910.363281 C 500.289062 913.582031 496.980469 915.617188 493.761719 914.800781 L 451.855469 904.582031 L 462.089844 946.507812 C 462.925781 949.746094 460.890625 953.019531 457.601562 953.835938 L 456.4375 954.089844 C 453.21875 954.910156 449.910156 952.890625 449.128906 949.65625 L 439.035156 908.492188 L 409.019531 938.34375 C 406.636719 940.671875 402.835938 940.671875 400.453125 938.289062 L 399.582031 937.4375 C 397.273438 935.054688 397.273438 931.21875 399.636719 928.835938 L 429.582031 899.128906 L 388.601562 889.109375 C 385.363281 888.34375 383.289062 885.074219 384.144531 881.78125 L 384.398438 880.617188 C 385.21875 877.34375 388.546875 875.382812 391.761719 876.164062 L 433.710938 886.398438 L 423.417969 844.472656 C 422.636719 841.273438 424.691406 837.910156 427.925781 837.144531 L 429.089844 836.855469 C 432.363281 836.054688 435.671875 838.054688 436.453125 841.289062 L 446.453125 882.382812 L 476.507812 852.601562 C 478.871094 850.253906 482.726562 850.253906 485.054688 852.65625 L 485.925781 853.507812 C 488.308594 855.871094 488.253906 859.691406 485.925781 862.054688 L 455.925781 891.800781 Z M 292.144531 901.855469 C 295.363281 902.636719 297.398438 905.964844 296.601562 909.199219 L 296.289062 910.363281 C 295.507812 913.582031 292.199219 915.617188 288.980469 914.800781 L 247.074219 904.582031 L 257.308594 946.507812 C 258.128906 949.746094 256.089844 953.019531 252.800781 953.835938 L 251.636719 954.089844 C 248.417969 954.910156 245.109375 952.890625 244.328125 949.65625 L 234.238281 908.492188 L 204.21875 938.34375 C 201.835938 940.671875 198.035156 940.671875 195.65625 938.289062 L 194.78125 937.4375 C 192.472656 935.054688 192.472656 931.21875 194.835938 928.835938 L 224.78125 899.128906 L 183.800781 889.109375 C 180.5625 888.34375 178.492188 885.074219 179.34375 881.78125 L 179.601562 880.617188 C 180.417969 877.34375 183.746094 875.382812 186.964844 876.164062 L 228.910156 886.398438 L 218.617188 844.472656 C 217.835938 841.273438 219.890625 837.910156 223.128906 837.144531 L 224.289062 836.855469 C 227.5625 836.054688 230.871094 838.054688 231.65625 841.289062 L 241.65625 882.382812 L 271.710938 852.601562 C 274.074219 850.253906 277.925781 850.253906 280.253906 852.65625 L 281.128906 853.507812 C 283.507812 855.871094 283.453125 859.691406 281.128906 862.054688 L 251.128906 891.800781 Z M 779.4375 759 C 782.65625 759.78125 784.691406 763.109375 783.871094 766.34375 L 783.5625 767.507812 C 782.78125 770.726562 779.472656 772.761719 776.253906 771.945312 L 734.34375 761.726562 L 744.582031 803.65625 C 745.417969 806.890625 743.382812 810.164062 740.089844 810.980469 L 738.925781 811.238281 C 735.710938 812.054688 732.398438 810.035156 731.617188 806.800781 L 721.527344 765.636719 L 691.507812 795.492188 C 689.128906 797.816406 685.328125 797.816406 682.945312 795.4375 L 682.074219 794.582031 C 679.761719 792.199219 679.761719 788.363281 682.128906 785.980469 L 712.074219 756.273438 L 671.089844 746.253906 C 667.855469 745.492188 665.78125 742.21875 666.636719 738.925781 L 666.890625 737.761719 C 667.710938 734.492188 671.035156 732.527344 674.253906 733.308594 L 716.199219 743.546875 L 705.910156 701.617188 C 705.128906 698.417969 707.183594 695.054688 710.417969 694.289062 L 711.582031 694 C 714.855469 693.199219 718.164062 695.199219 718.945312 698.4375 L 728.945312 739.527344 L 759 709.746094 C 761.363281 707.398438 765.21875 707.398438 767.546875 709.800781 L 768.417969 710.65625 C 770.800781 713.019531 770.746094 716.835938 768.417969 719.199219 L 738.417969 748.945312 Z M 585.871094 759 C 589.074219 759.78125 591.128906 763.109375 590.308594 766.34375 L 590 767.507812 C 589.21875 770.726562 585.910156 772.761719 582.691406 771.945312 L 540.78125 761.726562 L 551.019531 803.65625 C 551.855469 806.890625 549.816406 810.164062 546.527344 810.980469 L 545.363281 811.238281 C 542.144531 812.054688 538.835938 810.035156 538.054688 806.800781 L 527.964844 765.636719 L 497.945312 795.492188 C 495.5625 797.816406 491.761719 797.816406 489.382812 795.4375 L 488.507812 794.582031 C 486.199219 792.199219 486.199219 788.363281 488.5625 785.980469 L 518.507812 756.273438 L 477.527344 746.253906 C 474.289062 745.492188 472.21875 742.21875 473.074219 738.925781 L 473.328125 737.761719 C 474.144531 734.492188 477.472656 732.527344 480.691406 733.308594 L 522.636719 743.546875 L 512.34375 701.617188 C 511.5625 698.417969 513.617188 695.054688 516.855469 694.289062 L 518.019531 694 C 521.289062 693.199219 524.601562 695.199219 525.382812 698.4375 L 535.382812 739.527344 L 565.4375 709.746094 C 567.800781 707.398438 571.65625 707.398438 573.980469 709.800781 L 574.855469 710.65625 C 577.238281 713.019531 577.183594 716.835938 574.855469 719.199219 L 544.855469 748.945312 Z M 585.871094 759 "/>
</g>
</svg>
