<?xml version="1.0" encoding="UTF-8" standalone="no"?>
<svg
   width="1000"
   height="1000"
   viewBox="0 0 1000 1000"
   version="1.1"
   id="svg1561"
   xmlns="http://www.w3.org/2000/svg"
   xmlns:svg="http://www.w3.org/2000/svg">
  <defs
     id="defs1565" />
  <path
     id="path1550"
     d="M 524.71094 0 L 470.03516 115.38281 C 483.12891 113.69141 496.32812 112.74609 509.5625 113.28906 C 527.65625 114.03516 545.27345 117.05469 562.32812 121.76172 L 524.71094 0 z M 348.80078 33.871094 L 359.25391 161.03516 C 360.41797 160.16406 361.69141 159.41797 362.81641 158.5625 C 366.85547 155.58203 371 152.74609 375.21875 150 C 376.78125 148.98047 378.36328 147.94531 379.96484 146.98047 C 399.08984 135.27344 420.01953 126.27344 442.27344 120.50781 L 348.80078 33.871094 z M 694.01953 58.5625 L 589.18359 131.03516 C 617.58203 142.85547 643.47267 160.28906 665.54688 182.85547 L 694.01953 58.5625 z M 496.92383 142.11914 C 485.46545 142.28668 474.07715 143.41797 462.96484 145.49219 C 386.41797 159.65625 325.49219 217.47266 304.72656 290.25391 C 337 258.98047 380.83594 240.03516 428.19922 240.03516 C 477.38281 240.03516 524.80078 260.67187 558.27344 296.71094 L 559.10938 297.58203 L 560.27344 297.27344 C 573.01953 293.67187 586.01953 291.87109 598.87109 291.87109 C 639.92578 291.87109 676.85547 310.27344 702.69141 338.96484 C 701.32812 290.08984 682.81641 243.89062 649.39844 207.58203 C 612.65625 167.67187 562.58203 144.49219 508.39844 142.27344 C 504.57129 142.11426 500.74329 142.06329 496.92383 142.11914 z M 213.54688 151.07422 L 286.07422 256 C 291.96484 242.05469 299.23828 228.80078 307.67188 216.28906 C 308.1836 215.54687 308.65625 214.81642 309.14453 214.10938 C 313.05469 208.43751 317.19922 202.94531 321.58203 197.63672 C 321.98047 197.16406 322.34375 196.65625 322.74609 196.18359 C 327.60156 190.41797 332.65625 184.80078 338.03516 179.50781 L 213.54688 151.07422 z M 811.21875 193.78125 L 684.30859 204.23828 C 703.38281 229.10937 717.07422 257.16406 724.71094 287.01953 L 811.21875 193.78125 z M 428.18359 268.60156 C 357.49219 268.60156 296.03516 318.98047 282.12891 388.41797 L 278.87109 404.67188 L 263.4375 410.81641 C 211.34375 431.45312 176.34375 482.89062 176.34375 538.81641 C 176.34375 614.74609 238.16406 676.5625 314.10938 676.5625 L 678.25391 676.5625 C 743.87109 676.5625 797.25391 623.10937 797.25391 557.39844 C 797.25391 511.05469 770.01953 468.58203 727.81641 449.16406 L 711.45312 441.63672 L 710.12891 423.65625 C 705.83594 365.78125 656.96484 320.4375 598.83594 320.4375 C 588.58203 320.4375 578.19922 321.89062 567.96484 324.76172 L 550.01953 329.78125 L 537.34375 316.14453 C 509.25391 285.92578 469.47266 268.60156 428.18359 268.60156 z M 276.72656 282.76172 L 154.91016 320.38281 L 257.52734 368.98047 C 260.28906 359.28906 263.89062 349.98047 268.16406 341.07422 C 268.18356 339.19922 268.03517 337.36328 268.10938 335.47266 C 268.85548 317.34375 271.92578 299.72656 276.72656 282.76172 z M 729.89062 315.12891 C 731.5625 328.10937 732.32812 341.27344 731.74609 354.60156 C 731.36328 363.72656 730.41797 372.69141 728.94531 381.5625 C 731.72656 388.65625 733.94532 395.96484 735.54688 403.5625 L 845.07422 369.65625 L 729.89062 315.12891 z M 536.91016 716.08984 L 472.12891 716.63672 L 417.16406 826.14453 L 465.01953 826.14453 L 397.81641 992.12891 L 546.12891 790.27344 L 494.94531 789.49219 L 536.91016 716.08984 z M 303.65625 732.45312 C 303.65625 732.45312 256.5625 755.49219 236.96484 793.58203 C 213.87109 838.39844 268.76172 868.78125 292.81641 822.34375 C 311.83594 785.47266 303.65625 732.45312 303.65625 732.45312 z M 722.30859 732.45312 C 722.30859 732.45312 675.21875 755.49219 655.61719 793.58203 C 632.52734 838.39844 687.41797 868.78125 711.47266 822.34375 C 730.49219 785.47266 722.30859 732.45312 722.30859 732.45312 z M 139.05859 872.26367 C 138.27588 872.13818 137.45508 872.16309 136.63672 872.36328 L 135.47266 872.65625 C 132.23828 873.41797 130.18359 876.78125 130.96484 879.98047 L 141.25391 921.91016 L 99.308594 911.67188 C 96.089844 910.89063 92.761719 912.85547 91.945312 916.12891 L 91.691406 917.28906 C 90.835938 920.58203 92.910156 923.85547 96.144531 924.61719 L 137.12891 934.63672 L 107.18359 964.34375 C 104.81639 966.72656 104.81641 970.5625 107.12891 972.94531 L 108 973.80078 C 110.38281 976.1836 114.18359 976.18359 116.5625 973.85547 L 146.58203 944 L 156.67188 985.16406 C 157.45312 988.39844 160.76172 990.41797 163.98047 989.60156 L 165.14453 989.34375 C 168.4375 988.52734 170.47266 985.25391 169.65625 982.01953 L 159.41797 940.08984 L 201.32812 950.30859 C 204.54688 951.12891 207.85547 949.08984 208.63672 945.87109 L 208.94531 944.71094 C 209.76172 941.49219 207.71094 938.14453 204.49219 937.36328 L 163.47266 927.30859 L 193.47266 897.5625 C 195.80078 895.19922 195.85547 891.38281 193.47266 889.01953 L 192.60156 888.16406 C 190.27344 885.76171 186.41797 885.76172 184.05469 888.10938 L 154 917.89062 L 144 876.80078 C 143.41406 874.37207 141.40674 872.64014 139.05859 872.26367 z M 571.82031 872.26367 C 571.0376 872.13818 570.21679 872.16309 569.39844 872.36328 L 568.23828 872.65625 C 565 873.41797 562.94531 876.78125 563.72656 879.98047 L 574.01953 921.91016 L 532.07422 911.67188 C 528.85547 910.89063 525.52734 912.85547 524.71094 916.12891 L 524.45312 917.28906 C 523.60156 920.58203 525.67187 923.85547 528.91016 924.61719 L 569.89062 934.63672 L 539.94531 964.34375 C 537.58202 966.72656 537.58204 970.5625 539.89062 972.94531 L 540.76172 973.80078 C 543.14453 976.1836 546.94532 976.18359 549.32812 973.85547 L 579.34375 944 L 589.4375 985.16406 C 590.21875 988.39844 593.52734 990.41797 596.74609 989.60156 L 597.91016 989.34375 C 601.19922 988.52734 603.23828 985.25391 602.39844 982.01953 L 592.16406 940.08984 L 634.07422 950.30859 C 637.28906 951.12891 640.60156 949.08984 641.38281 945.87109 L 641.69141 944.71094 C 642.50781 941.49219 640.47266 938.14453 637.25391 937.36328 L 596.23828 927.30859 L 626.23828 897.5625 C 628.5625 895.19922 628.61719 891.38281 626.23828 889.01953 L 625.36328 888.16406 C 623.03516 885.76171 619.18359 885.76172 616.81641 888.10938 L 586.76172 917.89062 L 576.76172 876.80078 C 576.17578 874.37207 574.16846 872.64014 571.82031 872.26367 z M 726.43945 872.26367 C 725.65692 872.13818 724.83691 872.16309 724.01953 872.36328 L 722.85547 872.65625 C 719.61719 873.41797 717.5625 876.78125 718.34375 879.98047 L 728.63672 921.91016 L 686.69141 911.67188 C 683.47266 910.89063 680.14454 912.85547 679.32812 916.12891 L 679.07422 917.28906 C 678.21875 920.58203 680.28906 923.85547 683.52734 924.61719 L 724.50781 934.63672 L 694.54688 964.39844 C 692.18358 966.78125 692.18359 970.61719 694.49219 973 L 695.36328 973.85547 C 697.74609 976.23829 701.54687 976.23828 703.92578 973.91016 L 733.94531 944.05469 L 744.03516 985.21875 C 744.81641 988.45312 748.12891 990.47266 751.34375 989.65625 L 752.50781 989.39844 C 755.80078 988.58203 757.83594 985.30859 757 982.07422 L 746.76172 940.14453 L 788.67188 950.36328 C 791.89063 951.18359 795.19922 949.14453 795.98047 945.92578 L 796.28906 944.76172 C 797.14453 941.49219 795.08984 938.14453 791.87109 937.36328 L 750.85547 927.30859 L 780.85547 897.5625 C 783.18359 895.19922 783.23828 891.38281 780.85547 889.01953 L 779.98047 888.16406 C 777.65625 885.76171 773.80078 885.76172 771.4375 888.10938 L 741.38281 917.89062 L 731.38281 876.80078 C 730.79688 874.37207 728.78705 872.64014 726.43945 872.26367 z M 340.63672 874.47266 C 340.63672 874.47266 293.54687 897.50781 273.94531 935.60156 C 250.85547 980.41797 305.74609 1010.8008 329.80078 964.36328 C 348.81641 927.47266 340.63672 874.47266 340.63672 874.47266 z " />
</svg>
