<?xml version="1.0" encoding="UTF-8" standalone="no"?>
<svg
   width="1000"
   height="1000"
   viewBox="0 0 1000 1000"
   version="1.1"
   id="svg1341"
   xmlns="http://www.w3.org/2000/svg"
   xmlns:svg="http://www.w3.org/2000/svg">
  <defs
     id="defs1345" />
  <path
     id="path1332"
     d="M 524.71094 0 L 470.03516 115.38281 C 483.12891 113.69141 496.32812 112.74609 509.5625 113.28906 C 527.65625 114.03516 545.27345 117.05469 562.32812 121.76172 L 524.71094 0 z M 348.80078 33.871094 L 359.25391 161.03516 C 360.41797 160.16406 361.69141 159.41797 362.81641 158.5625 C 366.85547 155.58203 371 152.74609 375.21875 150 C 376.78125 148.98047 378.36328 147.94531 379.96484 146.98047 C 399.08984 135.27344 420.01953 126.27344 442.27344 120.50781 L 348.80078 33.871094 z M 694.01953 58.5625 L 589.18359 131.03516 C 617.58203 142.85547 643.47267 160.28906 665.54688 182.85547 L 694.01953 58.5625 z M 496.92383 142.11914 C 485.46545 142.28668 474.07715 143.41797 462.96484 145.49219 C 386.41797 159.65625 325.49219 217.47266 304.72656 290.25391 C 337 258.98047 380.83594 240.03516 428.19922 240.03516 C 477.38281 240.03516 524.80078 260.67187 558.27344 296.71094 L 559.10938 297.58203 L 560.27344 297.27344 C 573.01953 293.67187 586.01953 291.87109 598.87109 291.87109 C 639.92578 291.87109 676.85547 310.27344 702.69141 338.96484 C 701.32812 290.08984 682.81641 243.89062 649.39844 207.58203 C 612.65625 167.67187 562.58203 144.49219 508.39844 142.27344 C 504.57129 142.11426 500.74329 142.06329 496.92383 142.11914 z M 213.54688 151.07422 L 286.07422 256 C 291.96484 242.05469 299.23828 228.80078 307.67188 216.28906 C 308.1836 215.54687 308.65625 214.81642 309.14453 214.10938 C 313.05469 208.43751 317.19922 202.94531 321.58203 197.63672 C 321.98047 197.16406 322.34375 196.65625 322.74609 196.18359 C 327.60156 190.41797 332.65625 184.80078 338.03516 179.50781 L 213.54688 151.07422 z M 811.21875 193.78125 L 684.30859 204.23828 C 703.38281 229.10937 717.07422 257.16406 724.71094 287.01953 L 811.21875 193.78125 z M 428.18359 268.60156 C 357.49219 268.60156 296.03516 318.98047 282.12891 388.41797 L 278.87109 404.67188 L 263.4375 410.81641 C 211.34375 431.45312 176.34375 482.89062 176.34375 538.81641 C 176.34375 614.74609 238.16406 676.5625 314.10938 676.5625 L 678.25391 676.5625 C 743.87109 676.5625 797.25391 623.10937 797.25391 557.39844 C 797.25391 511.05469 770.01953 468.58203 727.81641 449.16406 L 711.45312 441.63672 L 710.12891 423.65625 C 705.83594 365.78125 656.96484 320.4375 598.83594 320.4375 C 588.58203 320.4375 578.19922 321.89062 567.96484 324.76172 L 550.01953 329.78125 L 537.34375 316.14453 C 509.25391 285.92578 469.47266 268.60156 428.18359 268.60156 z M 276.72656 282.76172 L 154.91016 320.38281 L 257.52734 368.98047 C 260.28906 359.28906 263.89062 349.98047 268.16406 341.07422 C 268.18356 339.19922 268.03517 337.36328 268.10938 335.47266 C 268.85548 317.34375 271.92578 299.72656 276.72656 282.76172 z M 729.89062 315.12891 C 731.5625 328.10937 732.32812 341.27344 731.74609 354.60156 C 731.36328 363.72656 730.41797 372.69141 728.94531 381.5625 C 731.72656 388.65625 733.94532 395.96484 735.54688 403.5625 L 845.07422 369.65625 L 729.89062 315.12891 z M 633.91211 730.26367 C 633.12958 730.13818 632.30957 730.16309 631.49219 730.36328 L 630.32812 730.65625 C 627.08984 731.41797 625.03516 734.78125 625.81641 737.98047 L 636.10938 779.91016 L 594.16406 769.67188 C 590.94531 768.89062 587.61719 770.85547 586.80078 774.12891 L 586.54688 775.28906 C 585.69142 778.58203 587.76172 781.85547 591 782.61719 L 631.98047 792.63672 L 602.03516 822.34375 C 599.67187 824.72656 599.67188 828.5625 601.98047 830.94531 L 602.85547 831.80078 C 605.23828 834.18359 609.03516 834.18358 611.41797 831.85547 L 641.4375 802 L 651.52734 843.16406 C 652.30859 846.39844 655.61719 848.41797 658.83594 847.60156 L 660 847.34375 C 663.28906 846.52734 665.32812 843.25391 664.49219 840.01953 L 654.25391 798.08984 L 696.16406 808.30859 C 699.38281 809.12891 702.69141 807.08984 703.47266 803.87109 L 703.78125 802.71094 C 704.60156 799.47266 702.5625 796.14453 699.34375 795.36328 L 658.32812 785.30859 L 688.32812 755.5625 C 690.65625 753.19922 690.71095 749.38281 688.32812 747.01953 L 687.45312 746.16406 C 685.12892 743.76172 681.27344 743.76174 678.91016 746.10938 L 648.85547 775.89062 L 638.85547 734.80078 C 638.26953 732.37207 636.2597 730.64014 633.91211 730.26367 z M 403.16406 732.45312 C 403.16406 732.45312 356.07422 755.49219 336.47266 793.58203 C 313.38281 838.39844 368.27344 868.78125 392.32812 822.34375 C 411.34375 785.47266 403.16406 732.45312 403.16406 732.45312 z M 263.73047 873.11914 C 262.94775 872.99365 262.12695 873.01855 261.30859 873.21875 L 260.14453 873.50781 C 256.91016 874.27344 254.85547 877.63672 255.63672 880.83594 L 265.92578 922.76172 L 223.98047 912.52734 C 220.76172 911.74609 217.4375 913.71094 216.61719 916.98047 L 216.36328 918.14453 C 215.50781 921.4375 217.58203 924.71094 220.81641 925.47266 L 261.80078 935.49219 L 231.85547 965.19922 C 229.49219 967.58203 229.4922 971.41797 231.80078 973.80078 L 232.67188 974.65625 C 235.0547 977.03516 238.85547 977.03515 241.23828 974.71094 L 271.25391 944.85547 L 281.34375 986.01953 C 282.12891 989.25391 285.4375 991.27345 288.65625 990.45312 L 289.81641 990.19922 C 293.10937 989.38281 295.14453 986.10937 294.30859 982.87109 L 284.07422 940.94531 L 325.98047 951.16406 C 329.19922 951.98047 332.50781 949.94531 333.28906 946.72656 L 333.60156 945.5625 C 334.41797 942.32812 332.38281 939 329.16406 938.21875 L 288.14453 928.16406 L 318.14453 898.41797 C 320.47266 896.05469 320.52734 892.23828 318.14453 889.87109 L 317.27344 889.01953 C 314.94531 886.61719 311.08984 886.6172 308.72656 888.96484 L 278.67188 918.74609 L 268.67188 877.65625 C 268.08594 875.22754 266.07861 873.49561 263.73047 873.11914 z M 557.61719 875.30859 C 557.61719 875.30859 510.52734 898.34375 490.92578 936.4375 C 467.83594 981.25391 522.72656 1011.6367 546.78125 965.19922 C 565.80078 928.32812 557.61719 875.30859 557.61719 875.30859 z " />
</svg>
