<?xml version="1.0" encoding="UTF-8" standalone="no"?>
<svg
   width="1000"
   height="1000"
   viewBox="0 0 1000 1000"
   version="1.1"
   id="svg1987"
   xmlns="http://www.w3.org/2000/svg"
   xmlns:svg="http://www.w3.org/2000/svg">
  <defs
     id="defs1991" />
  <path
     id="path1978"
     d="M 524.71094 0 L 470.03516 115.38281 C 483.12891 113.69141 496.32812 112.74609 509.5625 113.28906 C 527.65625 114.03516 545.27345 117.05469 562.32812 121.76172 L 524.71094 0 z M 348.80078 33.871094 L 359.25391 161.03516 C 360.41797 160.16406 361.69141 159.41797 362.81641 158.5625 C 366.85547 155.58203 371 152.74609 375.21875 150 C 376.78125 148.98047 378.36328 147.94531 379.96484 146.98047 C 399.08984 135.27344 420.01953 126.27344 442.27344 120.50781 L 348.80078 33.871094 z M 694.01953 58.5625 L 589.18359 131.03516 C 617.58203 142.85547 643.47267 160.28906 665.54688 182.85547 L 694.01953 58.5625 z M 496.92383 142.11914 C 485.46545 142.28668 474.07715 143.41797 462.96484 145.49219 C 386.41797 159.65625 325.49219 217.47266 304.72656 290.25391 C 337 258.98047 380.83594 240.03516 428.19922 240.03516 C 477.38281 240.03516 524.80078 260.67187 558.27344 296.71094 L 559.10938 297.58203 L 560.27344 297.27344 C 573.01953 293.67187 586.01953 291.87109 598.87109 291.87109 C 639.92578 291.87109 676.85547 310.27344 702.69141 338.96484 C 701.32812 290.08984 682.81641 243.89062 649.39844 207.58203 C 612.65625 167.67187 562.58203 144.49219 508.39844 142.27344 C 504.57129 142.11426 500.74329 142.06329 496.92383 142.11914 z M 213.54688 151.07422 L 286.07422 256 C 291.96484 242.05469 299.23828 228.80078 307.67188 216.28906 C 308.1836 215.54687 308.65625 214.81642 309.14453 214.10938 C 313.05469 208.43751 317.19922 202.94531 321.58203 197.63672 C 321.98047 197.16406 322.34375 196.65625 322.74609 196.18359 C 327.60156 190.41797 332.65625 184.80078 338.03516 179.50781 L 213.54688 151.07422 z M 811.21875 193.78125 L 684.30859 204.23828 C 703.38281 229.10937 717.07422 257.16406 724.71094 287.01953 L 811.21875 193.78125 z M 428.18359 268.60156 C 357.49219 268.60156 296.03516 318.98047 282.12891 388.41797 L 278.87109 404.67188 L 263.4375 410.81641 C 211.34375 431.45312 176.34375 482.89062 176.34375 538.81641 C 176.34375 614.74609 238.16406 676.5625 314.10938 676.5625 L 678.25391 676.5625 C 743.87109 676.5625 797.25391 623.10937 797.25391 557.39844 C 797.25391 511.05469 770.01953 468.58203 727.81641 449.16406 L 711.45312 441.63672 L 710.12891 423.65625 C 705.83594 365.78125 656.96484 320.4375 598.83594 320.4375 C 588.58203 320.4375 578.19922 321.89062 567.96484 324.76172 L 550.01953 329.78125 L 537.34375 316.14453 C 509.25391 285.92578 469.47266 268.60156 428.18359 268.60156 z M 276.72656 282.76172 L 154.91016 320.38281 L 257.52734 368.98047 C 260.28906 359.28906 263.89062 349.98047 268.16406 341.07422 C 268.18356 339.19922 268.03517 337.36328 268.10938 335.47266 C 268.85548 317.34375 271.92578 299.72656 276.72656 282.76172 z M 729.89062 315.12891 C 731.5625 328.10937 732.32812 341.27344 731.74609 354.60156 C 731.36328 363.72656 730.41797 372.69141 728.94531 381.5625 C 731.72656 388.65625 733.94532 395.96484 735.54688 403.5625 L 845.07422 369.65625 L 729.89062 315.12891 z M 552.10938 716.08984 L 487.32812 716.63672 L 432.36328 826.14453 L 480.21875 826.14453 L 413.01953 992.12891 L 561.32812 790.27344 L 510.14453 789.49219 L 552.10938 716.08984 z M 300.92969 730.26367 C 300.14697 730.13818 299.32617 730.16309 298.50781 730.36328 L 297.34375 730.65625 C 294.10937 731.41797 292.05469 734.78125 292.85547 737.98047 L 303.14453 779.91016 L 261.19922 769.67188 C 257.98047 768.89063 254.65625 770.85547 253.83594 774.12891 L 253.58203 775.28906 C 252.72656 778.58203 254.80078 781.85547 258.03516 782.61719 L 299.01953 792.63672 L 269.07422 822.34375 C 266.71093 824.72656 266.71094 828.5625 269.01953 830.94531 L 269.89062 831.80078 C 272.27344 834.1836 276.07423 834.18359 278.45312 831.85547 L 308.47266 802 L 318.5625 843.16406 C 319.34375 846.39844 322.65625 848.41797 325.87109 847.60156 L 327.03516 847.34375 C 330.32812 846.52734 332.36328 843.25391 331.52734 840.01953 L 321.28906 798.08984 L 363.19922 808.30859 C 366.41797 809.12891 369.72656 807.08984 370.50781 803.87109 L 370.81641 802.71094 C 371.61719 799.47266 369.5625 796.14453 366.36328 795.36328 L 325.34375 785.30859 L 355.34375 755.5625 C 357.67187 753.19922 357.72656 749.38281 355.34375 747.01953 L 354.47266 746.16406 C 352.14453 743.76171 348.28906 743.76172 345.92578 746.10938 L 315.87109 775.89062 L 305.87109 734.80078 C 305.28516 732.37207 303.27783 730.64014 300.92969 730.26367 z M 680.13086 730.26367 C 679.34863 730.13818 678.52832 730.16309 677.71094 730.36328 L 676.54688 730.65625 C 673.30859 731.41797 671.25391 734.78125 672.03516 737.98047 L 682.32812 779.91016 L 640.38281 769.67188 C 637.16406 768.89063 633.83594 770.85547 633.01953 774.12891 L 632.76172 775.28906 C 631.91016 778.58203 633.98047 781.85547 637.21875 782.61719 L 678.19922 792.63672 L 648.25391 822.34375 C 645.89061 824.72656 645.89062 828.5625 648.19922 830.94531 L 649.07422 831.80078 C 651.45312 834.1836 655.25391 834.18359 657.63672 831.85547 L 687.65625 802 L 697.74609 843.16406 C 698.52734 846.39844 701.83594 848.41797 705.05469 847.60156 L 706.21875 847.34375 C 709.50781 846.52734 711.54687 843.25391 710.72656 840.01953 L 700.49219 798.08984 L 742.39844 808.30859 C 745.61719 809.12891 748.92578 807.08984 749.71094 803.87109 L 750.01953 802.71094 C 750.81641 799.47266 748.78125 796.14453 745.5625 795.36328 L 704.54688 785.30859 L 734.54688 755.5625 C 736.8711 753.19922 736.92579 749.38281 734.54688 747.01953 L 733.67188 746.16406 C 731.34375 743.76171 727.49219 743.76172 725.12891 746.10938 L 695.07422 775.89062 L 685.07422 734.80078 C 684.48535 732.37207 682.47754 730.64014 680.13086 730.26367 z M 137.40234 873.11914 C 136.61963 872.99365 135.79883 873.01855 134.98047 873.21875 L 133.81641 873.52734 C 130.58203 874.28906 128.52734 877.65625 129.30859 880.85547 L 139.60156 922.78125 L 97.65625 912.54688 C 94.4375 911.76172 91.109375 913.72656 90.289062 917 L 90.035156 918.16406 C 89.183594 921.45312 91.253906 924.72656 94.492188 925.49219 L 135.47266 935.50781 L 105.52734 965.21875 C 103.16404 967.60156 103.16406 971.4375 105.47266 973.81641 L 106.34375 974.67188 C 108.72656 977.05471 112.52734 977.05469 114.91016 974.72656 L 144.92578 944.87109 L 155.01953 986.03516 C 155.80078 989.27344 159.10938 991.28906 162.32812 990.47266 L 163.49219 990.21875 C 166.78125 989.39844 168.81641 986.12892 167.98047 982.89062 L 157.74609 940.96484 L 199.65625 951.18359 C 202.87109 952 206.18359 949.96484 206.96484 946.74609 L 207.27344 945.58203 C 208.10937 942.32812 206.05469 939 202.83594 938.21875 L 161.81641 928.16406 L 191.81641 898.41797 C 194.14453 896.05469 194.19922 892.23828 191.81641 889.87109 L 190.94531 889.01953 C 188.61719 886.61718 184.76172 886.61719 182.39844 888.96484 L 152.34375 918.74609 L 142.34375 877.65625 C 141.75781 875.22754 139.75049 873.49561 137.40234 873.11914 z M 298.33203 873.11914 C 297.54932 872.99365 296.72851 873.01855 295.91016 873.21875 L 294.74609 873.50781 C 291.50781 874.27344 289.45312 877.63672 290.25391 880.83594 L 300.54688 922.76172 L 258.60156 912.52734 C 255.38281 911.74609 252.05469 913.71094 251.23828 916.98047 L 250.98047 918.14453 C 250.12891 921.4375 252.19922 924.71094 255.4375 925.47266 L 296.41797 935.49219 L 266.47266 965.19922 C 264.10936 967.58203 264.10937 971.41797 266.41797 973.80078 L 267.28906 974.65625 C 269.67187 977.03517 273.47266 977.03516 275.85547 974.71094 L 305.87109 944.85547 L 315.96484 986.01953 C 316.74609 989.25391 320.05469 991.27345 323.27344 990.45312 L 324.4375 990.19922 C 327.72656 989.38281 329.76172 986.10937 328.92578 982.87109 L 318.69141 940.94531 L 360.60156 951.16406 C 363.81641 951.98047 367.12891 949.94531 367.91016 946.72656 L 368.21875 945.5625 C 369.01953 942.32812 366.98047 939 363.76172 938.21875 L 322.74609 928.16406 L 352.74609 898.41797 C 355.07422 896.05469 355.12891 892.23828 352.74609 889.87109 L 351.87109 889.01953 C 349.54687 886.61718 345.69142 886.61719 343.32812 888.96484 L 313.27344 918.74609 L 303.27344 877.65625 C 302.6875 875.22754 300.68017 873.49561 298.33203 873.11914 z M 586.29297 873.11914 C 585.51019 872.99365 584.68945 873.01855 583.87109 873.21875 L 582.71094 873.50781 C 579.47266 874.27344 577.41797 877.63672 578.19922 880.83594 L 588.49219 922.76172 L 546.54688 912.54688 C 543.32812 911.76172 540 913.72656 539.18359 917 L 538.92578 918.16406 C 538.07422 921.45312 540.14453 924.72656 543.38281 925.49219 L 584.36328 935.50781 L 554.41797 965.21875 C 552.05468 967.60156 552.05469 971.4375 554.36328 973.81641 L 555.23828 974.67188 C 557.61719 977.05471 561.41797 977.05469 563.80078 974.72656 L 593.81641 944.87109 L 603.91016 986.03516 C 604.69141 989.27344 608 991.28906 611.21875 990.47266 L 612.38281 990.21875 C 615.67187 989.39844 617.71094 986.12892 616.87109 982.89062 L 606.63672 940.96484 L 648.54688 951.18359 C 651.76172 952 655.07422 949.96484 655.85547 946.74609 L 656.16406 945.58203 C 657 942.32812 654.94531 939 651.72656 938.21875 L 610.71094 928.16406 L 640.71094 898.41797 C 643.03516 896.05469 643.08984 892.23828 640.71094 889.87109 L 639.83594 889.01953 C 637.50781 886.61718 633.65625 886.61719 631.28906 888.96484 L 601.23828 918.74609 L 591.23828 877.65625 C 590.64941 875.22754 588.6413 873.49561 586.29297 873.11914 z M 747.23828 873.11914 C 746.45551 872.99365 745.63476 873.01855 744.81641 873.21875 L 743.63672 873.52734 C 740.39844 874.28906 738.34375 877.65625 739.14453 880.85547 L 749.4375 922.78125 L 707.49219 912.54688 C 704.27344 911.76172 700.94531 913.72656 700.12891 917 L 699.87109 918.16406 C 699.01953 921.45312 701.08984 924.72656 704.32812 925.49219 L 745.30859 935.50781 L 715.36328 965.21875 C 713 967.60156 713 971.43751 715.30859 973.81641 L 716.18359 974.67188 C 718.5625 977.05471 722.36328 977.05469 724.74609 974.72656 L 754.76172 944.87109 L 764.85547 986.03516 C 765.63672 989.27344 768.94531 991.28906 772.16406 990.47266 L 773.32812 990.21875 C 776.61719 989.39844 778.65625 986.12892 777.81641 982.89062 L 767.58203 940.96484 L 809.49219 951.18359 C 812.71094 952 816.01953 949.96484 816.80078 946.74609 L 817.10938 945.58203 C 817.92579 942.32812 815.87109 939 812.67188 938.21875 L 771.65625 928.16406 L 801.65625 898.41797 C 803.98047 896.05469 804.03516 892.23828 801.65625 889.87109 L 800.78125 889.01953 C 798.45312 886.61718 794.60156 886.61719 792.23828 888.96484 L 762.18359 918.74609 L 752.18359 877.65625 C 751.59473 875.22754 749.58661 873.49561 747.23828 873.11914 z " />
</svg>
