<?xml version="1.0" encoding="UTF-8" standalone="no"?>
<svg
   width="1000"
   height="1000"
   viewBox="0 0 1000 1000"
   version="1.1"
   id="svg1773"
   xmlns="http://www.w3.org/2000/svg"
   xmlns:svg="http://www.w3.org/2000/svg">
  <defs
     id="defs1777" />
  <path
     id="path1766"
     d="M 524.71094 0 L 470.03516 115.38281 C 483.12891 113.69141 496.32812 112.74609 509.5625 113.28906 C 527.65625 114.03516 545.27345 117.05469 562.32812 121.76172 L 524.71094 0 z M 348.80078 33.871094 L 359.25391 161.03516 C 360.41797 160.16406 361.69141 159.41797 362.81641 158.5625 C 366.85547 155.58203 371 152.74609 375.21875 150 C 376.78125 148.98047 378.36328 147.94531 379.96484 146.98047 C 399.08984 135.27344 420.01953 126.27344 442.27344 120.50781 L 348.80078 33.871094 z M 694.01953 58.5625 L 589.18359 131.03516 C 617.58203 142.85547 643.47267 160.28906 665.54688 182.85547 L 694.01953 58.5625 z M 496.92383 142.11914 C 485.46545 142.28668 474.07715 143.41797 462.96484 145.49219 C 386.41797 159.65625 325.49219 217.47266 304.72656 290.25391 C 337 258.98047 380.83594 240.03516 428.19922 240.03516 C 477.38281 240.03516 524.80078 260.67187 558.27344 296.71094 L 559.10938 297.58203 L 560.27344 297.27344 C 573.01953 293.67187 586.01953 291.87109 598.87109 291.87109 C 639.92578 291.87109 676.85547 310.27344 702.69141 338.96484 C 701.32812 290.08984 682.81641 243.89062 649.39844 207.58203 C 612.65625 167.67187 562.58203 144.49219 508.39844 142.27344 C 504.57129 142.11426 500.74329 142.06329 496.92383 142.11914 z M 213.54688 151.07422 L 286.07422 256 C 291.96484 242.05469 299.23828 228.80078 307.67188 216.28906 C 308.1836 215.54687 308.65625 214.81642 309.14453 214.10938 C 313.05469 208.43751 317.19922 202.94531 321.58203 197.63672 C 321.98047 197.16406 322.34375 196.65625 322.74609 196.18359 C 327.60156 190.41797 332.65625 184.80078 338.03516 179.50781 L 213.54688 151.07422 z M 811.21875 193.78125 L 684.30859 204.23828 C 703.38281 229.10937 717.07422 257.16406 724.71094 287.01953 L 811.21875 193.78125 z M 428.18359 268.60156 C 357.49219 268.60156 296.03516 318.98047 282.12891 388.41797 L 278.87109 404.67188 L 263.4375 410.81641 C 211.34375 431.45312 176.34375 482.89062 176.34375 538.81641 C 176.34375 614.74609 238.16406 676.5625 314.10938 676.5625 L 678.25391 676.5625 C 743.87109 676.5625 797.25391 623.10937 797.25391 557.39844 C 797.25391 511.05469 770.01953 468.58203 727.81641 449.16406 L 711.45312 441.63672 L 710.12891 423.65625 C 705.83594 365.78125 656.96484 320.4375 598.83594 320.4375 C 588.58203 320.4375 578.19922 321.89062 567.96484 324.76172 L 550.01953 329.78125 L 537.34375 316.14453 C 509.25391 285.92578 469.47266 268.60156 428.18359 268.60156 z M 276.72656 282.76172 L 154.91016 320.38281 L 257.52734 368.98047 C 260.28906 359.28906 263.89062 349.98047 268.16406 341.07422 C 268.18356 339.19922 268.03517 337.36328 268.10938 335.47266 C 268.85548 317.34375 271.92578 299.72656 276.72656 282.76172 z M 729.89062 315.12891 C 731.5625 328.10937 732.32812 341.27344 731.74609 354.60156 C 731.36328 363.72656 730.41797 372.69141 728.94531 381.5625 C 731.72656 388.65625 733.94532 395.96484 735.54688 403.5625 L 845.07422 369.65625 L 729.89062 315.12891 z M 340.56641 730.26367 C 339.78369 730.13818 338.96289 730.16309 338.14453 730.36328 L 336.98047 730.65625 C 333.74609 731.41797 331.69141 734.78125 332.49219 737.98047 L 342.78125 779.91016 L 300.83594 769.67188 C 297.61719 768.89063 294.28906 770.85547 293.47266 774.12891 L 293.21875 775.28906 C 292.36328 778.58203 294.4375 781.85547 297.67188 782.61719 L 338.65625 792.63672 L 308.71094 822.34375 C 306.34374 824.72656 306.34375 828.5625 308.65625 830.94531 L 309.52734 831.80078 C 311.91016 834.1836 315.71094 834.18359 318.08984 831.85547 L 348.10938 802 L 358.19922 843.16406 C 358.98047 846.39844 362.28906 848.41797 365.50781 847.60156 L 366.67188 847.34375 C 369.96485 846.52734 372 843.25391 371.16406 840.01953 L 360.92578 798.08984 L 402.83594 808.30859 C 406.05469 809.12891 409.36328 807.08984 410.14453 803.87109 L 410.45312 802.71094 C 411.25392 799.47266 409.19922 796.14453 406 795.36328 L 364.98047 785.30859 L 394.98047 755.5625 C 397.30859 753.19922 397.36328 749.38281 394.98047 747.01953 L 394.10938 746.16406 C 391.78125 743.76171 387.92578 743.76172 385.5625 746.10938 L 355.50781 775.89062 L 345.50781 734.80078 C 344.92188 732.37207 342.91455 730.64014 340.56641 730.26367 z M 620.33203 730.26367 C 619.54932 730.13818 618.72851 730.16309 617.91016 730.36328 L 616.74609 730.65625 C 613.50781 731.41797 611.45312 734.78125 612.23828 737.98047 L 622.52734 779.91016 L 580.58203 769.67188 C 577.36328 768.89063 574.03516 770.85547 573.21875 774.12891 L 572.96484 775.28906 C 572.10937 778.58203 574.18359 781.85547 577.41797 782.61719 L 618.39844 792.63672 L 588.45312 822.34375 C 586.08983 824.72656 586.08984 828.5625 588.39844 830.94531 L 589.27344 831.80078 C 591.65625 834.1836 595.45312 834.18359 597.83594 831.85547 L 627.85547 802 L 637.94531 843.16406 C 638.72656 846.39844 642.03516 848.41797 645.25391 847.60156 L 646.41797 847.34375 C 649.71094 846.52734 651.74609 843.25391 650.91016 840.01953 L 640.67188 798.08984 L 682.58203 808.30859 C 685.80078 809.12891 689.10938 807.08984 689.89062 803.87109 L 690.19922 802.71094 C 691.01953 799.47266 688.96484 796.14453 685.76172 795.36328 L 644.74609 785.30859 L 674.74609 755.5625 C 677.07422 753.19922 677.12891 749.38281 674.74609 747.01953 L 673.87109 746.16406 C 671.54687 743.76171 667.69142 743.76172 665.32812 746.10938 L 635.27344 775.89062 L 625.27344 734.80078 C 624.6875 732.37207 622.68017 730.64014 620.33203 730.26367 z M 235.13086 873.11914 C 234.34863 872.99365 233.52832 873.01855 232.71094 873.21875 L 231.54688 873.50781 C 228.30859 874.27344 226.25391 877.63672 227.03516 880.83594 L 237.32812 922.76172 L 195.38281 912.52734 C 192.16406 911.74609 188.83594 913.71094 188.01953 916.98047 L 187.76172 918.14453 C 186.91016 921.4375 188.98047 924.71094 192.21875 925.47266 L 233.19922 935.49219 L 203.25391 965.19922 C 200.89061 967.58203 200.89062 971.41797 203.19922 973.80078 L 204.07422 974.65625 C 206.45312 977.03517 210.25391 977.03516 212.63672 974.71094 L 242.65625 944.85547 L 252.74609 986.01953 C 253.52734 989.25391 256.83594 991.27345 260.05469 990.45312 L 261.21875 990.19922 C 264.50781 989.38281 266.54687 986.10937 265.72656 982.87109 L 255.49219 940.94531 L 297.39844 951.16406 C 300.61719 951.98047 303.92578 949.94531 304.71094 946.72656 L 305.01953 945.5625 C 305.81641 942.32812 303.78125 939 300.5625 938.21875 L 259.54688 928.16406 L 289.54688 898.41797 C 291.8711 896.05469 291.92579 892.23828 289.54688 889.87109 L 288.67188 889.01953 C 286.34375 886.61718 282.49219 886.61719 280.12891 888.96484 L 250.07422 918.74609 L 240.07422 877.65625 C 239.48535 875.22754 237.47754 873.49561 235.13086 873.11914 z M 512.56641 873.11914 C 511.78369 872.99365 510.96289 873.01855 510.14453 873.21875 L 508.98047 873.50781 C 505.74609 874.27344 503.69141 877.63672 504.47266 880.83594 L 514.76172 922.76172 L 472.81641 912.52734 C 469.60156 911.74609 466.27344 913.71094 465.45312 916.98047 L 465.19922 918.14453 C 464.34375 921.4375 466.41797 924.71094 469.65625 925.47266 L 510.63672 935.49219 L 480.69141 965.19922 C 478.32811 967.58203 478.32812 971.41797 480.63672 973.80078 L 481.50781 974.65625 C 483.89062 977.03517 487.69141 977.03516 490.07422 974.71094 L 520.08984 944.85547 L 530.18359 986.01953 C 530.96484 989.25391 534.27344 991.27345 537.49219 990.45312 L 538.65625 990.19922 C 541.94531 989.38281 543.98047 986.10937 543.14453 982.87109 L 532.91016 940.94531 L 574.81641 951.16406 C 578.03516 951.98047 581.34375 949.94531 582.12891 946.72656 L 582.4375 945.5625 C 583.25391 942.32812 581.21875 939 578 938.21875 L 536.98047 928.16406 L 566.98047 898.41797 C 569.30859 896.05469 569.36328 892.23828 566.98047 889.87109 L 566.10938 889.01953 C 563.78126 886.61718 559.92578 886.61719 557.5625 888.96484 L 527.50781 918.74609 L 517.50781 877.65625 C 516.92188 875.22754 514.91455 873.49561 512.56641 873.11914 z " />
</svg>
