<?xml version="1.0" encoding="UTF-8" standalone="no"?>
<svg
   width="1000"
   height="1000"
   viewBox="0 0 1000 1000"
   version="1.1"
   id="svg1269"
   xmlns="http://www.w3.org/2000/svg"
   xmlns:svg="http://www.w3.org/2000/svg">
  <defs
     id="defs1273" />
  <path
     id="path1258"
     d="M 524.71094 0 L 470.03516 115.38281 C 483.12891 113.69141 496.32812 112.74609 509.5625 113.28906 C 527.65625 114.03516 545.27345 117.05469 562.32812 121.76172 L 524.71094 0 z M 348.80078 33.871094 L 359.25391 161.03516 C 360.41797 160.16406 361.69141 159.41797 362.81641 158.5625 C 366.85547 155.58203 371 152.74609 375.21875 150 C 376.78125 148.98047 378.36328 147.94531 379.96484 146.98047 C 399.08984 135.27344 420.01953 126.27344 442.27344 120.50781 L 348.80078 33.871094 z M 694.01953 58.5625 L 589.18359 131.03516 C 617.58203 142.85547 643.47267 160.28906 665.54688 182.85547 L 694.01953 58.5625 z M 496.92383 142.11914 C 485.46545 142.28668 474.07715 143.41797 462.96484 145.49219 C 386.41797 159.65625 325.49219 217.47266 304.72656 290.25391 C 337 258.98047 380.83594 240.03516 428.19922 240.03516 C 477.38281 240.03516 524.80078 260.67187 558.27344 296.71094 L 559.10938 297.58203 L 560.27344 297.27344 C 573.01953 293.67187 586.01953 291.87109 598.87109 291.87109 C 639.92578 291.87109 676.85547 310.27344 702.69141 338.96484 C 701.32812 290.08984 682.81641 243.89062 649.39844 207.58203 C 612.65625 167.67187 562.58203 144.49219 508.39844 142.27344 C 504.57129 142.11426 500.74329 142.06329 496.92383 142.11914 z M 213.54688 151.07422 L 286.07422 256 C 291.96484 242.05469 299.23828 228.80078 307.67188 216.28906 C 308.1836 215.54687 308.65625 214.81642 309.14453 214.10938 C 313.05469 208.43751 317.19922 202.94531 321.58203 197.63672 C 321.98047 197.16406 322.34375 196.65625 322.74609 196.18359 C 327.60156 190.41797 332.65625 184.80078 338.03516 179.50781 L 213.54688 151.07422 z M 811.21875 193.78125 L 684.30859 204.23828 C 703.38281 229.10937 717.07422 257.16406 724.71094 287.01953 L 811.21875 193.78125 z M 428.18359 268.60156 C 357.49219 268.60156 296.03516 318.98047 282.12891 388.41797 L 278.87109 404.67188 L 263.4375 410.81641 C 211.34375 431.45312 176.34375 482.89062 176.34375 538.81641 C 176.34375 614.74609 238.16406 676.5625 314.10938 676.5625 L 678.25391 676.5625 C 743.87109 676.5625 797.25391 623.10937 797.25391 557.39844 C 797.25391 511.05469 770.01953 468.58203 727.81641 449.16406 L 711.45312 441.63672 L 710.12891 423.65625 C 705.83594 365.78125 656.96484 320.4375 598.83594 320.4375 C 588.58203 320.4375 578.19922 321.89062 567.96484 324.76172 L 550.01953 329.78125 L 537.34375 316.14453 C 509.25391 285.92578 469.47266 268.60156 428.18359 268.60156 z M 276.72656 282.76172 L 154.91016 320.38281 L 257.52734 368.98047 C 260.28906 359.28906 263.89062 349.98047 268.16406 341.07422 C 268.18356 339.19922 268.03517 337.36328 268.10938 335.47266 C 268.85548 317.34375 271.92578 299.72656 276.72656 282.76172 z M 729.89062 315.12891 C 731.5625 328.10937 732.32812 341.27344 731.74609 354.60156 C 731.36328 363.72656 730.41797 372.69141 728.94531 381.5625 C 731.72656 388.65625 733.94532 395.96484 735.54688 403.5625 L 845.07422 369.65625 L 729.89062 315.12891 z M 536.91016 716.08984 L 472.12891 716.63672 L 417.16406 826.14453 L 465.01953 826.14453 L 397.81641 992.12891 L 546.12891 790.27344 L 494.94531 789.49219 L 536.91016 716.08984 z M 304.18945 730.19141 C 303.78418 730.20703 303.37402 730.26318 302.96484 730.36328 L 301.80078 730.65625 C 298.5625 731.41797 296.50781 734.78125 297.30859 737.98047 L 307.60156 779.91016 L 265.65625 769.67188 C 262.4375 768.89062 259.10937 770.85547 258.28906 774.12891 L 258.03516 775.28906 C 257.18359 778.58203 259.25391 781.85547 262.49219 782.61719 L 303.47266 792.63672 L 273.52734 822.34375 C 271.16406 824.72656 271.16408 828.5625 273.47266 830.94531 L 274.34375 831.80078 C 276.72656 834.18359 280.52734 834.18358 282.91016 831.85547 L 312.92578 802 L 323.01953 843.16406 C 323.80078 846.39844 327.10937 848.41797 330.32812 847.60156 L 331.49219 847.34375 C 334.78125 846.52734 336.81641 843.25391 335.98047 840.01953 L 325.74609 798.08984 L 367.65625 808.30859 C 370.87109 809.12891 374.18359 807.08984 374.96484 803.87109 L 375.27344 802.71094 C 376.08984 799.47266 374.03516 796.14453 370.81641 795.36328 L 329.80078 785.30859 L 359.80078 755.5625 C 362.12891 753.19922 362.18359 749.38281 359.80078 747.01953 L 358.92578 746.16406 C 356.60156 743.76172 352.74609 743.76174 350.38281 746.10938 L 320.32812 775.89062 L 310.32812 734.80078 C 309.64453 731.96729 307.02637 730.08203 304.18945 730.19141 z M 695.54688 732.45312 C 695.54688 732.45312 648.45312 755.49219 628.85547 793.58203 C 605.76172 838.39844 660.65625 868.78125 684.71094 822.34375 C 703.72656 785.47266 695.54688 732.45312 695.54688 732.45312 z " />
</svg>
