<?xml version="1.0" encoding="UTF-8"?>
<svg xmlns="http://www.w3.org/2000/svg" xmlns:xlink="http://www.w3.org/1999/xlink" width="1000" height="1000" viewBox="0 0 1000 1000" version="1.1">
<g id="surface1">
<path d="M 506.199219 166.78125 C 505.78125 166.34375 505.308594 165.980469 504.910156 165.527344 C 506.527344 164.691406 508.253906 163.816406 509.78125 163 C 525.382812 156.21875 541.945312 151.253906 559.253906 148.546875 C 574.527344 146.128906 590.21875 145.417969 605.855469 146.492188 C 661.21875 150.21875 711.835938 175.34375 748.34375 217.199219 C 784.800781 259.035156 802.816406 312.527344 798.964844 367.910156 C 798.492188 375.273438 797.453125 382.492188 796.199219 389.65625 C 796.109375 389.382812 795.964844 389.144531 795.890625 388.910156 C 784.472656 354.035156 760.054688 325.144531 728.21875 308.273438 C 727.980469 308.128906 727.761719 307.964844 727.507812 307.816406 C 724.035156 306 720.289062 304.671875 716.65625 303.144531 C 713.109375 301.636719 709.65625 300 705.980469 298.78125 C 702.800781 297.761719 699.453125 297.144531 696.199219 296.328125 C 691.855469 295.253906 687.527344 294.128906 683.035156 293.492188 C 682.128906 293.363281 681.328125 293.054688 680.417969 292.925781 C 681.253906 274.527344 674.054688 255.074219 673.964844 254.835938 C 661.527344 221.761719 637.871094 194.945312 605.507812 177.273438 C 586.183594 166.726562 565.398438 161.398438 543.726562 161.398438 C 531.199219 161.398438 518.527344 163.289062 506.34375 166.925781 Z M 481.527344 144.289062 C 471.691406 136.492188 461.34375 129.835938 450.617188 124.164062 L 445.472656 31.183594 L 538.761719 122.417969 C 518.507812 127.074219 499.453125 134.761719 481.527344 144.289062 Z M 607.855469 116.871094 C 594.328125 115.945312 580.78125 116.5625 567.328125 117.925781 L 626.453125 1.363281 L 661.617188 127 C 644.308594 121.710938 626.34375 118.109375 607.855469 116.871094 Z M 688.855469 137.21875 L 798.144531 65.910156 L 765.601562 192.34375 C 743.617188 168.65625 717.601562 150.074219 688.855469 137.21875 Z M 784.199219 214.746094 L 914.363281 207.527344 L 823.289062 300.582031 C 816.273438 269.816406 803.035156 240.726562 784.199219 214.746094 Z M 827.78125 329.492188 L 944.199219 388.472656 L 818.363281 423.761719 C 823.761719 406.492188 827.363281 388.507812 828.617188 369.945312 C 829.546875 356.328125 829.109375 342.816406 827.78125 329.492188 Z M 827.78125 329.492188 "/>
<path d="M 211.980469 538.816406 C 211.980469 556.5625 214.835938 573.671875 220.035156 589.726562 C 198.019531 585.78125 180.273438 580.910156 180.273438 580.910156 C 115.636719 558.308594 70.289062 494.308594 76.65625 420.746094 C 81.816406 360.964844 123.398438 310.417969 179.183594 288.273438 L 191.582031 283.34375 L 195.273438 265.019531 C 214.054688 171.144531 310.035156 108.144531 408.601562 137.144531 C 438.164062 145.835938 464.289062 163.671875 485.289062 186.238281 L 497.128906 198.980469 C 497.128906 198.980469 497.945312 199.453125 499.199219 200.238281 C 527.78125 186.546875 561.601562 185.871094 591.835938 202.382812 C 620.019531 217.78125 637.945312 240.238281 647.238281 264.910156 C 648.238281 267.582031 652.527344 282.980469 651.78125 292.671875 C 642.636719 293.417969 633.472656 294.746094 624.453125 297.273438 L 623.289062 297.601562 L 622.453125 296.691406 C 588.980469 260.691406 541.5625 240.054688 492.382812 240.054688 C 408.074219 240.054688 334.871094 300.074219 318.308594 382.816406 L 318.128906 383.871094 L 317.109375 384.273438 C 254.21875 409.183594 211.980469 471.289062 211.980469 538.816406 Z M 792.019531 449.164062 C 834.199219 468.582031 861.4375 511.054688 861.453125 557.417969 C 861.453125 623.128906 808.074219 676.582031 742.453125 676.582031 L 378.308594 676.582031 C 302.363281 676.582031 240.546875 614.761719 240.546875 538.835938 C 240.546875 482.910156 275.546875 431.472656 327.636719 410.835938 L 343.089844 404.691406 L 346.328125 388.4375 C 360.238281 319 421.691406 268.617188 492.382812 268.617188 C 533.671875 268.617188 573.453125 285.945312 601.546875 316.164062 L 614.21875 329.800781 L 632.164062 324.78125 C 642.398438 321.925781 652.78125 320.453125 663.035156 320.453125 C 721.164062 320.453125 770.035156 365.78125 774.328125 423.691406 L 775.65625 441.636719 Z M 792.019531 449.164062 "/>
<path d="M 402.726562 795.363281 C 405.925781 796.144531 407.980469 799.472656 407.183594 802.710938 L 406.871094 803.871094 C 406.089844 807.089844 402.78125 809.128906 399.5625 808.308594 L 357.65625 798.089844 L 367.890625 840.019531 C 368.726562 843.253906 366.691406 846.527344 363.398438 847.34375 L 362.238281 847.601562 C 359.019531 848.417969 355.710938 846.398438 354.925781 843.164062 L 344.835938 802 L 314.816406 831.855469 C 312.4375 834.183594 308.636719 834.183594 306.253906 831.800781 L 305.382812 830.945312 C 303.074219 828.5625 303.074219 824.726562 305.4375 822.34375 L 335.382812 792.636719 L 294.398438 782.617188 C 291.164062 781.855469 289.089844 778.582031 289.945312 775.289062 L 290.199219 774.128906 C 291.019531 770.855469 294.34375 768.890625 297.5625 769.671875 L 339.507812 779.910156 L 329.21875 737.980469 C 328.417969 734.78125 330.472656 731.417969 333.710938 730.65625 L 334.871094 730.363281 C 338.144531 729.5625 341.453125 731.5625 342.238281 734.800781 L 352.238281 775.890625 L 382.289062 746.109375 C 384.65625 743.761719 388.507812 743.761719 390.835938 746.164062 L 391.710938 747.019531 C 394.089844 749.382812 394.035156 753.199219 391.710938 755.5625 L 361.710938 785.308594 Z M 239.199219 938.21875 C 242.417969 939 244.472656 942.328125 243.636719 945.582031 L 243.328125 946.746094 C 242.546875 949.964844 239.238281 952 236.019531 951.183594 L 194.109375 940.964844 L 204.34375 982.890625 C 205.183594 986.128906 203.144531 989.398438 199.855469 990.21875 L 198.691406 990.472656 C 195.472656 991.289062 192.164062 989.273438 191.382812 986.035156 L 181.289062 944.871094 L 151.273438 974.726562 C 148.890625 977.054688 145.089844 977.054688 142.710938 974.671875 L 141.835938 973.816406 C 139.527344 971.4375 139.527344 967.601562 141.890625 965.21875 L 171.835938 935.507812 L 130.855469 925.492188 C 127.617188 924.726562 125.546875 921.453125 126.398438 918.164062 L 126.65625 917 C 127.472656 913.726562 130.800781 911.761719 134.019531 912.546875 L 175.964844 922.78125 L 165.671875 880.855469 C 164.890625 877.65625 166.945312 874.289062 170.183594 873.527344 L 171.34375 873.21875 C 174.617188 872.417969 177.925781 874.417969 178.710938 877.65625 L 188.710938 918.746094 L 218.761719 888.964844 C 221.128906 886.617188 224.980469 886.617188 227.308594 889.019531 L 228.183594 889.871094 C 230.5625 892.238281 230.507812 896.054688 228.183594 898.417969 L 198.183594 928.164062 Z M 400.128906 938.21875 C 403.34375 939 405.382812 942.328125 404.582031 945.5625 L 404.273438 946.726562 C 403.492188 949.945312 400.183594 951.980469 396.964844 951.164062 L 355.054688 940.945312 L 365.289062 982.871094 C 366.128906 986.109375 364.089844 989.382812 360.800781 990.199219 L 359.636719 990.453125 C 356.417969 991.273438 353.109375 989.253906 352.328125 986.019531 L 342.238281 944.855469 L 312.21875 974.710938 C 309.835938 977.035156 306.035156 977.035156 303.65625 974.65625 L 302.78125 973.800781 C 300.472656 971.417969 300.472656 967.582031 302.835938 965.199219 L 332.78125 935.492188 L 291.800781 925.472656 C 288.5625 924.710938 286.492188 921.4375 287.34375 918.144531 L 287.601562 916.980469 C 288.417969 913.710938 291.746094 911.746094 294.964844 912.527344 L 336.910156 922.761719 L 326.617188 880.835938 C 325.816406 877.636719 327.871094 874.273438 331.109375 873.507812 L 332.273438 873.21875 C 335.546875 872.417969 338.855469 874.417969 339.636719 877.65625 L 349.636719 918.746094 L 379.691406 888.964844 C 382.054688 886.617188 385.910156 886.617188 388.238281 889.019531 L 389.109375 889.871094 C 391.492188 892.238281 391.4375 896.054688 389.109375 898.417969 L 359.109375 928.164062 Z M 688.089844 938.21875 C 691.308594 939 693.363281 942.328125 692.527344 945.582031 L 692.21875 946.746094 C 691.4375 949.964844 688.128906 952 684.910156 951.183594 L 643 940.964844 L 653.238281 982.890625 C 654.074219 986.128906 652.035156 989.398438 648.746094 990.21875 L 647.582031 990.472656 C 644.363281 991.289062 641.054688 989.273438 640.273438 986.035156 L 630.183594 944.871094 L 600.164062 974.726562 C 597.78125 977.054688 593.980469 977.054688 591.601562 974.671875 L 590.726562 973.816406 C 588.417969 971.4375 588.417969 967.601562 590.78125 965.21875 L 620.726562 935.507812 L 579.746094 925.492188 C 576.507812 924.726562 574.4375 921.453125 575.289062 918.164062 L 575.546875 917 C 576.363281 913.726562 579.691406 911.761719 582.910156 912.546875 L 624.855469 922.761719 L 614.5625 880.835938 C 613.78125 877.636719 615.835938 874.273438 619.074219 873.507812 L 620.238281 873.21875 C 623.507812 872.417969 626.816406 874.417969 627.601562 877.65625 L 637.601562 918.746094 L 667.65625 888.964844 C 670.019531 886.617188 673.871094 886.617188 676.199219 889.019531 L 677.074219 889.871094 C 679.453125 892.238281 679.398438 896.054688 677.074219 898.417969 L 647.074219 928.164062 Z M 849.035156 938.21875 C 852.238281 939 854.289062 942.328125 853.472656 945.582031 L 853.164062 946.746094 C 852.382812 949.964844 849.074219 952 845.855469 951.183594 L 803.945312 940.964844 L 814.183594 982.890625 C 815.019531 986.128906 812.980469 989.398438 809.691406 990.21875 L 808.527344 990.472656 C 805.308594 991.289062 802 989.273438 801.21875 986.035156 L 791.128906 944.871094 L 761.109375 974.726562 C 758.726562 977.054688 754.925781 977.054688 752.546875 974.671875 L 751.671875 973.816406 C 749.363281 971.4375 749.363281 967.601562 751.726562 965.21875 L 781.671875 935.507812 L 740.691406 925.492188 C 737.453125 924.726562 735.382812 921.453125 736.238281 918.164062 L 736.492188 917 C 737.308594 913.726562 740.636719 911.761719 743.855469 912.546875 L 785.800781 922.78125 L 775.507812 880.855469 C 774.710938 877.65625 776.761719 874.289062 780 873.527344 L 781.183594 873.21875 C 784.453125 872.417969 787.761719 874.417969 788.546875 877.65625 L 798.546875 918.746094 L 828.601562 888.964844 C 830.964844 886.617188 834.816406 886.617188 837.144531 889.019531 L 838.019531 889.871094 C 840.398438 892.238281 840.34375 896.054688 838.019531 898.417969 L 808.019531 928.164062 Z M 781.925781 795.363281 C 785.144531 796.144531 787.183594 799.472656 786.382812 802.710938 L 786.074219 803.871094 C 785.289062 807.089844 781.980469 809.128906 778.761719 808.308594 L 736.855469 798.089844 L 747.089844 840.019531 C 747.910156 843.253906 745.871094 846.527344 742.582031 847.34375 L 741.417969 847.601562 C 738.199219 848.417969 734.890625 846.398438 734.109375 843.164062 L 724.019531 802 L 694 831.855469 C 691.617188 834.183594 687.816406 834.183594 685.4375 831.800781 L 684.5625 830.945312 C 682.253906 828.5625 682.253906 824.726562 684.617188 822.34375 L 714.5625 792.636719 L 673.582031 782.617188 C 670.34375 781.855469 668.273438 778.582031 669.128906 775.289062 L 669.382812 774.128906 C 670.199219 770.855469 673.527344 768.890625 676.746094 769.671875 L 718.691406 779.910156 L 708.398438 737.980469 C 707.617188 734.78125 709.671875 731.417969 712.910156 730.65625 L 714.074219 730.363281 C 717.34375 729.5625 720.65625 731.5625 721.4375 734.800781 L 731.4375 775.890625 L 761.492188 746.109375 C 763.855469 743.761719 767.710938 743.761719 770.035156 746.164062 L 770.910156 747.019531 C 773.289062 749.382812 773.238281 753.199219 770.910156 755.5625 L 740.910156 785.308594 Z M 781.925781 795.363281 "/>
<path d="M 597.691406 790.273438 L 546.507812 789.492188 L 588.472656 716.089844 L 523.691406 716.636719 L 468.726562 826.144531 L 516.582031 826.144531 L 449.382812 992.128906 Z M 597.691406 790.273438 "/>
</g>
</svg>
