<?xml version="1.0" encoding="UTF-8"?>
<svg xmlns="http://www.w3.org/2000/svg" xmlns:xlink="http://www.w3.org/1999/xlink" width="1000" height="1000" viewBox="0 0 1000 1000" version="1.1">
<g id="surface1">
<path d="M 506.199219 166.78125 C 505.78125 166.34375 505.308594 165.980469 504.910156 165.527344 C 506.527344 164.691406 508.253906 163.816406 509.78125 163 C 525.382812 156.21875 541.945312 151.253906 559.253906 148.546875 C 574.527344 146.128906 590.21875 145.417969 605.855469 146.492188 C 661.21875 150.21875 711.835938 175.34375 748.34375 217.199219 C 784.800781 259.035156 802.816406 312.527344 798.964844 367.910156 C 798.492188 375.273438 797.453125 382.492188 796.199219 389.65625 C 796.109375 389.382812 795.964844 389.144531 795.890625 388.910156 C 784.472656 354.035156 760.054688 325.144531 728.21875 308.273438 C 727.980469 308.128906 727.761719 307.964844 727.507812 307.816406 C 724.035156 306 720.289062 304.671875 716.65625 303.144531 C 713.109375 301.636719 709.65625 300 705.980469 298.78125 C 702.800781 297.761719 699.453125 297.144531 696.199219 296.328125 C 691.855469 295.253906 687.527344 294.128906 683.035156 293.492188 C 682.128906 293.363281 681.328125 293.054688 680.417969 292.925781 C 681.253906 274.527344 674.054688 255.074219 673.964844 254.835938 C 661.527344 221.761719 637.871094 194.945312 605.507812 177.273438 C 586.183594 166.726562 565.398438 161.398438 543.726562 161.398438 C 531.199219 161.398438 518.527344 163.289062 506.34375 166.925781 Z M 481.527344 144.289062 C 471.691406 136.492188 461.34375 129.835938 450.617188 124.164062 L 445.472656 31.183594 L 538.761719 122.417969 C 518.507812 127.074219 499.453125 134.761719 481.527344 144.289062 Z M 607.855469 116.871094 C 594.328125 115.945312 580.78125 116.5625 567.328125 117.925781 L 626.453125 1.363281 L 661.617188 127 C 644.308594 121.710938 626.34375 118.109375 607.855469 116.871094 Z M 688.855469 137.21875 L 798.144531 65.910156 L 765.601562 192.34375 C 743.617188 168.65625 717.601562 150.074219 688.855469 137.21875 Z M 784.199219 214.746094 L 914.363281 207.527344 L 823.289062 300.582031 C 816.273438 269.816406 803.035156 240.726562 784.199219 214.746094 Z M 827.78125 329.492188 L 944.199219 388.472656 L 818.363281 423.761719 C 823.761719 406.492188 827.363281 388.507812 828.617188 369.945312 C 829.546875 356.328125 829.109375 342.816406 827.78125 329.492188 Z M 827.78125 329.492188 "/>
<path d="M 211.980469 538.816406 C 211.980469 556.5625 214.835938 573.671875 220.035156 589.726562 C 198.019531 585.78125 180.273438 580.910156 180.273438 580.910156 C 115.636719 558.308594 70.289062 494.308594 76.65625 420.746094 C 81.816406 360.964844 123.398438 310.417969 179.183594 288.273438 L 191.582031 283.34375 L 195.273438 265.019531 C 214.054688 171.144531 310.035156 108.144531 408.601562 137.144531 C 438.164062 145.835938 464.289062 163.671875 485.289062 186.238281 L 497.128906 198.980469 C 497.128906 198.980469 497.945312 199.453125 499.199219 200.238281 C 527.78125 186.546875 561.601562 185.871094 591.835938 202.382812 C 620.019531 217.78125 637.945312 240.238281 647.238281 264.910156 C 648.238281 267.582031 652.527344 282.980469 651.78125 292.671875 C 642.636719 293.417969 633.472656 294.746094 624.453125 297.273438 L 623.289062 297.601562 L 622.453125 296.691406 C 588.980469 260.691406 541.5625 240.054688 492.382812 240.054688 C 408.074219 240.054688 334.871094 300.074219 318.308594 382.816406 L 318.128906 383.871094 L 317.109375 384.273438 C 254.21875 409.183594 211.980469 471.289062 211.980469 538.816406 Z M 792.019531 449.164062 C 834.199219 468.582031 861.4375 511.054688 861.453125 557.417969 C 861.453125 623.128906 808.074219 676.582031 742.453125 676.582031 L 378.308594 676.582031 C 302.363281 676.582031 240.546875 614.761719 240.546875 538.835938 C 240.546875 482.910156 275.546875 431.472656 327.636719 410.835938 L 343.089844 404.691406 L 346.328125 388.4375 C 360.238281 319 421.691406 268.617188 492.382812 268.617188 C 533.671875 268.617188 573.453125 285.945312 601.546875 316.164062 L 614.21875 329.800781 L 632.164062 324.78125 C 642.398438 321.925781 652.78125 320.453125 663.035156 320.453125 C 721.164062 320.453125 770.035156 365.78125 774.328125 423.691406 L 775.65625 441.636719 Z M 792.019531 449.164062 "/>
<path d="M 406 795.363281 C 409.199219 796.144531 411.253906 799.472656 410.453125 802.710938 L 410.144531 803.871094 C 409.363281 807.089844 406.054688 809.128906 402.835938 808.308594 L 360.925781 798.089844 L 371.164062 840.019531 C 372 843.253906 369.964844 846.527344 366.671875 847.34375 L 365.507812 847.601562 C 362.289062 848.417969 358.980469 846.398438 358.199219 843.164062 L 348.109375 802 L 318.089844 831.855469 C 315.710938 834.183594 311.910156 834.183594 309.527344 831.800781 L 308.65625 830.945312 C 306.34375 828.5625 306.34375 824.726562 308.710938 822.34375 L 338.65625 792.636719 L 297.671875 782.617188 C 294.4375 781.855469 292.363281 778.582031 293.21875 775.289062 L 293.472656 774.128906 C 294.289062 770.855469 297.617188 768.890625 300.835938 769.671875 L 342.78125 779.910156 L 332.492188 737.980469 C 331.691406 734.78125 333.746094 731.417969 336.980469 730.65625 L 338.144531 730.363281 C 341.417969 729.5625 344.726562 731.5625 345.507812 734.800781 L 355.507812 775.890625 L 385.5625 746.109375 C 387.925781 743.761719 391.78125 743.761719 394.109375 746.164062 L 394.980469 747.019531 C 397.363281 749.382812 397.308594 753.199219 394.980469 755.5625 L 364.980469 785.308594 Z M 300.5625 938.21875 C 303.78125 939 305.816406 942.328125 305.019531 945.5625 L 304.710938 946.726562 C 303.925781 949.945312 300.617188 951.980469 297.398438 951.164062 L 255.492188 940.945312 L 265.726562 982.871094 C 266.546875 986.109375 264.507812 989.382812 261.21875 990.199219 L 260.054688 990.453125 C 256.835938 991.273438 253.527344 989.253906 252.746094 986.019531 L 242.65625 944.855469 L 212.636719 974.710938 C 210.253906 977.035156 206.453125 977.035156 204.074219 974.65625 L 203.199219 973.800781 C 200.890625 971.417969 200.890625 967.582031 203.253906 965.199219 L 233.199219 935.492188 L 192.21875 925.472656 C 188.980469 924.710938 186.910156 921.4375 187.761719 918.144531 L 188.019531 916.980469 C 188.835938 913.710938 192.164062 911.746094 195.382812 912.527344 L 237.328125 922.761719 L 227.035156 880.835938 C 226.253906 877.636719 228.308594 874.273438 231.546875 873.507812 L 232.710938 873.21875 C 235.980469 872.417969 239.289062 874.417969 240.074219 877.65625 L 250.074219 918.746094 L 280.128906 888.964844 C 282.492188 886.617188 286.34375 886.617188 288.671875 889.019531 L 289.546875 889.871094 C 291.925781 892.238281 291.871094 896.054688 289.546875 898.417969 L 259.546875 928.164062 Z M 578 938.21875 C 581.21875 939 583.253906 942.328125 582.4375 945.5625 L 582.128906 946.726562 C 581.34375 949.945312 578.035156 951.980469 574.816406 951.164062 L 532.910156 940.945312 L 543.144531 982.871094 C 543.980469 986.109375 541.945312 989.382812 538.65625 990.199219 L 537.492188 990.453125 C 534.273438 991.273438 530.964844 989.253906 530.183594 986.019531 L 520.089844 944.855469 L 490.074219 974.710938 C 487.691406 977.035156 483.890625 977.035156 481.507812 974.65625 L 480.636719 973.800781 C 478.328125 971.417969 478.328125 967.582031 480.691406 965.199219 L 510.636719 935.492188 L 469.65625 925.472656 C 466.417969 924.710938 464.34375 921.4375 465.199219 918.144531 L 465.453125 916.980469 C 466.273438 913.710938 469.601562 911.746094 472.816406 912.527344 L 514.761719 922.761719 L 504.472656 880.835938 C 503.691406 877.636719 505.746094 874.273438 508.980469 873.507812 L 510.144531 873.21875 C 513.417969 872.417969 516.726562 874.417969 517.507812 877.65625 L 527.507812 918.746094 L 557.5625 888.964844 C 559.925781 886.617188 563.78125 886.617188 566.109375 889.019531 L 566.980469 889.871094 C 569.363281 892.238281 569.308594 896.054688 566.980469 898.417969 L 536.980469 928.164062 Z M 685.761719 795.363281 C 688.964844 796.144531 691.019531 799.472656 690.199219 802.710938 L 689.890625 803.871094 C 689.109375 807.089844 685.800781 809.128906 682.582031 808.308594 L 640.671875 798.089844 L 650.910156 840.019531 C 651.746094 843.253906 649.710938 846.527344 646.417969 847.34375 L 645.253906 847.601562 C 642.035156 848.417969 638.726562 846.398438 637.945312 843.164062 L 627.855469 802 L 597.835938 831.855469 C 595.453125 834.183594 591.65625 834.183594 589.273438 831.800781 L 588.398438 830.945312 C 586.089844 828.5625 586.089844 824.726562 588.453125 822.34375 L 618.398438 792.636719 L 577.417969 782.617188 C 574.183594 781.855469 572.109375 778.582031 572.964844 775.289062 L 573.21875 774.128906 C 574.035156 770.855469 577.363281 768.890625 580.582031 769.671875 L 622.527344 779.910156 L 612.238281 737.980469 C 611.453125 734.78125 613.507812 731.417969 616.746094 730.65625 L 617.910156 730.363281 C 621.183594 729.5625 624.492188 731.5625 625.273438 734.800781 L 635.273438 775.890625 L 665.328125 746.109375 C 667.691406 743.761719 671.546875 743.761719 673.871094 746.164062 L 674.746094 747.019531 C 677.128906 749.382812 677.074219 753.199219 674.746094 755.5625 L 644.746094 785.308594 Z M 685.761719 795.363281 "/>
</g>
</svg>
