<?xml version="1.0" encoding="UTF-8"?>
<svg xmlns="http://www.w3.org/2000/svg" xmlns:xlink="http://www.w3.org/1999/xlink" width="1000" height="1000" viewBox="0 0 1000 1000" version="1.1">
<g id="surface1">
<path d="M 506.199219 166.78125 C 505.78125 166.34375 505.308594 165.980469 504.910156 165.527344 C 506.527344 164.691406 508.253906 163.816406 509.78125 163 C 525.382812 156.21875 541.945312 151.253906 559.253906 148.546875 C 574.527344 146.128906 590.21875 145.417969 605.855469 146.492188 C 661.21875 150.21875 711.835938 175.34375 748.34375 217.199219 C 784.800781 259.035156 802.816406 312.527344 798.964844 367.910156 C 798.492188 375.273438 797.453125 382.492188 796.199219 389.65625 C 796.109375 389.382812 795.964844 389.144531 795.890625 388.910156 C 784.472656 354.035156 760.054688 325.144531 728.21875 308.273438 C 727.980469 308.128906 727.761719 307.964844 727.507812 307.816406 C 724.035156 306 720.289062 304.671875 716.65625 303.144531 C 713.109375 301.636719 709.65625 300 705.980469 298.78125 C 702.800781 297.761719 699.453125 297.144531 696.199219 296.328125 C 691.855469 295.253906 687.527344 294.128906 683.035156 293.492188 C 682.128906 293.363281 681.328125 293.054688 680.417969 292.925781 C 681.253906 274.527344 674.054688 255.074219 673.964844 254.835938 C 661.527344 221.761719 637.871094 194.945312 605.507812 177.273438 C 586.183594 166.726562 565.398438 161.398438 543.726562 161.398438 C 531.199219 161.398438 518.527344 163.289062 506.34375 166.925781 Z M 481.527344 144.289062 C 471.691406 136.492188 461.34375 129.835938 450.617188 124.164062 L 445.472656 31.183594 L 538.761719 122.417969 C 518.507812 127.074219 499.453125 134.761719 481.527344 144.289062 Z M 607.855469 116.871094 C 594.328125 115.945312 580.78125 116.5625 567.328125 117.925781 L 626.453125 1.363281 L 661.617188 127 C 644.308594 121.710938 626.34375 118.109375 607.855469 116.871094 Z M 688.855469 137.21875 L 798.144531 65.910156 L 765.601562 192.34375 C 743.617188 168.65625 717.601562 150.074219 688.855469 137.21875 Z M 784.199219 214.746094 L 914.363281 207.527344 L 823.289062 300.582031 C 816.273438 269.816406 803.035156 240.726562 784.199219 214.746094 Z M 827.78125 329.492188 L 944.199219 388.472656 L 818.363281 423.761719 C 823.761719 406.492188 827.363281 388.507812 828.617188 369.945312 C 829.546875 356.328125 829.109375 342.816406 827.78125 329.492188 Z M 827.78125 329.492188 "/>
<path d="M 211.980469 538.816406 C 211.980469 556.5625 214.835938 573.671875 220.035156 589.726562 C 198.019531 585.78125 180.273438 580.910156 180.273438 580.910156 C 115.636719 558.308594 70.289062 494.308594 76.65625 420.746094 C 81.816406 360.964844 123.398438 310.417969 179.183594 288.273438 L 191.582031 283.34375 L 195.273438 265.019531 C 214.054688 171.144531 310.035156 108.144531 408.601562 137.144531 C 438.164062 145.835938 464.289062 163.671875 485.289062 186.238281 L 497.128906 198.980469 C 497.128906 198.980469 497.945312 199.453125 499.199219 200.238281 C 527.78125 186.546875 561.601562 185.871094 591.835938 202.382812 C 620.019531 217.78125 637.945312 240.238281 647.238281 264.910156 C 648.238281 267.582031 652.527344 282.980469 651.78125 292.671875 C 642.636719 293.417969 633.472656 294.746094 624.453125 297.273438 L 623.289062 297.601562 L 622.453125 296.691406 C 588.980469 260.691406 541.5625 240.054688 492.382812 240.054688 C 408.074219 240.054688 334.871094 300.074219 318.308594 382.816406 L 318.128906 383.871094 L 317.109375 384.273438 C 254.21875 409.183594 211.980469 471.289062 211.980469 538.816406 Z M 792.019531 449.164062 C 834.199219 468.582031 861.4375 511.054688 861.453125 557.417969 C 861.453125 623.128906 808.074219 676.582031 742.453125 676.582031 L 378.308594 676.582031 C 302.363281 676.582031 240.546875 614.761719 240.546875 538.835938 C 240.546875 482.910156 275.546875 431.472656 327.636719 410.835938 L 343.089844 404.691406 L 346.328125 388.4375 C 360.238281 319 421.691406 268.617188 492.382812 268.617188 C 533.671875 268.617188 573.453125 285.945312 601.546875 316.164062 L 614.21875 329.800781 L 632.164062 324.78125 C 642.398438 321.925781 652.78125 320.453125 663.035156 320.453125 C 721.164062 320.453125 770.035156 365.78125 774.328125 423.691406 L 775.65625 441.636719 Z M 792.019531 449.164062 "/>
<path d="M 329.183594 822.34375 C 305.128906 868.78125 250.238281 838.398438 273.328125 793.582031 C 292.925781 755.492188 340.019531 732.453125 340.019531 732.453125 C 340.019531 732.453125 348.199219 785.472656 329.183594 822.34375 Z M 366.164062 964.363281 C 342.109375 1010.800781 287.21875 980.417969 310.308594 935.601562 C 329.910156 897.507812 377 874.472656 377 874.472656 C 377 874.472656 385.183594 927.472656 366.164062 964.363281 Z M 747.835938 822.34375 C 723.78125 868.78125 668.890625 838.398438 691.980469 793.582031 C 711.582031 755.492188 758.671875 732.453125 758.671875 732.453125 C 758.671875 732.453125 766.855469 785.472656 747.835938 822.34375 Z M 747.835938 822.34375 "/>
<path d="M 582.492188 790.273438 L 531.308594 789.492188 L 573.273438 716.089844 L 508.492188 716.636719 L 453.527344 826.144531 L 501.382812 826.144531 L 434.183594 992.128906 Z M 582.492188 790.273438 "/>
<path d="M 240.855469 937.363281 C 244.074219 938.144531 246.128906 941.492188 245.308594 944.710938 L 245 945.871094 C 244.21875 949.089844 240.910156 951.128906 237.691406 950.308594 L 195.78125 940.089844 L 206.019531 982.019531 C 206.835938 985.253906 204.800781 988.527344 201.507812 989.34375 L 200.34375 989.601562 C 197.128906 990.417969 193.816406 988.398438 193.035156 985.164062 L 182.945312 944 L 152.925781 973.855469 C 150.546875 976.183594 146.746094 976.183594 144.363281 973.800781 L 143.492188 972.945312 C 141.183594 970.5625 141.183594 966.726562 143.546875 964.34375 L 173.492188 934.636719 L 132.507812 924.617188 C 129.273438 923.855469 127.199219 920.582031 128.054688 917.289062 L 128.308594 916.128906 C 129.128906 912.855469 132.453125 910.890625 135.671875 911.671875 L 177.617188 921.910156 L 167.328125 879.980469 C 166.546875 876.78125 168.601562 873.417969 171.835938 872.65625 L 173 872.363281 C 176.273438 871.5625 179.582031 873.5625 180.363281 876.800781 L 190.363281 917.890625 L 220.417969 888.109375 C 222.78125 885.761719 226.636719 885.761719 228.964844 888.164062 L 229.835938 889.019531 C 232.21875 891.382812 232.164062 895.199219 229.835938 897.5625 L 199.835938 927.308594 Z M 673.617188 937.363281 C 676.835938 938.144531 678.871094 941.492188 678.054688 944.710938 L 677.746094 945.871094 C 676.964844 949.089844 673.65625 951.128906 670.4375 950.308594 L 628.527344 940.089844 L 638.761719 982.019531 C 639.601562 985.253906 637.5625 988.527344 634.273438 989.34375 L 633.109375 989.601562 C 629.890625 990.417969 626.582031 988.398438 625.800781 985.164062 L 615.710938 944 L 585.691406 973.855469 C 583.308594 976.183594 579.507812 976.183594 577.128906 973.800781 L 576.253906 972.945312 C 573.945312 970.5625 573.945312 966.726562 576.308594 964.34375 L 606.253906 934.636719 L 565.273438 924.617188 C 562.035156 923.855469 559.964844 920.582031 560.816406 917.289062 L 561.074219 916.128906 C 561.890625 912.855469 565.21875 910.890625 568.4375 911.671875 L 610.382812 921.910156 L 600.089844 879.980469 C 599.308594 876.78125 601.363281 873.417969 604.601562 872.65625 L 605.761719 872.363281 C 609.035156 871.5625 612.34375 873.5625 613.128906 876.800781 L 623.128906 917.890625 L 653.183594 888.109375 C 655.546875 885.761719 659.398438 885.761719 661.726562 888.164062 L 662.601562 889.019531 C 664.980469 891.382812 664.925781 895.199219 662.601562 897.5625 L 632.601562 927.308594 Z M 828.238281 937.363281 C 831.453125 938.144531 833.507812 941.492188 832.65625 944.761719 L 832.34375 945.925781 C 831.5625 949.144531 828.253906 951.183594 825.035156 950.363281 L 783.128906 940.144531 L 793.363281 982.074219 C 794.199219 985.308594 792.164062 988.582031 788.871094 989.398438 L 787.710938 989.65625 C 784.492188 990.472656 781.183594 988.453125 780.398438 985.21875 L 770.308594 944.054688 L 740.289062 973.910156 C 737.910156 976.238281 734.109375 976.238281 731.726562 973.855469 L 730.855469 973 C 728.546875 970.617188 728.546875 966.78125 730.910156 964.398438 L 760.871094 934.636719 L 719.890625 924.617188 C 716.65625 923.855469 714.582031 920.582031 715.4375 917.289062 L 715.691406 916.128906 C 716.507812 912.855469 719.835938 910.890625 723.054688 911.671875 L 765 921.910156 L 754.710938 879.980469 C 753.925781 876.78125 755.980469 873.417969 759.21875 872.65625 L 760.382812 872.363281 C 763.65625 871.5625 766.964844 873.5625 767.746094 876.800781 L 777.746094 917.890625 L 807.800781 888.109375 C 810.164062 885.761719 814.019531 885.761719 816.34375 888.164062 L 817.21875 889.019531 C 819.601562 891.382812 819.546875 895.199219 817.21875 897.5625 L 787.21875 927.308594 Z M 828.238281 937.363281 "/>
</g>
</svg>
