<?xml version="1.0" encoding="UTF-8" standalone="no"?>
<svg
   width="1000"
   height="1000"
   viewBox="0 0 1000 1000"
   version="1.1"
   id="svg5"
   xmlns="http://www.w3.org/2000/svg"
   xmlns:svg="http://www.w3.org/2000/svg">
  <defs
     id="defs9" />
  <path
     d="m 378.18359,532.72656 c 8.48438,17.57552 16.96875,35.15104 25.45313,52.72656 19.39323,3.03125 38.78646,6.0625 58.17969,9.09375 -13.33333,13.9388 -26.66667,27.87761 -40,41.81641 3.63672,19.39453 7.27343,38.78906 10.91015,58.18359 C 415.15104,685.45573 397.57552,676.36458 380,667.27344 c -17.57552,9.09114 -35.15104,18.18229 -52.72656,27.27343 3.63672,-19.39453 7.27343,-38.78906 10.91015,-58.18359 -13.9401,-13.9388 -27.88021,-27.87761 -41.82031,-41.81641 19.39453,-3.03125 38.78906,-6.0625 58.18359,-9.09375 7.87891,-17.57552 15.75781,-35.15104 23.63672,-52.72656 z M 809.08984,30.910156 c 7.48894,10.287624 9.31055,28.380869 20.64723,33.368994 8.09762,3.828191 40.46,-0.339237 25.95365,10.937323 -8.1927,9.9392 -24.63495,17.160747 -17.40015,32.182237 3.52918,15.61134 6.22287,30.07197 -11.97225,15.76241 -12.20037,-10.29149 -24.40073,-7.70557 -36.6011,1.07207 -18.72034,15.08015 -11.1553,-6.04258 -9.49935,-19.02671 6.12496,-15.576189 -13.76899,-22.580951 -21.3728,-33.634463 -0.37576,-6.490415 24.39501,-4.694648 33.88149,-7.935298 5.45443,-10.908854 10.90885,-21.817709 16.36328,-32.726563 z M 136.36328,285.45312 c 7.4887,10.28929 9.31062,28.38307 20.64723,33.3729 8.09744,3.82802 40.46043,-0.3388 25.95317,10.93686 -8.19302,9.93779 -24.63506,17.15775 -17.39967,32.1788 3.52917,15.61134 6.22286,30.07196 -11.97226,15.76239 -12.20036,-10.29149 -24.40073,-7.70555 -36.60109,1.07208 -18.720335,15.08015 -11.1553,-6.04258 -9.49936,-19.02671 6.12521,-15.57644 -13.770135,-22.5798 -21.374558,-33.6327 -0.367919,-6.48681 24.395968,-4.69337 33.883258,-7.93315 5.45443,-10.91016 10.90885,-21.82031 16.36328,-32.73047 z M 883.63672,540 c 4.26426,13.43017 10.1263,24.77885 26.18148,22.84861 11.19201,3.87426 -21.34784,15.24552 -9.85578,27.83392 7.93228,23.2574 -12.84603,-3.87819 -22.02053,2.16489 -17.30112,13.72162 -14.06286,-0.3654 -10.66845,-14.66383 -12.31566,-10.43085 -22.08414,-20.04505 0.72877,-19.21331 9.00068,-0.15967 10.19604,-13.39015 15.63451,-18.97028 z M 527.27344,265.45312 C 471.4935,189.84233 460.74716,79.671153 514.54687,0 409.93552,35.074786 340.45039,148.79613 356.47289,257.90768 368.81634,373.09405 474.11728,468.56633 590.07668,469.01027 670.90801,471.97423 751.28051,430.718 796.36328,363.63672 697.16426,395.7206 585.43522,349.43795 527.27344,265.45312 Z"
     id="path2" />
</svg>
