<?xml version="1.0" encoding="UTF-8" standalone="no"?>
<svg
   width="1000"
   height="1000"
   viewBox="0 0 1000 1000"
   version="1.1"
   id="svg1771"
   xmlns="http://www.w3.org/2000/svg"
   xmlns:svg="http://www.w3.org/2000/svg">
  <defs
     id="defs1775" />
  <path
     id="path1762"
     d="M 595.72656 0.7265625 C 569.25391 8.3281255 543.71094 20.964844 520.71094 39.089844 C 481.47266 69.964844 458.63672 112.30859 449.96484 157.10938 C 446.08984 188.27345 445.36328 217.96484 446.12891 246.54688 C 478.87109 254.92578 509 272.36328 532.34375 297.41797 L 533.18359 298.32812 L 534.32812 298 C 547.08984 294.4375 560.07422 292.61719 572.92578 292.61719 C 644.80078 292.61719 705.18359 347.92578 712.16406 419.05469 C 739.91016 413.69141 766.91016 402.49219 791.39844 383.19922 C 814.45312 365.10937 832.71094 343.28906 846.30859 319.28906 C 759.47266 369.03516 661.07422 311.10937 606.34375 242.08984 C 557.49219 180.45312 526.91016 73.398439 595.72656 0.7265625 z M 402.27344 268.03516 C 331.58203 268.03516 270.12891 318.41797 256.21875 387.85547 L 252.96484 404.10938 L 237.52734 410.25391 C 185.4375 430.89062 150.4375 482.32812 150.4375 538.25391 C 150.4375 614.18359 212.25391 676 288.19922 676 L 652.34375 676 C 717.96484 676 771.34375 622.54687 771.34375 556.83594 C 771.32815 510.50781 744.08984 468.01953 701.91016 448.60156 L 685.54688 441.07422 L 684.21875 423.08984 C 679.92578 365.21875 631.05469 319.87109 572.92578 319.87109 C 562.67187 319.87109 552.28906 321.32812 542.05469 324.19922 L 524.10938 329.21875 L 511.4375 315.58203 C 483.34375 285.36328 443.5625 268.03516 402.27344 268.03516 z M 518.72656 716.08984 L 453.94531 716.63672 L 398.98047 826.14453 L 446.83594 826.14453 L 379.63672 992.12891 L 527.94531 790.27344 L 476.76172 789.49219 L 518.72656 716.08984 z M 288.15039 730.19141 C 287.74512 730.20703 287.33496 730.26318 286.92578 730.36328 L 285.76172 730.65625 C 282.52734 731.41797 280.47266 734.78125 281.25391 737.98047 L 291.54688 779.91016 L 249.60156 769.67188 C 246.38281 768.89063 243.05469 770.85547 242.23828 774.12891 L 241.98047 775.28906 C 241.12891 778.58203 243.19922 781.85547 246.4375 782.61719 L 287.41797 792.63672 L 257.47266 822.34375 C 255.10936 824.72656 255.10937 828.5625 257.41797 830.94531 L 258.28906 831.80078 C 260.67187 834.1836 264.47266 834.18359 266.85547 831.85547 L 296.87109 802 L 306.96484 843.16406 C 307.74609 846.39844 311.05469 848.41797 314.27344 847.60156 L 315.4375 847.34375 C 318.72656 846.52734 320.76172 843.25391 319.94531 840.01953 L 309.71094 798.08984 L 351.61719 808.30859 C 354.83594 809.12891 358.14453 807.08984 358.92578 803.87109 L 359.23828 802.71094 C 360.03516 799.47266 358 796.14453 354.78125 795.36328 L 313.76172 785.30859 L 343.76172 755.5625 C 346.08984 753.19922 346.14453 749.38281 343.76172 747.01953 L 342.89062 746.16406 C 340.56251 743.76171 336.71094 743.76172 334.34375 746.10938 L 304.28906 775.89062 L 294.28906 734.80078 C 293.60547 731.96729 290.98731 730.08203 288.15039 730.19141 z M 632.76953 730.19141 C 632.36452 730.20703 631.95557 730.26318 631.54688 730.36328 L 630.38281 730.65625 C 627.14453 731.41797 625.08984 734.78125 625.87109 737.98047 L 636.16406 779.91016 L 594.21875 769.67188 C 591 768.89063 587.67187 770.85547 586.85547 774.12891 L 586.60156 775.28906 C 585.74609 778.58203 587.81641 781.85547 591.05469 782.61719 L 632.03516 792.63672 L 602.08984 822.34375 C 599.72654 824.72656 599.72656 828.5625 602.03516 830.94531 L 602.91016 831.80078 C 605.28906 834.1836 609.08984 834.18359 611.47266 831.85547 L 641.49219 802 L 651.58203 843.16406 C 652.36328 846.39844 655.67188 848.41797 658.89062 847.60156 L 660.05469 847.34375 C 663.34375 846.52734 665.38282 843.25391 664.54688 840.01953 L 654.30859 798.08984 L 696.21875 808.30859 C 699.4375 809.12891 702.74609 807.08984 703.52734 803.87109 L 703.83594 802.71094 C 704.67187 799.47266 702.61719 796.14453 699.39844 795.36328 L 658.38281 785.30859 L 688.38281 755.5625 C 690.71094 753.19922 690.76172 749.38281 688.38281 747.01953 L 687.50781 746.16406 C 685.18359 743.76171 681.32812 743.76172 678.96484 746.10938 L 648.91016 775.89062 L 638.91016 734.80078 C 638.22656 731.96729 635.60458 730.08203 632.76953 730.19141 z " />
</svg>
