<?xml version="1.0" encoding="UTF-8" standalone="no"?>
<svg
   width="1000"
   height="1000"
   viewBox="0 0 1000 1000"
   version="1.1"
   id="svg2055"
   xmlns="http://www.w3.org/2000/svg"
   xmlns:svg="http://www.w3.org/2000/svg">
  <defs
     id="defs2059" />
  <path
     id="path2046"
     d="M 595.72656 0.7265625 C 569.25391 8.3281255 543.71094 20.964844 520.71094 39.089844 C 481.47266 69.964844 458.63672 112.30859 449.96484 157.10938 C 446.08984 188.27345 445.36328 217.96484 446.12891 246.54688 C 478.87109 254.92578 509 272.36328 532.34375 297.41797 L 533.18359 298.32812 L 534.32812 298 C 547.08984 294.4375 560.07422 292.61719 572.92578 292.61719 C 644.80078 292.61719 705.18359 347.92578 712.16406 419.05469 C 739.91016 413.69141 766.91016 402.49219 791.39844 383.19922 C 814.45312 365.10937 832.71094 343.28906 846.30859 319.28906 C 759.47266 369.03516 661.07422 311.10937 606.34375 242.08984 C 557.49219 180.45312 526.91016 73.398439 595.72656 0.7265625 z M 402.27344 268.03516 C 331.58203 268.03516 270.12891 318.41797 256.21875 387.85547 L 252.96484 404.10938 L 237.52734 410.25391 C 185.4375 430.89062 150.4375 482.32812 150.4375 538.25391 C 150.4375 614.18359 212.25391 676 288.19922 676 L 652.34375 676 C 717.96484 676 771.34375 622.54687 771.34375 556.83594 C 771.32815 510.50781 744.08984 468.01953 701.91016 448.60156 L 685.54688 441.07422 L 684.21875 423.08984 C 679.92578 365.21875 631.05469 319.87109 572.92578 319.87109 C 562.67187 319.87109 552.28906 321.32812 542.05469 324.19922 L 524.10938 329.21875 L 511.4375 315.58203 C 483.34375 285.36328 443.5625 268.03516 402.27344 268.03516 z M 515.74609 716.08984 L 450.96484 716.63672 L 396 826.14453 L 443.85547 826.14453 L 376.65625 992.12891 L 524.96484 790.27344 L 473.78125 789.49219 L 515.74609 716.08984 z M 264.56641 730.26367 C 263.78369 730.13818 262.96289 730.16309 262.14453 730.36328 L 260.98047 730.65625 C 257.74609 731.41797 255.69141 734.78125 256.49219 737.98047 L 266.78125 779.91016 L 224.83594 769.67188 C 221.61719 768.89063 218.28906 770.85547 217.47266 774.12891 L 217.21875 775.28906 C 216.36328 778.58203 218.4375 781.85547 221.67188 782.61719 L 262.65625 792.63672 L 232.71094 822.34375 C 230.34374 824.72656 230.34375 828.5625 232.65625 830.94531 L 233.52734 831.80078 C 235.91016 834.1836 239.71094 834.18359 242.08984 831.85547 L 272.10938 802 L 282.19922 843.16406 C 282.98047 846.39844 286.28906 848.41797 289.50781 847.60156 L 290.67188 847.34375 C 293.96484 846.52734 296 843.25391 295.16406 840.01953 L 284.92578 798.08984 L 326.83594 808.30859 C 330.05469 809.12891 333.36328 807.08984 334.14453 803.87109 L 334.45312 802.71094 C 335.25392 799.47266 333.19922 796.14453 330 795.36328 L 288.98047 785.30859 L 318.98047 755.5625 C 321.30859 753.19922 321.36328 749.38281 318.98047 747.01953 L 318.10938 746.16406 C 315.78125 743.76171 311.92578 743.76172 309.5625 746.10938 L 279.50781 775.89062 L 269.50781 734.80078 C 268.92188 732.37207 266.91455 730.64014 264.56641 730.26367 z M 643.76562 730.26367 C 642.98285 730.13818 642.16211 730.16309 641.34375 730.36328 L 640.18359 730.65625 C 636.94531 731.41797 634.89062 734.78125 635.67188 737.98047 L 645.96484 779.91016 L 604.01953 769.67188 C 600.80078 768.89063 597.47266 770.85547 596.65625 774.12891 L 596.39844 775.28906 C 595.54687 778.58203 597.61719 781.85547 600.85547 782.61719 L 641.83594 792.63672 L 611.89062 822.34375 C 609.52733 824.72656 609.52734 828.5625 611.83594 830.94531 L 612.71094 831.80078 C 615.08984 834.1836 618.89062 834.18359 621.27344 831.85547 L 651.28906 802 L 661.38281 843.16406 C 662.16406 846.39844 665.47266 848.41797 668.69141 847.60156 L 669.85547 847.34375 C 673.14453 846.52734 675.18359 843.25391 674.36328 840.01953 L 664.12891 798.08984 L 706.03516 808.30859 C 709.25391 809.12891 712.5625 807.08984 713.34375 803.87109 L 713.65625 802.71094 C 714.45312 799.47266 712.41797 796.14453 709.19922 795.36328 L 668.18359 785.30859 L 698.18359 755.5625 C 700.50781 753.19922 700.5625 749.38281 698.18359 747.01953 L 697.30859 746.16406 C 694.98047 743.76171 691.12891 743.76172 688.76172 746.10938 L 658.71094 775.89062 L 648.71094 734.80078 C 648.12207 732.37207 646.11395 730.64014 643.76562 730.26367 z M 101.03906 873.11914 C 100.25635 872.99365 99.435548 873.01855 98.617188 873.21875 L 97.453125 873.52734 C 94.21875 874.28906 92.164062 877.65625 92.945312 880.85547 L 103.23828 922.78125 L 61.289062 912.54688 C 58.074219 911.76172 54.746094 913.72656 53.925781 917 L 53.671875 918.16406 C 52.816406 921.45312 54.890625 924.72656 58.128906 925.49219 L 99.109375 935.50781 L 69.164062 965.21875 C 66.800779 967.60156 66.800781 971.4375 69.109375 973.81641 L 69.980469 974.67188 C 72.363281 977.05471 76.164062 977.05469 78.546875 974.72656 L 108.5625 944.87109 L 118.65625 986.03516 C 119.4375 989.27344 122.74609 991.28906 125.96484 990.47266 L 127.12891 990.21875 C 130.41797 989.39844 132.45312 986.12892 131.61719 982.89062 L 121.38281 940.96484 L 163.28906 951.18359 C 166.50781 952 169.81641 949.96484 170.60156 946.74609 L 170.91016 945.58203 C 171.74609 942.32812 169.69141 939 166.47266 938.21875 L 125.45312 928.16406 L 155.45312 898.41797 C 157.78125 896.05469 157.83595 892.23828 155.45312 889.87109 L 154.58203 889.01953 C 152.25391 886.61718 148.39844 886.61719 146.03516 888.96484 L 115.98047 918.74609 L 105.98047 877.65625 C 105.39453 875.22754 103.38721 873.49561 101.03906 873.11914 z M 261.9668 873.11914 C 261.18426 872.99365 260.36426 873.01855 259.54688 873.21875 L 258.38281 873.50781 C 255.14453 874.27344 253.08984 877.63672 253.89062 880.83594 L 264.18359 922.76172 L 222.23828 912.52734 C 219.01953 911.74609 215.69141 913.71094 214.87109 916.98047 L 214.61719 918.14453 C 213.76172 921.4375 215.83594 924.71094 219.07422 925.47266 L 260.05469 935.49219 L 230.10938 965.19922 C 227.74608 967.58203 227.74609 971.41797 230.05469 973.80078 L 230.92578 974.65625 C 233.30859 977.03517 237.10937 977.03516 239.49219 974.71094 L 269.50781 944.85547 L 279.60156 986.01953 C 280.38281 989.25391 283.69141 991.27345 286.91016 990.45312 L 288.07422 990.19922 C 291.36328 989.38281 293.39844 986.10937 292.5625 982.87109 L 282.32812 940.94531 L 324.23828 951.16406 C 327.45312 951.98047 330.76173 949.94531 331.54688 946.72656 L 331.85547 945.5625 C 332.65625 942.32812 330.61719 939 327.39844 938.21875 L 286.38281 928.16406 L 316.38281 898.41797 C 318.71094 896.05469 318.76172 892.23828 316.38281 889.87109 L 315.50781 889.01953 C 313.18359 886.61718 309.32812 886.61719 306.96484 888.96484 L 276.91016 918.74609 L 266.91016 877.65625 C 266.32422 875.22754 264.3144 873.49561 261.9668 873.11914 z M 549.92969 873.11914 C 549.14697 872.99365 548.32617 873.01855 547.50781 873.21875 L 546.34375 873.50781 C 543.10937 874.27344 541.05469 877.63672 541.83594 880.83594 L 552.12891 922.76172 L 510.18359 912.54688 C 506.96484 911.76172 503.63672 913.72656 502.81641 917 L 502.5625 918.16406 C 501.71094 921.45312 503.78125 924.72656 507.01953 925.49219 L 548 935.50781 L 518.05469 965.21875 C 515.6914 967.60156 515.69141 971.4375 518 973.81641 L 518.87109 974.67188 C 521.25391 977.05471 525.05469 977.05469 527.4375 974.72656 L 557.45312 944.87109 L 567.54688 986.03516 C 568.32813 989.27344 571.63672 991.28906 574.85547 990.47266 L 576.01953 990.21875 C 579.30859 989.39844 581.34375 986.12892 580.50781 982.89062 L 570.27344 940.96484 L 612.18359 951.18359 C 615.39844 952 618.71094 949.96484 619.49219 946.74609 L 619.80078 945.58203 C 620.63672 942.32812 618.58203 939 615.36328 938.21875 L 574.34375 928.16406 L 604.34375 898.41797 C 606.67187 896.05469 606.72656 892.23828 604.34375 889.87109 L 603.47266 889.01953 C 601.14453 886.61718 597.28906 886.61719 594.92578 888.96484 L 564.87109 918.74609 L 554.87109 877.65625 C 554.28516 875.22754 552.27783 873.49561 549.92969 873.11914 z M 710.875 873.11914 C 710.09228 872.99365 709.27148 873.01855 708.45312 873.21875 L 707.27344 873.52734 C 704.03516 874.28906 701.98047 877.65625 702.78125 880.85547 L 713.07422 922.78125 L 671.12891 912.54688 C 667.91016 911.76172 664.58203 913.72656 663.76172 917 L 663.50781 918.16406 C 662.65625 921.45312 664.72656 924.72656 667.96484 925.49219 L 708.94531 935.50781 L 679 965.21875 C 676.63671 967.60156 676.63672 971.4375 678.94531 973.81641 L 679.81641 974.67188 C 682.19922 977.05471 686 977.05469 688.38281 974.72656 L 718.39844 944.87109 L 728.49219 986.03516 C 729.27344 989.27344 732.58203 991.28906 735.80078 990.47266 L 736.96484 990.21875 C 740.25391 989.39844 742.28907 986.12892 741.45312 982.89062 L 731.21875 940.96484 L 773.12891 951.18359 C 776.34375 952 779.65625 949.96484 780.4375 946.74609 L 780.74609 945.58203 C 781.5625 942.32812 779.50781 939 776.30859 938.21875 L 735.28906 928.16406 L 765.28906 898.41797 C 767.61719 896.05469 767.67187 892.23828 765.28906 889.87109 L 764.41797 889.01953 C 762.08984 886.61718 758.23828 886.61719 755.87109 888.96484 L 725.81641 918.74609 L 715.81641 877.65625 C 715.23047 875.22754 713.22315 873.49561 710.875 873.11914 z " />
</svg>
