<?xml version="1.0" encoding="UTF-8" standalone="no"?>
<svg
   width="1000"
   height="1000"
   viewBox="0 0 1000 1000"
   version="1.1"
   id="svg1841"
   xmlns="http://www.w3.org/2000/svg"
   xmlns:svg="http://www.w3.org/2000/svg">
  <defs
     id="defs1845" />
  <path
     id="path1834"
     d="M 595.72656 0.7265625 C 569.25391 8.3281255 543.71094 20.964844 520.71094 39.089844 C 481.47266 69.964844 458.63672 112.30859 449.96484 157.10938 C 446.08984 188.27345 445.36328 217.96484 446.12891 246.54688 C 478.87109 254.92578 509 272.36328 532.34375 297.41797 L 533.18359 298.32812 L 534.32812 298 C 547.08984 294.4375 560.07422 292.61719 572.92578 292.61719 C 644.80078 292.61719 705.18359 347.92578 712.16406 419.05469 C 739.91016 413.69141 766.91016 402.49219 791.39844 383.19922 C 814.45312 365.10937 832.71094 343.28906 846.30859 319.28906 C 759.47266 369.03516 661.07422 311.10937 606.34375 242.08984 C 557.49219 180.45312 526.91016 73.398439 595.72656 0.7265625 z M 402.27344 268.03516 C 331.58203 268.03516 270.12891 318.41797 256.21875 387.85547 L 252.96484 404.10938 L 237.52734 410.25391 C 185.4375 430.89062 150.4375 482.32812 150.4375 538.25391 C 150.4375 614.18359 212.25391 676 288.19922 676 L 652.34375 676 C 717.96484 676 771.34375 622.54687 771.34375 556.83594 C 771.32815 510.50781 744.08984 468.01953 701.91016 448.60156 L 685.54688 441.07422 L 684.21875 423.08984 C 679.92578 365.21875 631.05469 319.87109 572.92578 319.87109 C 562.67187 319.87109 552.28906 321.32812 542.05469 324.19922 L 524.10938 329.21875 L 511.4375 315.58203 C 483.34375 285.36328 443.5625 268.03516 402.27344 268.03516 z M 322.38672 730.26367 C 321.604 730.13818 320.7832 730.16309 319.96484 730.36328 L 318.80078 730.65625 C 315.5625 731.41797 313.50781 734.78125 314.30859 737.98047 L 324.60156 779.91016 L 282.65625 769.67188 C 279.4375 768.89063 276.10937 770.85547 275.28906 774.12891 L 275.03516 775.28906 C 274.18359 778.58203 276.25391 781.85547 279.49219 782.61719 L 320.47266 792.63672 L 290.52734 822.34375 C 288.16404 824.72656 288.16406 828.5625 290.47266 830.94531 L 291.34375 831.80078 C 293.72656 834.1836 297.52734 834.18359 299.91016 831.85547 L 329.92578 802 L 340.01953 843.16406 C 340.80078 846.39844 344.10938 848.41797 347.32812 847.60156 L 348.49219 847.34375 C 351.78125 846.52734 353.81641 843.25391 352.98047 840.01953 L 342.74609 798.08984 L 384.65625 808.30859 C 387.87109 809.12891 391.18359 807.08984 391.96484 803.87109 L 392.27344 802.71094 C 393.07422 799.47266 391.01953 796.14453 387.81641 795.36328 L 346.80078 785.30859 L 376.80078 755.5625 C 379.12891 753.19922 379.18359 749.38281 376.80078 747.01953 L 375.92578 746.16406 C 373.60156 743.76171 369.74609 743.76172 367.38281 746.10938 L 337.32812 775.89062 L 327.32812 734.80078 C 326.74219 732.37207 324.73486 730.64014 322.38672 730.26367 z M 602.14844 730.26367 C 601.36572 730.13818 600.54492 730.16309 599.72656 730.36328 L 598.5625 730.65625 C 595.32812 731.41797 593.27344 734.78125 594.05469 737.98047 L 604.34375 779.91016 L 562.39844 769.67188 C 559.18359 768.89063 555.85547 770.85547 555.03516 774.12891 L 554.78125 775.28906 C 553.92578 778.58203 556 781.85547 559.23828 782.61719 L 600.21875 792.63672 L 570.27344 822.34375 C 567.91015 824.72656 567.91016 828.5625 570.21875 830.94531 L 571.08984 831.80078 C 573.47266 834.1836 577.27344 834.18359 579.65625 831.85547 L 609.67188 802 L 619.76172 843.16406 C 620.54687 846.39844 623.85547 848.41797 627.07422 847.60156 L 628.23828 847.34375 C 631.52734 846.52734 633.5625 843.25391 632.72656 840.01953 L 622.49219 798.08984 L 664.39844 808.30859 C 667.61719 809.12891 670.92578 807.08984 671.71094 803.87109 L 672.01953 802.71094 C 672.83594 799.47266 670.78125 796.14453 667.58203 795.36328 L 626.5625 785.30859 L 656.5625 755.5625 C 658.89062 753.19922 658.94531 749.38281 656.5625 747.01953 L 655.69141 746.16406 C 653.36328 743.76171 649.50781 743.76172 647.14453 746.10938 L 617.08984 775.89062 L 607.08984 734.80078 C 606.50391 732.37207 604.49658 730.64014 602.14844 730.26367 z M 216.94922 873.11914 C 216.1665 872.99365 215.3457 873.01855 214.52734 873.21875 L 213.36328 873.50781 C 210.12891 874.27344 208.07422 877.63672 208.85547 880.83594 L 219.14453 922.76172 L 177.19922 912.52734 C 173.98047 911.74609 170.65625 913.71094 169.83594 916.98047 L 169.58203 918.14453 C 168.72656 921.4375 170.80078 924.71094 174.03516 925.47266 L 215.01953 935.49219 L 185.07422 965.19922 C 182.71093 967.58203 182.71094 971.41797 185.01953 973.80078 L 185.89062 974.65625 C 188.27345 977.03517 192.07423 977.03516 194.45312 974.71094 L 224.47266 944.85547 L 234.5625 986.01953 C 235.34375 989.25391 238.65625 991.27345 241.87109 990.45312 L 243.03516 990.19922 C 246.32812 989.38281 248.36328 986.10937 247.54688 982.87109 L 237.30859 940.94531 L 279.21875 951.16406 C 282.4375 951.98047 285.74609 949.94531 286.52734 946.72656 L 286.83594 945.5625 C 287.63672 942.32812 285.60156 939 282.38281 938.21875 L 241.36328 928.16406 L 271.36328 898.41797 C 273.69141 896.05469 273.74609 892.23828 271.36328 889.87109 L 270.49219 889.01953 C 268.16406 886.61718 264.30859 886.61719 261.94531 888.96484 L 231.89062 918.74609 L 221.89062 877.65625 C 221.30469 875.22754 219.29736 873.49561 216.94922 873.11914 z M 494.38672 873.11914 C 493.604 872.99365 492.7832 873.01855 491.96484 873.21875 L 490.80078 873.50781 C 487.5625 874.27344 485.50781 877.63672 486.28906 880.83594 L 496.58203 922.76172 L 454.63672 912.52734 C 451.41797 911.74609 448.08984 913.71094 447.27344 916.98047 L 447.01953 918.14453 C 446.16406 921.4375 448.23828 924.71094 451.47266 925.47266 L 492.45312 935.49219 L 462.50781 965.19922 C 460.14452 967.58203 460.14454 971.41797 462.45312 973.80078 L 463.32812 974.65625 C 465.71095 977.03517 469.50781 977.03516 471.89062 974.71094 L 501.91016 944.85547 L 512 986.01953 C 512.78125 989.25391 516.08984 991.27345 519.30859 990.45312 L 520.47266 990.19922 C 523.76172 989.38281 525.80078 986.10937 524.96484 982.87109 L 514.72656 940.94531 L 556.63672 951.16406 C 559.85547 951.98047 563.16406 949.94531 563.94531 946.72656 L 564.25391 945.5625 C 565.07422 942.32812 563.03516 939 559.81641 938.21875 L 518.80078 928.16406 L 548.80078 898.41797 C 551.12891 896.05469 551.18359 892.23828 548.80078 889.87109 L 547.92578 889.01953 C 545.60156 886.61718 541.74609 886.61719 539.38281 888.96484 L 509.32812 918.74609 L 499.32812 877.65625 C 498.74219 875.22754 496.73486 873.49561 494.38672 873.11914 z " />
</svg>
