<?xml version="1.0" encoding="UTF-8" standalone="no"?>
<svg
   width="1000"
   height="1000"
   viewBox="0 0 1000 1000"
   version="1.1"
   id="svg1483"
   xmlns="http://www.w3.org/2000/svg"
   xmlns:svg="http://www.w3.org/2000/svg">
  <defs
     id="defs1487" />
  <path
     id="path1472"
     d="M 595.72656 0.7265625 C 569.25391 8.3281255 543.71094 20.964844 520.71094 39.089844 C 481.47266 69.964844 458.63672 112.30859 449.96484 157.10938 C 446.08984 188.27345 445.36328 217.96484 446.12891 246.54688 C 478.87109 254.92578 509 272.36328 532.34375 297.41797 L 533.18359 298.32812 L 534.32812 298 C 547.08984 294.4375 560.07422 292.61719 572.92578 292.61719 C 644.80078 292.61719 705.18359 347.92578 712.16406 419.05469 C 739.91016 413.69141 766.91016 402.49219 791.39844 383.19922 C 814.45312 365.10937 832.71094 343.28906 846.30859 319.28906 C 759.47266 369.03516 661.07422 311.10937 606.34375 242.08984 C 557.49219 180.45312 526.91016 73.398439 595.72656 0.7265625 z M 402.27344 268.03516 C 331.58203 268.03516 270.12891 318.41797 256.21875 387.85547 L 252.96484 404.10938 L 237.52734 410.25391 C 185.4375 430.89062 150.4375 482.32812 150.4375 538.25391 C 150.4375 614.18359 212.25391 676 288.19922 676 L 652.34375 676 C 717.96484 676 771.34375 622.54687 771.34375 556.83594 C 771.32815 510.50781 744.08984 468.01953 701.91016 448.60156 L 685.54688 441.07422 L 684.21875 423.08984 C 679.92578 365.21875 631.05469 319.87109 572.92578 319.87109 C 562.67187 319.87109 552.28906 321.32812 542.05469 324.19922 L 524.10938 329.21875 L 511.4375 315.58203 C 483.34375 285.36328 443.5625 268.03516 402.27344 268.03516 z M 518.72656 716.08984 L 453.94531 716.63672 L 398.98047 826.14453 L 446.83594 826.14453 L 379.63672 992.12891 L 527.94531 790.27344 L 476.76172 789.49219 L 518.72656 716.08984 z M 631.11328 730.26367 C 630.33057 730.13818 629.50976 730.16309 628.69141 730.36328 L 627.52734 730.65625 C 624.28906 731.41797 622.23828 734.78125 623.01953 737.98047 L 633.30859 779.91016 L 591.36328 769.67188 C 588.14453 768.89063 584.81641 770.85547 584 774.12891 L 583.74609 775.28906 C 582.89062 778.58203 584.96484 781.85547 588.19922 782.61719 L 629.18359 792.63672 L 599.23828 822.34375 C 596.87108 824.72656 596.87109 828.5625 599.18359 830.94531 L 600.05469 831.80078 C 602.4375 834.1836 606.23828 834.18359 608.61719 831.85547 L 638.63672 802 L 648.72656 843.16406 C 649.50781 846.39844 652.81641 848.41797 656.03516 847.60156 L 657.19922 847.34375 C 660.49219 846.52734 662.52734 843.25391 661.71094 840.01953 L 651.47266 798.08984 L 693.38281 808.30859 C 696.60156 809.12891 699.91016 807.08984 700.69141 803.87109 L 701 802.71094 C 701.80078 799.47266 699.76172 796.14453 696.54688 795.36328 L 655.52734 785.30859 L 685.52734 755.5625 C 687.85547 753.19922 687.91016 749.38281 685.52734 747.01953 L 684.65625 746.16406 C 682.32812 743.76171 678.47267 743.76172 676.10938 746.10938 L 646.05469 775.89062 L 636.05469 734.80078 C 635.46875 732.37207 633.46142 730.64014 631.11328 730.26367 z M 328.30859 732.45312 C 328.30859 732.45312 281.21875 755.49219 261.61719 793.58203 C 238.52734 838.39844 293.41797 868.78125 317.47266 822.34375 C 336.49219 785.47266 328.30859 732.45312 328.30859 732.45312 z M 263.22266 873.11914 C 262.43994 872.99365 261.61914 873.01855 260.80078 873.21875 L 259.63672 873.50781 C 256.39844 874.27344 254.34375 877.63672 255.14453 880.83594 L 265.4375 922.76172 L 223.49219 912.52734 C 220.27344 911.74609 216.94531 913.71094 216.12891 916.98047 L 215.87109 918.14453 C 215.01953 921.4375 217.08984 924.71094 220.32812 925.47266 L 261.30859 935.49219 L 231.36328 965.19922 C 229 967.58203 229 971.41798 231.30859 973.80078 L 232.18359 974.65625 C 234.5625 977.03517 238.36328 977.03516 240.74609 974.71094 L 270.76172 944.85547 L 280.85547 986.01953 C 281.63672 989.25391 284.94531 991.27345 288.16406 990.45312 L 289.32812 990.19922 C 292.61719 989.38281 294.65625 986.10937 293.81641 982.87109 L 283.58203 940.94531 L 325.49219 951.16406 C 328.71094 951.98047 332.01953 949.94531 332.80078 946.72656 L 333.10938 945.5625 C 333.92579 942.32812 331.87109 939 328.65625 938.21875 L 287.63672 928.16406 L 317.63672 898.41797 C 319.96484 896.05469 320.01953 892.23828 317.63672 889.87109 L 316.76172 889.01953 C 314.4375 886.61718 310.58203 886.61719 308.21875 888.96484 L 278.16406 918.74609 L 268.16406 877.65625 C 267.57812 875.22754 265.5708 873.49561 263.22266 873.11914 z M 627.76172 875.30859 C 627.76172 875.30859 580.67187 898.34375 561.07422 936.4375 C 537.98047 981.25391 592.87109 1011.6367 616.92578 965.19922 C 635.94531 928.32812 627.76172 875.30859 627.76172 875.30859 z " />
</svg>
