<?xml version="1.0" encoding="UTF-8" standalone="no"?>
<svg
   width="1000"
   height="1000"
   viewBox="0 0 1000 1000"
   version="1.1"
   id="svg1263"
   xmlns="http://www.w3.org/2000/svg"
   xmlns:svg="http://www.w3.org/2000/svg">
  <defs
     id="defs1267" />
  <path
     id="path1254"
     d="M 595.72656 0.7265625 C 569.25391 8.3281255 543.71094 20.964844 520.71094 39.089844 C 481.47266 69.964844 458.63672 112.30859 449.96484 157.10938 C 446.08984 188.27345 445.36328 217.96484 446.12891 246.54688 C 478.87109 254.92578 509 272.36328 532.34375 297.41797 L 533.18359 298.32812 L 534.32812 298 C 547.08984 294.4375 560.07422 292.61719 572.92578 292.61719 C 644.80078 292.61719 705.18359 347.92578 712.16406 419.05469 C 739.91016 413.69141 766.91016 402.49219 791.39844 383.19922 C 814.45312 365.10937 832.71094 343.28906 846.30859 319.28906 C 759.47266 369.03516 661.07422 311.10937 606.34375 242.08984 C 557.49219 180.45312 526.91016 73.398439 595.72656 0.7265625 z M 402.27344 268.03516 C 331.58203 268.03516 270.12891 318.41797 256.21875 387.85547 L 252.96484 404.10938 L 237.52734 410.25391 C 185.4375 430.89062 150.4375 482.32812 150.4375 538.25391 C 150.4375 614.18359 212.25391 676 288.19922 676 L 652.34375 676 C 717.96484 676 771.34375 622.54687 771.34375 556.83594 C 771.32815 510.50781 744.08984 468.01953 701.91016 448.60156 L 685.54688 441.07422 L 684.21875 423.08984 C 679.92578 365.21875 631.05469 319.87109 572.92578 319.87109 C 562.67187 319.87109 552.28906 321.32812 542.05469 324.19922 L 524.10938 329.21875 L 511.4375 315.58203 C 483.34375 285.36328 443.5625 268.03516 402.27344 268.03516 z M 326.66211 730.19141 C 326.25684 730.20703 325.84668 730.26318 325.4375 730.36328 L 324.27344 730.65625 C 321.03516 731.41797 318.98047 734.78125 319.78125 737.98047 L 330.07422 779.91016 L 288.12891 769.67188 C 284.91016 768.89062 281.58203 770.85547 280.76172 774.12891 L 280.50781 775.28906 C 279.65625 778.58203 281.72656 781.85547 284.96484 782.61719 L 325.94531 792.63672 L 296 822.34375 C 293.63672 824.72656 293.63673 828.5625 295.94531 830.94531 L 296.81641 831.80078 C 299.19922 834.18359 303 834.18358 305.38281 831.85547 L 335.39844 802 L 345.49219 843.16406 C 346.27344 846.39844 349.58203 848.41797 352.80078 847.60156 L 353.96484 847.34375 C 357.25391 846.52734 359.28906 843.25391 358.45312 840.01953 L 348.21875 798.08984 L 390.12891 808.30859 C 393.34375 809.12891 396.65625 807.08984 397.4375 803.87109 L 397.74609 802.71094 C 398.54687 799.47266 396.50781 796.14453 393.28906 795.36328 L 352.27344 785.30859 L 382.27344 755.5625 C 384.60156 753.19922 384.65625 749.38281 382.27344 747.01953 L 381.39844 746.16406 C 379.07422 743.76172 375.21875 743.76174 372.85547 746.10938 L 342.80078 775.89062 L 332.80078 734.80078 C 332.11719 731.96729 329.49902 730.08203 326.66211 730.19141 z M 619.5625 732.45312 C 619.5625 732.45312 572.47266 755.49219 552.87109 793.58203 C 529.78125 838.39844 584.67187 868.78125 608.72656 822.34375 C 627.74609 785.47266 619.5625 732.45312 619.5625 732.45312 z " />
</svg>
