<?xml version="1.0" encoding="UTF-8" standalone="no"?>
<svg
   width="1000"
   height="1000"
   viewBox="0 0 1000 1000"
   version="1.1"
   id="svg1983"
   xmlns="http://www.w3.org/2000/svg"
   xmlns:svg="http://www.w3.org/2000/svg">
  <defs
     id="defs1987" />
  <path
     id="path1976"
     d="M 595.72656 0.7265625 C 569.25391 8.3281255 543.71094 20.964844 520.71094 39.089844 C 481.47266 69.964844 458.63672 112.30859 449.96484 157.10938 C 446.08984 188.27345 445.36328 217.96484 446.12891 246.54688 C 478.87109 254.92578 509 272.36328 532.34375 297.41797 L 533.18359 298.32812 L 534.32812 298 C 547.08984 294.4375 560.07422 292.61719 572.92578 292.61719 C 644.80078 292.61719 705.18359 347.92578 712.16406 419.05469 C 739.91016 413.69141 766.91016 402.49219 791.39844 383.19922 C 814.45312 365.10937 832.71094 343.28906 846.30859 319.28906 C 759.47266 369.03516 661.07422 311.10937 606.34375 242.08984 C 557.49219 180.45312 526.91016 73.398439 595.72656 0.7265625 z M 402.27344 268.03516 C 331.58203 268.03516 270.12891 318.41797 256.21875 387.85547 L 252.96484 404.10938 L 237.52734 410.25391 C 185.4375 430.89062 150.4375 482.32812 150.4375 538.25391 C 150.4375 614.18359 212.25391 676 288.19922 676 L 652.34375 676 C 717.96484 676 771.34375 622.54687 771.34375 556.83594 C 771.32815 510.50781 744.08984 468.01953 701.91016 448.60156 L 685.54688 441.07422 L 684.21875 423.08984 C 679.92578 365.21875 631.05469 319.87109 572.92578 319.87109 C 562.67187 319.87109 552.28906 321.32812 542.05469 324.19922 L 524.10938 329.21875 L 511.4375 315.58203 C 483.34375 285.36328 443.5625 268.03516 402.27344 268.03516 z M 272.3125 730.26367 C 271.52978 730.13818 270.70898 730.16309 269.89062 730.36328 L 268.72656 730.65625 C 265.49219 731.41797 263.4375 734.78125 264.23828 737.98047 L 274.52734 779.91016 L 232.58203 769.67188 C 229.36328 768.89063 226.03516 770.85547 225.21875 774.12891 L 224.96484 775.28906 C 224.10937 778.58203 226.18359 781.85547 229.41797 782.61719 L 270.39844 792.63672 L 240.45312 822.34375 C 238.08983 824.72656 238.08984 828.5625 240.39844 830.94531 L 241.27344 831.80078 C 243.65625 834.1836 247.45312 834.18359 249.83594 831.85547 L 279.85547 802 L 289.94531 843.16406 C 290.72656 846.39844 294.03516 848.41797 297.25391 847.60156 L 298.41797 847.34375 C 301.71094 846.52734 303.74609 843.25391 302.91016 840.01953 L 292.67188 798.08984 L 334.58203 808.30859 C 337.80078 809.12891 341.10938 807.08984 341.89062 803.87109 L 342.19922 802.71094 C 343.01953 799.47266 340.96484 796.14453 337.74609 795.36328 L 296.72656 785.30859 L 326.72656 755.5625 C 329.05469 753.19922 329.10937 749.38281 326.72656 747.01953 L 325.85547 746.16406 C 323.52734 743.76171 319.67187 743.76172 317.30859 746.10938 L 287.25391 775.89062 L 277.25391 734.80078 C 276.66797 732.37207 274.66065 730.64014 272.3125 730.26367 z M 465.89453 730.26367 C 465.11182 730.13818 464.29101 730.16309 463.47266 730.36328 L 462.30859 730.65625 C 459.07422 731.41797 457.01953 734.78125 457.80078 737.98047 L 468.08984 779.91016 L 426.14453 769.67188 C 422.92578 768.89063 419.60156 770.85547 418.78125 774.12891 L 418.52734 775.28906 C 417.67187 778.58203 419.74609 781.85547 422.98047 782.61719 L 463.96484 792.63672 L 434.01953 822.34375 C 431.65624 824.72656 431.65625 828.5625 433.96484 830.94531 L 434.83594 831.80078 C 437.21875 834.1836 441.01953 834.18359 443.39844 831.85547 L 473.41797 802 L 483.50781 843.16406 C 484.28906 846.39844 487.60156 848.41797 490.81641 847.60156 L 491.98047 847.34375 C 495.27344 846.52734 497.30859 843.25391 496.47266 840.01953 L 486.23828 798.08984 L 528.14453 808.30859 C 531.36328 809.12891 534.67188 807.08984 535.45312 803.87109 L 535.76172 802.71094 C 536.58203 799.47266 534.52734 796.14453 531.32812 795.36328 L 490.30859 785.30859 L 520.30859 755.5625 C 522.63672 753.19922 522.69141 749.38281 520.30859 747.01953 L 519.4375 746.16406 C 517.10937 743.76171 513.25392 743.76172 510.89062 746.10938 L 480.83594 775.89062 L 470.83594 734.80078 C 470.25 732.37207 468.24267 730.64014 465.89453 730.26367 z M 659.45703 730.26367 C 658.67432 730.13818 657.85351 730.16309 657.03516 730.36328 L 655.87109 730.65625 C 652.63672 731.41797 650.58203 734.78125 651.36328 737.98047 L 661.65625 779.91016 L 619.71094 769.67188 C 616.49219 768.89063 613.16406 770.85547 612.34375 774.12891 L 612.08984 775.28906 C 611.23828 778.58203 613.30859 781.85547 616.54688 782.61719 L 657.52734 792.63672 L 627.58203 822.34375 C 625.21874 824.72656 625.21875 828.5625 627.52734 830.94531 L 628.39844 831.80078 C 630.78125 834.1836 634.58203 834.18359 636.96484 831.85547 L 666.98047 802 L 677.07422 843.16406 C 677.85547 846.39844 681.16406 848.41797 684.38281 847.60156 L 685.54688 847.34375 C 688.83595 846.52734 690.87109 843.25391 690.03516 840.01953 L 679.80078 798.08984 L 721.71094 808.30859 C 724.92578 809.12891 728.23828 807.08984 729.01953 803.87109 L 729.32812 802.71094 C 730.14453 799.47266 728.10938 796.14453 724.89062 795.36328 L 683.87109 785.30859 L 713.87109 755.5625 C 716.19922 753.19922 716.25391 749.38281 713.87109 747.01953 L 713 746.16406 C 710.67187 743.76171 706.81642 743.76172 704.45312 746.10938 L 674.39844 775.89062 L 664.39844 734.80078 C 663.8125 732.37207 661.80517 730.64014 659.45703 730.26367 z M 172.16797 873.11914 C 171.38525 872.99365 170.56445 873.01855 169.74609 873.21875 L 168.58203 873.50781 C 165.34375 874.27344 163.28906 877.63672 164.07422 880.83594 L 174.36328 922.76172 L 132.41797 912.52734 C 129.19922 911.74609 125.87109 913.71094 125.05469 916.98047 L 124.80078 918.14453 C 123.94531 921.4375 126.01953 924.71094 129.25391 925.47266 L 170.23828 935.49219 L 140.28906 965.19922 C 137.92576 967.58203 137.92578 971.41797 140.23828 973.80078 L 141.10938 974.65625 C 143.4922 977.03517 147.28906 977.03516 149.67188 974.71094 L 179.69141 944.85547 L 189.78125 986.01953 C 190.5625 989.25391 193.87109 991.27345 197.08984 990.45312 L 198.25391 990.19922 C 201.54687 989.38281 203.58203 986.10937 202.76172 982.87109 L 192.52734 940.94531 L 234.4375 951.16406 C 237.65625 951.98047 240.96484 949.94531 241.74609 946.72656 L 242.05469 945.5625 C 242.85547 942.32812 240.81641 939 237.60156 938.21875 L 196.58203 928.16406 L 226.58203 898.41797 C 228.91016 896.05469 228.96484 892.23828 226.58203 889.87109 L 225.71094 889.01953 C 223.38281 886.61718 219.52734 886.61719 217.16406 888.96484 L 187.10938 918.74609 L 177.10938 877.65625 C 176.52344 875.22754 174.51611 873.49561 172.16797 873.11914 z M 376.9668 873.11914 C 376.18426 872.99365 375.36426 873.01855 374.54688 873.21875 L 373.38281 873.50781 C 370.14453 874.27344 368.08984 877.63672 368.87109 880.83594 L 379.16406 922.76172 L 337.21875 912.52734 C 334 911.74609 330.67187 913.71094 329.85547 916.98047 L 329.60156 918.14453 C 328.74609 921.4375 330.81641 924.71094 334.05469 925.47266 L 375.03516 935.49219 L 345.08984 965.19922 C 342.72654 967.58203 342.72656 971.41797 345.03516 973.80078 L 345.91016 974.65625 C 348.28906 977.03517 352.08984 977.03516 354.47266 974.71094 L 384.49219 944.85547 L 394.58203 986.01953 C 395.36328 989.25391 398.67188 991.27345 401.89062 990.45312 L 403.05469 990.19922 C 406.34375 989.38281 408.38281 986.10937 407.54688 982.87109 L 397.30859 940.94531 L 439.21875 951.16406 C 442.4375 951.98047 445.74609 949.94531 446.52734 946.72656 L 446.83594 945.5625 C 447.67187 942.32812 445.61719 939 442.39844 938.21875 L 401.38281 928.16406 L 431.38281 898.41797 C 433.71094 896.05469 433.76172 892.23828 431.38281 889.87109 L 430.50781 889.01953 C 428.18359 886.61718 424.32812 886.61719 421.96484 888.96484 L 391.91016 918.74609 L 381.91016 877.65625 C 381.32422 875.22754 379.3144 873.49561 376.9668 873.11914 z M 559.29297 873.11914 C 558.51019 872.99365 557.68945 873.01855 556.87109 873.21875 L 555.71094 873.50781 C 552.47266 874.27344 550.41797 877.63672 551.19922 880.83594 L 561.49219 922.76172 L 519.54688 912.52734 C 516.32812 911.74609 513 913.71094 512.18359 916.98047 L 511.92578 918.14453 C 511.07422 921.4375 513.14453 924.71094 516.38281 925.47266 L 557.36328 935.49219 L 527.41797 965.19922 C 525.05468 967.58203 525.05469 971.41797 527.36328 973.80078 L 528.23828 974.65625 C 530.61719 977.03517 534.41797 977.03516 536.80078 974.71094 L 566.81641 944.85547 L 576.91016 986.01953 C 577.69141 989.25391 581 991.27345 584.21875 990.45312 L 585.38281 990.19922 C 588.67187 989.38281 590.71094 986.10937 589.87109 982.87109 L 579.63672 940.94531 L 621.54688 951.16406 C 624.76173 951.98047 628.07422 949.94531 628.85547 946.72656 L 629.16406 945.5625 C 630 942.32812 627.94531 939 624.72656 938.21875 L 583.71094 928.16406 L 613.71094 898.41797 C 616.03516 896.05469 616.08984 892.23828 613.71094 889.87109 L 612.83594 889.01953 C 610.50781 886.61718 606.65625 886.61719 604.28906 888.96484 L 574.23828 918.74609 L 564.23828 877.65625 C 563.64941 875.22754 561.6413 873.49561 559.29297 873.11914 z " />
</svg>
