<?xml version="1.0" encoding="UTF-8" standalone="no"?>
<svg
   width="1000"
   height="1000"
   viewBox="0 0 1000 1000"
   version="1.1"
   id="svg1119"
   xmlns="http://www.w3.org/2000/svg"
   xmlns:svg="http://www.w3.org/2000/svg">
  <defs
     id="defs1123" />
  <path
     id="path1112"
     d="M 595.72656 0.7265625 C 569.25391 8.3281255 543.71094 20.964844 520.71094 39.089844 C 481.47266 69.964844 458.63672 112.30859 449.96484 157.10938 C 446.08984 188.27345 445.36328 217.96484 446.12891 246.54688 C 478.87109 254.92578 509 272.36328 532.34375 297.41797 L 533.18359 298.32812 L 534.32812 298 C 547.08984 294.4375 560.07422 292.61719 572.92578 292.61719 C 644.80078 292.61719 705.18359 347.92578 712.16406 419.05469 C 739.91016 413.69141 766.91016 402.49219 791.39844 383.19922 C 814.45312 365.10937 832.71094 343.28906 846.30859 319.28906 C 759.47266 369.03516 661.07422 311.10937 606.34375 242.08984 C 557.49219 180.45312 526.91016 73.398439 595.72656 0.7265625 z M 402.27344 268.03516 C 331.58203 268.03516 270.12891 318.41797 256.21875 387.85547 L 252.96484 404.10938 L 237.52734 410.25391 C 185.4375 430.89062 150.4375 482.32812 150.4375 538.25391 C 150.4375 614.18359 212.25391 676 288.19922 676 L 652.34375 676 C 717.96484 676 771.34375 622.54687 771.34375 556.83594 C 771.32815 510.50781 744.08984 468.01953 701.91016 448.60156 L 685.54688 441.07422 L 684.21875 423.08984 C 679.92578 365.21875 631.05469 319.87109 572.92578 319.87109 C 562.67187 319.87109 552.28906 321.32812 542.05469 324.19922 L 524.10938 329.21875 L 511.4375 315.58203 C 483.34375 285.36328 443.5625 268.03516 402.27344 268.03516 z M 320.23828 732.45312 C 320.23828 732.45312 273.14454 755.49219 253.54688 793.58203 C 230.45313 838.39844 285.34375 868.78125 309.39844 822.34375 C 328.4375 785.47266 320.23828 732.45312 320.23828 732.45312 z M 505.25391 732.45312 C 505.25391 732.45312 458.16406 755.49219 438.5625 793.58203 C 415.47266 838.39844 470.36328 868.78125 494.41797 822.34375 C 513.4375 785.47266 505.25391 732.45312 505.25391 732.45312 z M 690.28906 732.45312 C 690.28906 732.45312 643.19922 755.49219 623.60156 793.58203 C 600.50781 838.39844 655.39845 868.78125 679.45312 822.34375 C 698.47266 785.47266 690.28906 732.45312 690.28906 732.45312 z M 191.80078 870.80078 C 191.80078 870.80078 144.71094 893.83594 125.10938 931.92578 C 102.01953 976.74609 156.91016 1007.1289 180.96484 960.69141 C 200 923.80078 191.80078 870.80078 191.80078 870.80078 z M 376.83594 870.80078 C 376.83594 870.80078 329.74609 893.83594 310.14453 931.92578 C 287.05469 976.74609 341.94531 1007.1289 366 960.69141 C 385.01953 923.80078 376.83594 870.80078 376.83594 870.80078 z M 561.85547 870.80078 C 561.85547 870.80078 514.76172 893.83594 495.16406 931.92578 C 472.07422 976.74609 526.96484 1007.1289 551.01953 960.69141 C 570.03516 923.80078 561.85547 870.80078 561.85547 870.80078 z " />
</svg>
