<?xml version="1.0" encoding="UTF-8" standalone="no"?>
<svg
   width="1000"
   height="1000"
   viewBox="0 0 1000 1000"
   version="1.1"
   id="svg2983"
   xmlns="http://www.w3.org/2000/svg"
   xmlns:svg="http://www.w3.org/2000/svg">
  <defs
     id="defs2987" />
  <path
     id="path2974"
     d="M 687.83594 0.80078125 C 661.34375 8.3085942 635.74609 20.890625 612.69141 38.925781 C 573.36328 69.691406 550.39844 111.96484 541.60156 156.74609 C 541.36328 158.54687 541.25391 160.30859 541.08984 162.07422 C 542.47266 162.03512 543.87109 161.76172 545.25391 161.78125 C 566.92578 161.85545 587.69141 167.27344 606.96484 177.87109 C 639.27344 195.63672 662.87109 222.50781 675.21875 255.61719 C 676.71094 259.61719 682.28906 278.65625 681.41797 294.30859 C 689.49219 295.36328 697.27344 297.07423 704.85547 299.45312 C 705.01953 299.50783 705.21875 299.54682 705.39844 299.60156 C 712.50781 301.85547 719.3086 304.63672 725.89062 307.96484 C 726.80079 308.41797 727.69141 308.87109 728.61719 309.34375 C 734.32812 312.38281 739.78125 315.72656 745 319.50781 C 746.85547 320.81641 748.58203 322.21875 750.36328 323.60156 C 754.47266 326.87109 758.41797 330.23828 762.14453 333.96484 C 764.85547 336.61719 767.28906 339.47266 769.78125 342.34375 C 772.27344 345.27344 774.78125 348.14453 777.01953 351.27344 C 780.23828 355.69141 783.03516 360.36328 785.74609 365.16406 C 786.91016 367.25391 788.21875 369.27344 789.25391 371.41797 C 792.41797 377.78125 794.98047 384.4375 797.14453 391.28906 C 797.45312 392.28906 797.87109 393.21875 798.16406 394.21875 C 800.52734 402.34375 802.21875 410.74609 803.01953 419.41797 C 830.76172 414.16406 857.83594 403.01953 882.36328 383.81641 C 905.47266 365.80078 923.80078 344.03516 937.45312 320.07422 C 850.4922 369.58203 752.25391 311.36328 697.74609 242.18359 C 649.07422 180.39844 618.81641 73.253906 687.83594 0.80078125 z M 355.5293 129.93359 C 278.36031 132.42653 211.97411 188.12158 196.49219 264.36328 L 192.74609 282.69141 L 180.32812 287.58203 C 124.47266 309.5625 82.761719 359.98047 77.417969 419.74609 C 70.835938 493.28906 115.98047 557.4375 180.5625 580.21875 C 180.5625 580.21875 198.28906 585.14453 220.28906 589.14453 C 215.14453 573.05469 212.32811 555.94531 212.38281 538.19922 C 212.58203 470.67187 255 408.69141 317.96484 383.96484 L 318.98047 383.5625 L 319.18359 382.50781 C 336 299.81641 409.36328 240.01953 493.67188 240.27344 C 542.85547 240.41797 590.19922 261.19922 623.58203 297.30859 L 624.41797 298.21875 L 625.58203 297.89062 C 634.61719 295.39845 643.78125 294.08984 652.92578 293.38281 C 653.69141 283.69141 649.45312 268.27344 648.45312 265.60156 C 639.23829 240.91016 621.38281 218.39844 593.23828 202.91016 C 563.05469 186.32812 529.23828 186.89062 500.60156 200.49219 C 499.34375 199.71094 498.52734 199.21875 498.52734 199.21875 L 486.72656 186.4375 C 465.80078 163.80078 439.72656 145.89062 410.18359 137.10938 C 391.71997 131.61694 373.33752 129.3583 355.5293 129.93359 z M 493.61719 268.81641 C 422.92578 268.60156 361.32812 318.80078 347.21875 388.19922 L 343.92578 404.45312 L 328.45312 410.54688 C 276.28907 431.03517 241.14453 482.36328 240.98047 538.28906 C 240.76172 614.21875 302.38281 676.21875 378.32812 676.4375 L 742.47266 677.50781 C 808.08984 677.71094 861.63672 624.41797 861.81641 558.69141 C 861.92578 512.36328 834.81641 469.81641 792.69141 450.25391 L 776.36328 442.69141 L 775.08984 424.72656 C 770.98047 366.81641 722.23829 321.32812 664.10938 321.16406 C 653.85548 321.12891 643.45312 322.58203 633.21875 325.39844 L 615.25391 330.36328 L 602.63672 316.69141 C 574.63672 286.39844 534.89062 268.94531 493.61719 268.81641 z M 495.89453 732.22852 C 495.11182 732.10309 494.29101 732.12793 493.47266 732.32812 L 492.30859 732.61719 C 489.07422 733.38281 487.01953 736.74609 487.80078 739.94531 L 498.08984 781.87109 L 456.14453 771.63672 C 452.92578 770.85547 449.60156 772.81641 448.78125 776.08984 L 448.52734 777.25391 C 447.67187 780.54687 449.74609 783.81641 452.98047 784.58203 L 493.96484 794.60156 L 464.01953 824.30859 C 461.65624 826.69141 461.65625 830.52734 463.96484 832.91016 L 464.83594 833.76172 C 467.21875 836.14454 471.01953 836.14453 473.39844 833.81641 L 503.41797 803.96484 L 513.50781 845.12891 C 514.28906 848.36328 517.60156 850.38281 520.81641 849.5625 L 521.98047 849.30859 C 525.27344 848.49219 527.30859 845.21875 526.47266 841.98047 L 516.23828 800.05469 L 558.14453 810.27344 C 561.36328 811.08984 564.67188 809.05469 565.45312 805.83594 L 565.76172 804.67188 C 566.58203 801.45312 564.54688 798.12892 561.32812 797.32812 L 520.30859 787.27344 L 550.30859 757.52734 C 552.63672 755.16406 552.69141 751.34375 550.30859 748.98047 L 549.4375 748.12891 C 547.10937 745.72655 543.25392 745.72656 540.89062 748.07422 L 510.83594 777.85547 L 500.83594 736.76172 C 500.25 734.33593 498.24267 732.6048 495.89453 732.22852 z M 358.10938 732.45312 C 358.10937 732.45312 311.01953 755.49219 291.41797 793.58203 C 268.32812 838.39844 323.21875 868.78125 347.27344 822.34375 C 366.30859 785.47266 358.10938 732.45312 358.10938 732.45312 z M 726.65625 732.45312 C 726.65625 732.45312 679.5625 755.49219 659.96484 793.58203 C 636.87109 838.39844 691.76172 868.78125 715.81641 822.34375 C 734.83594 785.47266 726.65625 732.45312 726.65625 732.45312 z M 255.91211 874.51758 C 255.12958 874.39209 254.30957 874.41699 253.49219 874.61719 L 252.32812 874.91016 C 249.08984 875.67187 247.03516 879.03516 247.83594 882.23828 L 258.12891 924.16406 L 216.18359 913.92578 C 212.96484 913.14453 209.63672 915.10937 208.81641 918.38281 L 208.5625 919.54688 C 207.71094 922.83594 209.78125 926.10937 213.01953 926.87109 L 254 936.89062 L 224.05469 966.60156 C 221.6914 968.98047 221.69141 972.81641 224 975.19922 L 224.87109 976.05469 C 227.25391 978.43752 231.05469 978.4375 233.4375 976.10938 L 263.45312 946.25391 L 273.54688 987.41797 C 274.32813 990.65625 277.63672 992.67187 280.85547 991.85547 L 282.01953 991.60156 C 285.30859 990.78125 287.34375 987.50781 286.50781 984.27344 L 276.27344 942.34375 L 318.18359 952.5625 C 321.39844 953.38281 324.71094 951.34375 325.49219 948.12891 L 325.80078 946.96484 C 326.60156 943.74609 324.5625 940.39844 321.34375 939.61719 L 280.32812 929.5625 L 310.32812 899.81641 C 312.65625 897.45312 312.71094 893.63672 310.32812 891.27344 L 309.45312 890.41797 C 307.12892 888.01952 303.27344 888.01953 300.91016 890.36328 L 270.85547 920.14453 L 260.85547 879.05469 C 260.26953 876.62598 258.2597 874.89404 255.91211 874.51758 z M 624.43945 874.51758 C 623.65692 874.39209 622.83691 874.41699 622.01953 874.61719 L 620.85547 874.91016 C 617.61719 875.67187 615.5625 879.03516 616.34375 882.23828 L 626.63672 924.16406 L 584.69141 913.92578 C 581.47266 913.14453 578.14454 915.10937 577.32812 918.38281 L 577.07422 919.54688 C 576.21875 922.83594 578.28906 926.10937 581.52734 926.87109 L 622.50781 936.89062 L 592.5625 966.60156 C 590.19921 968.98047 590.19922 972.81641 592.50781 975.19922 L 593.38281 976.05469 C 595.76172 978.43752 599.5625 978.4375 601.94531 976.10938 L 631.96484 946.25391 L 642.05469 987.41797 C 642.83594 990.65625 646.14453 992.67187 649.36328 991.85547 L 650.52734 991.60156 C 653.81641 990.78125 655.85547 987.50781 655.01953 984.27344 L 644.78125 942.34375 L 686.69141 952.5625 C 689.91016 953.38281 693.21875 951.34375 694 948.12891 L 694.30859 946.96484 C 695.14453 943.74609 693.08984 940.39844 689.87109 939.61719 L 648.85547 929.5625 L 678.85547 899.81641 C 681.18359 897.45312 681.23828 893.63672 678.85547 891.27344 L 677.98047 890.41797 C 675.65625 888.01952 671.80078 888.01953 669.4375 890.36328 L 639.38281 920.14453 L 629.38281 879.05469 C 628.79688 876.62598 626.78705 874.89404 624.43945 874.51758 z M 486.67188 876.71094 C 486.67187 876.71094 439.58203 899.74609 419.98047 937.83594 C 396.89062 982.65625 451.78125 1013.0352 475.83594 966.60156 C 494.87109 929.72656 486.67188 876.71094 486.67188 876.71094 z " />
</svg>
