<?xml version="1.0" encoding="UTF-8" standalone="no"?>
<svg
   width="1000"
   height="1000"
   viewBox="0 0 1000 1000"
   version="1.1"
   id="svg3269"
   xmlns="http://www.w3.org/2000/svg"
   xmlns:svg="http://www.w3.org/2000/svg">
  <defs
     id="defs3273" />
  <path
     id="path3262"
     d="M 687.83594 0.80078125 C 661.34375 8.3085942 635.74609 20.890625 612.69141 38.925781 C 573.36328 69.691406 550.39844 111.96484 541.60156 156.74609 C 541.36328 158.54687 541.25391 160.30859 541.08984 162.07422 C 542.47266 162.03512 543.87109 161.76172 545.25391 161.78125 C 566.92578 161.85545 587.69141 167.27344 606.96484 177.87109 C 639.27344 195.63672 662.87109 222.50781 675.21875 255.61719 C 676.71094 259.61719 682.28906 278.65625 681.41797 294.30859 C 689.49219 295.36328 697.27344 297.07423 704.85547 299.45312 C 705.01953 299.50783 705.21875 299.54682 705.39844 299.60156 C 712.50781 301.85547 719.3086 304.63672 725.89062 307.96484 C 726.80079 308.41797 727.69141 308.87109 728.61719 309.34375 C 734.32812 312.38281 739.78125 315.72656 745 319.50781 C 746.85547 320.81641 748.58203 322.21875 750.36328 323.60156 C 754.47266 326.87109 758.41797 330.23828 762.14453 333.96484 C 764.85547 336.61719 767.28906 339.47266 769.78125 342.34375 C 772.27344 345.27344 774.78125 348.14453 777.01953 351.27344 C 780.23828 355.69141 783.03516 360.36328 785.74609 365.16406 C 786.91016 367.25391 788.21875 369.27344 789.25391 371.41797 C 792.41797 377.78125 794.98047 384.4375 797.14453 391.28906 C 797.45312 392.28906 797.87109 393.21875 798.16406 394.21875 C 800.52734 402.34375 802.21875 410.74609 803.01953 419.41797 C 830.76172 414.16406 857.83594 403.01953 882.36328 383.81641 C 905.47266 365.80078 923.80078 344.03516 937.45312 320.07422 C 850.4922 369.58203 752.25391 311.36328 697.74609 242.18359 C 649.07422 180.39844 618.81641 73.253906 687.83594 0.80078125 z M 355.5293 129.93359 C 278.36031 132.42653 211.97411 188.12158 196.49219 264.36328 L 192.74609 282.69141 L 180.32812 287.58203 C 124.47266 309.5625 82.761719 359.98047 77.417969 419.74609 C 70.835938 493.28906 115.98047 557.4375 180.5625 580.21875 C 180.5625 580.21875 198.28906 585.14453 220.28906 589.14453 C 215.14453 573.05469 212.32811 555.94531 212.38281 538.19922 C 212.58203 470.67187 255 408.69141 317.96484 383.96484 L 318.98047 383.5625 L 319.18359 382.50781 C 336 299.81641 409.36328 240.01953 493.67188 240.27344 C 542.85547 240.41797 590.19922 261.19922 623.58203 297.30859 L 624.41797 298.21875 L 625.58203 297.89062 C 634.61719 295.39845 643.78125 294.08984 652.92578 293.38281 C 653.69141 283.69141 649.45312 268.27344 648.45312 265.60156 C 639.23829 240.91016 621.38281 218.39844 593.23828 202.91016 C 563.05469 186.32812 529.23828 186.89062 500.60156 200.49219 C 499.34375 199.71094 498.52734 199.21875 498.52734 199.21875 L 486.72656 186.4375 C 465.80078 163.80078 439.72656 145.89062 410.18359 137.10938 C 391.71997 131.61694 373.33752 129.3583 355.5293 129.93359 z M 493.61719 268.81641 C 422.92578 268.60156 361.32812 318.80078 347.21875 388.19922 L 343.92578 404.45312 L 328.45312 410.54688 C 276.28907 431.03517 241.14453 482.36328 240.98047 538.28906 C 240.76172 614.21875 302.38281 676.21875 378.32812 676.4375 L 742.47266 677.50781 C 808.08984 677.71094 861.63672 624.41797 861.81641 558.69141 C 861.92578 512.36328 834.81641 469.81641 792.69141 450.25391 L 776.36328 442.69141 L 775.08984 424.72656 C 770.98047 366.81641 722.23829 321.32812 664.10938 321.16406 C 653.85548 321.12891 643.45312 322.58203 633.21875 325.39844 L 615.25391 330.36328 L 602.63672 316.69141 C 574.63672 286.39844 534.89062 268.94531 493.61719 268.81641 z M 340.56641 730.26367 C 339.78369 730.13818 338.96289 730.16309 338.14453 730.36328 L 336.98047 730.65625 C 333.74609 731.41797 331.69141 734.78125 332.49219 737.98047 L 342.78125 779.91016 L 300.83594 769.67188 C 297.61719 768.89063 294.28906 770.85547 293.47266 774.12891 L 293.21875 775.28906 C 292.36328 778.58203 294.4375 781.85547 297.67188 782.61719 L 338.65625 792.63672 L 308.71094 822.34375 C 306.34374 824.72656 306.34375 828.5625 308.65625 830.94531 L 309.52734 831.80078 C 311.91016 834.1836 315.71094 834.18359 318.08984 831.85547 L 348.10938 802 L 358.19922 843.16406 C 358.98047 846.39844 362.28906 848.41797 365.50781 847.60156 L 366.67188 847.34375 C 369.96485 846.52734 372 843.25391 371.16406 840.01953 L 360.92578 798.08984 L 402.83594 808.30859 C 406.05469 809.12891 409.36328 807.08984 410.14453 803.87109 L 410.45312 802.71094 C 411.25392 799.47266 409.19922 796.14453 406 795.36328 L 364.98047 785.30859 L 394.98047 755.5625 C 397.30859 753.19922 397.36328 749.38281 394.98047 747.01953 L 394.10938 746.16406 C 391.78125 743.76171 387.92578 743.76172 385.5625 746.10938 L 355.50781 775.89062 L 345.50781 734.80078 C 344.92188 732.37207 342.91455 730.64014 340.56641 730.26367 z M 620.33203 730.26367 C 619.54932 730.13818 618.72851 730.16309 617.91016 730.36328 L 616.74609 730.65625 C 613.50781 731.41797 611.45312 734.78125 612.23828 737.98047 L 622.52734 779.91016 L 580.58203 769.67188 C 577.36328 768.89063 574.03516 770.85547 573.21875 774.12891 L 572.96484 775.28906 C 572.10937 778.58203 574.18359 781.85547 577.41797 782.61719 L 618.39844 792.63672 L 588.45312 822.34375 C 586.08983 824.72656 586.08984 828.5625 588.39844 830.94531 L 589.27344 831.80078 C 591.65625 834.1836 595.45312 834.18359 597.83594 831.85547 L 627.85547 802 L 637.94531 843.16406 C 638.72656 846.39844 642.03516 848.41797 645.25391 847.60156 L 646.41797 847.34375 C 649.71094 846.52734 651.74609 843.25391 650.91016 840.01953 L 640.67188 798.08984 L 682.58203 808.30859 C 685.80078 809.12891 689.10938 807.08984 689.89062 803.87109 L 690.19922 802.71094 C 691.01953 799.47266 688.96484 796.14453 685.76172 795.36328 L 644.74609 785.30859 L 674.74609 755.5625 C 677.07422 753.19922 677.12891 749.38281 674.74609 747.01953 L 673.87109 746.16406 C 671.54687 743.76171 667.69142 743.76172 665.32812 746.10938 L 635.27344 775.89062 L 625.27344 734.80078 C 624.6875 732.37207 622.68017 730.64014 620.33203 730.26367 z M 235.13086 873.11914 C 234.34863 872.99365 233.52832 873.01855 232.71094 873.21875 L 231.54688 873.50781 C 228.30859 874.27344 226.25391 877.63672 227.03516 880.83594 L 237.32812 922.76172 L 195.38281 912.52734 C 192.16406 911.74609 188.83594 913.71094 188.01953 916.98047 L 187.76172 918.14453 C 186.91016 921.4375 188.98047 924.71094 192.21875 925.47266 L 233.19922 935.49219 L 203.25391 965.19922 C 200.89061 967.58203 200.89062 971.41797 203.19922 973.80078 L 204.07422 974.65625 C 206.45312 977.03517 210.25391 977.03516 212.63672 974.71094 L 242.65625 944.85547 L 252.74609 986.01953 C 253.52734 989.25391 256.83594 991.27345 260.05469 990.45312 L 261.21875 990.19922 C 264.50781 989.38281 266.54687 986.10937 265.72656 982.87109 L 255.49219 940.94531 L 297.39844 951.16406 C 300.61719 951.98047 303.92578 949.94531 304.71094 946.72656 L 305.01953 945.5625 C 305.81641 942.32812 303.78125 939 300.5625 938.21875 L 259.54688 928.16406 L 289.54688 898.41797 C 291.8711 896.05469 291.92579 892.23828 289.54688 889.87109 L 288.67188 889.01953 C 286.34375 886.61718 282.49219 886.61719 280.12891 888.96484 L 250.07422 918.74609 L 240.07422 877.65625 C 239.48535 875.22754 237.47754 873.49561 235.13086 873.11914 z M 512.56641 873.11914 C 511.78369 872.99365 510.96289 873.01855 510.14453 873.21875 L 508.98047 873.50781 C 505.74609 874.27344 503.69141 877.63672 504.47266 880.83594 L 514.76172 922.76172 L 472.81641 912.52734 C 469.60156 911.74609 466.27344 913.71094 465.45312 916.98047 L 465.19922 918.14453 C 464.34375 921.4375 466.41797 924.71094 469.65625 925.47266 L 510.63672 935.49219 L 480.69141 965.19922 C 478.32811 967.58203 478.32812 971.41797 480.63672 973.80078 L 481.50781 974.65625 C 483.89062 977.03517 487.69141 977.03516 490.07422 974.71094 L 520.08984 944.85547 L 530.18359 986.01953 C 530.96484 989.25391 534.27344 991.27345 537.49219 990.45312 L 538.65625 990.19922 C 541.94531 989.38281 543.98047 986.10937 543.14453 982.87109 L 532.91016 940.94531 L 574.81641 951.16406 C 578.03516 951.98047 581.34375 949.94531 582.12891 946.72656 L 582.4375 945.5625 C 583.25391 942.32812 581.21875 939 578 938.21875 L 536.98047 928.16406 L 566.98047 898.41797 C 569.30859 896.05469 569.36328 892.23828 566.98047 889.87109 L 566.10938 889.01953 C 563.78126 886.61718 559.92578 886.61719 557.5625 888.96484 L 527.50781 918.74609 L 517.50781 877.65625 C 516.92188 875.22754 514.91455 873.49561 512.56641 873.11914 z " />
</svg>
