<?xml version="1.0" encoding="UTF-8" standalone="no"?>
<svg
   width="1000"
   height="1000"
   viewBox="0 0 1000 1000"
   version="1.1"
   id="svg3411"
   xmlns="http://www.w3.org/2000/svg"
   xmlns:svg="http://www.w3.org/2000/svg">
  <defs
     id="defs3415" />
  <path
     id="path3404"
     d="M 687.83594 0.80078125 C 661.34375 8.3085942 635.74609 20.890625 612.69141 38.925781 C 573.36328 69.691406 550.39844 111.96484 541.60156 156.74609 C 541.36328 158.54687 541.25391 160.30859 541.08984 162.07422 C 542.47266 162.03512 543.87109 161.76172 545.25391 161.78125 C 566.92578 161.85545 587.69141 167.27344 606.96484 177.87109 C 639.27344 195.63672 662.87109 222.50781 675.21875 255.61719 C 676.71094 259.61719 682.28906 278.65625 681.41797 294.30859 C 689.49219 295.36328 697.27344 297.07423 704.85547 299.45312 C 705.01953 299.50783 705.21875 299.54682 705.39844 299.60156 C 712.50781 301.85547 719.3086 304.63672 725.89062 307.96484 C 726.80079 308.41797 727.69141 308.87109 728.61719 309.34375 C 734.32812 312.38281 739.78125 315.72656 745 319.50781 C 746.85547 320.81641 748.58203 322.21875 750.36328 323.60156 C 754.47266 326.87109 758.41797 330.23828 762.14453 333.96484 C 764.85547 336.61719 767.28906 339.47266 769.78125 342.34375 C 772.27344 345.27344 774.78125 348.14453 777.01953 351.27344 C 780.23828 355.69141 783.03516 360.36328 785.74609 365.16406 C 786.91016 367.25391 788.21875 369.27344 789.25391 371.41797 C 792.41797 377.78125 794.98047 384.4375 797.14453 391.28906 C 797.45312 392.28906 797.87109 393.21875 798.16406 394.21875 C 800.52734 402.34375 802.21875 410.74609 803.01953 419.41797 C 830.76172 414.16406 857.83594 403.01953 882.36328 383.81641 C 905.47266 365.80078 923.80078 344.03516 937.45312 320.07422 C 850.4922 369.58203 752.25391 311.36328 697.74609 242.18359 C 649.07422 180.39844 618.81641 73.253906 687.83594 0.80078125 z M 355.5293 129.93359 C 278.36031 132.42653 211.97411 188.12158 196.49219 264.36328 L 192.74609 282.69141 L 180.32812 287.58203 C 124.47266 309.5625 82.761719 359.98047 77.417969 419.74609 C 70.835938 493.28906 115.98047 557.4375 180.5625 580.21875 C 180.5625 580.21875 198.28906 585.14453 220.28906 589.14453 C 215.14453 573.05469 212.32811 555.94531 212.38281 538.19922 C 212.58203 470.67187 255 408.69141 317.96484 383.96484 L 318.98047 383.5625 L 319.18359 382.50781 C 336 299.81641 409.36328 240.01953 493.67188 240.27344 C 542.85547 240.41797 590.19922 261.19922 623.58203 297.30859 L 624.41797 298.21875 L 625.58203 297.89062 C 634.61719 295.39845 643.78125 294.08984 652.92578 293.38281 C 653.69141 283.69141 649.45312 268.27344 648.45312 265.60156 C 639.23829 240.91016 621.38281 218.39844 593.23828 202.91016 C 563.05469 186.32812 529.23828 186.89062 500.60156 200.49219 C 499.34375 199.71094 498.52734 199.21875 498.52734 199.21875 L 486.72656 186.4375 C 465.80078 163.80078 439.72656 145.89062 410.18359 137.10938 C 391.71997 131.61694 373.33752 129.3583 355.5293 129.93359 z M 493.61719 268.81641 C 422.92578 268.60156 361.32812 318.80078 347.21875 388.19922 L 343.92578 404.45312 L 328.45312 410.54688 C 276.28907 431.03517 241.14453 482.36328 240.98047 538.28906 C 240.76172 614.21875 302.38281 676.21875 378.32812 676.4375 L 742.47266 677.50781 C 808.08984 677.71094 861.63672 624.41797 861.81641 558.69141 C 861.92578 512.36328 834.81641 469.81641 792.69141 450.25391 L 776.36328 442.69141 L 775.08984 424.72656 C 770.98047 366.81641 722.23829 321.32812 664.10938 321.16406 C 653.85548 321.12891 643.45312 322.58203 633.21875 325.39844 L 615.25391 330.36328 L 602.63672 316.69141 C 574.63672 286.39844 534.89062 268.94531 493.61719 268.81641 z M 326.85938 730.26367 C 326.07666 730.13818 325.25586 730.16309 324.4375 730.36328 L 323.27344 730.65625 C 320.03516 731.41797 317.98047 734.78125 318.78125 737.98047 L 329.07422 779.91016 L 287.12891 769.67188 C 283.91016 768.89063 280.58203 770.85547 279.76172 774.12891 L 279.50781 775.28906 C 278.65625 778.58203 280.72656 781.85547 283.96484 782.61719 L 324.94531 792.63672 L 295 822.34375 C 292.63671 824.72656 292.63672 828.5625 294.94531 830.94531 L 295.81641 831.80078 C 298.19922 834.1836 302 834.18359 304.38281 831.85547 L 334.39844 802 L 344.49219 843.16406 C 345.27344 846.39844 348.58203 848.41797 351.80078 847.60156 L 352.96484 847.34375 C 356.25391 846.52734 358.28906 843.25391 357.45312 840.01953 L 347.21875 798.08984 L 389.12891 808.30859 C 392.34375 809.12891 395.65625 807.08984 396.4375 803.87109 L 396.74609 802.71094 C 397.5625 799.47266 395.50781 796.14453 392.28906 795.36328 L 351.27344 785.30859 L 381.27344 755.5625 C 383.60156 753.19922 383.65625 749.38281 381.27344 747.01953 L 380.39844 746.16406 C 378.07422 743.76171 374.21875 743.76172 371.85547 746.10938 L 341.80078 775.89062 L 331.80078 734.80078 C 331.21484 732.37207 329.20752 730.64014 326.85938 730.26367 z M 520.43945 730.26367 C 519.65692 730.13818 518.83691 730.16309 518.01953 730.36328 L 516.85547 730.65625 C 513.61719 731.41797 511.5625 734.78125 512.34375 737.98047 L 522.63672 779.91016 L 480.69141 769.67188 C 477.47266 768.89063 474.14454 770.85547 473.32812 774.12891 L 473.07422 775.28906 C 472.21875 778.58203 474.28906 781.85547 477.52734 782.61719 L 518.50781 792.63672 L 488.5625 822.34375 C 486.19921 824.72656 486.19922 828.5625 488.50781 830.94531 L 489.38281 831.80078 C 491.76172 834.1836 495.5625 834.18359 497.94531 831.85547 L 527.96484 802 L 538.05469 843.16406 C 538.83594 846.39844 542.14453 848.41797 545.36328 847.60156 L 546.52734 847.34375 C 549.81641 846.52734 551.85547 843.25391 551.01953 840.01953 L 540.78125 798.08984 L 582.69141 808.30859 C 585.91016 809.12891 589.21875 807.08984 590 803.87109 L 590.30859 802.71094 C 591.12891 799.47266 589.07422 796.14453 585.87109 795.36328 L 544.85547 785.30859 L 574.85547 755.5625 C 577.18359 753.19922 577.23828 749.38281 574.85547 747.01953 L 573.98047 746.16406 C 571.65625 743.76171 567.80078 743.76172 565.4375 746.10938 L 535.38281 775.89062 L 525.38281 734.80078 C 524.79688 732.37207 522.78705 730.64014 520.43945 730.26367 z M 714.00391 730.26367 C 713.22119 730.13818 712.40039 730.16309 711.58203 730.36328 L 710.41797 730.65625 C 707.18359 731.41797 705.12891 734.78125 705.91016 737.98047 L 716.19922 779.91016 L 674.25391 769.67188 C 671.03516 768.89063 667.71095 770.85547 666.89062 774.12891 L 666.63672 775.28906 C 665.78125 778.58203 667.85547 781.85547 671.08984 782.61719 L 712.07422 792.63672 L 682.12891 822.34375 C 679.76171 824.72656 679.76172 828.5625 682.07422 830.94531 L 682.94531 831.80078 C 685.32812 834.1836 689.12891 834.18359 691.50781 831.85547 L 721.52734 802 L 731.61719 843.16406 C 732.39844 846.39844 735.71094 848.41797 738.92578 847.60156 L 740.08984 847.34375 C 743.38281 846.52734 745.41797 843.25391 744.58203 840.01953 L 734.34375 798.08984 L 776.25391 808.30859 C 779.47266 809.12891 782.78125 807.08984 783.5625 803.87109 L 783.87109 802.71094 C 784.69141 799.47266 782.65625 796.14453 779.4375 795.36328 L 738.41797 785.30859 L 768.41797 755.5625 C 770.74609 753.19922 770.80078 749.38281 768.41797 747.01953 L 767.54688 746.16406 C 765.21875 743.76171 761.36328 743.76172 759 746.10938 L 728.94531 775.89062 L 718.94531 734.80078 C 718.35937 732.37207 716.35205 730.64014 714.00391 730.26367 z M 226.71094 873.11914 C 225.92816 872.99365 225.10742 873.01855 224.28906 873.21875 L 223.12891 873.50781 C 219.89062 874.27344 217.83594 877.63672 218.61719 880.83594 L 228.91016 922.76172 L 186.96484 912.52734 C 183.74609 911.74609 180.41797 913.71094 179.60156 916.98047 L 179.34375 918.14453 C 178.49219 921.4375 180.5625 924.71094 183.80078 925.47266 L 224.78125 935.49219 L 194.83594 965.19922 C 192.47265 967.58203 192.47266 971.41797 194.78125 973.80078 L 195.65625 974.65625 C 198.03516 977.03517 201.83594 977.03516 204.21875 974.71094 L 234.23828 944.85547 L 244.32812 986.01953 C 245.10937 989.25391 248.41797 991.27345 251.63672 990.45312 L 252.80078 990.19922 C 256.08984 989.38281 258.12891 986.10937 257.30859 982.87109 L 247.07422 940.94531 L 288.98047 951.16406 C 292.19922 951.98047 295.50781 949.94531 296.28906 946.72656 L 296.60156 945.5625 C 297.39844 942.32812 295.36328 939 292.14453 938.21875 L 251.12891 928.16406 L 281.12891 898.41797 C 283.45312 896.05469 283.50781 892.23828 281.12891 889.87109 L 280.25391 889.01953 C 277.92578 886.61718 274.07422 886.61719 271.71094 888.96484 L 241.65625 918.74609 L 231.65625 877.65625 C 231.06738 875.22754 229.05927 873.49561 226.71094 873.11914 z M 431.51172 873.11914 C 430.729 872.99365 429.9082 873.01855 429.08984 873.21875 L 427.92578 873.50781 C 424.69141 874.27344 422.63672 877.63672 423.41797 880.83594 L 433.71094 922.76172 L 391.76172 912.52734 C 388.54687 911.74609 385.21875 913.71094 384.39844 916.98047 L 384.14453 918.14453 C 383.28906 921.4375 385.36328 924.71094 388.60156 925.47266 L 429.58203 935.49219 L 399.63672 965.19922 C 397.27343 967.58203 397.27344 971.41797 399.58203 973.80078 L 400.45312 974.65625 C 402.83595 977.03517 406.63672 977.03516 409.01953 974.71094 L 439.03516 944.85547 L 449.12891 986.01953 C 449.91016 989.25391 453.21875 991.27345 456.4375 990.45312 L 457.60156 990.19922 C 460.89062 989.38281 462.92578 986.10937 462.08984 982.87109 L 451.85547 940.94531 L 493.76172 951.16406 C 496.98047 951.98047 500.28906 949.94531 501.07422 946.72656 L 501.38281 945.5625 C 502.21875 942.32812 500.16406 939 496.94531 938.21875 L 455.92578 928.16406 L 485.92578 898.41797 C 488.25391 896.05469 488.30859 892.23828 485.92578 889.87109 L 485.05469 889.01953 C 482.72656 886.61718 478.87109 886.61719 476.50781 888.96484 L 446.45312 918.74609 L 436.45312 877.65625 C 435.86719 875.22754 433.85986 873.49561 431.51172 873.11914 z M 613.83984 873.11914 C 613.05713 872.99365 612.23633 873.01855 611.41797 873.21875 L 610.25391 873.50781 C 607.01953 874.27344 604.96484 877.63672 605.74609 880.83594 L 616.03516 922.76172 L 574.08984 912.52734 C 570.87109 911.74609 567.54687 913.71094 566.72656 916.98047 L 566.47266 918.14453 C 565.61719 921.4375 567.69141 924.71094 570.92578 925.47266 L 611.91016 935.49219 L 581.96484 965.19922 C 579.60154 967.58203 579.60156 971.41797 581.91016 973.80078 L 582.78125 974.65625 C 585.16406 977.03517 588.96484 977.03516 591.34375 974.71094 L 621.36328 944.85547 L 631.45312 986.01953 C 632.23829 989.25391 635.54687 991.27345 638.76172 990.45312 L 639.92578 990.19922 C 643.21875 989.38281 645.25391 986.10937 644.41797 982.87109 L 634.18359 940.94531 L 676.08984 951.16406 C 679.30859 951.98047 682.61719 949.94531 683.39844 946.72656 L 683.71094 945.5625 C 684.54687 942.32812 682.49219 939 679.27344 938.21875 L 638.25391 928.16406 L 668.25391 898.41797 C 670.58203 896.05469 670.63672 892.23828 668.25391 889.87109 L 667.38281 889.01953 C 665.05469 886.61718 661.19922 886.61719 658.83594 888.96484 L 628.78125 918.74609 L 618.78125 877.65625 C 618.19531 875.22754 616.18799 873.49561 613.83984 873.11914 z " />
</svg>
