<?xml version="1.0" encoding="UTF-8" standalone="no"?>
<svg
   width="1000"
   height="1000"
   viewBox="0 0 1000 1000"
   version="1.1"
   id="svg831"
   xmlns="http://www.w3.org/2000/svg"
   xmlns:svg="http://www.w3.org/2000/svg">
  <defs
     id="defs835" />
  <g
     id="surface1">
    <path
       d="M 670.472656 785.980469 C 646.417969 832.417969 591.527344 802.035156 614.617188 757.21875 C 634.21875 719.128906 681.308594 696.089844 681.308594 696.089844 C 681.308594 696.089844 689.492188 749.109375 670.472656 785.980469 Z M 430.273438 785.980469 C 406.21875 832.417969 351.328125 802.035156 374.417969 757.21875 C 394.019531 719.128906 441.109375 696.089844 441.109375 696.089844 C 441.109375 696.089844 449.289062 749.109375 430.273438 785.980469 Z M 430.273438 785.980469 "
       id="path826" />
    <path
       stroke="#000000"
       stroke-width="1.4"
       d="M 6.060098,29.503008 H 45.191953 M 4.560918,24.400898 H 43.518965 M 9.76207,34.605977 H 48.719902 M 6.060098,9.093066 H 45.191953 M 11.689004,19.29793 h 39.13207 M 4.560918,3.990098 H 43.518965 M 10.289941,14.159941 h 38.958047"
       transform="matrix(18.181818,0,0,18.181818,0,-36.363636)"
       id="path828" />
  </g>
</svg>
