<?xml version="1.0" encoding="UTF-8" standalone="no"?>
<svg
   width="1000"
   height="1000"
   viewBox="0 0 1000 1000"
   version="1.1"
   id="svg901"
   xmlns="http://www.w3.org/2000/svg"
   xmlns:svg="http://www.w3.org/2000/svg">
  <defs
     id="defs905" />
  <g
     id="surface1">
    <path
       d="M 388.726562 785.980469 C 364.671875 832.417969 309.78125 802.035156 332.871094 757.21875 C 352.472656 719.128906 399.5625 696.089844 399.5625 696.089844 C 399.5625 696.089844 407.746094 749.109375 388.726562 785.980469 M 724.183594 785.980469 C 700.128906 832.417969 645.238281 802.035156 668.328125 757.21875 C 687.925781 719.128906 735.019531 696.089844 735.019531 696.089844 C 735.019531 696.089844 743.199219 749.109375 724.183594 785.980469 "
       id="path894" />
    <path
       d="M 588.582031 753.910156 L 537.382812 753.128906 L 579.363281 679.726562 L 514.582031 680.238281 L 459.601562 789.78125 L 507.453125 789.78125 L 440.273438 955.746094 Z M 588.582031 753.910156 "
       id="path896" />
    <path
       stroke="#000000"
       stroke-width="1.4"
       d="M 6.060098,29.503008 H 45.191953 M 4.560918,24.400898 H 43.518965 M 9.76207,34.605977 H 48.719902 M 6.060098,9.093066 H 45.191953 M 11.689004,19.29793 h 39.13207 M 4.560918,3.990098 H 43.518965 M 10.289941,14.159941 h 38.958047"
       transform="matrix(18.181818,0,0,18.181818,0,-36.363636)"
       id="path898" />
  </g>
</svg>
