<?xml version="1.0" encoding="UTF-8" standalone="no"?>
<svg
   width="1000"
   height="1000"
   viewBox="0 0 1000 1000"
   version="1.1"
   id="svg1039"
   xmlns="http://www.w3.org/2000/svg"
   xmlns:svg="http://www.w3.org/2000/svg">
  <defs
     id="defs1043" />
  <g
     id="surface1">
    <path
       d="M 335.019531 785.980469 C 310.964844 832.417969 256.074219 802.035156 279.164062 757.21875 C 298.761719 719.128906 345.855469 696.089844 345.855469 696.089844 C 345.855469 696.089844 354.035156 749.109375 335.019531 785.980469 Z M 358.691406 924.328125 C 334.636719 970.761719 279.746094 940.382812 302.835938 895.5625 C 322.4375 857.472656 369.527344 834.4375 369.527344 834.4375 C 369.527344 834.4375 377.710938 887.4375 358.691406 924.328125 Z M 629.78125 924.328125 C 605.726562 970.761719 550.835938 940.382812 573.925781 895.5625 C 593.527344 857.472656 640.617188 834.4375 640.617188 834.4375 C 640.617188 834.4375 648.816406 887.4375 629.78125 924.328125 Z M 741.910156 785.980469 C 717.855469 832.417969 662.964844 802.035156 686.054688 757.21875 C 705.65625 719.128906 752.746094 696.089844 752.746094 696.089844 C 752.746094 696.089844 760.925781 749.109375 741.910156 785.980469 Z M 741.910156 785.980469 "
       id="path1032" />
    <path
       d="M 582.492188 753.910156 L 531.308594 753.128906 L 573.273438 679.726562 L 508.492188 680.273438 L 453.527344 789.78125 L 501.382812 789.78125 L 434.183594 955.761719 Z M 582.492188 753.910156 "
       id="path1034" />
    <path
       stroke="#000000"
       stroke-width="1.4"
       d="M 6.060098,29.503008 H 45.191953 M 4.560918,24.400898 H 43.518965 M 9.76207,34.605977 H 48.719902 M 6.060098,9.093066 H 45.191953 M 11.689004,19.29793 h 39.13207 M 4.560918,3.990098 H 43.518965 M 10.289941,14.159941 h 38.958047"
       transform="matrix(18.181818,0,0,18.181818,0,-36.363636)"
       id="path1036" />
  </g>
</svg>
