<?xml version="1.0" encoding="UTF-8" standalone="no"?>
<svg
   width="1000"
   height="1000"
   viewBox="0 0 1000 1000"
   version="1.1"
   id="svg1107"
   xmlns="http://www.w3.org/2000/svg"
   xmlns:svg="http://www.w3.org/2000/svg">
  <defs
     id="defs1111" />
  <g
     id="surface1">
    <path
       d="M 382.128906 785.980469 C 358.074219 832.417969 303.183594 802.035156 326.273438 757.21875 C 345.871094 719.128906 392.964844 696.089844 392.964844 696.089844 C 392.964844 696.089844 401.164062 749.109375 382.128906 785.980469 Z M 623.746094 924.328125 C 599.691406 970.761719 544.800781 940.382812 567.890625 895.5625 C 587.492188 857.472656 634.582031 834.4375 634.582031 834.4375 C 634.582031 834.4375 642.761719 887.4375 623.746094 924.328125 Z M 438.726562 924.328125 C 414.671875 970.761719 359.78125 940.382812 382.871094 895.5625 C 402.472656 857.472656 449.5625 834.4375 449.5625 834.4375 C 449.5625 834.4375 457.746094 887.4375 438.726562 924.328125 Z M 253.691406 924.328125 C 229.636719 970.761719 174.746094 940.382812 197.835938 895.5625 C 217.4375 857.472656 264.527344 834.4375 264.527344 834.4375 C 264.527344 834.4375 272.726562 887.4375 253.691406 924.328125 Z M 752.183594 785.980469 C 728.128906 832.417969 673.238281 802.035156 696.328125 757.21875 C 715.925781 719.128906 763.019531 696.089844 763.019531 696.089844 C 763.019531 696.089844 771.199219 749.109375 752.183594 785.980469 Z M 567.144531 785.980469 C 543.089844 832.417969 488.199219 802.035156 511.289062 757.21875 C 530.890625 719.128906 577.980469 696.089844 577.980469 696.089844 C 577.980469 696.089844 586.164062 749.109375 567.144531 785.980469 Z M 567.144531 785.980469 "
       id="path1102" />
    <path
       stroke="#000000"
       stroke-width="1.4"
       d="M 6.060098,29.503008 H 45.191953 M 4.560918,24.400898 H 43.518965 M 9.76207,34.605977 H 48.719902 M 6.060098,9.093066 H 45.191953 M 11.689004,19.29793 h 39.13207 M 4.560918,3.990098 H 43.518965 M 10.289941,14.159941 h 38.958047"
       transform="matrix(18.181818,0,0,18.181818,0,-36.363636)"
       id="path1104" />
  </g>
</svg>
