<?xml version="1.0" encoding="UTF-8" standalone="no"?>
<svg
   width="1000"
   height="1000"
   viewBox="0 0 1000 1000"
   version="1.1"
   id="svg1177"
   xmlns="http://www.w3.org/2000/svg"
   xmlns:svg="http://www.w3.org/2000/svg">
  <defs
     id="defs1181" />
  <g
     id="surface1">
    <path
       d="M 582.492188 753.910156 L 531.308594 753.128906 L 573.273438 679.726562 L 508.492188 680.273438 L 453.527344 789.78125 L 501.382812 789.78125 L 434.183594 955.761719 Z M 582.492188 753.910156 "
       id="path1170" />
    <path
       d="M 372.164062 924.328125 C 348.109375 970.761719 293.21875 940.382812 316.308594 895.5625 C 335.910156 857.472656 383 834.4375 383 834.4375 C 383 834.4375 391.183594 887.4375 372.164062 924.328125 Z M 611.761719 924.328125 C 587.710938 970.761719 532.816406 940.382812 555.910156 895.5625 C 575.507812 857.472656 622.601562 834.4375 622.601562 834.4375 C 622.601562 834.4375 630.78125 887.4375 611.761719 924.328125 Z M 730.328125 785.980469 C 706.273438 832.417969 651.382812 802.035156 674.472656 757.21875 C 694.074219 719.128906 741.164062 696.089844 741.164062 696.089844 C 741.164062 696.089844 749.34375 749.109375 730.328125 785.980469 Z M 755.199219 924.328125 C 731.144531 970.761719 676.253906 940.382812 699.34375 895.5625 C 718.945312 857.472656 766.035156 834.4375 766.035156 834.4375 C 766.035156 834.4375 774.21875 887.4375 755.199219 924.328125 Z M 229.308594 924.328125 C 205.253906 970.761719 150.363281 940.382812 173.453125 895.5625 C 193.054688 857.472656 240.144531 834.4375 240.144531 834.4375 C 240.144531 834.4375 248.328125 887.4375 229.308594 924.328125 Z M 359.289062 785.980469 C 335.238281 832.417969 280.34375 802.035156 303.4375 757.21875 C 323.035156 719.128906 370.128906 696.089844 370.128906 696.089844 C 370.128906 696.089844 378.308594 749.109375 359.289062 785.980469 Z M 359.289062 785.980469 "
       id="path1172" />
    <path
       stroke="#000000"
       stroke-width="1.4"
       d="M 6.060098,29.503008 H 45.191953 M 4.560918,24.400898 H 43.518965 M 9.76207,34.605977 H 48.719902 M 6.060098,9.093066 H 45.191953 M 11.689004,19.29793 h 39.13207 M 4.560918,3.990098 H 43.518965 M 10.289941,14.159941 h 38.958047"
       transform="matrix(18.181818,0,0,18.181818,0,-36.363636)"
       id="path1174" />
  </g>
</svg>
