<?xml version="1.0" encoding="UTF-8" standalone="no"?>
<svg
   width="1000"
   height="1000"
   viewBox="0 0 1000 1000"
   version="1.1"
   id="svg1315"
   xmlns="http://www.w3.org/2000/svg"
   xmlns:svg="http://www.w3.org/2000/svg">
  <defs
     id="defs1319" />
  <g
     id="surface1">
    <path
       d="M 735.761719 759 C 738.980469 759.78125 741.035156 763.109375 740.199219 766.34375 L 739.890625 767.507812 C 739.109375 770.726562 735.800781 772.761719 732.582031 771.945312 L 690.671875 761.726562 L 700.910156 803.65625 C 701.746094 806.890625 699.710938 810.164062 696.417969 810.980469 L 695.253906 811.238281 C 692.035156 812.054688 688.726562 810.035156 687.945312 806.800781 L 677.855469 765.636719 L 647.835938 795.492188 C 645.453125 797.816406 641.65625 797.816406 639.273438 795.4375 L 638.398438 794.582031 C 636.089844 792.199219 636.089844 788.363281 638.453125 785.980469 L 668.398438 756.273438 L 627.417969 746.253906 C 624.183594 745.492188 622.109375 742.21875 622.964844 738.925781 L 623.21875 737.761719 C 624.035156 734.492188 627.363281 732.527344 630.582031 733.308594 L 672.527344 743.546875 L 662.238281 701.617188 C 661.453125 698.417969 663.507812 695.054688 666.746094 694.289062 L 667.910156 694 C 671.183594 693.199219 674.492188 695.199219 675.273438 698.4375 L 685.273438 739.527344 L 715.328125 709.746094 C 717.691406 707.398438 721.546875 707.398438 723.871094 709.800781 L 724.746094 710.65625 C 727.128906 713.019531 727.074219 716.835938 724.746094 719.199219 L 694.746094 748.945312 Z M 391.144531 759 C 394.363281 759.78125 396.398438 763.109375 395.601562 766.34375 L 395.289062 767.507812 C 394.507812 770.726562 391.199219 772.761719 387.980469 771.945312 L 346.074219 761.726562 L 356.308594 803.65625 C 357.128906 806.890625 355.089844 810.164062 351.800781 810.980469 L 350.636719 811.238281 C 347.417969 812.054688 344.109375 810.035156 343.328125 806.800781 L 333.238281 765.636719 L 303.21875 795.492188 C 300.835938 797.816406 297.035156 797.816406 294.65625 795.4375 L 293.78125 794.582031 C 291.472656 792.199219 291.472656 788.363281 293.835938 785.980469 L 323.78125 756.273438 L 282.800781 746.253906 C 279.5625 745.492188 277.492188 742.21875 278.34375 738.925781 L 278.601562 737.761719 C 279.417969 734.492188 282.746094 732.527344 285.964844 733.308594 L 327.910156 743.546875 L 317.617188 701.617188 C 316.835938 698.417969 318.890625 695.054688 322.128906 694.289062 L 323.289062 694 C 326.5625 693.199219 329.871094 695.199219 330.65625 698.4375 L 340.65625 739.527344 L 370.710938 709.746094 C 373.074219 707.398438 376.925781 707.398438 379.253906 709.800781 L 380.128906 710.65625 C 382.507812 713.019531 382.453125 716.835938 380.128906 719.199219 L 350.128906 748.945312 Z M 391.144531 759 "
       id="path1308" />
    <path
       d="M 564.308594 753.910156 L 513.128906 753.128906 L 555.089844 679.726562 L 490.308594 680.273438 L 435.34375 789.78125 L 483.199219 789.78125 L 416 955.761719 Z M 564.308594 753.910156 "
       id="path1310" />
    <path
       stroke="#000000"
       stroke-width="1.4"
       d="M 6.060098,29.503008 H 45.191953 M 4.560918,24.400898 H 43.518965 M 9.76207,34.605977 H 48.719902 M 6.060098,9.093066 H 45.191953 M 11.689004,19.29793 h 39.13207 M 4.560918,3.990098 H 43.518965 M 10.289941,14.159941 h 38.958047"
       transform="matrix(18.181818,0,0,18.181818,0,-36.363636)"
       id="path1312" />
  </g>
</svg>
