<?xml version="1.0" encoding="UTF-8" standalone="no"?>
<svg
   width="1000"
   height="1000"
   viewBox="0 0 1000 1000"
   version="1.1"
   id="svg1383"
   xmlns="http://www.w3.org/2000/svg"
   xmlns:svg="http://www.w3.org/2000/svg">
  <defs
     id="defs1387" />
  <g
     id="surface1">
    <path
       d="M 406 759 C 409.199219 759.78125 411.253906 763.109375 410.453125 766.34375 L 410.144531 767.507812 C 409.363281 770.726562 406.054688 772.761719 402.835938 771.945312 L 360.925781 761.726562 L 371.164062 803.65625 C 372 806.890625 369.964844 810.164062 366.671875 810.980469 L 365.507812 811.238281 C 362.289062 812.054688 358.980469 810.035156 358.199219 806.800781 L 348.109375 765.636719 L 318.089844 795.492188 C 315.710938 797.816406 311.910156 797.816406 309.527344 795.4375 L 308.65625 794.582031 C 306.34375 792.199219 306.34375 788.363281 308.710938 785.980469 L 338.65625 756.273438 L 297.671875 746.253906 C 294.4375 745.492188 292.363281 742.21875 293.21875 738.925781 L 293.472656 737.761719 C 294.289062 734.492188 297.617188 732.527344 300.835938 733.308594 L 342.78125 743.546875 L 332.492188 701.617188 C 331.691406 698.417969 333.746094 695.054688 336.980469 694.289062 L 338.144531 694 C 341.417969 693.199219 344.726562 695.199219 345.507812 698.4375 L 355.507812 739.527344 L 385.5625 709.746094 C 387.925781 707.398438 391.78125 707.398438 394.109375 709.800781 L 394.980469 710.65625 C 397.363281 713.019531 397.308594 716.835938 394.980469 719.199219 L 364.980469 748.945312 Z M 300.5625 901.855469 C 303.78125 902.636719 305.816406 905.964844 305.019531 909.199219 L 304.710938 910.363281 C 303.925781 913.582031 300.617188 915.617188 297.398438 914.800781 L 255.492188 904.582031 L 265.726562 946.507812 C 266.546875 949.746094 264.507812 953.019531 261.21875 953.835938 L 260.054688 954.089844 C 256.835938 954.910156 253.527344 952.890625 252.746094 949.65625 L 242.65625 908.492188 L 212.636719 938.34375 C 210.253906 940.671875 206.453125 940.671875 204.074219 938.289062 L 203.199219 937.4375 C 200.890625 935.054688 200.890625 931.21875 203.253906 928.835938 L 233.199219 899.128906 L 192.21875 889.109375 C 188.980469 888.34375 186.910156 885.074219 187.761719 881.78125 L 188.019531 880.617188 C 188.835938 877.34375 192.164062 875.382812 195.382812 876.164062 L 237.328125 886.398438 L 227.035156 844.472656 C 226.253906 841.273438 228.308594 837.910156 231.546875 837.144531 L 232.710938 836.855469 C 235.980469 836.054688 239.289062 838.054688 240.074219 841.289062 L 250.074219 882.382812 L 280.128906 852.601562 C 282.492188 850.253906 286.34375 850.253906 288.671875 852.65625 L 289.546875 853.507812 C 291.925781 855.871094 291.871094 859.691406 289.546875 862.054688 L 259.546875 891.800781 Z M 578 901.855469 C 581.21875 902.636719 583.253906 905.964844 582.4375 909.199219 L 582.128906 910.363281 C 581.34375 913.582031 578.035156 915.617188 574.816406 914.800781 L 532.910156 904.582031 L 543.144531 946.507812 C 543.980469 949.746094 541.945312 953.019531 538.65625 953.835938 L 537.492188 954.089844 C 534.273438 954.910156 530.964844 952.890625 530.183594 949.65625 L 520.089844 908.492188 L 490.074219 938.34375 C 487.691406 940.671875 483.890625 940.671875 481.507812 938.289062 L 480.636719 937.4375 C 478.328125 935.054688 478.328125 931.21875 480.691406 928.835938 L 510.636719 899.128906 L 469.65625 889.109375 C 466.417969 888.34375 464.34375 885.074219 465.199219 881.78125 L 465.453125 880.617188 C 466.273438 877.34375 469.601562 875.382812 472.816406 876.164062 L 514.761719 886.398438 L 504.472656 844.472656 C 503.691406 841.273438 505.746094 837.910156 508.980469 837.144531 L 510.144531 836.855469 C 513.417969 836.054688 516.726562 838.054688 517.507812 841.289062 L 527.507812 882.382812 L 557.5625 852.601562 C 559.925781 850.253906 563.78125 850.253906 566.109375 852.65625 L 566.980469 853.507812 C 569.363281 855.871094 569.308594 859.691406 566.980469 862.054688 L 536.980469 891.800781 Z M 685.761719 759 C 688.964844 759.78125 691.019531 763.109375 690.199219 766.34375 L 689.890625 767.507812 C 689.109375 770.726562 685.800781 772.761719 682.582031 771.945312 L 640.671875 761.726562 L 650.910156 803.65625 C 651.746094 806.890625 649.710938 810.164062 646.417969 810.980469 L 645.253906 811.238281 C 642.035156 812.054688 638.726562 810.035156 637.945312 806.800781 L 627.855469 765.636719 L 597.835938 795.492188 C 595.453125 797.816406 591.65625 797.816406 589.273438 795.4375 L 588.398438 794.582031 C 586.089844 792.199219 586.089844 788.363281 588.453125 785.980469 L 618.398438 756.273438 L 577.417969 746.253906 C 574.183594 745.492188 572.109375 742.21875 572.964844 738.925781 L 573.21875 737.761719 C 574.035156 734.492188 577.363281 732.527344 580.582031 733.308594 L 622.527344 743.546875 L 612.238281 701.617188 C 611.453125 698.417969 613.507812 695.054688 616.746094 694.289062 L 617.910156 694 C 621.183594 693.199219 624.492188 695.199219 625.273438 698.4375 L 635.273438 739.527344 L 665.328125 709.746094 C 667.691406 707.398438 671.546875 707.398438 673.871094 709.800781 L 674.746094 710.65625 C 677.128906 713.019531 677.074219 716.835938 674.746094 719.199219 L 644.746094 748.945312 Z M 685.761719 759 "
       id="path1378" />
    <path
       stroke="#000000"
       stroke-width="1.4"
       d="M 6.060098,29.503008 H 45.191953 M 4.560918,24.400898 H 43.518965 M 9.76207,34.605977 H 48.719902 M 6.060098,9.093066 H 45.191953 M 11.689004,19.29793 h 39.13207 M 4.560918,3.990098 H 43.518965 M 10.289941,14.159941 h 38.958047"
       transform="matrix(18.181818,0,0,18.181818,0,-36.363636)"
       id="path1380" />
  </g>
</svg>
