<?xml version="1.0" encoding="UTF-8" standalone="no"?>
<svg
   version="1.1"
   viewBox="-10 0 1000 1000"
   id="svg4"
   width="1000"
   height="1000"
   xmlns="http://www.w3.org/2000/svg"
   xmlns:svg="http://www.w3.org/2000/svg">
  <defs
     id="defs8" />
  <path
     fill="currentColor"
     d="M 990,500 Q 990,707.28643 843.64322,853.64322 697.28643,1000 490,1000 282.71357,1000 136.35678,853.64322 -10,707.28643 -10,500 -10,292.71357 136.35678,146.35678 282.71357,0 490,0 697.28643,0 843.64322,146.35678 990,292.71357 990,500 Z M 807.8392,152.01005 Q 717.38693,69.09548 598.0402,41.45729 654.57286,129.39698 693.51759,229.8995 757.58794,197.23618 807.8392,152.01005 Z M 962.36181,486.1809 Q 956.0804,304.0201 829.19598,172.11055 773.9196,221.10553 703.56784,256.28141 746.28141,378.1407 748.79397,486.1809 Z M 667.13568,242.46231 Q 624.42211,129.39698 557.8392,32.66332 528.94472,28.89447 503.8191,27.63819 V 283.9196 q 79.14572,-3.76885 163.31658,-41.45729 z M 474.92462,283.9196 V 27.63819 q -23.86934,1.25628 -52.76382,5.02513 -66.58291,96.73366 -109.29648,209.79899 84.17086,37.68844 162.0603,41.45729 z M 721.15578,486.1809 Q 717.38693,384.42211 677.18593,268.84422 589.24623,309.04523 503.8191,312.81407 V 486.1809 Z m 241.20603,28.89448 H 748.79397 Q 746.28141,621.8593 703.56784,743.71859 773.9196,778.89447 829.19598,827.88945 956.0804,697.23618 962.36181,515.07538 Z M 381.9598,41.45729 Q 262.61307,69.09548 172.1608,152.01005 222.41206,197.23618 286.48241,229.8995 325.42714,130.65327 381.9598,41.45729 Z M 474.92462,486.1809 V 312.81407 q -84.17085,-3.76884 -172.11055,-43.96985 -40.201,115.57789 -43.96985,217.33668 z m 246.23116,28.89448 H 503.8191 v 172.11055 q 85.42713,3.76884 173.36683,43.96985 40.201,-115.57789 43.96985,-216.0804 z M 807.8392,847.98995 Q 757.58794,802.76382 693.51759,770.1005 654.57286,869.3467 598.0402,958.5427 717.38693,930.9045 807.8392,847.98995 Z M 276.43216,256.28141 Q 206.0804,221.10553 150.80402,172.11055 23.919598,302.76382 17.638191,486.1809 H 231.20603 q 2.51256,-108.0402 45.22613,-229.89949 z M 474.92462,687.18593 V 515.07538 h -216.0804 q 3.76885,100.50251 43.96985,216.0804 87.9397,-40.20101 172.11055,-43.96985 z m 192.21106,70.35176 Q 582.96482,719.84925 503.8191,716.0804 v 256.2814 q 25.12562,-1.2563 54.0201,-5.0251 66.58291,-96.7337 109.29648,-209.79901 z M 474.92462,972.3618 V 716.0804 q -77.88944,3.76885 -162.0603,41.45729 42.71357,113.06531 109.29648,209.79901 28.89448,3.7688 52.76382,5.0251 z M 276.43216,743.71859 Q 233.71859,621.8593 231.20603,515.07538 H 17.638191 Q 23.919598,695.9799 150.80402,827.88945 206.0804,778.89447 276.43216,743.71859 Z M 381.9598,958.5427 q -56.53266,-89.196 -95.47739,-188.4422 -64.07035,32.66332 -114.32161,77.88945 90.45227,82.91455 209.799,110.55275 z"
     id="path2"
     style="stroke-width:1.25628" />
</svg>
