<?xml version="1.0" encoding="UTF-8" standalone="no"?>
<svg
   data-name="Layer 1"
   viewBox="0 0 1000 1000"
   x="0px"
   y="0px"
   version="1.1"
   id="svg12"
   width="1000"
   height="1000"
   xmlns="http://www.w3.org/2000/svg"
   xmlns:svg="http://www.w3.org/2000/svg"
   xmlns:rdf="http://www.w3.org/1999/02/22-rdf-syntax-ns#"
   xmlns:cc="http://creativecommons.org/ns#"
   xmlns:dc="http://purl.org/dc/elements/1.1/">
  <defs
     id="defs16" />
  <title
     id="title2">education</title>
  <path
     d="M 895.31837,1.8499586e-5 C 804.53832,264.39945 11.61761,283.739 193.00585,663.42884 c -27.03372,4.5102 -99.26383,-118.7133 -90.8458,-85.6492 17.48958,68.71426 32.33063,126.04967 69.01433,161.69654 97.28407,-150.53124 226.38674,-351.1554 562.38327,-492.03731 0.13005,-0.0554 -500.13122,269.98208 -635.323709,749.97765 -3.804214,13.50968 70.754239,-30.28075 71.338599,-31.98148 9.07864,-26.42371 46.40284,-135.59525 84.48312,-167.48051 a 313.76467,313.76467 0 0 0 180.39625,9.76557 c 0,0 -123.35144,-33.9526 -120.60982,-41.65084 2.73676,-7.69902 147.23906,46.19338 255.37062,-87.15163 -101.085,11.0538 -145.59869,-41.24229 -142.02524,-51.28399 3.57344,-10.0417 114.15563,75.18528 274.47334,-83.00567 -73.39158,15.63448 -159.83776,-16.74468 -155.68364,-28.41491 4.15082,-11.67169 155.68364,28.41491 282.29834,-128.79524 -88.36308,21.80425 -128.61956,-17.0312 -128.61956,-17.0312 C 957.52374,358.99739 895.31837,1.8499586e-5 895.31837,1.8499586e-5 Z"
     id="path4"
     style="stroke-width:13.1493" />
  <metadata
     id="metadata833">
    <rdf:RDF>
      <cc:Work
         rdf:about="">
        <dc:title>education</dc:title>
      </cc:Work>
    </rdf:RDF>
  </metadata>
</svg>
