<?xml version="1.0" encoding="UTF-8" standalone="no"?>
<svg
   version="1.1"
   viewBox="-10 0 1000 1000"
   id="svg4"
   width="1000"
   height="1000"
   xmlns="http://www.w3.org/2000/svg"
   xmlns:svg="http://www.w3.org/2000/svg">
  <defs
     id="defs8" />
  <path
     fill="currentColor"
     d="m 986.80065,291.04179 q 3.99916,4.999 2.9994,10.9978 l -50.9898,186.96261 q -1.9996,5.9988 -7.9984,7.9984 h -2.9994 q -4.999,0 -7.9984,-2.9994 L 787.84044,362.02759 184.96102,964.90702 q -2.9994,2.9994 -7.4985,2.9994 -4.4991,0 -8.4983,-2.9994 l -63.98721,-63.98721 q -7.998404,-7.9984 0,-15.9968 L 707.85644,282.04359 596.87863,171.06579 q -7.9984,-7.9984 0,-15.99681 L 715.85484,36.09278 q 7.9984,-7.9984 15.9968,0 l 110.9778,110.9778 25.99481,-25.9948 q 7.9984,-7.9984 15.9968,0 l 67.9864,67.98641 q 7.9984,7.9984 0,15.9968 l -25.9948,25.9948 z m -763.84723,84.983 -95.9808,95.98081 q -9.998,9.998 -23.99521,9.998 -13.9972,0 -23.9952,-9.998 L -0.0019932,392.02159 q -9.9980004,-9.998 -9.9980004,-23.9952 0,-13.9972 9.9980004,-22.9954 l 94.9809992,-95.9808 -22.995397,-23.9952 q -3.9992,-2.9994 -3.9992,-7.4985 0,-4.4991 3.9992,-8.4983 l 62.987411,-62.98741 q 7.9984,-7.9984 15.9968,0 l 23.9952,23.99521 94.981,-95.980808 q 9.998,-9.998001 24.4951,-9.998001 14.4971,0 23.4953,9.998001 l 79.98401,79.983998 q 9.998,8.99821 9.998,22.99541 0,13.9972 -9.998,23.9952 l -95.98081,95.9808 166.96661,165.96681 q 2.9994,2.9994 2.9994,7.9984 0,4.999 -2.9994,7.9984 l -63.9872,63.9872 q -2.9994,2.9994 -7.9984,2.9994 -4.999,0 -7.9984,-2.9994 z M 592.87943,608.9782 866.82465,877.92441 q 3.9992,3.9992 3.9992,8.4983 0,4.4991 -3.9992,7.4985 l -62.98741,63.98721 q -3.9992,2.9994 -8.4983,2.9994 -4.4991,0 -7.4985,-2.9994 L 513.89523,688.96221 q -7.9984,-7.9984 0,-15.9968 l 62.9874,-63.98721 q 7.9984,-7.9984 15.9968,0 z"
     id="path2"
     style="stroke-width:0.9998" />
</svg>
