<?xml version="1.0" encoding="UTF-8" standalone="no"?>
<svg
   version="1.1"
   viewBox="-10 0 1000 1000"
   id="svg827"
   width="1000"
   height="1000"
   xmlns="http://www.w3.org/2000/svg"
   xmlns:svg="http://www.w3.org/2000/svg">
  <defs
     id="defs831" />
  <path
     fill="currentColor"
     d="m 489.73162,964.032 v 0 q 107.35373,0 184.38003,-136.06999 77.02625,-136.07086 77.02625,-328.23403 0,-191.62641 -77.02625,-327.96565 Q 597.08535,35.424 489.73162,35.424 298.10521,35.424 161.76597,171.76233 25.42764,308.10157 25.42764,499.72798 q 0,192.16317 136.33833,328.23403 Q 298.10521,964.032 489.73162,964.032 Z m 0,-964.032 Q 695.85078,0 842.9254,147.07461 990,294.14922 990,500.26838 990,706.92432 842.9254,853.46216 695.85078,1000 489.73162,1000 283.07568,1000 136.53784,853.46216 -10,706.92523 -10,500.26838 -10,294.14922 136.53784,147.07461 283.07477,0 489.73162,0 Z"
     id="path825"
     style="stroke-width:0.909777" />
</svg>
