<?xml version="1.0" encoding="UTF-8" standalone="no"?>
<svg
   version="1.1"
   viewBox="-10 0 1000 1000"
   id="svg892"
   width="1000"
   height="1000"
   xmlns="http://www.w3.org/2000/svg"
   xmlns:svg="http://www.w3.org/2000/svg">
  <defs
     id="defs896" />
  <path
     fill="currentColor"
     d="m 490.26838,35.96805 v 0 q -107.89049,0 -184.9168,136.33833 -77.0263,136.33923 -77.0263,327.96564 0,191.62641 77.0263,327.96565 77.02631,136.33833 184.9168,136.33833 190.55288,0 327.16052,-136.33833 136.6067,-136.33924 136.6067,-327.96565 0,-191.62641 -136.6067,-327.96564 Q 680.82126,35.96805 490.26838,35.96805 Z m 0,964.03195 Q 283.61245,1000 136.80623,853.19377 -10,706.38846 -10,500.26838 -10,294.14922 136.80623,147.07461 283.61154,0 490.26838,0 696.38846,0 843.1938,147.07461 990,294.14922 990,500.26838 990,706.38846 843.1938,853.19377 696.38846,1000 490.26838,1000 Z"
     id="path890"
     style="stroke-width:0.909777" />
</svg>
