<?xml version="1.0" encoding="UTF-8" standalone="no"?>
<svg
   width="1000"
   height="1000"
   viewBox="0 0 1000 1000"
   version="1.1"
   id="svg837"
   xmlns="http://www.w3.org/2000/svg"
   xmlns:svg="http://www.w3.org/2000/svg">
  <defs
     id="defs841" />
  <path
     id="path830"
     d="M 562.44531 5.5625 C 495.00781 5.5625 435.44526 38.507812 398.42578 89.019531 C 426.66406 96.34375 453.37109 109.94531 476.66406 129.18359 C 492.51562 123.34375 509.82812 120.32812 527.67969 120.32812 C 551.39062 120.32812 575.77344 125.78126 598.19141 136.10938 C 649.57031 159.85547 684.66406 205.67187 689.78906 255.74609 L 690.53516 262.87109 C 747.77344 277.30859 791.98829 326.80078 796.51562 387.87109 L 796.60938 389.03516 L 797.67969 389.52734 C 846.89844 412.19922 879.31641 460.28906 882.98828 513.76172 C 908.97266 480.36328 924.58984 438.50781 924.58984 392.91016 C 924.57031 297 856.08203 217.14453 765.35547 199.38281 C 760.30078 91.527347 671.53516 5.5625 562.44531 5.5625 z M 349.51758 111.26758 C 324.20666 111.31651 298.43946 117.38232 273.98828 130.58203 C 229.48047 154.60156 199.98828 199.4375 190.0625 249.01953 L 188.11719 258.76172 C 187.97266 259.47266 187.5 260.05469 186.82812 260.30859 L 177.13672 264.14453 C 123.39063 285.47266 82.300781 333.4375 76.445312 390.98047 C 67.953125 474.05469 127.39063 545.28906 205.88281 556.07422 C 206.09766 556.08982 209.11719 556.08982 213.71875 556.07422 C 208.51562 540 205.66406 522.91016 205.66406 505.14453 C 205.66406 437.61719 247.89844 375.50781 310.78906 350.60156 L 311.78906 350.19922 L 312.00781 349.14453 C 328.57031 266.39844 401.77344 206.38281 486.08203 206.38281 C 535.26172 206.38281 582.67969 227.01953 616.15234 263.01953 L 616.98828 263.92578 L 618.15234 263.60156 C 630.89844 260.03516 643.89844 258.21875 656.75391 258.21875 C 658.31641 258.21875 659.80859 258.60158 661.37109 258.67188 C 657.46484 220.34375 629.80859 182.18359 586.22656 162.05469 C 545.82812 143.41797 502.55469 145.30859 471.15234 163.07422 C 468.84375 160.69141 466.58984 158.25391 464.0625 156 C 432.61963 127.81885 391.70245 111.18602 349.51758 111.26758 z M 486.0625 234.92578 C 415.37109 234.92578 353.91797 285.30859 340.00781 354.74609 L 336.77344 371 L 321.31641 377.14453 C 269.22656 397.78125 234.22656 449.21875 234.22656 505.14453 C 234.22656 581.07422 296.04297 642.89062 371.98828 642.89062 L 736.13672 642.89062 C 801.75391 642.89062 855.13672 589.4375 855.13672 523.72656 C 855.13672 477.39844 827.89844 434.92578 785.69922 415.49219 L 769.33594 407.96484 L 768.00781 389.98047 C 763.71875 332.10937 714.84375 286.76172 656.71875 286.76172 C 646.46484 286.76172 636.08203 288.21875 625.84375 291.08984 L 607.89844 296.10938 L 595.22656 282.47266 C 567.13672 252.25391 527.35547 234.92578 486.0625 234.92578 z M 381.20508 693.82812 C 380.7998 693.84375 380.38965 693.8999 379.98047 694 L 378.81641 694.28906 C 375.58203 695.05469 373.52735 698.41797 374.32812 701.61719 L 384.61719 743.54688 L 342.67188 733.30859 C 339.45312 732.52734 336.12891 734.49219 335.30859 737.76172 L 335.05469 738.92578 C 334.19922 742.21875 336.27344 745.49219 339.50781 746.25391 L 380.49219 756.27344 L 350.54688 785.98047 C 348.1836 788.36328 348.18361 792.19922 350.49219 794.58203 L 351.36328 795.4375 C 353.74609 797.81641 357.54687 797.8164 359.92578 795.49219 L 389.94531 765.63672 L 400.03516 806.80078 C 400.81641 810.03516 404.12891 812.05469 407.34375 811.23828 L 408.50781 810.98047 C 411.80078 810.16406 413.83594 806.89062 413 803.65625 L 402.76172 761.72656 L 444.67188 771.94531 C 447.89062 772.76172 451.19922 770.72656 451.98047 767.50781 L 452.28906 766.34375 C 453.08984 763.10937 451.05469 759.78125 447.83594 759 L 406.81641 748.94531 L 436.81641 719.19922 C 439.14453 716.83594 439.19922 713.01953 436.81641 710.65625 L 435.94531 709.80078 C 433.61719 707.39844 429.76172 707.39845 427.39844 709.74609 L 397.34375 739.52734 L 387.34375 698.4375 C 386.66016 695.604 384.04199 693.71875 381.20508 693.82812 z M 674.10938 696.08984 C 674.10938 696.08984 627.01953 719.12891 607.41797 757.21875 C 584.32812 802.03516 639.21875 832.41797 663.27344 785.98047 C 682.28906 749.10937 674.10938 696.08984 674.10938 696.08984 z " />
</svg>
