<?xml version="1.0" encoding="UTF-8"?>
<svg xmlns="http://www.w3.org/2000/svg" xmlns:xlink="http://www.w3.org/1999/xlink" width="1000" height="1000" viewBox="0 0 1000 1000" version="1.1">
<g id="surface1">
<path d="M 785.699219 415.492188 C 827.898438 434.925781 855.136719 477.398438 855.136719 523.726562 C 855.136719 589.4375 801.753906 642.890625 736.136719 642.890625 L 371.988281 642.890625 C 296.042969 642.890625 234.226562 581.074219 234.226562 505.144531 C 234.226562 449.21875 269.226562 397.78125 321.316406 377.144531 L 336.773438 371 L 340.007812 354.746094 C 353.917969 285.308594 415.371094 234.925781 486.0625 234.925781 C 527.355469 234.925781 567.136719 252.253906 595.226562 282.472656 L 607.898438 296.109375 L 625.84375 291.089844 C 636.082031 288.21875 646.464844 286.761719 656.71875 286.761719 C 714.84375 286.761719 763.71875 332.109375 768.007812 389.980469 L 769.335938 407.964844 Z M 765.355469 199.382812 C 856.082031 217.144531 924.570312 297 924.589844 392.910156 C 924.589844 438.507812 908.972656 480.363281 882.988281 513.761719 C 879.316406 460.289062 846.898438 412.199219 797.679688 389.527344 L 796.609375 389.035156 L 796.515625 387.871094 C 791.988281 326.800781 747.773438 277.308594 690.535156 262.871094 L 689.789062 255.746094 C 684.664062 205.671875 649.570312 159.855469 598.191406 136.109375 C 575.773438 125.78125 551.390625 120.328125 527.679688 120.328125 C 509.828125 120.328125 492.515625 123.34375 476.664062 129.183594 C 453.371094 109.945312 426.664062 96.34375 398.425781 89.019531 C 435.445312 38.507812 495.007812 5.5625 562.445312 5.5625 C 671.535156 5.5625 760.300781 91.527344 765.355469 199.382812 Z M 205.664062 505.144531 C 205.664062 522.910156 208.515625 540 213.71875 556.074219 C 209.117188 556.089844 206.097656 556.089844 205.882812 556.074219 C 127.390625 545.289062 67.953125 474.054688 76.445312 390.980469 C 82.300781 333.4375 123.390625 285.472656 177.136719 264.144531 L 186.828125 260.308594 C 187.5 260.054688 187.972656 259.472656 188.117188 258.761719 L 190.0625 249.019531 C 199.988281 199.4375 229.480469 154.601562 273.988281 130.582031 C 339.191406 95.382812 413.753906 110.910156 464.0625 156 C 466.589844 158.253906 468.84375 160.691406 471.152344 163.074219 C 502.554688 145.308594 545.828125 143.417969 586.226562 162.054688 C 629.808594 182.183594 657.464844 220.34375 661.371094 258.671875 C 659.808594 258.601562 658.316406 258.21875 656.753906 258.21875 C 643.898438 258.21875 630.898438 260.035156 618.152344 263.601562 L 616.988281 263.925781 L 616.152344 263.019531 C 582.679688 227.019531 535.261719 206.382812 486.082031 206.382812 C 401.773438 206.382812 328.570312 266.398438 312.007812 349.144531 L 311.789062 350.199219 L 310.789062 350.601562 C 247.898438 375.507812 205.664062 437.617188 205.664062 505.144531 Z M 205.664062 505.144531 "/>
<path d="M 329.183594 785.980469 C 305.128906 832.417969 250.238281 802.035156 273.328125 757.21875 C 292.925781 719.128906 340.019531 696.089844 340.019531 696.089844 C 340.019531 696.089844 348.199219 749.109375 329.183594 785.980469 Z M 366.164062 928 C 342.109375 974.4375 287.21875 944.054688 310.308594 899.238281 C 329.910156 861.144531 377 838.109375 377 838.109375 C 377 838.109375 385.183594 891.109375 366.164062 928 Z M 747.835938 785.980469 C 723.78125 832.417969 668.890625 802.035156 691.980469 757.21875 C 711.582031 719.128906 758.671875 696.089844 758.671875 696.089844 C 758.671875 696.089844 766.855469 749.109375 747.835938 785.980469 Z M 747.835938 785.980469 "/>
<path d="M 582.492188 753.910156 L 531.308594 753.128906 L 573.273438 679.726562 L 508.492188 680.273438 L 453.527344 789.78125 L 501.382812 789.78125 L 434.183594 955.761719 Z M 582.492188 753.910156 "/>
<path d="M 240.855469 901 C 244.074219 901.78125 246.128906 905.128906 245.308594 908.34375 L 245 909.507812 C 244.21875 912.726562 240.910156 914.761719 237.691406 913.945312 L 195.78125 903.726562 L 206.019531 945.65625 C 206.835938 948.890625 204.800781 952.164062 201.507812 952.980469 L 200.34375 953.238281 C 197.128906 954.054688 193.816406 952.035156 193.035156 948.800781 L 182.945312 907.636719 L 152.925781 937.492188 C 150.546875 939.816406 146.746094 939.816406 144.363281 937.4375 L 143.492188 936.582031 C 141.183594 934.199219 141.183594 930.363281 143.546875 927.980469 L 173.492188 898.273438 L 132.507812 888.253906 C 129.273438 887.492188 127.199219 884.21875 128.054688 880.925781 L 128.308594 879.761719 C 129.128906 876.492188 132.453125 874.527344 135.671875 875.308594 L 177.617188 885.546875 L 167.328125 843.617188 C 166.546875 840.417969 168.601562 837.054688 171.835938 836.289062 L 173 836 C 176.273438 835.199219 179.582031 837.199219 180.363281 840.4375 L 190.363281 881.527344 L 220.417969 851.746094 C 222.78125 849.398438 226.636719 849.398438 228.964844 851.800781 L 229.835938 852.65625 C 232.21875 855.019531 232.164062 858.835938 229.835938 861.199219 L 199.835938 890.945312 Z M 673.617188 901 C 676.835938 901.78125 678.871094 905.128906 678.054688 908.34375 L 677.746094 909.507812 C 676.964844 912.726562 673.65625 914.761719 670.4375 913.945312 L 628.527344 903.726562 L 638.761719 945.65625 C 639.601562 948.890625 637.5625 952.164062 634.273438 952.980469 L 633.109375 953.238281 C 629.890625 954.054688 626.582031 952.035156 625.800781 948.800781 L 615.710938 907.636719 L 585.691406 937.492188 C 583.308594 939.816406 579.507812 939.816406 577.128906 937.4375 L 576.253906 936.582031 C 573.945312 934.199219 573.945312 930.363281 576.308594 927.980469 L 606.253906 898.273438 L 565.273438 888.253906 C 562.035156 887.492188 559.964844 884.21875 560.816406 880.925781 L 561.074219 879.761719 C 561.890625 876.492188 565.21875 874.527344 568.4375 875.308594 L 610.382812 885.546875 L 600.089844 843.617188 C 599.308594 840.417969 601.363281 837.054688 604.601562 836.289062 L 605.761719 836 C 609.035156 835.199219 612.34375 837.199219 613.128906 840.4375 L 623.128906 881.527344 L 653.183594 851.746094 C 655.546875 849.398438 659.398438 849.398438 661.726562 851.800781 L 662.601562 852.65625 C 664.980469 855.019531 664.925781 858.835938 662.601562 861.199219 L 632.601562 890.945312 Z M 828.238281 901 C 831.453125 901.78125 833.507812 905.128906 832.65625 908.398438 L 832.34375 909.5625 C 831.5625 912.78125 828.253906 914.816406 825.035156 914 L 783.128906 903.78125 L 793.363281 945.710938 C 794.199219 948.945312 792.164062 952.21875 788.871094 953.035156 L 787.710938 953.289062 C 784.492188 954.109375 781.183594 952.089844 780.398438 948.855469 L 770.308594 907.691406 L 740.289062 937.546875 C 737.910156 939.871094 734.109375 939.871094 731.726562 937.492188 L 730.855469 936.636719 C 728.546875 934.253906 728.546875 930.417969 730.910156 928.035156 L 760.871094 898.273438 L 719.890625 888.253906 C 716.65625 887.492188 714.582031 884.21875 715.4375 880.925781 L 715.691406 879.761719 C 716.507812 876.492188 719.835938 874.527344 723.054688 875.308594 L 765 885.546875 L 754.710938 843.617188 C 753.925781 840.417969 755.980469 837.054688 759.21875 836.289062 L 760.382812 836 C 763.65625 835.199219 766.964844 837.199219 767.746094 840.4375 L 777.746094 881.527344 L 807.800781 851.746094 C 810.164062 849.398438 814.019531 849.398438 816.34375 851.800781 L 817.21875 852.65625 C 819.601562 855.019531 819.546875 858.835938 817.21875 861.199219 L 787.21875 890.945312 Z M 828.238281 901 "/>
</g>
</svg>
