<?xml version="1.0" encoding="UTF-8" standalone="no"?>
<svg
   width="1000"
   height="1000"
   viewBox="0 0 1000 1000"
   version="1.1"
   id="svg979"
   xmlns="http://www.w3.org/2000/svg"
   xmlns:svg="http://www.w3.org/2000/svg">
  <defs
     id="defs983" />
  <path
     id="path972"
     d="M 562.44531 5.5625 C 495.00781 5.5625 435.44526 38.507812 398.42578 89.019531 C 426.66406 96.34375 453.37109 109.94531 476.66406 129.18359 C 492.51562 123.34375 509.82812 120.32812 527.67969 120.32812 C 551.39062 120.32812 575.77344 125.78126 598.19141 136.10938 C 649.57031 159.85547 684.66406 205.67187 689.78906 255.74609 L 690.53516 262.87109 C 747.77344 277.30859 791.98829 326.80078 796.51562 387.87109 L 796.60938 389.03516 L 797.67969 389.52734 C 846.89844 412.19922 879.31641 460.28906 882.98828 513.76172 C 908.97266 480.36328 924.58984 438.50781 924.58984 392.91016 C 924.57031 297 856.08203 217.14453 765.35547 199.38281 C 760.30078 91.527347 671.53516 5.5625 562.44531 5.5625 z M 349.51758 111.26758 C 324.20666 111.31651 298.43946 117.38232 273.98828 130.58203 C 229.48047 154.60156 199.98828 199.4375 190.0625 249.01953 L 188.11719 258.76172 C 187.97266 259.47266 187.5 260.05469 186.82812 260.30859 L 177.13672 264.14453 C 123.39063 285.47266 82.300781 333.4375 76.445312 390.98047 C 67.953125 474.05469 127.39063 545.28906 205.88281 556.07422 C 206.09766 556.08982 209.11719 556.08982 213.71875 556.07422 C 208.51562 540 205.66406 522.91016 205.66406 505.14453 C 205.66406 437.61719 247.89844 375.50781 310.78906 350.60156 L 311.78906 350.19922 L 312.00781 349.14453 C 328.57031 266.39844 401.77344 206.38281 486.08203 206.38281 C 535.26172 206.38281 582.67969 227.01953 616.15234 263.01953 L 616.98828 263.92578 L 618.15234 263.60156 C 630.89844 260.03516 643.89844 258.21875 656.75391 258.21875 C 658.31641 258.21875 659.80859 258.60158 661.37109 258.67188 C 657.46484 220.34375 629.80859 182.18359 586.22656 162.05469 C 545.82812 143.41797 502.55469 145.30859 471.15234 163.07422 C 468.84375 160.69141 466.58984 158.25391 464.0625 156 C 432.61963 127.81885 391.70245 111.18602 349.51758 111.26758 z M 486.0625 234.92578 C 415.37109 234.92578 353.91797 285.30859 340.00781 354.74609 L 336.77344 371 L 321.31641 377.14453 C 269.22656 397.78125 234.22656 449.21875 234.22656 505.14453 C 234.22656 581.07422 296.04297 642.89062 371.98828 642.89062 L 736.13672 642.89062 C 801.75391 642.89062 855.13672 589.4375 855.13672 523.72656 C 855.13672 477.39844 827.89844 434.92578 785.69922 415.49219 L 769.33594 407.96484 L 768.00781 389.98047 C 763.71875 332.10937 714.84375 286.76172 656.71875 286.76172 C 646.46484 286.76172 636.08203 288.21875 625.84375 291.08984 L 607.89844 296.10938 L 595.22656 282.47266 C 567.13672 252.25391 527.35547 234.92578 486.0625 234.92578 z M 652.09375 693.90039 C 651.31103 693.7749 650.49023 693.7998 649.67188 694 L 648.50781 694.28906 C 645.27344 695.05469 643.21875 698.41797 644 701.61719 L 654.28906 743.54688 L 612.34375 733.30859 C 609.12891 732.52734 605.80078 734.49219 604.98047 737.76172 L 604.72656 738.92578 C 603.87109 742.21875 605.94531 745.49219 609.18359 746.25391 L 650.16406 756.27344 L 620.21875 785.98047 C 617.85547 788.36328 617.85548 792.19922 620.16406 794.58203 L 621.03516 795.4375 C 623.41797 797.81641 627.21875 797.8164 629.60156 795.49219 L 659.61719 765.63672 L 669.71094 806.80078 C 670.49219 810.03516 673.80078 812.05469 677.01953 811.23828 L 678.18359 810.98047 C 681.47266 810.16406 683.50781 806.89062 682.67188 803.65625 L 672.4375 761.72656 L 714.34375 771.94531 C 717.5625 772.76172 720.87109 770.72656 721.65625 767.50781 L 721.96484 766.34375 C 722.78125 763.10937 720.74609 759.78125 717.52734 759 L 676.50781 748.94531 L 706.50781 719.19922 C 708.83594 716.83594 708.89062 713.01953 706.50781 710.65625 L 705.63672 709.80078 C 703.30859 707.39844 699.45312 707.39845 697.08984 709.74609 L 667.03516 739.52734 L 657.03516 698.4375 C 656.44922 696.00879 654.4419 694.27686 652.09375 693.90039 z M 421.34375 696.08984 C 421.34375 696.08984 374.25391 719.12891 354.65625 757.21875 C 331.5625 802.03516 386.45312 832.41797 410.50781 785.98047 C 429.52734 749.10937 421.34375 696.08984 421.34375 696.08984 z M 281.91211 836.75586 C 281.12958 836.63043 280.30957 836.65527 279.49219 836.85547 L 278.32812 837.14453 C 275.08985 837.91016 273.03516 841.27344 273.81641 844.47266 L 284.10938 886.39844 L 242.16406 876.16406 C 238.94531 875.38281 235.61719 877.34375 234.80078 880.61719 L 234.54688 881.78125 C 233.69142 885.07422 235.76172 888.34375 239 889.10938 L 279.98047 899.12891 L 250.03516 928.83594 C 247.67187 931.21875 247.67188 935.05469 249.98047 937.4375 L 250.85547 938.28906 C 253.23828 940.67187 257.03516 940.67186 259.41797 938.34375 L 289.4375 908.49219 L 299.52734 949.65625 C 300.30859 952.89062 303.61719 954.91016 306.83594 954.08984 L 308 953.83594 C 311.28906 953.01953 313.32812 949.74609 312.49219 946.50781 L 302.25391 904.58203 L 344.16406 914.80078 C 347.38281 915.61719 350.69141 913.58203 351.47266 910.36328 L 351.78125 909.19922 C 352.60156 905.96484 350.5625 902.63672 347.34375 901.85547 L 306.32812 891.80078 L 336.32812 862.05469 C 338.65625 859.69141 338.71094 855.87109 336.32812 853.50781 L 335.45312 852.65625 C 333.12892 850.25391 329.27344 850.25392 326.91016 852.60156 L 296.85547 882.38281 L 286.85547 841.28906 C 286.26953 838.86329 284.2597 837.13214 281.91211 836.75586 z M 575.80078 838.94531 C 575.80078 838.94531 528.71095 861.98047 509.10938 900.07422 C 486.01953 944.89062 540.91016 975.27344 564.96484 928.83594 C 583.98047 891.96484 575.80078 838.94531 575.80078 838.94531 z " />
</svg>
