<?xml version="1.0" encoding="UTF-8"?>
<svg xmlns="http://www.w3.org/2000/svg" xmlns:xlink="http://www.w3.org/1999/xlink" width="1000" height="1000" viewBox="0 0 1000 1000" version="1.1">
<g id="surface1">
<path d="M 785.699219 415.492188 C 827.898438 434.925781 855.136719 477.398438 855.136719 523.726562 C 855.136719 589.4375 801.753906 642.890625 736.136719 642.890625 L 371.988281 642.890625 C 296.042969 642.890625 234.226562 581.074219 234.226562 505.144531 C 234.226562 449.21875 269.226562 397.78125 321.316406 377.144531 L 336.773438 371 L 340.007812 354.746094 C 353.917969 285.308594 415.371094 234.925781 486.0625 234.925781 C 527.355469 234.925781 567.136719 252.253906 595.226562 282.472656 L 607.898438 296.109375 L 625.84375 291.089844 C 636.082031 288.21875 646.464844 286.761719 656.71875 286.761719 C 714.84375 286.761719 763.71875 332.109375 768.007812 389.980469 L 769.335938 407.964844 Z M 765.355469 199.382812 C 856.082031 217.144531 924.570312 297 924.589844 392.910156 C 924.589844 438.507812 908.972656 480.363281 882.988281 513.761719 C 879.316406 460.289062 846.898438 412.199219 797.679688 389.527344 L 796.609375 389.035156 L 796.515625 387.871094 C 791.988281 326.800781 747.773438 277.308594 690.535156 262.871094 L 689.789062 255.746094 C 684.664062 205.671875 649.570312 159.855469 598.191406 136.109375 C 575.773438 125.78125 551.390625 120.328125 527.679688 120.328125 C 509.828125 120.328125 492.515625 123.34375 476.664062 129.183594 C 453.371094 109.945312 426.664062 96.34375 398.425781 89.019531 C 435.445312 38.507812 495.007812 5.5625 562.445312 5.5625 C 671.535156 5.5625 760.300781 91.527344 765.355469 199.382812 Z M 205.664062 505.144531 C 205.664062 522.910156 208.515625 540 213.71875 556.074219 C 209.117188 556.089844 206.097656 556.089844 205.882812 556.074219 C 127.390625 545.289062 67.953125 474.054688 76.445312 390.980469 C 82.300781 333.4375 123.390625 285.472656 177.136719 264.144531 L 186.828125 260.308594 C 187.5 260.054688 187.972656 259.472656 188.117188 258.761719 L 190.0625 249.019531 C 199.988281 199.4375 229.480469 154.601562 273.988281 130.582031 C 339.191406 95.382812 413.753906 110.910156 464.0625 156 C 466.589844 158.253906 468.84375 160.691406 471.152344 163.074219 C 502.554688 145.308594 545.828125 143.417969 586.226562 162.054688 C 629.808594 182.183594 657.464844 220.34375 661.371094 258.671875 C 659.808594 258.601562 658.316406 258.21875 656.753906 258.21875 C 643.898438 258.21875 630.898438 260.035156 618.152344 263.601562 L 616.988281 263.925781 L 616.152344 263.019531 C 582.679688 227.019531 535.261719 206.382812 486.082031 206.382812 C 401.773438 206.382812 328.570312 266.398438 312.007812 349.144531 L 311.789062 350.199219 L 310.789062 350.601562 C 247.898438 375.507812 205.664062 437.617188 205.664062 505.144531 Z M 205.664062 505.144531 "/>
<path d="M 582.492188 753.910156 L 531.308594 753.128906 L 573.273438 679.726562 L 508.492188 680.273438 L 453.527344 789.78125 L 501.382812 789.78125 L 434.183594 955.761719 Z M 582.492188 753.910156 "/>
<path d="M 372.164062 924.328125 C 348.109375 970.761719 293.21875 940.382812 316.308594 895.5625 C 335.910156 857.472656 383 834.4375 383 834.4375 C 383 834.4375 391.183594 887.4375 372.164062 924.328125 Z M 611.761719 924.328125 C 587.710938 970.761719 532.816406 940.382812 555.910156 895.5625 C 575.507812 857.472656 622.601562 834.4375 622.601562 834.4375 C 622.601562 834.4375 630.78125 887.4375 611.761719 924.328125 Z M 730.328125 785.980469 C 706.273438 832.417969 651.382812 802.035156 674.472656 757.21875 C 694.074219 719.128906 741.164062 696.089844 741.164062 696.089844 C 741.164062 696.089844 749.34375 749.109375 730.328125 785.980469 Z M 755.199219 924.328125 C 731.144531 970.761719 676.253906 940.382812 699.34375 895.5625 C 718.945312 857.472656 766.035156 834.4375 766.035156 834.4375 C 766.035156 834.4375 774.21875 887.4375 755.199219 924.328125 Z M 229.308594 924.328125 C 205.253906 970.761719 150.363281 940.382812 173.453125 895.5625 C 193.054688 857.472656 240.144531 834.4375 240.144531 834.4375 C 240.144531 834.4375 248.328125 887.4375 229.308594 924.328125 Z M 359.289062 785.980469 C 335.238281 832.417969 280.34375 802.035156 303.4375 757.21875 C 323.035156 719.128906 370.128906 696.089844 370.128906 696.089844 C 370.128906 696.089844 378.308594 749.109375 359.289062 785.980469 Z M 359.289062 785.980469 "/>
</g>
</svg>
