<?xml version="1.0" encoding="UTF-8"?>
<svg xmlns="http://www.w3.org/2000/svg" xmlns:xlink="http://www.w3.org/1999/xlink" width="1000" height="1000" viewBox="0 0 1000 1000" version="1.1">
<g id="surface1">
<path d="M 785.699219 415.492188 C 827.898438 434.925781 855.136719 477.398438 855.136719 523.726562 C 855.136719 589.4375 801.753906 642.890625 736.136719 642.890625 L 371.988281 642.890625 C 296.042969 642.890625 234.226562 581.074219 234.226562 505.144531 C 234.226562 449.21875 269.226562 397.78125 321.316406 377.144531 L 336.773438 371 L 340.007812 354.746094 C 353.917969 285.308594 415.371094 234.925781 486.0625 234.925781 C 527.355469 234.925781 567.136719 252.253906 595.226562 282.472656 L 607.898438 296.109375 L 625.84375 291.089844 C 636.082031 288.21875 646.464844 286.761719 656.71875 286.761719 C 714.84375 286.761719 763.71875 332.109375 768.007812 389.980469 L 769.335938 407.964844 Z M 765.355469 199.382812 C 856.082031 217.144531 924.570312 297 924.589844 392.910156 C 924.589844 438.507812 908.972656 480.363281 882.988281 513.761719 C 879.316406 460.289062 846.898438 412.199219 797.679688 389.527344 L 796.609375 389.035156 L 796.515625 387.871094 C 791.988281 326.800781 747.773438 277.308594 690.535156 262.871094 L 689.789062 255.746094 C 684.664062 205.671875 649.570312 159.855469 598.191406 136.109375 C 575.773438 125.78125 551.390625 120.328125 527.679688 120.328125 C 509.828125 120.328125 492.515625 123.34375 476.664062 129.183594 C 453.371094 109.945312 426.664062 96.34375 398.425781 89.019531 C 435.445312 38.507812 495.007812 5.5625 562.445312 5.5625 C 671.535156 5.5625 760.300781 91.527344 765.355469 199.382812 Z M 205.664062 505.144531 C 205.664062 522.910156 208.515625 540 213.71875 556.074219 C 209.117188 556.089844 206.097656 556.089844 205.882812 556.074219 C 127.390625 545.289062 67.953125 474.054688 76.445312 390.980469 C 82.300781 333.4375 123.390625 285.472656 177.136719 264.144531 L 186.828125 260.308594 C 187.5 260.054688 187.972656 259.472656 188.117188 258.761719 L 190.0625 249.019531 C 199.988281 199.4375 229.480469 154.601562 273.988281 130.582031 C 339.191406 95.382812 413.753906 110.910156 464.0625 156 C 466.589844 158.253906 468.84375 160.691406 471.152344 163.074219 C 502.554688 145.308594 545.828125 143.417969 586.226562 162.054688 C 629.808594 182.183594 657.464844 220.34375 661.371094 258.671875 C 659.808594 258.601562 658.316406 258.21875 656.753906 258.21875 C 643.898438 258.21875 630.898438 260.035156 618.152344 263.601562 L 616.988281 263.925781 L 616.152344 263.019531 C 582.679688 227.019531 535.261719 206.382812 486.082031 206.382812 C 401.773438 206.382812 328.570312 266.398438 312.007812 349.144531 L 311.789062 350.199219 L 310.789062 350.601562 C 247.898438 375.507812 205.664062 437.617188 205.664062 505.144531 Z M 205.664062 505.144531 "/>
<path d="M 582.492188 753.910156 L 531.308594 753.128906 L 573.273438 679.726562 L 508.492188 680.273438 L 453.527344 789.78125 L 501.382812 789.78125 L 434.183594 955.761719 Z M 582.492188 753.910156 "/>
<path d="M 372.019531 785.980469 C 347.964844 832.417969 293.074219 802.035156 316.164062 757.21875 C 335.761719 719.128906 382.855469 696.089844 382.855469 696.089844 C 382.855469 696.089844 391.035156 749.109375 372.019531 785.980469 Z M 671.472656 928.835938 C 647.417969 975.273438 592.527344 944.890625 615.617188 900.074219 C 635.21875 861.980469 682.308594 838.945312 682.308594 838.945312 C 682.308594 838.945312 690.492188 891.964844 671.472656 928.835938 Z M 671.472656 928.835938 "/>
<path d="M 383.199219 901.855469 C 386.417969 902.636719 388.472656 905.964844 387.65625 909.199219 L 387.34375 910.363281 C 386.5625 913.582031 383.253906 915.617188 380.035156 914.800781 L 338.128906 904.582031 L 348.363281 946.507812 C 349.199219 949.746094 347.164062 953.019531 343.871094 953.835938 L 342.710938 954.089844 C 339.492188 954.910156 336.183594 952.890625 335.398438 949.65625 L 325.308594 908.492188 L 295.289062 938.34375 C 292.910156 940.671875 289.109375 940.671875 286.726562 938.289062 L 285.855469 937.4375 C 283.546875 935.054688 283.546875 931.21875 285.910156 928.835938 L 315.855469 899.128906 L 274.871094 889.109375 C 271.636719 888.34375 269.5625 885.074219 270.417969 881.78125 L 270.671875 880.617188 C 271.492188 877.34375 274.816406 875.382812 278.035156 876.164062 L 319.980469 886.398438 L 309.691406 844.472656 C 308.890625 841.273438 310.945312 837.910156 314.183594 837.144531 L 315.34375 836.855469 C 318.617188 836.054688 321.925781 838.054688 322.710938 841.289062 L 332.710938 882.382812 L 362.761719 852.601562 C 365.128906 850.253906 368.980469 850.253906 371.308594 852.65625 L 372.183594 853.507812 C 374.5625 855.871094 374.507812 859.691406 372.183594 862.054688 L 342.183594 891.800781 Z M 751.089844 759 C 754.308594 759.78125 756.34375 763.109375 755.546875 766.34375 L 755.238281 767.507812 C 754.453125 770.726562 751.144531 772.761719 747.925781 771.945312 L 706.019531 761.726562 L 716.253906 803.65625 C 717.074219 806.890625 715.035156 810.164062 711.746094 810.980469 L 710.582031 811.238281 C 707.363281 812.054688 704.054688 810.035156 703.273438 806.800781 L 693.183594 765.636719 L 663.164062 795.492188 C 660.78125 797.816406 656.980469 797.816406 654.601562 795.4375 L 653.726562 794.582031 C 651.417969 792.199219 651.417969 788.363281 653.78125 785.980469 L 683.726562 756.273438 L 642.746094 746.253906 C 639.507812 745.492188 637.4375 742.21875 638.289062 738.925781 L 638.546875 737.761719 C 639.363281 734.492188 642.691406 732.527344 645.910156 733.308594 L 687.855469 743.546875 L 677.5625 701.617188 C 676.78125 698.417969 678.835938 695.054688 682.074219 694.289062 L 683.238281 694 C 686.507812 693.199219 689.816406 695.199219 690.601562 698.4375 L 700.601562 739.527344 L 730.65625 709.746094 C 733.019531 707.398438 736.871094 707.398438 739.199219 709.800781 L 740.074219 710.65625 C 742.453125 713.019531 742.398438 716.835938 740.074219 719.199219 L 710.074219 748.945312 Z M 751.089844 759 "/>
</g>
</svg>
