<?xml version="1.0" encoding="UTF-8"?>
<svg xmlns="http://www.w3.org/2000/svg" xmlns:xlink="http://www.w3.org/1999/xlink" width="1000" height="1000" viewBox="0 0 1000 1000" version="1.1">
<g id="surface1">
<path d="M 785.699219 415.492188 C 827.898438 434.925781 855.136719 477.398438 855.136719 523.726562 C 855.136719 589.4375 801.753906 642.890625 736.136719 642.890625 L 371.988281 642.890625 C 296.042969 642.890625 234.226562 581.074219 234.226562 505.144531 C 234.226562 449.21875 269.226562 397.78125 321.316406 377.144531 L 336.773438 371 L 340.007812 354.746094 C 353.917969 285.308594 415.371094 234.925781 486.0625 234.925781 C 527.355469 234.925781 567.136719 252.253906 595.226562 282.472656 L 607.898438 296.109375 L 625.84375 291.089844 C 636.082031 288.21875 646.464844 286.761719 656.71875 286.761719 C 714.84375 286.761719 763.71875 332.109375 768.007812 389.980469 L 769.335938 407.964844 Z M 765.355469 199.382812 C 856.082031 217.144531 924.570312 297 924.589844 392.910156 C 924.589844 438.507812 908.972656 480.363281 882.988281 513.761719 C 879.316406 460.289062 846.898438 412.199219 797.679688 389.527344 L 796.609375 389.035156 L 796.515625 387.871094 C 791.988281 326.800781 747.773438 277.308594 690.535156 262.871094 L 689.789062 255.746094 C 684.664062 205.671875 649.570312 159.855469 598.191406 136.109375 C 575.773438 125.78125 551.390625 120.328125 527.679688 120.328125 C 509.828125 120.328125 492.515625 123.34375 476.664062 129.183594 C 453.371094 109.945312 426.664062 96.34375 398.425781 89.019531 C 435.445312 38.507812 495.007812 5.5625 562.445312 5.5625 C 671.535156 5.5625 760.300781 91.527344 765.355469 199.382812 Z M 205.664062 505.144531 C 205.664062 522.910156 208.515625 540 213.71875 556.074219 C 209.117188 556.089844 206.097656 556.089844 205.882812 556.074219 C 127.390625 545.289062 67.953125 474.054688 76.445312 390.980469 C 82.300781 333.4375 123.390625 285.472656 177.136719 264.144531 L 186.828125 260.308594 C 187.5 260.054688 187.972656 259.472656 188.117188 258.761719 L 190.0625 249.019531 C 199.988281 199.4375 229.480469 154.601562 273.988281 130.582031 C 339.191406 95.382812 413.753906 110.910156 464.0625 156 C 466.589844 158.253906 468.84375 160.691406 471.152344 163.074219 C 502.554688 145.308594 545.828125 143.417969 586.226562 162.054688 C 629.808594 182.183594 657.464844 220.34375 661.371094 258.671875 C 659.808594 258.601562 658.316406 258.21875 656.753906 258.21875 C 643.898438 258.21875 630.898438 260.035156 618.152344 263.601562 L 616.988281 263.925781 L 616.152344 263.019531 C 582.679688 227.019531 535.261719 206.382812 486.082031 206.382812 C 401.773438 206.382812 328.570312 266.398438 312.007812 349.144531 L 311.789062 350.199219 L 310.789062 350.601562 C 247.898438 375.507812 205.664062 437.617188 205.664062 505.144531 Z M 205.664062 505.144531 "/>
<path d="M 402.726562 759 C 405.925781 759.78125 407.980469 763.109375 407.183594 766.34375 L 406.871094 767.507812 C 406.089844 770.726562 402.78125 772.761719 399.5625 771.945312 L 357.65625 761.726562 L 367.890625 803.65625 C 368.726562 806.890625 366.691406 810.164062 363.398438 810.980469 L 362.238281 811.238281 C 359.019531 812.054688 355.710938 810.035156 354.925781 806.800781 L 344.835938 765.636719 L 314.816406 795.492188 C 312.4375 797.816406 308.636719 797.816406 306.253906 795.4375 L 305.382812 794.582031 C 303.074219 792.199219 303.074219 788.363281 305.4375 785.980469 L 335.382812 756.273438 L 294.398438 746.253906 C 291.164062 745.492188 289.089844 742.21875 289.945312 738.925781 L 290.199219 737.761719 C 291.019531 734.492188 294.34375 732.527344 297.5625 733.308594 L 339.507812 743.546875 L 329.21875 701.617188 C 328.417969 698.417969 330.472656 695.054688 333.710938 694.289062 L 334.871094 694 C 338.144531 693.199219 341.453125 695.199219 342.238281 698.4375 L 352.238281 739.527344 L 382.289062 709.746094 C 384.65625 707.398438 388.507812 707.398438 390.835938 709.800781 L 391.710938 710.65625 C 394.089844 713.019531 394.035156 716.835938 391.710938 719.199219 L 361.710938 748.945312 Z M 239.199219 901.855469 C 242.417969 902.636719 244.472656 905.964844 243.636719 909.21875 L 243.328125 910.382812 C 242.546875 913.601562 239.238281 915.636719 236.019531 914.816406 L 194.109375 904.601562 L 204.34375 946.527344 C 205.183594 949.761719 203.144531 953.035156 199.855469 953.855469 L 198.691406 954.109375 C 195.472656 954.925781 192.164062 952.910156 191.382812 949.671875 L 181.289062 908.507812 L 151.273438 938.363281 C 148.890625 940.691406 145.089844 940.691406 142.710938 938.308594 L 141.835938 937.453125 C 139.527344 935.074219 139.527344 931.238281 141.890625 928.855469 L 171.835938 899.144531 L 130.855469 889.128906 C 127.617188 888.363281 125.546875 885.089844 126.398438 881.800781 L 126.65625 880.636719 C 127.472656 877.363281 130.800781 875.398438 134.019531 876.183594 L 175.964844 886.417969 L 165.671875 844.492188 C 164.890625 841.289062 166.945312 837.925781 170.183594 837.164062 L 171.34375 836.855469 C 174.617188 836.054688 177.925781 838.054688 178.710938 841.289062 L 188.710938 882.382812 L 218.761719 852.601562 C 221.128906 850.253906 224.980469 850.253906 227.308594 852.65625 L 228.183594 853.507812 C 230.5625 855.871094 230.507812 859.691406 228.183594 862.054688 L 198.183594 891.800781 Z M 400.128906 901.855469 C 403.34375 902.636719 405.382812 905.964844 404.582031 909.199219 L 404.273438 910.363281 C 403.492188 913.582031 400.183594 915.617188 396.964844 914.800781 L 355.054688 904.582031 L 365.289062 946.507812 C 366.128906 949.746094 364.089844 953.019531 360.800781 953.835938 L 359.636719 954.089844 C 356.417969 954.910156 353.109375 952.890625 352.328125 949.65625 L 342.238281 908.492188 L 312.21875 938.34375 C 309.835938 940.671875 306.035156 940.671875 303.65625 938.289062 L 302.78125 937.4375 C 300.472656 935.054688 300.472656 931.21875 302.835938 928.835938 L 332.78125 899.128906 L 291.800781 889.109375 C 288.5625 888.34375 286.492188 885.074219 287.34375 881.78125 L 287.601562 880.617188 C 288.417969 877.34375 291.746094 875.382812 294.964844 876.164062 L 336.910156 886.398438 L 326.617188 844.472656 C 325.816406 841.273438 327.871094 837.910156 331.109375 837.144531 L 332.273438 836.855469 C 335.546875 836.054688 338.855469 838.054688 339.636719 841.289062 L 349.636719 882.382812 L 379.691406 852.601562 C 382.054688 850.253906 385.910156 850.253906 388.238281 852.65625 L 389.109375 853.507812 C 391.492188 855.871094 391.4375 859.691406 389.109375 862.054688 L 359.109375 891.800781 Z M 688.089844 901.855469 C 691.308594 902.636719 693.363281 905.964844 692.527344 909.21875 L 692.21875 910.382812 C 691.4375 913.601562 688.128906 915.636719 684.910156 914.816406 L 643 904.601562 L 653.238281 946.527344 C 654.074219 949.761719 652.035156 953.035156 648.746094 953.855469 L 647.582031 954.109375 C 644.363281 954.925781 641.054688 952.910156 640.273438 949.671875 L 630.183594 908.507812 L 600.164062 938.363281 C 597.78125 940.691406 593.980469 940.691406 591.601562 938.308594 L 590.726562 937.453125 C 588.417969 935.074219 588.417969 931.238281 590.78125 928.855469 L 620.726562 899.144531 L 579.746094 889.128906 C 576.507812 888.363281 574.4375 885.089844 575.289062 881.800781 L 575.546875 880.636719 C 576.363281 877.363281 579.691406 875.398438 582.910156 876.183594 L 624.855469 886.398438 L 614.5625 844.472656 C 613.78125 841.273438 615.835938 837.910156 619.074219 837.144531 L 620.238281 836.855469 C 623.507812 836.054688 626.816406 838.054688 627.601562 841.289062 L 637.601562 882.382812 L 667.65625 852.601562 C 670.019531 850.253906 673.871094 850.253906 676.199219 852.65625 L 677.074219 853.507812 C 679.453125 855.871094 679.398438 859.691406 677.074219 862.054688 L 647.074219 891.800781 Z M 849.035156 901.855469 C 852.238281 902.636719 854.289062 905.964844 853.472656 909.21875 L 853.164062 910.382812 C 852.382812 913.601562 849.074219 915.636719 845.855469 914.816406 L 803.945312 904.601562 L 814.183594 946.527344 C 815.019531 949.761719 812.980469 953.035156 809.691406 953.855469 L 808.527344 954.109375 C 805.308594 954.925781 802 952.910156 801.21875 949.671875 L 791.128906 908.507812 L 761.109375 938.363281 C 758.726562 940.691406 754.925781 940.691406 752.546875 938.308594 L 751.671875 937.453125 C 749.363281 935.074219 749.363281 931.238281 751.726562 928.855469 L 781.671875 899.144531 L 740.691406 889.128906 C 737.453125 888.363281 735.382812 885.089844 736.238281 881.800781 L 736.492188 880.636719 C 737.308594 877.363281 740.636719 875.398438 743.855469 876.183594 L 785.800781 886.417969 L 775.507812 844.492188 C 774.710938 841.289062 776.761719 837.925781 780 837.164062 L 781.183594 836.855469 C 784.453125 836.054688 787.761719 838.054688 788.546875 841.289062 L 798.546875 882.382812 L 828.601562 852.601562 C 830.964844 850.253906 834.816406 850.253906 837.144531 852.65625 L 838.019531 853.507812 C 840.398438 855.871094 840.34375 859.691406 838.019531 862.054688 L 808.019531 891.800781 Z M 781.925781 759 C 785.144531 759.78125 787.183594 763.109375 786.382812 766.34375 L 786.074219 767.507812 C 785.289062 770.726562 781.980469 772.761719 778.761719 771.945312 L 736.855469 761.726562 L 747.089844 803.65625 C 747.910156 806.890625 745.871094 810.164062 742.582031 810.980469 L 741.417969 811.238281 C 738.199219 812.054688 734.890625 810.035156 734.109375 806.800781 L 724.019531 765.636719 L 694 795.492188 C 691.617188 797.816406 687.816406 797.816406 685.4375 795.4375 L 684.5625 794.582031 C 682.253906 792.199219 682.253906 788.363281 684.617188 785.980469 L 714.5625 756.273438 L 673.582031 746.253906 C 670.34375 745.492188 668.273438 742.21875 669.128906 738.925781 L 669.382812 737.761719 C 670.199219 734.492188 673.527344 732.527344 676.746094 733.308594 L 718.691406 743.546875 L 708.398438 701.617188 C 707.617188 698.417969 709.671875 695.054688 712.910156 694.289062 L 714.074219 694 C 717.34375 693.199219 720.65625 695.199219 721.4375 698.4375 L 731.4375 739.527344 L 761.492188 709.746094 C 763.855469 707.398438 767.710938 707.398438 770.035156 709.800781 L 770.910156 710.65625 C 773.289062 713.019531 773.238281 716.835938 770.910156 719.199219 L 740.910156 748.945312 Z M 781.925781 759 "/>
<path d="M 597.691406 753.910156 L 546.507812 753.128906 L 588.472656 679.726562 L 523.691406 680.273438 L 468.726562 789.78125 L 516.582031 789.78125 L 449.382812 955.761719 Z M 597.691406 753.910156 "/>
</g>
</svg>
