<?xml version="1.0" encoding="UTF-8"?>
<svg xmlns="http://www.w3.org/2000/svg" xmlns:xlink="http://www.w3.org/1999/xlink" width="1000" height="1000" viewBox="0 0 1000 1000" version="1.1">
<g id="surface1">
<path d="M 515.761719 141.582031 C 569.816406 145.761719 619.019531 170.761719 654.273438 211.980469 C 689.472656 253.164062 706.582031 305.601562 702.289062 359.671875 C 695.128906 453.21875 622.507812 531.054688 529.726562 544.761719 C 514.746094 546.964844 499.417969 547.492188 484.183594 546.328125 C 372.5625 537.582031 288.871094 439.726562 297.546875 328.183594 C 304.78125 234.671875 377.398438 156.835938 470.21875 143.128906 C 485.164062 140.910156 500.507812 140.398438 515.761719 141.582031 Z M 617.65625 543.34375 C 621.890625 540.835938 626.054688 538.183594 630.109375 535.382812 C 631.363281 534.527344 632.726562 533.800781 633.964844 532.925781 L 639.800781 660.382812 L 549.507812 570.4375 C 571.980469 565.507812 593.199219 557.253906 612.746094 546.253906 C 614.417969 545.328125 616.019531 544.328125 617.65625 543.34375 Z M 481.925781 575.238281 C 495.164062 576.273438 508.4375 575.816406 521.582031 574.5625 L 462.710938 687.925781 L 429.546875 564.761719 C 446.238281 570.089844 463.710938 573.800781 481.925781 575.238281 Z M 328.636719 499.871094 C 349.4375 522.710938 374.691406 541.34375 403.253906 554.507812 L 295.65625 623.183594 Z M 273.382812 393.636719 C 280.144531 424.328125 293 452.910156 310.761719 477.910156 L 183.472656 483.726562 Z M 268.617188 325.925781 C 267.5625 339.308594 267.945312 352.492188 269.183594 365.398438 L 156.054688 306.726562 L 279.144531 273.5625 C 273.710938 290.363281 270.019531 307.855469 268.617188 325.925781 Z M 312.472656 208.273438 C 303.617188 220.453125 295.835938 233.4375 289.417969 247.183594 L 220.746094 139.691406 L 344.128906 172.636719 C 338.5625 177.710938 333.328125 183.128906 328.253906 188.726562 C 327.855469 189.183594 327.472656 189.671875 327.035156 190.128906 C 322.472656 195.273438 318.144531 200.601562 314.019531 206.128906 C 313.492188 206.835938 313 207.5625 312.472656 208.273438 Z M 382.382812 144.472656 C 378.054688 147.054688 373.835938 149.746094 369.710938 152.582031 C 368.507812 153.382812 367.21875 154.074219 366.035156 154.910156 L 360.199219 27.453125 L 450.472656 117.4375 C 428 122.382812 406.761719 130.617188 387.21875 141.617188 C 385.601562 142.527344 384 143.527344 382.382812 144.472656 Z M 517.980469 112.671875 C 504.761719 111.636719 491.527344 112.089844 478.398438 113.308594 L 537.21875 0 L 570.417969 123.054688 C 553.546875 117.726562 536.054688 114.054688 517.980469 112.671875 Z M 596.890625 133.289062 L 704.308594 64.671875 L 671.328125 187.835938 C 650.074219 164.507812 624.835938 146.128906 596.890625 133.289062 Z M 689.308594 209.890625 L 816.527344 204.054688 L 726.691406 294.109375 C 720.128906 263.980469 707.453125 235.4375 689.308594 209.890625 Z M 730.816406 322.363281 L 843.964844 381.035156 L 720.726562 414.34375 C 726.164062 397.527344 729.871094 380.019531 731.253906 361.890625 C 732.289062 348.582031 732 335.382812 730.816406 322.363281 Z M 655.78125 515.199219 C 678.636719 494.382812 697.289062 469.074219 710.417969 440.4375 L 779.328125 548.128906 Z M 655.78125 515.199219 "/>
</g>
</svg>
