<?xml version="1.0" encoding="UTF-8" standalone="no"?>
<svg
   width="1000"
   height="1000"
   viewBox="0 0 1000 1000"
   version="1.1"
   id="svg1915"
   xmlns="http://www.w3.org/2000/svg"
   xmlns:svg="http://www.w3.org/2000/svg">
  <defs
     id="defs1919" />
  <path
     id="path1908"
     d="M 524.71094 0 L 470.03516 115.38281 C 483.12891 113.69141 496.32812 112.74609 509.5625 113.28906 C 527.65625 114.03516 545.27345 117.05469 562.32812 121.76172 L 524.71094 0 z M 348.80078 33.871094 L 359.25391 161.03516 C 360.41797 160.16406 361.69141 159.41797 362.81641 158.5625 C 366.85547 155.58203 371 152.74609 375.21875 150 C 376.78125 148.98047 378.36328 147.94531 379.96484 146.98047 C 399.08984 135.27344 420.01953 126.27344 442.27344 120.50781 L 348.80078 33.871094 z M 694.01953 58.5625 L 589.18359 131.03516 C 617.58203 142.85547 643.47267 160.28906 665.54688 182.85547 L 694.01953 58.5625 z M 496.92383 142.11914 C 485.46545 142.28668 474.07715 143.41797 462.96484 145.49219 C 386.41797 159.65625 325.49219 217.47266 304.72656 290.25391 C 337 258.98047 380.83594 240.03516 428.19922 240.03516 C 477.38281 240.03516 524.80078 260.67187 558.27344 296.71094 L 559.10938 297.58203 L 560.27344 297.27344 C 573.01953 293.67187 586.01953 291.87109 598.87109 291.87109 C 639.92578 291.87109 676.85547 310.27344 702.69141 338.96484 C 701.32812 290.08984 682.81641 243.89062 649.39844 207.58203 C 612.65625 167.67187 562.58203 144.49219 508.39844 142.27344 C 504.57129 142.11426 500.74329 142.06329 496.92383 142.11914 z M 213.54688 151.07422 L 286.07422 256 C 291.96484 242.05469 299.23828 228.80078 307.67188 216.28906 C 308.1836 215.54687 308.65625 214.81642 309.14453 214.10938 C 313.05469 208.43751 317.19922 202.94531 321.58203 197.63672 C 321.98047 197.16406 322.34375 196.65625 322.74609 196.18359 C 327.60156 190.41797 332.65625 184.80078 338.03516 179.50781 L 213.54688 151.07422 z M 811.21875 193.78125 L 684.30859 204.23828 C 703.38281 229.10937 717.07422 257.16406 724.71094 287.01953 L 811.21875 193.78125 z M 428.18359 268.60156 C 357.49219 268.60156 296.03516 318.98047 282.12891 388.41797 L 278.87109 404.67188 L 263.4375 410.81641 C 211.34375 431.45312 176.34375 482.89062 176.34375 538.81641 C 176.34375 614.74609 238.16406 676.5625 314.10938 676.5625 L 678.25391 676.5625 C 743.87109 676.5625 797.25391 623.10937 797.25391 557.39844 C 797.25391 511.05469 770.01953 468.58203 727.81641 449.16406 L 711.45312 441.63672 L 710.12891 423.65625 C 705.83594 365.78125 656.96484 320.4375 598.83594 320.4375 C 588.58203 320.4375 578.19922 321.89062 567.96484 324.76172 L 550.01953 329.78125 L 537.34375 316.14453 C 509.25391 285.92578 469.47266 268.60156 428.18359 268.60156 z M 276.72656 282.76172 L 154.91016 320.38281 L 257.52734 368.98047 C 260.28906 359.28906 263.89062 349.98047 268.16406 341.07422 C 268.18356 339.19922 268.03517 337.36328 268.10938 335.47266 C 268.85548 317.34375 271.92578 299.72656 276.72656 282.76172 z M 729.89062 315.12891 C 731.5625 328.10937 732.32812 341.27344 731.74609 354.60156 C 731.36328 363.72656 730.41797 372.69141 728.94531 381.5625 C 731.72656 388.65625 733.94532 395.96484 735.54688 403.5625 L 845.07422 369.65625 L 729.89062 315.12891 z M 290.49414 730.26367 C 289.71161 730.13818 288.8916 730.16309 288.07422 730.36328 L 286.91016 730.65625 C 283.67187 731.41797 281.61719 734.78125 282.41797 737.98047 L 292.71094 779.91016 L 250.76172 769.67188 C 247.54687 768.89063 244.21875 770.85547 243.39844 774.12891 L 243.14453 775.28906 C 242.28906 778.58203 244.36328 781.85547 247.60156 782.61719 L 288.58203 792.63672 L 258.63672 822.34375 C 256.27343 824.72656 256.27344 828.5625 258.58203 830.94531 L 259.45312 831.80078 C 261.83594 834.1836 265.63672 834.18359 268.01953 831.85547 L 298.03516 802 L 308.12891 843.16406 C 308.91016 846.39844 312.21875 848.41797 315.4375 847.60156 L 316.60156 847.34375 C 319.89062 846.52734 321.92578 843.25391 321.08984 840.01953 L 310.85547 798.08984 L 352.76172 808.30859 C 355.98047 809.12891 359.28906 807.08984 360.07422 803.87109 L 360.38281 802.71094 C 361.19922 799.47266 359.14453 796.14453 355.92578 795.36328 L 314.91016 785.30859 L 344.91016 755.5625 C 347.23828 753.19922 347.28906 749.38281 344.91016 747.01953 L 344.03516 746.16406 C 341.71094 743.76171 337.85547 743.76172 335.49219 746.10938 L 305.4375 775.89062 L 295.4375 734.80078 C 294.85156 732.37207 292.84174 730.64014 290.49414 730.26367 z M 484.07617 730.26367 C 483.29364 730.13818 482.47363 730.16309 481.65625 730.36328 L 480.49219 730.65625 C 477.25391 731.41797 475.19922 734.78125 475.98047 737.98047 L 486.27344 779.91016 L 444.32812 769.67188 C 441.10937 768.89063 437.78125 770.85547 436.96484 774.12891 L 436.71094 775.28906 C 435.85547 778.58203 437.92578 781.85547 441.16406 782.61719 L 482.14453 792.63672 L 452.19922 822.34375 C 449.83593 824.72656 449.83594 828.5625 452.14453 830.94531 L 453.01953 831.80078 C 455.39844 834.1836 459.19922 834.18359 461.58203 831.85547 L 491.60156 802 L 501.69141 843.16406 C 502.47266 846.39844 505.78125 848.41797 509 847.60156 L 510.16406 847.34375 C 513.45312 846.52734 515.49219 843.25391 514.65625 840.01953 L 504.41797 798.08984 L 546.32812 808.30859 C 549.54688 809.12891 552.85547 807.08984 553.63672 803.87109 L 553.94531 802.71094 C 554.76172 799.47266 552.71094 796.14453 549.50781 795.36328 L 508.49219 785.30859 L 538.49219 755.5625 C 540.81641 753.19922 540.87109 749.38281 538.49219 747.01953 L 537.61719 746.16406 C 535.28906 743.76171 531.4375 743.76172 529.07422 746.10938 L 499.01953 775.89062 L 489.01953 734.80078 C 488.43359 732.37207 486.42377 730.64014 484.07617 730.26367 z M 677.64062 730.26367 C 676.85791 730.13818 676.03711 730.16309 675.21875 730.36328 L 674.05469 730.65625 C 670.81641 731.41797 668.76172 734.78125 669.54688 737.98047 L 679.83594 779.91016 L 637.89062 769.67188 C 634.67188 768.89063 631.34375 770.85547 630.52734 774.12891 L 630.27344 775.28906 C 629.41797 778.58203 631.49219 781.85547 634.72656 782.61719 L 675.71094 792.63672 L 645.76172 822.34375 C 643.39842 824.72656 643.39844 828.5625 645.71094 830.94531 L 646.58203 831.80078 C 648.96484 834.1836 652.76172 834.18359 655.14453 831.85547 L 685.16406 802 L 695.25391 843.16406 C 696.03516 846.39844 699.34375 848.41797 702.5625 847.60156 L 703.72656 847.34375 C 707.01953 846.52734 709.05469 843.25391 708.21875 840.01953 L 697.98047 798.08984 L 739.89062 808.30859 C 743.10938 809.12891 746.41797 807.08984 747.19922 803.87109 L 747.50781 802.71094 C 748.32812 799.47266 746.28906 796.14453 743.07422 795.36328 L 702.05469 785.30859 L 732.05469 755.5625 C 734.38281 753.19922 734.4375 749.38281 732.05469 747.01953 L 731.18359 746.16406 C 728.85547 743.76171 725 743.76172 722.63672 746.10938 L 692.58203 775.89062 L 682.58203 734.80078 C 681.99609 732.37207 679.98877 730.64014 677.64062 730.26367 z M 190.34766 873.11914 C 189.56494 872.99365 188.74414 873.01855 187.92578 873.21875 L 186.76172 873.50781 C 183.52734 874.27344 181.47266 877.63672 182.25391 880.83594 L 192.54688 922.76172 L 150.60156 912.52734 C 147.38281 911.74609 144.05469 913.71094 143.23828 916.98047 L 142.98047 918.14453 C 142.12891 921.4375 144.19922 924.71094 147.4375 925.47266 L 188.41797 935.49219 L 158.47266 965.19922 C 156.10936 967.58203 156.10937 971.41797 158.41797 973.80078 L 159.28906 974.65625 C 161.67187 977.03517 165.47266 977.03516 167.85547 974.71094 L 197.87109 944.85547 L 207.96484 986.01953 C 208.74609 989.25391 212.05469 991.27345 215.27344 990.45312 L 216.4375 990.19922 C 219.72656 989.38281 221.76172 986.10937 220.94531 982.87109 L 210.71094 940.94531 L 252.61719 951.16406 C 255.83594 951.98047 259.14453 949.94531 259.92578 946.72656 L 260.23828 945.5625 C 261.03516 942.32812 259 939 255.78125 938.21875 L 214.76172 928.16406 L 244.76172 898.41797 C 247.08984 896.05469 247.14453 892.23828 244.76172 889.87109 L 243.89062 889.01953 C 241.5625 886.61718 237.71094 886.61719 235.34375 888.96484 L 205.28906 918.74609 L 195.28906 877.65625 C 194.70312 875.22754 192.6958 873.49561 190.34766 873.11914 z M 395.14844 873.11914 C 394.36572 872.99365 393.54492 873.01855 392.72656 873.21875 L 391.5625 873.50781 C 388.32812 874.27344 386.27344 877.63672 387.05469 880.83594 L 397.34375 922.76172 L 355.39844 912.52734 C 352.18359 911.74609 348.85547 913.71094 348.03516 916.98047 L 347.78125 918.14453 C 346.92578 921.4375 349 924.71094 352.23828 925.47266 L 393.21875 935.49219 L 363.27344 965.19922 C 360.91015 967.58203 360.91016 971.41797 363.21875 973.80078 L 364.08984 974.65625 C 366.47266 977.03517 370.27344 977.03516 372.65625 974.71094 L 402.67188 944.85547 L 412.76172 986.01953 C 413.54687 989.25391 416.85547 991.27345 420.07422 990.45312 L 421.23828 990.19922 C 424.52734 989.38281 426.5625 986.10937 425.72656 982.87109 L 415.49219 940.94531 L 457.39844 951.16406 C 460.61719 951.98047 463.92578 949.94531 464.71094 946.72656 L 465.01953 945.5625 C 465.85547 942.32812 463.80078 939 460.58203 938.21875 L 419.5625 928.16406 L 449.5625 898.41797 C 451.89062 896.05469 451.94531 892.23828 449.5625 889.87109 L 448.69141 889.01953 C 446.36328 886.61718 442.50781 886.61719 440.14453 888.96484 L 410.08984 918.74609 L 400.08984 877.65625 C 399.50391 875.22754 397.49658 873.49561 395.14844 873.11914 z M 577.47656 873.11914 C 576.69385 872.99365 575.87304 873.01855 575.05469 873.21875 L 573.89062 873.50781 C 570.65625 874.27344 568.60156 877.63672 569.38281 880.83594 L 579.67188 922.76172 L 537.72656 912.52734 C 534.50781 911.74609 531.18359 913.71094 530.36328 916.98047 L 530.10938 918.14453 C 529.25391 921.4375 531.32812 924.71094 534.5625 925.47266 L 575.54688 935.49219 L 545.60156 965.19922 C 543.23827 967.58203 543.23829 971.41797 545.54688 973.80078 L 546.41797 974.65625 C 548.80078 977.03517 552.60156 977.03516 554.98047 974.71094 L 585 944.85547 L 595.08984 986.01953 C 595.87109 989.25391 599.18359 991.27345 602.39844 990.45312 L 603.5625 990.19922 C 606.85547 989.38281 608.89062 986.10937 608.05469 982.87109 L 597.81641 940.94531 L 639.72656 951.16406 C 642.94531 951.98047 646.25391 949.94531 647.03516 946.72656 L 647.34375 945.5625 C 648.18359 942.32812 646.12891 939 642.91016 938.21875 L 601.89062 928.16406 L 631.89062 898.41797 C 634.21876 896.05469 634.27345 892.23828 631.89062 889.87109 L 631.01953 889.01953 C 628.69141 886.61718 624.83594 886.61719 622.47266 888.96484 L 592.41797 918.74609 L 582.41797 877.65625 C 581.83203 875.22754 579.82471 873.49561 577.47656 873.11914 z " />
</svg>
