<?xml version="1.0" encoding="UTF-8" standalone="no"?>
<svg
   width="1000"
   height="1000"
   viewBox="0 0 1000 1000"
   version="1.1"
   id="svg1415"
   xmlns="http://www.w3.org/2000/svg"
   xmlns:svg="http://www.w3.org/2000/svg">
  <defs
     id="defs1419" />
  <path
     id="path1404"
     d="M 524.71094 0 L 470.03516 115.38281 C 483.12891 113.69141 496.32812 112.74609 509.5625 113.28906 C 527.65625 114.03516 545.27345 117.05469 562.32812 121.76172 L 524.71094 0 z M 348.80078 33.871094 L 359.25391 161.03516 C 360.41797 160.16406 361.69141 159.41797 362.81641 158.5625 C 366.85547 155.58203 371 152.74609 375.21875 150 C 376.78125 148.98047 378.36328 147.94531 379.96484 146.98047 C 399.08984 135.27344 420.01953 126.27344 442.27344 120.50781 L 348.80078 33.871094 z M 694.01953 58.5625 L 589.18359 131.03516 C 617.58203 142.85547 643.47267 160.28906 665.54688 182.85547 L 694.01953 58.5625 z M 496.92383 142.11914 C 485.46545 142.28668 474.07715 143.41797 462.96484 145.49219 C 386.41797 159.65625 325.49219 217.47266 304.72656 290.25391 C 337 258.98047 380.83594 240.03516 428.19922 240.03516 C 477.38281 240.03516 524.80078 260.67187 558.27344 296.71094 L 559.10938 297.58203 L 560.27344 297.27344 C 573.01953 293.67187 586.01953 291.87109 598.87109 291.87109 C 639.92578 291.87109 676.85547 310.27344 702.69141 338.96484 C 701.32812 290.08984 682.81641 243.89062 649.39844 207.58203 C 612.65625 167.67187 562.58203 144.49219 508.39844 142.27344 C 504.57129 142.11426 500.74329 142.06329 496.92383 142.11914 z M 213.54688 151.07422 L 286.07422 256 C 291.96484 242.05469 299.23828 228.80078 307.67188 216.28906 C 308.1836 215.54687 308.65625 214.81642 309.14453 214.10938 C 313.05469 208.43751 317.19922 202.94531 321.58203 197.63672 C 321.98047 197.16406 322.34375 196.65625 322.74609 196.18359 C 327.60156 190.41797 332.65625 184.80078 338.03516 179.50781 L 213.54688 151.07422 z M 811.21875 193.78125 L 684.30859 204.23828 C 703.38281 229.10937 717.07422 257.16406 724.71094 287.01953 L 811.21875 193.78125 z M 428.18359 268.60156 C 357.49219 268.60156 296.03516 318.98047 282.12891 388.41797 L 278.87109 404.67188 L 263.4375 410.81641 C 211.34375 431.45312 176.34375 482.89062 176.34375 538.81641 C 176.34375 614.74609 238.16406 676.5625 314.10938 676.5625 L 678.25391 676.5625 C 743.87109 676.5625 797.25391 623.10937 797.25391 557.39844 C 797.25391 511.05469 770.01953 468.58203 727.81641 449.16406 L 711.45312 441.63672 L 710.12891 423.65625 C 705.83594 365.78125 656.96484 320.4375 598.83594 320.4375 C 588.58203 320.4375 578.19922 321.89062 567.96484 324.76172 L 550.01953 329.78125 L 537.34375 316.14453 C 509.25391 285.92578 469.47266 268.60156 428.18359 268.60156 z M 276.72656 282.76172 L 154.91016 320.38281 L 257.52734 368.98047 C 260.28906 359.28906 263.89062 349.98047 268.16406 341.07422 C 268.18356 339.19922 268.03517 337.36328 268.10938 335.47266 C 268.85548 317.34375 271.92578 299.72656 276.72656 282.76172 z M 729.89062 315.12891 C 731.5625 328.10937 732.32812 341.27344 731.74609 354.60156 C 731.36328 363.72656 730.41797 372.69141 728.94531 381.5625 C 731.72656 388.65625 733.94532 395.96484 735.54688 403.5625 L 845.07422 369.65625 L 729.89062 315.12891 z M 536.91016 716.08984 L 472.12891 716.63672 L 417.16406 826.14453 L 465.01953 826.14453 L 397.81641 992.12891 L 546.12891 790.27344 L 494.94531 789.49219 L 536.91016 716.08984 z M 649.29297 730.26367 C 648.51019 730.13818 647.68945 730.16309 646.87109 730.36328 L 645.71094 730.65625 C 642.47266 731.41797 640.41797 734.78125 641.19922 737.98047 L 651.49219 779.91016 L 609.54688 769.67188 C 606.32812 768.89063 603 770.85547 602.18359 774.12891 L 601.92578 775.28906 C 601.07422 778.58203 603.14453 781.85547 606.38281 782.61719 L 647.36328 792.63672 L 617.41797 822.34375 C 615.05468 824.72656 615.05469 828.5625 617.36328 830.94531 L 618.23828 831.80078 C 620.61719 834.1836 624.41797 834.18359 626.80078 831.85547 L 656.81641 802 L 666.91016 843.16406 C 667.69141 846.39844 671 848.41797 674.21875 847.60156 L 675.38281 847.34375 C 678.67187 846.52734 680.71095 843.25391 679.89062 840.01953 L 669.65625 798.08984 L 711.5625 808.30859 C 714.78125 809.12891 718.08984 807.08984 718.87109 803.87109 L 719.18359 802.71094 C 719.98047 799.47266 717.94531 796.14453 714.72656 795.36328 L 673.71094 785.30859 L 703.71094 755.5625 C 706.03516 753.19922 706.08984 749.38281 703.71094 747.01953 L 702.83594 746.16406 C 700.50781 743.76171 696.65625 743.76172 694.28906 746.10938 L 664.23828 775.89062 L 654.23828 734.80078 C 653.64941 732.37207 651.6413 730.64014 649.29297 730.26367 z M 346.49219 732.45312 C 346.49219 732.45312 299.39844 755.49219 279.80078 793.58203 C 256.71094 838.39844 311.60156 868.78125 335.65625 822.34375 C 354.67187 785.47266 346.49219 732.45312 346.49219 732.45312 z M 281.40234 873.11914 C 280.61963 872.99365 279.79883 873.01855 278.98047 873.21875 L 277.81641 873.50781 C 274.58203 874.27344 272.52735 877.63672 273.32812 880.83594 L 283.61719 922.76172 L 241.67188 912.52734 C 238.45312 911.74609 235.12891 913.71094 234.30859 916.98047 L 234.05469 918.14453 C 233.19922 921.4375 235.27344 924.71094 238.50781 925.47266 L 279.49219 935.49219 L 249.54688 965.19922 C 247.18357 967.58203 247.18359 971.41797 249.49219 973.80078 L 250.36328 974.65625 C 252.74609 977.03517 256.54687 977.03516 258.92578 974.71094 L 288.94531 944.85547 L 299.03516 986.01953 C 299.81641 989.25391 303.12891 991.27345 306.34375 990.45312 L 307.50781 990.19922 C 310.80078 989.38281 312.83594 986.10937 312 982.87109 L 301.76172 940.94531 L 343.67188 951.16406 C 346.89063 951.98047 350.19922 949.94531 350.98047 946.72656 L 351.28906 945.5625 C 352.10937 942.32812 350.05469 939 346.83594 938.21875 L 305.81641 928.16406 L 335.81641 898.41797 C 338.14453 896.05469 338.19922 892.23828 335.81641 889.87109 L 334.94531 889.01953 C 332.61719 886.61718 328.76172 886.61719 326.39844 888.96484 L 296.34375 918.74609 L 286.34375 877.65625 C 285.75781 875.22754 283.75049 873.49561 281.40234 873.11914 z M 645.94531 875.30859 C 645.94531 875.30859 598.85547 898.34375 579.25391 936.4375 C 556.16406 981.25391 611.0547 1011.6367 635.10938 965.19922 C 654.12892 928.32812 645.94531 875.30859 645.94531 875.30859 z " />
</svg>
