<?xml version="1.0" encoding="UTF-8" standalone="no"?>
<svg
   width="1000"
   height="1000"
   viewBox="0 0 1000 1000"
   version="1.1"
   id="svg1703"
   xmlns="http://www.w3.org/2000/svg"
   xmlns:svg="http://www.w3.org/2000/svg">
  <defs
     id="defs1707" />
  <path
     id="path1694"
     d="M 524.71094 0 L 470.03516 115.38281 C 483.12891 113.69141 496.32812 112.74609 509.5625 113.28906 C 527.65625 114.03516 545.27345 117.05469 562.32812 121.76172 L 524.71094 0 z M 348.80078 33.871094 L 359.25391 161.03516 C 360.41797 160.16406 361.69141 159.41797 362.81641 158.5625 C 366.85547 155.58203 371 152.74609 375.21875 150 C 376.78125 148.98047 378.36328 147.94531 379.96484 146.98047 C 399.08984 135.27344 420.01953 126.27344 442.27344 120.50781 L 348.80078 33.871094 z M 694.01953 58.5625 L 589.18359 131.03516 C 617.58203 142.85547 643.47267 160.28906 665.54688 182.85547 L 694.01953 58.5625 z M 496.92383 142.11914 C 485.46545 142.28668 474.07715 143.41797 462.96484 145.49219 C 386.41797 159.65625 325.49219 217.47266 304.72656 290.25391 C 337 258.98047 380.83594 240.03516 428.19922 240.03516 C 477.38281 240.03516 524.80078 260.67187 558.27344 296.71094 L 559.10938 297.58203 L 560.27344 297.27344 C 573.01953 293.67187 586.01953 291.87109 598.87109 291.87109 C 639.92578 291.87109 676.85547 310.27344 702.69141 338.96484 C 701.32812 290.08984 682.81641 243.89062 649.39844 207.58203 C 612.65625 167.67187 562.58203 144.49219 508.39844 142.27344 C 504.57129 142.11426 500.74329 142.06329 496.92383 142.11914 z M 213.54688 151.07422 L 286.07422 256 C 291.96484 242.05469 299.23828 228.80078 307.67188 216.28906 C 308.1836 215.54687 308.65625 214.81642 309.14453 214.10938 C 313.05469 208.43751 317.19922 202.94531 321.58203 197.63672 C 321.98047 197.16406 322.34375 196.65625 322.74609 196.18359 C 327.60156 190.41797 332.65625 184.80078 338.03516 179.50781 L 213.54688 151.07422 z M 811.21875 193.78125 L 684.30859 204.23828 C 703.38281 229.10937 717.07422 257.16406 724.71094 287.01953 L 811.21875 193.78125 z M 428.18359 268.60156 C 357.49219 268.60156 296.03516 318.98047 282.12891 388.41797 L 278.87109 404.67188 L 263.4375 410.81641 C 211.34375 431.45312 176.34375 482.89062 176.34375 538.81641 C 176.34375 614.74609 238.16406 676.5625 314.10938 676.5625 L 678.25391 676.5625 C 743.87109 676.5625 797.25391 623.10937 797.25391 557.39844 C 797.25391 511.05469 770.01953 468.58203 727.81641 449.16406 L 711.45312 441.63672 L 710.12891 423.65625 C 705.83594 365.78125 656.96484 320.4375 598.83594 320.4375 C 588.58203 320.4375 578.19922 321.89062 567.96484 324.76172 L 550.01953 329.78125 L 537.34375 316.14453 C 509.25391 285.92578 469.47266 268.60156 428.18359 268.60156 z M 276.72656 282.76172 L 154.91016 320.38281 L 257.52734 368.98047 C 260.28906 359.28906 263.89062 349.98047 268.16406 341.07422 C 268.18356 339.19922 268.03517 337.36328 268.10938 335.47266 C 268.85548 317.34375 271.92578 299.72656 276.72656 282.76172 z M 729.89062 315.12891 C 731.5625 328.10937 732.32812 341.27344 731.74609 354.60156 C 731.36328 363.72656 730.41797 372.69141 728.94531 381.5625 C 731.72656 388.65625 733.94532 395.96484 735.54688 403.5625 L 845.07422 369.65625 L 729.89062 315.12891 z M 555.08984 716.08984 L 490.30859 716.63672 L 435.34375 826.14453 L 483.19922 826.14453 L 416 992.12891 L 564.30859 790.27344 L 513.12891 789.49219 L 555.08984 716.08984 z M 324.51367 730.19141 C 324.10839 730.20703 323.69824 730.26318 323.28906 730.36328 L 322.12891 730.65625 C 318.89062 731.41797 316.83594 734.78125 317.61719 737.98047 L 327.91016 779.91016 L 285.96484 769.67188 C 282.74609 768.89063 279.41797 770.85547 278.60156 774.12891 L 278.34375 775.28906 C 277.49219 778.58203 279.5625 781.85547 282.80078 782.61719 L 323.78125 792.63672 L 293.83594 822.34375 C 291.47265 824.72656 291.47266 828.5625 293.78125 830.94531 L 294.65625 831.80078 C 297.03516 834.1836 300.83594 834.18359 303.21875 831.85547 L 333.23828 802 L 343.32812 843.16406 C 344.10937 846.39844 347.41797 848.41797 350.63672 847.60156 L 351.80078 847.34375 C 355.08984 846.52734 357.12891 843.25391 356.30859 840.01953 L 346.07422 798.08984 L 387.98047 808.30859 C 391.19922 809.12891 394.50781 807.08984 395.28906 803.87109 L 395.60156 802.71094 C 396.39844 799.47266 394.36328 796.14453 391.14453 795.36328 L 350.12891 785.30859 L 380.12891 755.5625 C 382.45312 753.19922 382.50781 749.38281 380.12891 747.01953 L 379.25391 746.16406 C 376.92578 743.76171 373.07422 743.76172 370.71094 746.10938 L 340.65625 775.89062 L 330.65625 734.80078 C 329.96923 731.96729 327.35064 730.08203 324.51367 730.19141 z M 669.13477 730.19141 C 668.72949 730.20703 668.31934 730.26318 667.91016 730.36328 L 666.74609 730.65625 C 663.50781 731.41797 661.45312 734.78125 662.23828 737.98047 L 672.52734 779.91016 L 630.58203 769.67188 C 627.36328 768.89063 624.03516 770.85547 623.21875 774.12891 L 622.96484 775.28906 C 622.10937 778.58203 624.18359 781.85547 627.41797 782.61719 L 668.39844 792.63672 L 638.45312 822.34375 C 636.08983 824.72656 636.08984 828.5625 638.39844 830.94531 L 639.27344 831.80078 C 641.65625 834.1836 645.45312 834.18359 647.83594 831.85547 L 677.85547 802 L 687.94531 843.16406 C 688.72656 846.39844 692.03516 848.41797 695.25391 847.60156 L 696.41797 847.34375 C 699.71094 846.52734 701.74609 843.25391 700.91016 840.01953 L 690.67188 798.08984 L 732.58203 808.30859 C 735.80078 809.12891 739.10938 807.08984 739.89062 803.87109 L 740.19922 802.71094 C 741.03516 799.47266 738.98047 796.14453 735.76172 795.36328 L 694.74609 785.30859 L 724.74609 755.5625 C 727.07422 753.19922 727.12891 749.38281 724.74609 747.01953 L 723.87109 746.16406 C 721.54687 743.76171 717.69142 743.76172 715.32812 746.10938 L 685.27344 775.89062 L 675.27344 734.80078 C 674.58984 731.96729 671.97168 730.08203 669.13477 730.19141 z " />
</svg>
