<?xml version="1.0" encoding="UTF-8" standalone="no"?>
<svg
   width="1000"
   height="1000"
   viewBox="0 0 1000 1000"
   version="1.1"
   id="svg1631"
   xmlns="http://www.w3.org/2000/svg"
   xmlns:svg="http://www.w3.org/2000/svg">
  <defs
     id="defs1635" />
  <path
     id="path1624"
     d="M 524.71094 0 L 470.03516 115.38281 C 483.12891 113.69141 496.32812 112.74609 509.5625 113.28906 C 527.65625 114.03516 545.27345 117.05469 562.32812 121.76172 L 524.71094 0 z M 348.80078 33.871094 L 359.25391 161.03516 C 360.41797 160.16406 361.69141 159.41797 362.81641 158.5625 C 366.85547 155.58203 371 152.74609 375.21875 150 C 376.78125 148.98047 378.36328 147.94531 379.96484 146.98047 C 399.08984 135.27344 420.01953 126.27344 442.27344 120.50781 L 348.80078 33.871094 z M 694.01953 58.5625 L 589.18359 131.03516 C 617.58203 142.85547 643.47267 160.28906 665.54688 182.85547 L 694.01953 58.5625 z M 496.92383 142.11914 C 485.46545 142.28668 474.07715 143.41797 462.96484 145.49219 C 386.41797 159.65625 325.49219 217.47266 304.72656 290.25391 C 337 258.98047 380.83594 240.03516 428.19922 240.03516 C 477.38281 240.03516 524.80078 260.67187 558.27344 296.71094 L 559.10938 297.58203 L 560.27344 297.27344 C 573.01953 293.67187 586.01953 291.87109 598.87109 291.87109 C 639.92578 291.87109 676.85547 310.27344 702.69141 338.96484 C 701.32812 290.08984 682.81641 243.89062 649.39844 207.58203 C 612.65625 167.67187 562.58203 144.49219 508.39844 142.27344 C 504.57129 142.11426 500.74329 142.06329 496.92383 142.11914 z M 213.54688 151.07422 L 286.07422 256 C 291.96484 242.05469 299.23828 228.80078 307.67188 216.28906 C 308.1836 215.54687 308.65625 214.81642 309.14453 214.10938 C 313.05469 208.43751 317.19922 202.94531 321.58203 197.63672 C 321.98047 197.16406 322.34375 196.65625 322.74609 196.18359 C 327.60156 190.41797 332.65625 184.80078 338.03516 179.50781 L 213.54688 151.07422 z M 811.21875 193.78125 L 684.30859 204.23828 C 703.38281 229.10937 717.07422 257.16406 724.71094 287.01953 L 811.21875 193.78125 z M 428.18359 268.60156 C 357.49219 268.60156 296.03516 318.98047 282.12891 388.41797 L 278.87109 404.67188 L 263.4375 410.81641 C 211.34375 431.45312 176.34375 482.89062 176.34375 538.81641 C 176.34375 614.74609 238.16406 676.5625 314.10938 676.5625 L 678.25391 676.5625 C 743.87109 676.5625 797.25391 623.10937 797.25391 557.39844 C 797.25391 511.05469 770.01953 468.58203 727.81641 449.16406 L 711.45312 441.63672 L 710.12891 423.65625 C 705.83594 365.78125 656.96484 320.4375 598.83594 320.4375 C 588.58203 320.4375 578.19922 321.89062 567.96484 324.76172 L 550.01953 329.78125 L 537.34375 316.14453 C 509.25391 285.92578 469.47266 268.60156 428.18359 268.60156 z M 276.72656 282.76172 L 154.91016 320.38281 L 257.52734 368.98047 C 260.28906 359.28906 263.89062 349.98047 268.16406 341.07422 C 268.18356 339.19922 268.03517 337.36328 268.10938 335.47266 C 268.85548 317.34375 271.92578 299.72656 276.72656 282.76172 z M 729.89062 315.12891 C 731.5625 328.10937 732.32812 341.27344 731.74609 354.60156 C 731.36328 363.72656 730.41797 372.69141 728.94531 381.5625 C 731.72656 388.65625 733.94532 395.96484 735.54688 403.5625 L 845.07422 369.65625 L 729.89062 315.12891 z M 344.98633 730.19141 C 344.58105 730.20703 344.1709 730.26318 343.76172 730.36328 L 342.60156 730.65625 C 339.36328 731.41797 337.30859 734.78125 338.08984 737.98047 L 348.38281 779.91016 L 306.4375 769.67188 C 303.21875 768.89063 299.89062 770.85547 299.07422 774.12891 L 298.81641 775.28906 C 297.96484 778.58203 300.03516 781.85547 303.27344 782.61719 L 344.25391 792.63672 L 314.30859 822.34375 C 311.94529 824.72656 311.94531 828.5625 314.25391 830.94531 L 315.12891 831.80078 C 317.50781 834.1836 321.30859 834.18359 323.69141 831.85547 L 353.71094 802 L 363.80078 843.16406 C 364.58203 846.39844 367.89062 848.41797 371.10938 847.60156 L 372.27344 847.34375 C 375.5625 846.52734 377.60156 843.25391 376.76172 840.01953 L 366.52734 798.08984 L 408.4375 808.30859 C 411.65625 809.12891 414.96484 807.08984 415.74609 803.87109 L 416.05469 802.71094 C 416.87109 799.47266 414.83594 796.14453 411.61719 795.36328 L 370.60156 785.30859 L 400.60156 755.5625 C 402.92578 753.19922 402.98047 749.38281 400.60156 747.01953 L 399.72656 746.16406 C 397.39844 743.76171 393.54687 743.76172 391.18359 746.10938 L 361.12891 775.89062 L 351.12891 734.80078 C 350.44189 731.96729 347.8233 730.08203 344.98633 730.19141 z M 624.76953 730.19141 C 624.36452 730.20703 623.95557 730.26318 623.54688 730.36328 L 622.38281 730.65625 C 619.14453 731.41797 617.08984 734.78125 617.87109 737.98047 L 628.16406 779.91016 L 586.21875 769.67188 C 583 768.89063 579.67187 770.85547 578.85547 774.12891 L 578.60156 775.28906 C 577.74609 778.58203 579.81641 781.85547 583.05469 782.61719 L 624.03516 792.63672 L 594.08984 822.34375 C 591.72654 824.72656 591.72656 828.5625 594.03516 830.94531 L 594.91016 831.80078 C 597.28906 834.1836 601.08984 834.18359 603.47266 831.85547 L 633.49219 802 L 643.58203 843.16406 C 644.36328 846.39844 647.67188 848.41797 650.89062 847.60156 L 652.05469 847.34375 C 655.34375 846.52734 657.38281 843.25391 656.5625 840.01953 L 646.32812 798.08984 L 688.23828 808.30859 C 691.45312 809.12891 694.76172 807.08984 695.54688 803.87109 L 695.85547 802.71094 C 696.65625 799.47266 694.60156 796.14453 691.39844 795.36328 L 650.38281 785.30859 L 680.38281 755.5625 C 682.71094 753.19922 682.76172 749.38281 680.38281 747.01953 L 679.50781 746.16406 C 677.18359 743.76171 673.32812 743.76172 670.96484 746.10938 L 640.91016 775.89062 L 630.91016 734.80078 C 630.22656 731.96729 627.60458 730.08203 624.76953 730.19141 z " />
</svg>
