<?xml version="1.0" encoding="UTF-8" standalone="no"?>
<svg
   width="1000"
   height="1000"
   viewBox="0 0 1000 1000"
   version="1.1"
   id="svg1845"
   xmlns="http://www.w3.org/2000/svg"
   xmlns:svg="http://www.w3.org/2000/svg">
  <defs
     id="defs1849" />
  <path
     id="path1836"
     d="M 524.71094 0 L 470.03516 115.38281 C 483.12891 113.69141 496.32812 112.74609 509.5625 113.28906 C 527.65625 114.03516 545.27345 117.05469 562.32812 121.76172 L 524.71094 0 z M 348.80078 33.871094 L 359.25391 161.03516 C 360.41797 160.16406 361.69141 159.41797 362.81641 158.5625 C 366.85547 155.58203 371 152.74609 375.21875 150 C 376.78125 148.98047 378.36328 147.94531 379.96484 146.98047 C 399.08984 135.27344 420.01953 126.27344 442.27344 120.50781 L 348.80078 33.871094 z M 694.01953 58.5625 L 589.18359 131.03516 C 617.58203 142.85547 643.47267 160.28906 665.54688 182.85547 L 694.01953 58.5625 z M 496.92383 142.11914 C 485.46545 142.28668 474.07715 143.41797 462.96484 145.49219 C 386.41797 159.65625 325.49219 217.47266 304.72656 290.25391 C 337 258.98047 380.83594 240.03516 428.19922 240.03516 C 477.38281 240.03516 524.80078 260.67187 558.27344 296.71094 L 559.10938 297.58203 L 560.27344 297.27344 C 573.01953 293.67187 586.01953 291.87109 598.87109 291.87109 C 639.92578 291.87109 676.85547 310.27344 702.69141 338.96484 C 701.32812 290.08984 682.81641 243.89062 649.39844 207.58203 C 612.65625 167.67187 562.58203 144.49219 508.39844 142.27344 C 504.57129 142.11426 500.74329 142.06329 496.92383 142.11914 z M 213.54688 151.07422 L 286.07422 256 C 291.96484 242.05469 299.23828 228.80078 307.67188 216.28906 C 308.1836 215.54687 308.65625 214.81642 309.14453 214.10938 C 313.05469 208.43751 317.19922 202.94531 321.58203 197.63672 C 321.98047 197.16406 322.34375 196.65625 322.74609 196.18359 C 327.60156 190.41797 332.65625 184.80078 338.03516 179.50781 L 213.54688 151.07422 z M 811.21875 193.78125 L 684.30859 204.23828 C 703.38281 229.10937 717.07422 257.16406 724.71094 287.01953 L 811.21875 193.78125 z M 428.18359 268.60156 C 357.49219 268.60156 296.03516 318.98047 282.12891 388.41797 L 278.87109 404.67188 L 263.4375 410.81641 C 211.34375 431.45312 176.34375 482.89062 176.34375 538.81641 C 176.34375 614.74609 238.16406 676.5625 314.10938 676.5625 L 678.25391 676.5625 C 743.87109 676.5625 797.25391 623.10937 797.25391 557.39844 C 797.25391 511.05469 770.01953 468.58203 727.81641 449.16406 L 711.45312 441.63672 L 710.12891 423.65625 C 705.83594 365.78125 656.96484 320.4375 598.83594 320.4375 C 588.58203 320.4375 578.19922 321.89062 567.96484 324.76172 L 550.01953 329.78125 L 537.34375 316.14453 C 509.25391 285.92578 469.47266 268.60156 428.18359 268.60156 z M 276.72656 282.76172 L 154.91016 320.38281 L 257.52734 368.98047 C 260.28906 359.28906 263.89062 349.98047 268.16406 341.07422 C 268.18356 339.19922 268.03517 337.36328 268.10938 335.47266 C 268.85548 317.34375 271.92578 299.72656 276.72656 282.76172 z M 729.89062 315.12891 C 731.5625 328.10937 732.32812 341.27344 731.74609 354.60156 C 731.36328 363.72656 730.41797 372.69141 728.94531 381.5625 C 731.72656 388.65625 733.94532 395.96484 735.54688 403.5625 L 845.07422 369.65625 L 729.89062 315.12891 z M 533.92578 716.08984 L 469.14453 716.63672 L 414.18359 826.14453 L 462.03516 826.14453 L 394.83594 992.12891 L 543.14453 790.27344 L 491.96484 789.49219 L 533.92578 716.08984 z M 282.75 730.26367 C 281.96728 730.13818 281.14648 730.16309 280.32812 730.36328 L 279.16406 730.65625 C 275.92578 731.41797 273.8711 734.78125 274.67188 737.98047 L 284.96484 779.91016 L 243.01953 769.67188 C 239.80078 768.89063 236.47266 770.85547 235.65625 774.12891 L 235.39844 775.28906 C 234.54687 778.58203 236.61719 781.85547 239.85547 782.61719 L 280.83594 792.63672 L 250.89062 822.34375 C 248.52733 824.72656 248.52734 828.5625 250.83594 830.94531 L 251.71094 831.80078 C 254.08984 834.1836 257.89062 834.18359 260.27344 831.85547 L 290.28906 802 L 300.38281 843.16406 C 301.16406 846.39844 304.47266 848.41797 307.69141 847.60156 L 308.85547 847.34375 C 312.14453 846.52734 314.18359 843.25391 313.34375 840.01953 L 303.10938 798.08984 L 345.01953 808.30859 C 348.23828 809.12891 351.54688 807.08984 352.32812 803.87109 L 352.63672 802.71094 C 353.4375 799.47266 351.38281 796.14453 348.18359 795.36328 L 307.16406 785.30859 L 337.16406 755.5625 C 339.49219 753.19922 339.54687 749.38281 337.16406 747.01953 L 336.28906 746.16406 C 333.96484 743.76171 330.10937 743.76172 327.74609 746.10938 L 297.69141 775.89062 L 287.69141 734.80078 C 287.10547 732.37207 285.09815 730.64014 282.75 730.26367 z M 661.94922 730.26367 C 661.1665 730.13818 660.3457 730.16309 659.52734 730.36328 L 658.36328 730.65625 C 655.12891 731.41797 653.07422 734.78125 653.85547 737.98047 L 664.14453 779.91016 L 622.19922 769.67188 C 618.98047 768.89063 615.65625 770.85547 614.83594 774.12891 L 614.58203 775.28906 C 613.72656 778.58203 615.80078 781.85547 619.03516 782.61719 L 660.01953 792.63672 L 630.07422 822.34375 C 627.71093 824.72656 627.71094 828.5625 630.01953 830.94531 L 630.89062 831.80078 C 633.27345 834.1836 637.07422 834.18359 639.45312 831.85547 L 669.47266 802 L 679.5625 843.16406 C 680.34375 846.39844 683.65625 848.41797 686.87109 847.60156 L 688.03516 847.34375 C 691.32812 846.52734 693.36329 843.25391 692.54688 840.01953 L 682.30859 798.08984 L 724.21875 808.30859 C 727.4375 809.12891 730.74609 807.08984 731.52734 803.87109 L 731.83594 802.71094 C 732.63672 799.47266 730.60156 796.14453 727.38281 795.36328 L 686.36328 785.30859 L 716.36328 755.5625 C 718.69141 753.19922 718.74609 749.38281 716.36328 747.01953 L 715.49219 746.16406 C 713.16406 743.76171 709.30859 743.76172 706.94531 746.10938 L 676.89062 775.89062 L 666.89062 734.80078 C 666.30469 732.37207 664.29736 730.64014 661.94922 730.26367 z M 280.14844 873.11914 C 279.36572 872.99365 278.54492 873.01855 277.72656 873.21875 L 276.5625 873.50781 C 273.32812 874.27344 271.27344 877.63672 272.07422 880.83594 L 282.36328 922.76172 L 240.41797 912.52734 C 237.19922 911.74609 233.87109 913.71094 233.05469 916.98047 L 232.80078 918.14453 C 231.94531 921.4375 234.01953 924.71094 237.25391 925.47266 L 278.23828 935.49219 L 248.28906 965.19922 C 245.92576 967.58203 245.92578 971.41797 248.23828 973.80078 L 249.10938 974.65625 C 251.4922 977.03517 255.28906 977.03516 257.67188 974.71094 L 287.69141 944.85547 L 297.78125 986.01953 C 298.5625 989.25391 301.87109 991.27345 305.08984 990.45312 L 306.25391 990.19922 C 309.54687 989.38281 311.58203 986.10937 310.74609 982.87109 L 300.50781 940.94531 L 342.41797 951.16406 C 345.63672 951.98047 348.94531 949.94531 349.72656 946.72656 L 350.03516 945.5625 C 350.83594 942.32812 348.80078 939 345.58203 938.21875 L 304.5625 928.16406 L 334.5625 898.41797 C 336.89062 896.05469 336.94531 892.23828 334.5625 889.87109 L 333.69141 889.01953 C 331.36328 886.61718 327.50781 886.61719 325.14453 888.96484 L 295.08984 918.74609 L 285.08984 877.65625 C 284.50391 875.22754 282.49658 873.49561 280.14844 873.11914 z M 568.11328 873.11914 C 567.33057 872.99365 566.50976 873.01855 565.69141 873.21875 L 564.52734 873.50781 C 561.28906 874.27344 559.23828 877.63672 560.01953 880.83594 L 570.30859 922.76172 L 528.36328 912.54688 C 525.14453 911.76172 521.81641 913.72656 521 917 L 520.74609 918.16406 C 519.89062 921.45312 521.96484 924.72656 525.19922 925.49219 L 566.18359 935.50781 L 536.23828 965.21875 C 533.87108 967.60156 533.87109 971.4375 536.18359 973.81641 L 537.05469 974.67188 C 539.4375 977.05471 543.23828 977.05469 545.61719 974.72656 L 575.63672 944.87109 L 585.72656 986.03516 C 586.50781 989.27344 589.81641 991.28906 593.03516 990.47266 L 594.19922 990.21875 C 597.49219 989.39844 599.52734 986.12892 598.69141 982.89062 L 588.45312 940.96484 L 630.36328 951.18359 C 633.58203 952 636.89062 949.96484 637.67188 946.74609 L 637.98047 945.58203 C 638.81641 942.32812 636.76172 939 633.54688 938.21875 L 592.52734 928.16406 L 622.52734 898.41797 C 624.85547 896.05469 624.91016 892.23828 622.52734 889.87109 L 621.65625 889.01953 C 619.32812 886.61718 615.47267 886.61719 613.10938 888.96484 L 583.05469 918.74609 L 573.05469 877.65625 C 572.46875 875.22754 570.46142 873.49561 568.11328 873.11914 z " />
</svg>
