<?xml version="1.0" encoding="UTF-8" standalone="no"?>
<svg
   width="1000"
   height="1000"
   viewBox="0 0 1000 1000"
   version="1.1"
   id="svg1487"
   xmlns="http://www.w3.org/2000/svg"
   xmlns:svg="http://www.w3.org/2000/svg">
  <defs
     id="defs1491" />
  <path
     id="path1478"
     d="M 524.71094 0 L 470.03516 115.38281 C 483.12891 113.69141 496.32812 112.74609 509.5625 113.28906 C 527.65625 114.03516 545.27345 117.05469 562.32812 121.76172 L 524.71094 0 z M 348.80078 33.871094 L 359.25391 161.03516 C 360.41797 160.16406 361.69141 159.41797 362.81641 158.5625 C 366.85547 155.58203 371 152.74609 375.21875 150 C 376.78125 148.98047 378.36328 147.94531 379.96484 146.98047 C 399.08984 135.27344 420.01953 126.27344 442.27344 120.50781 L 348.80078 33.871094 z M 694.01953 58.5625 L 589.18359 131.03516 C 617.58203 142.85547 643.47267 160.28906 665.54688 182.85547 L 694.01953 58.5625 z M 496.92383 142.11914 C 485.46545 142.28668 474.07715 143.41797 462.96484 145.49219 C 386.41797 159.65625 325.49219 217.47266 304.72656 290.25391 C 337 258.98047 380.83594 240.03516 428.19922 240.03516 C 477.38281 240.03516 524.80078 260.67187 558.27344 296.71094 L 559.10938 297.58203 L 560.27344 297.27344 C 573.01953 293.67187 586.01953 291.87109 598.87109 291.87109 C 639.92578 291.87109 676.85547 310.27344 702.69141 338.96484 C 701.32812 290.08984 682.81641 243.89062 649.39844 207.58203 C 612.65625 167.67187 562.58203 144.49219 508.39844 142.27344 C 504.57129 142.11426 500.74329 142.06329 496.92383 142.11914 z M 213.54688 151.07422 L 286.07422 256 C 291.96484 242.05469 299.23828 228.80078 307.67188 216.28906 C 308.1836 215.54687 308.65625 214.81642 309.14453 214.10938 C 313.05469 208.43751 317.19922 202.94531 321.58203 197.63672 C 321.98047 197.16406 322.34375 196.65625 322.74609 196.18359 C 327.60156 190.41797 332.65625 184.80078 338.03516 179.50781 L 213.54688 151.07422 z M 811.21875 193.78125 L 684.30859 204.23828 C 703.38281 229.10937 717.07422 257.16406 724.71094 287.01953 L 811.21875 193.78125 z M 428.18359 268.60156 C 357.49219 268.60156 296.03516 318.98047 282.12891 388.41797 L 278.87109 404.67188 L 263.4375 410.81641 C 211.34375 431.45312 176.34375 482.89062 176.34375 538.81641 C 176.34375 614.74609 238.16406 676.5625 314.10938 676.5625 L 678.25391 676.5625 C 743.87109 676.5625 797.25391 623.10937 797.25391 557.39844 C 797.25391 511.05469 770.01953 468.58203 727.81641 449.16406 L 711.45312 441.63672 L 710.12891 423.65625 C 705.83594 365.78125 656.96484 320.4375 598.83594 320.4375 C 588.58203 320.4375 578.19922 321.89062 567.96484 324.76172 L 550.01953 329.78125 L 537.34375 316.14453 C 509.25391 285.92578 469.47266 268.60156 428.18359 268.60156 z M 276.72656 282.76172 L 154.91016 320.38281 L 257.52734 368.98047 C 260.28906 359.28906 263.89062 349.98047 268.16406 341.07422 C 268.18356 339.19922 268.03517 337.36328 268.10938 335.47266 C 268.85548 317.34375 271.92578 299.72656 276.72656 282.76172 z M 729.89062 315.12891 C 731.5625 328.10937 732.32812 341.27344 731.74609 354.60156 C 731.36328 363.72656 730.41797 372.69141 728.94531 381.5625 C 731.72656 388.65625 733.94532 395.96484 735.54688 403.5625 L 845.07422 369.65625 L 729.89062 315.12891 z M 495.89453 732.22852 C 495.11182 732.10309 494.29101 732.12793 493.47266 732.32812 L 492.30859 732.61719 C 489.07422 733.38281 487.01953 736.74609 487.80078 739.94531 L 498.08984 781.87109 L 456.14453 771.63672 C 452.92578 770.85547 449.60156 772.81641 448.78125 776.08984 L 448.52734 777.25391 C 447.67187 780.54687 449.74609 783.81641 452.98047 784.58203 L 493.96484 794.60156 L 464.01953 824.30859 C 461.65624 826.69141 461.65625 830.52734 463.96484 832.91016 L 464.83594 833.76172 C 467.21875 836.14454 471.01953 836.14453 473.39844 833.81641 L 503.41797 803.96484 L 513.50781 845.12891 C 514.28906 848.36328 517.60156 850.38281 520.81641 849.5625 L 521.98047 849.30859 C 525.27344 848.49219 527.30859 845.21875 526.47266 841.98047 L 516.23828 800.05469 L 558.14453 810.27344 C 561.36328 811.08984 564.67188 809.05469 565.45312 805.83594 L 565.76172 804.67188 C 566.58203 801.45312 564.54688 798.12892 561.32812 797.32812 L 520.30859 787.27344 L 550.30859 757.52734 C 552.63672 755.16406 552.69141 751.34375 550.30859 748.98047 L 549.4375 748.12891 C 547.10937 745.72655 543.25392 745.72656 540.89062 748.07422 L 510.83594 777.85547 L 500.83594 736.76172 C 500.25 734.33593 498.24267 732.6048 495.89453 732.22852 z M 358.10938 732.45312 C 358.10937 732.45312 311.01953 755.49219 291.41797 793.58203 C 268.32812 838.39844 323.21875 868.78125 347.27344 822.34375 C 366.30859 785.47266 358.10938 732.45312 358.10938 732.45312 z M 726.65625 732.45312 C 726.65625 732.45312 679.5625 755.49219 659.96484 793.58203 C 636.87109 838.39844 691.76172 868.78125 715.81641 822.34375 C 734.83594 785.47266 726.65625 732.45312 726.65625 732.45312 z M 255.91211 874.51758 C 255.12958 874.39209 254.30957 874.41699 253.49219 874.61719 L 252.32812 874.91016 C 249.08984 875.67187 247.03516 879.03516 247.83594 882.23828 L 258.12891 924.16406 L 216.18359 913.92578 C 212.96484 913.14453 209.63672 915.10937 208.81641 918.38281 L 208.5625 919.54688 C 207.71094 922.83594 209.78125 926.10937 213.01953 926.87109 L 254 936.89062 L 224.05469 966.60156 C 221.6914 968.98047 221.69141 972.81641 224 975.19922 L 224.87109 976.05469 C 227.25391 978.43752 231.05469 978.4375 233.4375 976.10938 L 263.45312 946.25391 L 273.54688 987.41797 C 274.32813 990.65625 277.63672 992.67187 280.85547 991.85547 L 282.01953 991.60156 C 285.30859 990.78125 287.34375 987.50781 286.50781 984.27344 L 276.27344 942.34375 L 318.18359 952.5625 C 321.39844 953.38281 324.71094 951.34375 325.49219 948.12891 L 325.80078 946.96484 C 326.60156 943.74609 324.5625 940.39844 321.34375 939.61719 L 280.32812 929.5625 L 310.32812 899.81641 C 312.65625 897.45312 312.71094 893.63672 310.32812 891.27344 L 309.45312 890.41797 C 307.12892 888.01952 303.27344 888.01953 300.91016 890.36328 L 270.85547 920.14453 L 260.85547 879.05469 C 260.26953 876.62598 258.2597 874.89404 255.91211 874.51758 z M 624.43945 874.51758 C 623.65692 874.39209 622.83691 874.41699 622.01953 874.61719 L 620.85547 874.91016 C 617.61719 875.67187 615.5625 879.03516 616.34375 882.23828 L 626.63672 924.16406 L 584.69141 913.92578 C 581.47266 913.14453 578.14454 915.10937 577.32812 918.38281 L 577.07422 919.54688 C 576.21875 922.83594 578.28906 926.10937 581.52734 926.87109 L 622.50781 936.89062 L 592.5625 966.60156 C 590.19921 968.98047 590.19922 972.81641 592.50781 975.19922 L 593.38281 976.05469 C 595.76172 978.43752 599.5625 978.4375 601.94531 976.10938 L 631.96484 946.25391 L 642.05469 987.41797 C 642.83594 990.65625 646.14453 992.67187 649.36328 991.85547 L 650.52734 991.60156 C 653.81641 990.78125 655.85547 987.50781 655.01953 984.27344 L 644.78125 942.34375 L 686.69141 952.5625 C 689.91016 953.38281 693.21875 951.34375 694 948.12891 L 694.30859 946.96484 C 695.14453 943.74609 693.08984 940.39844 689.87109 939.61719 L 648.85547 929.5625 L 678.85547 899.81641 C 681.18359 897.45312 681.23828 893.63672 678.85547 891.27344 L 677.98047 890.41797 C 675.65625 888.01952 671.80078 888.01953 669.4375 890.36328 L 639.38281 920.14453 L 629.38281 879.05469 C 628.79688 876.62598 626.78705 874.89404 624.43945 874.51758 z M 486.67188 876.71094 C 486.67187 876.71094 439.58203 899.74609 419.98047 937.83594 C 396.89062 982.65625 451.78125 1013.0352 475.83594 966.60156 C 494.87109 929.72656 486.67188 876.71094 486.67188 876.71094 z " />
</svg>
