<?xml version="1.0" encoding="UTF-8"?>
<svg xmlns="http://www.w3.org/2000/svg" xmlns:xlink="http://www.w3.org/1999/xlink" width="1000" height="1000" viewBox="0 0 1000 1000" version="1.1">
<g id="surface1">
<path d="M 506.199219 166.78125 C 505.78125 166.34375 505.308594 165.980469 504.910156 165.527344 C 506.527344 164.691406 508.253906 163.816406 509.78125 163 C 525.382812 156.21875 541.945312 151.253906 559.253906 148.546875 C 574.527344 146.128906 590.21875 145.417969 605.855469 146.492188 C 661.21875 150.21875 711.835938 175.34375 748.34375 217.199219 C 784.800781 259.035156 802.816406 312.527344 798.964844 367.910156 C 798.492188 375.273438 797.453125 382.492188 796.199219 389.65625 C 796.109375 389.382812 795.964844 389.144531 795.890625 388.910156 C 784.472656 354.035156 760.054688 325.144531 728.21875 308.273438 C 727.980469 308.128906 727.761719 307.964844 727.507812 307.816406 C 724.035156 306 720.289062 304.671875 716.65625 303.144531 C 713.109375 301.636719 709.65625 300 705.980469 298.78125 C 702.800781 297.761719 699.453125 297.144531 696.199219 296.328125 C 691.855469 295.253906 687.527344 294.128906 683.035156 293.492188 C 682.128906 293.363281 681.328125 293.054688 680.417969 292.925781 C 681.253906 274.527344 674.054688 255.074219 673.964844 254.835938 C 661.527344 221.761719 637.871094 194.945312 605.507812 177.273438 C 586.183594 166.726562 565.398438 161.398438 543.726562 161.398438 C 531.199219 161.398438 518.527344 163.289062 506.34375 166.925781 Z M 481.527344 144.289062 C 471.691406 136.492188 461.34375 129.835938 450.617188 124.164062 L 445.472656 31.183594 L 538.761719 122.417969 C 518.507812 127.074219 499.453125 134.761719 481.527344 144.289062 Z M 607.855469 116.871094 C 594.328125 115.945312 580.78125 116.5625 567.328125 117.925781 L 626.453125 1.363281 L 661.617188 127 C 644.308594 121.710938 626.34375 118.109375 607.855469 116.871094 Z M 688.855469 137.21875 L 798.144531 65.910156 L 765.601562 192.34375 C 743.617188 168.65625 717.601562 150.074219 688.855469 137.21875 Z M 784.199219 214.746094 L 914.363281 207.527344 L 823.289062 300.582031 C 816.273438 269.816406 803.035156 240.726562 784.199219 214.746094 Z M 827.78125 329.492188 L 944.199219 388.472656 L 818.363281 423.761719 C 823.761719 406.492188 827.363281 388.507812 828.617188 369.945312 C 829.546875 356.328125 829.109375 342.816406 827.78125 329.492188 Z M 827.78125 329.492188 "/>
<path d="M 211.980469 538.816406 C 211.980469 556.5625 214.835938 573.671875 220.035156 589.726562 C 198.019531 585.78125 180.273438 580.910156 180.273438 580.910156 C 115.636719 558.308594 70.289062 494.308594 76.65625 420.746094 C 81.816406 360.964844 123.398438 310.417969 179.183594 288.273438 L 191.582031 283.34375 L 195.273438 265.019531 C 214.054688 171.144531 310.035156 108.144531 408.601562 137.144531 C 438.164062 145.835938 464.289062 163.671875 485.289062 186.238281 L 497.128906 198.980469 C 497.128906 198.980469 497.945312 199.453125 499.199219 200.238281 C 527.78125 186.546875 561.601562 185.871094 591.835938 202.382812 C 620.019531 217.78125 637.945312 240.238281 647.238281 264.910156 C 648.238281 267.582031 652.527344 282.980469 651.78125 292.671875 C 642.636719 293.417969 633.472656 294.746094 624.453125 297.273438 L 623.289062 297.601562 L 622.453125 296.691406 C 588.980469 260.691406 541.5625 240.054688 492.382812 240.054688 C 408.074219 240.054688 334.871094 300.074219 318.308594 382.816406 L 318.128906 383.871094 L 317.109375 384.273438 C 254.21875 409.183594 211.980469 471.289062 211.980469 538.816406 Z M 792.019531 449.164062 C 834.199219 468.582031 861.4375 511.054688 861.453125 557.417969 C 861.453125 623.128906 808.074219 676.582031 742.453125 676.582031 L 378.308594 676.582031 C 302.363281 676.582031 240.546875 614.761719 240.546875 538.835938 C 240.546875 482.910156 275.546875 431.472656 327.636719 410.835938 L 343.089844 404.691406 L 346.328125 388.4375 C 360.238281 319 421.691406 268.617188 492.382812 268.617188 C 533.671875 268.617188 573.453125 285.945312 601.546875 316.164062 L 614.21875 329.800781 L 632.164062 324.78125 C 642.398438 321.925781 652.78125 320.453125 663.035156 320.453125 C 721.164062 320.453125 770.035156 365.78125 774.328125 423.691406 L 775.65625 441.636719 Z M 792.019531 449.164062 "/>
<path d="M 392.289062 795.363281 C 395.507812 796.144531 397.5625 799.472656 396.746094 802.710938 L 396.4375 803.871094 C 395.65625 807.089844 392.34375 809.128906 389.128906 808.308594 L 347.21875 798.089844 L 357.453125 840.019531 C 358.289062 843.253906 356.253906 846.527344 352.964844 847.34375 L 351.800781 847.601562 C 348.582031 848.417969 345.273438 846.398438 344.492188 843.164062 L 334.398438 802 L 304.382812 831.855469 C 302 834.183594 298.199219 834.183594 295.816406 831.800781 L 294.945312 830.945312 C 292.636719 828.5625 292.636719 824.726562 295 822.34375 L 324.945312 792.636719 L 283.964844 782.617188 C 280.726562 781.855469 278.65625 778.582031 279.507812 775.289062 L 279.761719 774.128906 C 280.582031 770.855469 283.910156 768.890625 287.128906 769.671875 L 329.074219 779.910156 L 318.78125 737.980469 C 317.980469 734.78125 320.035156 731.417969 323.273438 730.65625 L 324.4375 730.363281 C 327.710938 729.5625 331.019531 731.5625 331.800781 734.800781 L 341.800781 775.890625 L 371.855469 746.109375 C 374.21875 743.761719 378.074219 743.761719 380.398438 746.164062 L 381.273438 747.019531 C 383.65625 749.382812 383.601562 753.199219 381.273438 755.5625 L 351.273438 785.308594 Z M 679.273438 938.21875 C 682.492188 939 684.546875 942.328125 683.710938 945.5625 L 683.398438 946.726562 C 682.617188 949.945312 679.308594 951.980469 676.089844 951.164062 L 634.183594 940.945312 L 644.417969 982.871094 C 645.253906 986.109375 643.21875 989.382812 639.925781 990.199219 L 638.761719 990.453125 C 635.546875 991.273438 632.238281 989.253906 631.453125 986.019531 L 621.363281 944.855469 L 591.34375 974.710938 C 588.964844 977.035156 585.164062 977.035156 582.78125 974.65625 L 581.910156 973.800781 C 579.601562 971.417969 579.601562 967.582031 581.964844 965.199219 L 611.910156 935.492188 L 570.925781 925.472656 C 567.691406 924.710938 565.617188 921.4375 566.472656 918.144531 L 566.726562 916.980469 C 567.546875 913.710938 570.871094 911.746094 574.089844 912.527344 L 616.035156 922.761719 L 605.746094 880.835938 C 604.964844 877.636719 607.019531 874.273438 610.253906 873.507812 L 611.417969 873.21875 C 614.691406 872.417969 618 874.417969 618.78125 877.65625 L 628.78125 918.746094 L 658.835938 888.964844 C 661.199219 886.617188 665.054688 886.617188 667.382812 889.019531 L 668.253906 889.871094 C 670.636719 892.238281 670.582031 896.054688 668.253906 898.417969 L 638.253906 928.164062 Z M 496.945312 938.21875 C 500.164062 939 502.21875 942.328125 501.382812 945.5625 L 501.074219 946.726562 C 500.289062 949.945312 496.980469 951.980469 493.761719 951.164062 L 451.855469 940.945312 L 462.089844 982.871094 C 462.925781 986.109375 460.890625 989.382812 457.601562 990.199219 L 456.4375 990.453125 C 453.21875 991.273438 449.910156 989.253906 449.128906 986.019531 L 439.035156 944.855469 L 409.019531 974.710938 C 406.636719 977.035156 402.835938 977.035156 400.453125 974.65625 L 399.582031 973.800781 C 397.273438 971.417969 397.273438 967.582031 399.636719 965.199219 L 429.582031 935.492188 L 388.601562 925.472656 C 385.363281 924.710938 383.289062 921.4375 384.144531 918.144531 L 384.398438 916.980469 C 385.21875 913.710938 388.546875 911.746094 391.761719 912.527344 L 433.710938 922.761719 L 423.417969 880.835938 C 422.636719 877.636719 424.691406 874.273438 427.925781 873.507812 L 429.089844 873.21875 C 432.363281 872.417969 435.671875 874.417969 436.453125 877.65625 L 446.453125 918.746094 L 476.507812 888.964844 C 478.871094 886.617188 482.726562 886.617188 485.054688 889.019531 L 485.925781 889.871094 C 488.308594 892.238281 488.253906 896.054688 485.925781 898.417969 L 455.925781 928.164062 Z M 292.144531 938.21875 C 295.363281 939 297.398438 942.328125 296.601562 945.5625 L 296.289062 946.726562 C 295.507812 949.945312 292.199219 951.980469 288.980469 951.164062 L 247.074219 940.945312 L 257.308594 982.871094 C 258.128906 986.109375 256.089844 989.382812 252.800781 990.199219 L 251.636719 990.453125 C 248.417969 991.273438 245.109375 989.253906 244.328125 986.019531 L 234.238281 944.855469 L 204.21875 974.710938 C 201.835938 977.035156 198.035156 977.035156 195.65625 974.65625 L 194.78125 973.800781 C 192.472656 971.417969 192.472656 967.582031 194.835938 965.199219 L 224.78125 935.492188 L 183.800781 925.472656 C 180.5625 924.710938 178.492188 921.4375 179.34375 918.144531 L 179.601562 916.980469 C 180.417969 913.710938 183.746094 911.746094 186.964844 912.527344 L 228.910156 922.761719 L 218.617188 880.835938 C 217.835938 877.636719 219.890625 874.273438 223.128906 873.507812 L 224.289062 873.21875 C 227.5625 872.417969 230.871094 874.417969 231.65625 877.65625 L 241.65625 918.746094 L 271.710938 888.964844 C 274.074219 886.617188 277.925781 886.617188 280.253906 889.019531 L 281.128906 889.871094 C 283.507812 892.238281 283.453125 896.054688 281.128906 898.417969 L 251.128906 928.164062 Z M 779.4375 795.363281 C 782.65625 796.144531 784.691406 799.472656 783.871094 802.710938 L 783.5625 803.871094 C 782.78125 807.089844 779.472656 809.128906 776.253906 808.308594 L 734.34375 798.089844 L 744.582031 840.019531 C 745.417969 843.253906 743.382812 846.527344 740.089844 847.34375 L 738.925781 847.601562 C 735.710938 848.417969 732.398438 846.398438 731.617188 843.164062 L 721.527344 802 L 691.507812 831.855469 C 689.128906 834.183594 685.328125 834.183594 682.945312 831.800781 L 682.074219 830.945312 C 679.761719 828.5625 679.761719 824.726562 682.128906 822.34375 L 712.074219 792.636719 L 671.089844 782.617188 C 667.855469 781.855469 665.78125 778.582031 666.636719 775.289062 L 666.890625 774.128906 C 667.710938 770.855469 671.035156 768.890625 674.253906 769.671875 L 716.199219 779.910156 L 705.910156 737.980469 C 705.128906 734.78125 707.183594 731.417969 710.417969 730.65625 L 711.582031 730.363281 C 714.855469 729.5625 718.164062 731.5625 718.945312 734.800781 L 728.945312 775.890625 L 759 746.109375 C 761.363281 743.761719 765.21875 743.761719 767.546875 746.164062 L 768.417969 747.019531 C 770.800781 749.382812 770.746094 753.199219 768.417969 755.5625 L 738.417969 785.308594 Z M 585.871094 795.363281 C 589.074219 796.144531 591.128906 799.472656 590.308594 802.710938 L 590 803.871094 C 589.21875 807.089844 585.910156 809.128906 582.691406 808.308594 L 540.78125 798.089844 L 551.019531 840.019531 C 551.855469 843.253906 549.816406 846.527344 546.527344 847.34375 L 545.363281 847.601562 C 542.144531 848.417969 538.835938 846.398438 538.054688 843.164062 L 527.964844 802 L 497.945312 831.855469 C 495.5625 834.183594 491.761719 834.183594 489.382812 831.800781 L 488.507812 830.945312 C 486.199219 828.5625 486.199219 824.726562 488.5625 822.34375 L 518.507812 792.636719 L 477.527344 782.617188 C 474.289062 781.855469 472.21875 778.582031 473.074219 775.289062 L 473.328125 774.128906 C 474.144531 770.855469 477.472656 768.890625 480.691406 769.671875 L 522.636719 779.910156 L 512.34375 737.980469 C 511.5625 734.78125 513.617188 731.417969 516.855469 730.65625 L 518.019531 730.363281 C 521.289062 729.5625 524.601562 731.5625 525.382812 734.800781 L 535.382812 775.890625 L 565.4375 746.109375 C 567.800781 743.761719 571.65625 743.761719 573.980469 746.164062 L 574.855469 747.019531 C 577.238281 749.382812 577.183594 753.199219 574.855469 755.5625 L 544.855469 785.308594 Z M 585.871094 795.363281 "/>
</g>
</svg>
