<?xml version="1.0" encoding="UTF-8"?>
<svg xmlns="http://www.w3.org/2000/svg" xmlns:xlink="http://www.w3.org/1999/xlink" width="1000" height="1000" viewBox="0 0 1000 1000" version="1.1">
<g id="surface1">
<path d="M 506.199219 166.78125 C 505.78125 166.34375 505.308594 165.980469 504.910156 165.527344 C 506.527344 164.691406 508.253906 163.816406 509.78125 163 C 525.382812 156.21875 541.945312 151.253906 559.253906 148.546875 C 574.527344 146.128906 590.21875 145.417969 605.855469 146.492188 C 661.21875 150.21875 711.835938 175.34375 748.34375 217.199219 C 784.800781 259.035156 802.816406 312.527344 798.964844 367.910156 C 798.492188 375.273438 797.453125 382.492188 796.199219 389.65625 C 796.109375 389.382812 795.964844 389.144531 795.890625 388.910156 C 784.472656 354.035156 760.054688 325.144531 728.21875 308.273438 C 727.980469 308.128906 727.761719 307.964844 727.507812 307.816406 C 724.035156 306 720.289062 304.671875 716.65625 303.144531 C 713.109375 301.636719 709.65625 300 705.980469 298.78125 C 702.800781 297.761719 699.453125 297.144531 696.199219 296.328125 C 691.855469 295.253906 687.527344 294.128906 683.035156 293.492188 C 682.128906 293.363281 681.328125 293.054688 680.417969 292.925781 C 681.253906 274.527344 674.054688 255.074219 673.964844 254.835938 C 661.527344 221.761719 637.871094 194.945312 605.507812 177.273438 C 586.183594 166.726562 565.398438 161.398438 543.726562 161.398438 C 531.199219 161.398438 518.527344 163.289062 506.34375 166.925781 Z M 481.527344 144.289062 C 471.691406 136.492188 461.34375 129.835938 450.617188 124.164062 L 445.472656 31.183594 L 538.761719 122.417969 C 518.507812 127.074219 499.453125 134.761719 481.527344 144.289062 Z M 607.855469 116.871094 C 594.328125 115.945312 580.78125 116.5625 567.328125 117.925781 L 626.453125 1.363281 L 661.617188 127 C 644.308594 121.710938 626.34375 118.109375 607.855469 116.871094 Z M 688.855469 137.21875 L 798.144531 65.910156 L 765.601562 192.34375 C 743.617188 168.65625 717.601562 150.074219 688.855469 137.21875 Z M 784.199219 214.746094 L 914.363281 207.527344 L 823.289062 300.582031 C 816.273438 269.816406 803.035156 240.726562 784.199219 214.746094 Z M 827.78125 329.492188 L 944.199219 388.472656 L 818.363281 423.761719 C 823.761719 406.492188 827.363281 388.507812 828.617188 369.945312 C 829.546875 356.328125 829.109375 342.816406 827.78125 329.492188 Z M 827.78125 329.492188 "/>
<path d="M 211.980469 538.816406 C 211.980469 556.5625 214.835938 573.671875 220.035156 589.726562 C 198.019531 585.78125 180.273438 580.910156 180.273438 580.910156 C 115.636719 558.308594 70.289062 494.308594 76.65625 420.746094 C 81.816406 360.964844 123.398438 310.417969 179.183594 288.273438 L 191.582031 283.34375 L 195.273438 265.019531 C 214.054688 171.144531 310.035156 108.144531 408.601562 137.144531 C 438.164062 145.835938 464.289062 163.671875 485.289062 186.238281 L 497.128906 198.980469 C 497.128906 198.980469 497.945312 199.453125 499.199219 200.238281 C 527.78125 186.546875 561.601562 185.871094 591.835938 202.382812 C 620.019531 217.78125 637.945312 240.238281 647.238281 264.910156 C 648.238281 267.582031 652.527344 282.980469 651.78125 292.671875 C 642.636719 293.417969 633.472656 294.746094 624.453125 297.273438 L 623.289062 297.601562 L 622.453125 296.691406 C 588.980469 260.691406 541.5625 240.054688 492.382812 240.054688 C 408.074219 240.054688 334.871094 300.074219 318.308594 382.816406 L 318.128906 383.871094 L 317.109375 384.273438 C 254.21875 409.183594 211.980469 471.289062 211.980469 538.816406 Z M 792.019531 449.164062 C 834.199219 468.582031 861.4375 511.054688 861.453125 557.417969 C 861.453125 623.128906 808.074219 676.582031 742.453125 676.582031 L 378.308594 676.582031 C 302.363281 676.582031 240.546875 614.761719 240.546875 538.835938 C 240.546875 482.910156 275.546875 431.472656 327.636719 410.835938 L 343.089844 404.691406 L 346.328125 388.4375 C 360.238281 319 421.691406 268.617188 492.382812 268.617188 C 533.671875 268.617188 573.453125 285.945312 601.546875 316.164062 L 614.21875 329.800781 L 632.164062 324.78125 C 642.398438 321.925781 652.78125 320.453125 663.035156 320.453125 C 721.164062 320.453125 770.035156 365.78125 774.328125 423.691406 L 775.65625 441.636719 Z M 792.019531 449.164062 "/>
<path d="M 347.273438 822.34375 C 323.21875 868.78125 268.328125 838.398438 291.417969 793.582031 C 311.019531 755.492188 358.109375 732.453125 358.109375 732.453125 C 358.109375 732.453125 366.308594 785.472656 347.273438 822.34375 Z M 475.835938 966.601562 C 451.78125 1013.035156 396.890625 982.65625 419.980469 937.835938 C 439.582031 899.746094 486.671875 876.710938 486.671875 876.710938 C 486.671875 876.710938 494.871094 929.726562 475.835938 966.601562 Z M 715.816406 822.34375 C 691.761719 868.78125 636.871094 838.398438 659.964844 793.582031 C 679.5625 755.492188 726.65625 732.453125 726.65625 732.453125 C 726.65625 732.453125 734.835938 785.472656 715.816406 822.34375 Z M 715.816406 822.34375 "/>
<path d="M 561.328125 797.328125 C 564.546875 798.128906 566.582031 801.453125 565.761719 804.671875 L 565.453125 805.835938 C 564.671875 809.054688 561.363281 811.089844 558.144531 810.273438 L 516.238281 800.054688 L 526.472656 841.980469 C 527.308594 845.21875 525.273438 848.492188 521.980469 849.308594 L 520.816406 849.5625 C 517.601562 850.382812 514.289062 848.363281 513.507812 845.128906 L 503.417969 803.964844 L 473.398438 833.816406 C 471.019531 836.144531 467.21875 836.144531 464.835938 833.761719 L 463.964844 832.910156 C 461.65625 830.527344 461.65625 826.691406 464.019531 824.308594 L 493.964844 794.601562 L 452.980469 784.582031 C 449.746094 783.816406 447.671875 780.546875 448.527344 777.253906 L 448.78125 776.089844 C 449.601562 772.816406 452.925781 770.855469 456.144531 771.636719 L 498.089844 781.871094 L 487.800781 739.945312 C 487.019531 736.746094 489.074219 733.382812 492.308594 732.617188 L 493.472656 732.328125 C 496.746094 731.527344 500.054688 733.527344 500.835938 736.761719 L 510.835938 777.855469 L 540.890625 748.074219 C 543.253906 745.726562 547.109375 745.726562 549.4375 748.128906 L 550.308594 748.980469 C 552.691406 751.34375 552.636719 755.164062 550.308594 757.527344 L 520.308594 787.273438 Z M 689.871094 939.617188 C 693.089844 940.398438 695.144531 943.746094 694.308594 946.964844 L 694 948.128906 C 693.21875 951.34375 689.910156 953.382812 686.691406 952.5625 L 644.78125 942.34375 L 655.019531 984.273438 C 655.855469 987.507812 653.816406 990.78125 650.527344 991.601562 L 649.363281 991.855469 C 646.144531 992.671875 642.835938 990.65625 642.054688 987.417969 L 631.964844 946.253906 L 601.945312 976.109375 C 599.5625 978.4375 595.761719 978.4375 593.382812 976.054688 L 592.507812 975.199219 C 590.199219 972.816406 590.199219 968.980469 592.5625 966.601562 L 622.507812 936.890625 L 581.527344 926.871094 C 578.289062 926.109375 576.21875 922.835938 577.074219 919.546875 L 577.328125 918.382812 C 578.144531 915.109375 581.472656 913.144531 584.691406 913.925781 L 626.636719 924.164062 L 616.34375 882.238281 C 615.5625 879.035156 617.617188 875.671875 620.855469 874.910156 L 622.019531 874.617188 C 625.289062 873.816406 628.601562 875.816406 629.382812 879.054688 L 639.382812 920.144531 L 669.4375 890.363281 C 671.800781 888.019531 675.65625 888.019531 677.980469 890.417969 L 678.855469 891.273438 C 681.238281 893.636719 681.183594 897.453125 678.855469 899.816406 L 648.855469 929.5625 Z M 321.34375 939.617188 C 324.5625 940.398438 326.601562 943.746094 325.800781 946.964844 L 325.492188 948.128906 C 324.710938 951.34375 321.398438 953.382812 318.183594 952.5625 L 276.273438 942.34375 L 286.507812 984.273438 C 287.34375 987.507812 285.308594 990.78125 282.019531 991.601562 L 280.855469 991.855469 C 277.636719 992.671875 274.328125 990.65625 273.546875 987.417969 L 263.453125 946.253906 L 233.4375 976.109375 C 231.054688 978.4375 227.253906 978.4375 224.871094 976.054688 L 224 975.199219 C 221.691406 972.816406 221.691406 968.980469 224.054688 966.601562 L 254 936.890625 L 213.019531 926.871094 C 209.78125 926.109375 207.710938 922.835938 208.5625 919.546875 L 208.816406 918.382812 C 209.636719 915.109375 212.964844 913.144531 216.183594 913.925781 L 258.128906 924.164062 L 247.835938 882.238281 C 247.035156 879.035156 249.089844 875.671875 252.328125 874.910156 L 253.492188 874.617188 C 256.761719 873.816406 260.074219 875.816406 260.855469 879.054688 L 270.855469 920.144531 L 300.910156 890.363281 C 303.273438 888.019531 307.128906 888.019531 309.453125 890.417969 L 310.328125 891.273438 C 312.710938 893.636719 312.65625 897.453125 310.328125 899.816406 L 280.328125 929.5625 Z M 321.34375 939.617188 "/>
</g>
</svg>
