<?xml version="1.0" encoding="UTF-8"?>
<svg xmlns="http://www.w3.org/2000/svg" xmlns:xlink="http://www.w3.org/1999/xlink" width="1000" height="1000" viewBox="0 0 1000 1000" version="1.1">
<g id="surface1">
<path d="M 506.199219 166.78125 C 505.78125 166.34375 505.308594 165.980469 504.910156 165.527344 C 506.527344 164.691406 508.253906 163.816406 509.78125 163 C 525.382812 156.21875 541.945312 151.253906 559.253906 148.546875 C 574.527344 146.128906 590.21875 145.417969 605.855469 146.492188 C 661.21875 150.21875 711.835938 175.34375 748.34375 217.199219 C 784.800781 259.035156 802.816406 312.527344 798.964844 367.910156 C 798.492188 375.273438 797.453125 382.492188 796.199219 389.65625 C 796.109375 389.382812 795.964844 389.144531 795.890625 388.910156 C 784.472656 354.035156 760.054688 325.144531 728.21875 308.273438 C 727.980469 308.128906 727.761719 307.964844 727.507812 307.816406 C 724.035156 306 720.289062 304.671875 716.65625 303.144531 C 713.109375 301.636719 709.65625 300 705.980469 298.78125 C 702.800781 297.761719 699.453125 297.144531 696.199219 296.328125 C 691.855469 295.253906 687.527344 294.128906 683.035156 293.492188 C 682.128906 293.363281 681.328125 293.054688 680.417969 292.925781 C 681.253906 274.527344 674.054688 255.074219 673.964844 254.835938 C 661.527344 221.761719 637.871094 194.945312 605.507812 177.273438 C 586.183594 166.726562 565.398438 161.398438 543.726562 161.398438 C 531.199219 161.398438 518.527344 163.289062 506.34375 166.925781 Z M 481.527344 144.289062 C 471.691406 136.492188 461.34375 129.835938 450.617188 124.164062 L 445.472656 31.183594 L 538.761719 122.417969 C 518.507812 127.074219 499.453125 134.761719 481.527344 144.289062 Z M 607.855469 116.871094 C 594.328125 115.945312 580.78125 116.5625 567.328125 117.925781 L 626.453125 1.363281 L 661.617188 127 C 644.308594 121.710938 626.34375 118.109375 607.855469 116.871094 Z M 688.855469 137.21875 L 798.144531 65.910156 L 765.601562 192.34375 C 743.617188 168.65625 717.601562 150.074219 688.855469 137.21875 Z M 784.199219 214.746094 L 914.363281 207.527344 L 823.289062 300.582031 C 816.273438 269.816406 803.035156 240.726562 784.199219 214.746094 Z M 827.78125 329.492188 L 944.199219 388.472656 L 818.363281 423.761719 C 823.761719 406.492188 827.363281 388.507812 828.617188 369.945312 C 829.546875 356.328125 829.109375 342.816406 827.78125 329.492188 Z M 827.78125 329.492188 "/>
<path d="M 211.980469 538.816406 C 211.980469 556.5625 214.835938 573.671875 220.035156 589.726562 C 198.019531 585.78125 180.273438 580.910156 180.273438 580.910156 C 115.636719 558.308594 70.289062 494.308594 76.65625 420.746094 C 81.816406 360.964844 123.398438 310.417969 179.183594 288.273438 L 191.582031 283.34375 L 195.273438 265.019531 C 214.054688 171.144531 310.035156 108.144531 408.601562 137.144531 C 438.164062 145.835938 464.289062 163.671875 485.289062 186.238281 L 497.128906 198.980469 C 497.128906 198.980469 497.945312 199.453125 499.199219 200.238281 C 527.78125 186.546875 561.601562 185.871094 591.835938 202.382812 C 620.019531 217.78125 637.945312 240.238281 647.238281 264.910156 C 648.238281 267.582031 652.527344 282.980469 651.78125 292.671875 C 642.636719 293.417969 633.472656 294.746094 624.453125 297.273438 L 623.289062 297.601562 L 622.453125 296.691406 C 588.980469 260.691406 541.5625 240.054688 492.382812 240.054688 C 408.074219 240.054688 334.871094 300.074219 318.308594 382.816406 L 318.128906 383.871094 L 317.109375 384.273438 C 254.21875 409.183594 211.980469 471.289062 211.980469 538.816406 Z M 792.019531 449.164062 C 834.199219 468.582031 861.4375 511.054688 861.453125 557.417969 C 861.453125 623.128906 808.074219 676.582031 742.453125 676.582031 L 378.308594 676.582031 C 302.363281 676.582031 240.546875 614.761719 240.546875 538.835938 C 240.546875 482.910156 275.546875 431.472656 327.636719 410.835938 L 343.089844 404.691406 L 346.328125 388.4375 C 360.238281 319 421.691406 268.617188 492.382812 268.617188 C 533.671875 268.617188 573.453125 285.945312 601.546875 316.164062 L 614.21875 329.800781 L 632.164062 324.78125 C 642.398438 321.925781 652.78125 320.453125 663.035156 320.453125 C 721.164062 320.453125 770.035156 365.78125 774.328125 423.691406 L 775.65625 441.636719 Z M 792.019531 449.164062 "/>
<path d="M 582.492188 790.273438 L 531.308594 789.492188 L 573.273438 716.089844 L 508.492188 716.636719 L 453.527344 826.144531 L 501.382812 826.144531 L 434.183594 992.128906 Z M 582.492188 790.273438 "/>
</g>
</svg>
