<?xml version="1.0" encoding="UTF-8" standalone="no"?>
<svg
   width="1000"
   height="1000"
   viewBox="0 0 1000 1000"
   version="1.1"
   id="svg1337"
   xmlns="http://www.w3.org/2000/svg"
   xmlns:svg="http://www.w3.org/2000/svg">
  <defs
     id="defs1341" />
  <path
     id="path1326"
     d="M 595.72656 0.7265625 C 569.25391 8.3281255 543.71094 20.964844 520.71094 39.089844 C 481.47266 69.964844 458.63672 112.30859 449.96484 157.10938 C 446.08984 188.27345 445.36328 217.96484 446.12891 246.54688 C 478.87109 254.92578 509 272.36328 532.34375 297.41797 L 533.18359 298.32812 L 534.32812 298 C 547.08984 294.4375 560.07422 292.61719 572.92578 292.61719 C 644.80078 292.61719 705.18359 347.92578 712.16406 419.05469 C 739.91016 413.69141 766.91016 402.49219 791.39844 383.19922 C 814.45312 365.10937 832.71094 343.28906 846.30859 319.28906 C 759.47266 369.03516 661.07422 311.10937 606.34375 242.08984 C 557.49219 180.45312 526.91016 73.398439 595.72656 0.7265625 z M 402.27344 268.03516 C 331.58203 268.03516 270.12891 318.41797 256.21875 387.85547 L 252.96484 404.10938 L 237.52734 410.25391 C 185.4375 430.89062 150.4375 482.32812 150.4375 538.25391 C 150.4375 614.18359 212.25391 676 288.19922 676 L 652.34375 676 C 717.96484 676 771.34375 622.54687 771.34375 556.83594 C 771.32815 510.50781 744.08984 468.01953 701.91016 448.60156 L 685.54688 441.07422 L 684.21875 423.08984 C 679.92578 365.21875 631.05469 319.87109 572.92578 319.87109 C 562.67187 319.87109 552.28906 321.32812 542.05469 324.19922 L 524.10938 329.21875 L 511.4375 315.58203 C 483.34375 285.36328 443.5625 268.03516 402.27344 268.03516 z M 518.72656 716.08984 L 453.94531 716.63672 L 398.98047 826.14453 L 446.83594 826.14453 L 379.63672 992.12891 L 527.94531 790.27344 L 476.76172 789.49219 L 518.72656 716.08984 z M 286.00586 730.19141 C 285.60059 730.20703 285.19043 730.26318 284.78125 730.36328 L 283.61719 730.65625 C 280.38281 731.41797 278.32812 734.78125 279.12891 737.98047 L 289.41797 779.91016 L 247.47266 769.67188 C 244.25391 768.89062 240.92579 770.85547 240.10938 774.12891 L 239.85547 775.28906 C 239 778.58203 241.07422 781.85547 244.30859 782.61719 L 285.28906 792.63672 L 255.34375 822.34375 C 252.98047 824.72656 252.98048 828.5625 255.28906 830.94531 L 256.16406 831.80078 C 258.54687 834.18359 262.34375 834.18358 264.72656 831.85547 L 294.74609 802 L 304.83594 843.16406 C 305.61719 846.39844 308.92578 848.41797 312.14453 847.60156 L 313.30859 847.34375 C 316.60156 846.52734 318.63672 843.25391 317.80078 840.01953 L 307.5625 798.08984 L 349.47266 808.30859 C 352.69141 809.12891 356 807.08984 356.78125 803.87109 L 357.08984 802.71094 C 357.91016 799.47266 355.85547 796.14453 352.63672 795.36328 L 311.61719 785.30859 L 341.61719 755.5625 C 343.94531 753.19922 344 749.38281 341.61719 747.01953 L 340.74609 746.16406 C 338.41797 743.76172 334.5625 743.76174 332.19922 746.10938 L 302.14453 775.89062 L 292.14453 734.80078 C 291.46094 731.96729 288.84277 730.08203 286.00586 730.19141 z M 677.36328 732.45312 C 677.36328 732.45312 630.27345 755.49219 610.67188 793.58203 C 587.58203 838.39844 642.47266 868.78125 666.52734 822.34375 C 685.54687 785.47266 677.36328 732.45312 677.36328 732.45312 z " />
</svg>
