<?xml version="1.0" encoding="UTF-8" standalone="no"?>
<svg
   width="1000"
   height="1000"
   viewBox="0 0 1000 1000"
   version="1.1"
   id="svg1629"
   xmlns="http://www.w3.org/2000/svg"
   xmlns:svg="http://www.w3.org/2000/svg">
  <defs
     id="defs1633" />
  <path
     id="path1618"
     d="M 595.72656 0.7265625 C 569.25391 8.3281255 543.71094 20.964844 520.71094 39.089844 C 481.47266 69.964844 458.63672 112.30859 449.96484 157.10938 C 446.08984 188.27345 445.36328 217.96484 446.12891 246.54688 C 478.87109 254.92578 509 272.36328 532.34375 297.41797 L 533.18359 298.32812 L 534.32812 298 C 547.08984 294.4375 560.07422 292.61719 572.92578 292.61719 C 644.80078 292.61719 705.18359 347.92578 712.16406 419.05469 C 739.91016 413.69141 766.91016 402.49219 791.39844 383.19922 C 814.45312 365.10937 832.71094 343.28906 846.30859 319.28906 C 759.47266 369.03516 661.07422 311.10937 606.34375 242.08984 C 557.49219 180.45312 526.91016 73.398439 595.72656 0.7265625 z M 402.27344 268.03516 C 331.58203 268.03516 270.12891 318.41797 256.21875 387.85547 L 252.96484 404.10938 L 237.52734 410.25391 C 185.4375 430.89062 150.4375 482.32812 150.4375 538.25391 C 150.4375 614.18359 212.25391 676 288.19922 676 L 652.34375 676 C 717.96484 676 771.34375 622.54687 771.34375 556.83594 C 771.32815 510.50781 744.08984 468.01953 701.91016 448.60156 L 685.54688 441.07422 L 684.21875 423.08984 C 679.92578 365.21875 631.05469 319.87109 572.92578 319.87109 C 562.67187 319.87109 552.28906 321.32812 542.05469 324.19922 L 524.10938 329.21875 L 511.4375 315.58203 C 483.34375 285.36328 443.5625 268.03516 402.27344 268.03516 z M 518.72656 716.08984 L 453.94531 716.63672 L 398.98047 826.14453 L 446.83594 826.14453 L 379.63672 992.12891 L 527.94531 790.27344 L 476.76172 789.49219 L 518.72656 716.08984 z M 285.47266 732.45312 C 285.47266 732.45312 238.38281 755.49219 218.78125 793.58203 C 195.69141 838.39844 250.58203 868.78125 274.63672 822.34375 C 293.65625 785.47266 285.47266 732.45312 285.47266 732.45312 z M 704.12891 732.45312 C 704.12891 732.45312 657.03516 755.49219 637.4375 793.58203 C 614.34375 838.39844 669.23828 868.78125 693.28906 822.34375 C 712.30859 785.47266 704.12891 732.45312 704.12891 732.45312 z M 120.875 872.26367 C 120.09229 872.13818 119.27148 872.16309 118.45312 872.36328 L 117.28906 872.65625 C 114.05469 873.41797 112 876.78125 112.78125 879.98047 L 123.07422 921.91016 L 81.128906 911.67188 C 77.910156 910.89062 74.582031 912.85547 73.761719 916.12891 L 73.507812 917.28906 C 72.65625 920.58203 74.726562 923.85547 77.964844 924.61719 L 118.94531 934.63672 L 89 964.34375 C 86.636719 966.72656 86.636719 970.5625 88.945312 972.94531 L 89.816406 973.80078 C 92.199219 976.18359 96 976.18359 98.382812 973.85547 L 128.39844 944 L 138.49219 985.16406 C 139.27344 988.39844 142.58203 990.41797 145.80078 989.60156 L 146.96484 989.34375 C 150.25391 988.52734 152.28906 985.25391 151.47266 982.01953 L 141.23828 940.08984 L 183.14453 950.30859 C 186.36328 951.12891 189.67188 949.08984 190.45312 945.87109 L 190.76172 944.71094 C 191.58203 941.49219 189.52734 938.14453 186.30859 937.36328 L 145.28906 927.30859 L 175.28906 897.5625 C 177.61719 895.19922 177.67187 891.38281 175.28906 889.01953 L 174.41797 888.16406 C 172.08984 885.76171 168.23828 885.76172 165.87109 888.10938 L 135.81641 917.89062 L 125.81641 876.80078 C 125.23047 874.37207 123.22314 872.64014 120.875 872.26367 z M 553.64062 872.26367 C 552.85791 872.13818 552.03711 872.16309 551.21875 872.36328 L 550.05469 872.65625 C 546.81641 873.41797 544.76172 876.78125 545.54688 879.98047 L 555.83594 921.91016 L 513.89062 911.67188 C 510.67188 910.89063 507.34375 912.85547 506.52734 916.12891 L 506.27344 917.28906 C 505.41797 920.58203 507.49219 923.85547 510.72656 924.61719 L 551.71094 934.63672 L 521.76172 964.34375 C 519.39842 966.72656 519.39844 970.5625 521.71094 972.94531 L 522.58203 973.80078 C 524.96484 976.1836 528.76172 976.18359 531.14453 973.85547 L 561.16406 944 L 571.25391 985.16406 C 572.03516 988.39844 575.34375 990.41797 578.5625 989.60156 L 579.72656 989.34375 C 583.01953 988.52734 585.05469 985.25391 584.21875 982.01953 L 573.98047 940.08984 L 615.89062 950.30859 C 619.10938 951.12891 622.41797 949.08984 623.19922 945.87109 L 623.50781 944.71094 C 624.32812 941.49219 622.28906 938.14453 619.07422 937.36328 L 578.05469 927.30859 L 608.05469 897.5625 C 610.38281 895.19922 610.4375 891.38281 608.05469 889.01953 L 607.18359 888.16406 C 604.85547 885.76171 601 885.76172 598.63672 888.10938 L 568.58203 917.89062 L 558.58203 876.80078 C 557.99609 874.37207 555.98877 872.64014 553.64062 872.26367 z M 708.25781 872.26367 C 707.4751 872.13818 706.65429 872.16309 705.83594 872.36328 L 704.67188 872.65625 C 701.43751 873.41797 699.38281 876.78125 700.16406 879.98047 L 710.45312 921.91016 L 668.50781 911.67188 C 665.28906 910.89063 661.96484 912.85547 661.14453 916.12891 L 660.89062 917.28906 C 660.03517 920.58203 662.10937 923.85547 665.34375 924.61719 L 706.32812 934.63672 L 676.36328 964.39844 C 674 966.78125 674 970.61719 676.30859 973 L 677.18359 973.85547 C 679.5625 976.23829 683.36328 976.23828 685.74609 973.91016 L 715.76172 944.05469 L 725.85547 985.21875 C 726.63672 988.45312 729.94531 990.47266 733.16406 989.65625 L 734.32812 989.39844 C 737.61719 988.58203 739.65625 985.30859 738.81641 982.07422 L 728.58203 940.14453 L 770.49219 950.36328 C 773.71094 951.18359 777.01953 949.14453 777.80078 945.92578 L 778.10938 944.76172 C 778.96485 941.49219 776.91016 938.14453 773.69141 937.36328 L 732.67188 927.30859 L 762.67188 897.5625 C 765 895.19922 765.0547 891.38281 762.67188 889.01953 L 761.80078 888.16406 C 759.47266 885.76171 755.61719 885.76172 753.25391 888.10938 L 723.19922 917.89062 L 713.19922 876.80078 C 712.61328 874.37207 710.60596 872.64014 708.25781 872.26367 z M 322.45312 874.47266 C 322.45313 874.47266 275.36328 897.50781 255.76172 935.60156 C 232.67187 980.41797 287.5625 1010.8008 311.61719 964.36328 C 330.63672 927.47266 322.45312 874.47266 322.45312 874.47266 z " />
</svg>
