<?xml version="1.0" encoding="UTF-8" standalone="no"?>
<svg
   width="1000"
   height="1000"
   viewBox="0 0 1000 1000"
   version="1.1"
   id="svg1913"
   xmlns="http://www.w3.org/2000/svg"
   xmlns:svg="http://www.w3.org/2000/svg">
  <defs
     id="defs1917" />
  <path
     id="path1904"
     d="M 595.72656 0.7265625 C 569.25391 8.3281255 543.71094 20.964844 520.71094 39.089844 C 481.47266 69.964844 458.63672 112.30859 449.96484 157.10938 C 446.08984 188.27345 445.36328 217.96484 446.12891 246.54688 C 478.87109 254.92578 509 272.36328 532.34375 297.41797 L 533.18359 298.32812 L 534.32812 298 C 547.08984 294.4375 560.07422 292.61719 572.92578 292.61719 C 644.80078 292.61719 705.18359 347.92578 712.16406 419.05469 C 739.91016 413.69141 766.91016 402.49219 791.39844 383.19922 C 814.45312 365.10937 832.71094 343.28906 846.30859 319.28906 C 759.47266 369.03516 661.07422 311.10937 606.34375 242.08984 C 557.49219 180.45312 526.91016 73.398439 595.72656 0.7265625 z M 402.27344 268.03516 C 331.58203 268.03516 270.12891 318.41797 256.21875 387.85547 L 252.96484 404.10938 L 237.52734 410.25391 C 185.4375 430.89062 150.4375 482.32812 150.4375 538.25391 C 150.4375 614.18359 212.25391 676 288.19922 676 L 652.34375 676 C 717.96484 676 771.34375 622.54687 771.34375 556.83594 C 771.32815 510.50781 744.08984 468.01953 701.91016 448.60156 L 685.54688 441.07422 L 684.21875 423.08984 C 679.92578 365.21875 631.05469 319.87109 572.92578 319.87109 C 562.67187 319.87109 552.28906 321.32812 542.05469 324.19922 L 524.10938 329.21875 L 511.4375 315.58203 C 483.34375 285.36328 443.5625 268.03516 402.27344 268.03516 z M 552.10938 716.08984 L 487.32812 716.63672 L 432.36328 826.14453 L 480.21875 826.14453 L 413.01953 992.12891 L 561.32812 790.27344 L 510.14453 789.49219 L 552.10938 716.08984 z M 300.92969 730.26367 C 300.14697 730.13818 299.32617 730.16309 298.50781 730.36328 L 297.34375 730.65625 C 294.10937 731.41797 292.05469 734.78125 292.85547 737.98047 L 303.14453 779.91016 L 261.19922 769.67188 C 257.98047 768.89063 254.65625 770.85547 253.83594 774.12891 L 253.58203 775.28906 C 252.72656 778.58203 254.80078 781.85547 258.03516 782.61719 L 299.01953 792.63672 L 269.07422 822.34375 C 266.71093 824.72656 266.71094 828.5625 269.01953 830.94531 L 269.89062 831.80078 C 272.27344 834.1836 276.07423 834.18359 278.45312 831.85547 L 308.47266 802 L 318.5625 843.16406 C 319.34375 846.39844 322.65625 848.41797 325.87109 847.60156 L 327.03516 847.34375 C 330.32812 846.52734 332.36328 843.25391 331.52734 840.01953 L 321.28906 798.08984 L 363.19922 808.30859 C 366.41797 809.12891 369.72656 807.08984 370.50781 803.87109 L 370.81641 802.71094 C 371.61719 799.47266 369.5625 796.14453 366.36328 795.36328 L 325.34375 785.30859 L 355.34375 755.5625 C 357.67187 753.19922 357.72656 749.38281 355.34375 747.01953 L 354.47266 746.16406 C 352.14453 743.76171 348.28906 743.76172 345.92578 746.10938 L 315.87109 775.89062 L 305.87109 734.80078 C 305.28516 732.37207 303.27783 730.64014 300.92969 730.26367 z M 680.13086 730.26367 C 679.34863 730.13818 678.52832 730.16309 677.71094 730.36328 L 676.54688 730.65625 C 673.30859 731.41797 671.25391 734.78125 672.03516 737.98047 L 682.32812 779.91016 L 640.38281 769.67188 C 637.16406 768.89063 633.83594 770.85547 633.01953 774.12891 L 632.76172 775.28906 C 631.91016 778.58203 633.98047 781.85547 637.21875 782.61719 L 678.19922 792.63672 L 648.25391 822.34375 C 645.89061 824.72656 645.89062 828.5625 648.19922 830.94531 L 649.07422 831.80078 C 651.45312 834.1836 655.25391 834.18359 657.63672 831.85547 L 687.65625 802 L 697.74609 843.16406 C 698.52734 846.39844 701.83594 848.41797 705.05469 847.60156 L 706.21875 847.34375 C 709.50781 846.52734 711.54687 843.25391 710.72656 840.01953 L 700.49219 798.08984 L 742.39844 808.30859 C 745.61719 809.12891 748.92578 807.08984 749.71094 803.87109 L 750.01953 802.71094 C 750.81641 799.47266 748.78125 796.14453 745.5625 795.36328 L 704.54688 785.30859 L 734.54688 755.5625 C 736.8711 753.19922 736.92579 749.38281 734.54688 747.01953 L 733.67188 746.16406 C 731.34375 743.76171 727.49219 743.76172 725.12891 746.10938 L 695.07422 775.89062 L 685.07422 734.80078 C 684.48535 732.37207 682.47754 730.64014 680.13086 730.26367 z M 298.33203 873.11914 C 297.54932 872.99365 296.72851 873.01855 295.91016 873.21875 L 294.74609 873.50781 C 291.50781 874.27344 289.45312 877.63672 290.25391 880.83594 L 300.54688 922.76172 L 258.60156 912.52734 C 255.38281 911.74609 252.05469 913.71094 251.23828 916.98047 L 250.98047 918.14453 C 250.12891 921.4375 252.19922 924.71094 255.4375 925.47266 L 296.41797 935.49219 L 266.47266 965.19922 C 264.10936 967.58203 264.10937 971.41797 266.41797 973.80078 L 267.28906 974.65625 C 269.67187 977.03517 273.47266 977.03516 275.85547 974.71094 L 305.87109 944.85547 L 315.96484 986.01953 C 316.74609 989.25391 320.05469 991.27345 323.27344 990.45312 L 324.4375 990.19922 C 327.72656 989.38281 329.76172 986.10937 328.92578 982.87109 L 318.69141 940.94531 L 360.60156 951.16406 C 363.81641 951.98047 367.12891 949.94531 367.91016 946.72656 L 368.21875 945.5625 C 369.01953 942.32812 366.98047 939 363.76172 938.21875 L 322.74609 928.16406 L 352.74609 898.41797 C 355.07422 896.05469 355.12891 892.23828 352.74609 889.87109 L 351.87109 889.01953 C 349.54687 886.61718 345.69142 886.61719 343.32812 888.96484 L 313.27344 918.74609 L 303.27344 877.65625 C 302.6875 875.22754 300.68017 873.49561 298.33203 873.11914 z M 586.29297 873.11914 C 585.51019 872.99365 584.68945 873.01855 583.87109 873.21875 L 582.71094 873.50781 C 579.47266 874.27344 577.41797 877.63672 578.19922 880.83594 L 588.49219 922.76172 L 546.54688 912.54688 C 543.32812 911.76172 540 913.72656 539.18359 917 L 538.92578 918.16406 C 538.07422 921.45312 540.14453 924.72656 543.38281 925.49219 L 584.36328 935.50781 L 554.41797 965.21875 C 552.05468 967.60156 552.05469 971.4375 554.36328 973.81641 L 555.23828 974.67188 C 557.61719 977.05471 561.41797 977.05469 563.80078 974.72656 L 593.81641 944.87109 L 603.91016 986.03516 C 604.69141 989.27344 608 991.28906 611.21875 990.47266 L 612.38281 990.21875 C 615.67187 989.39844 617.71094 986.12892 616.87109 982.89062 L 606.63672 940.96484 L 648.54688 951.18359 C 651.76172 952 655.07422 949.96484 655.85547 946.74609 L 656.16406 945.58203 C 657 942.32812 654.94531 939 651.72656 938.21875 L 610.71094 928.16406 L 640.71094 898.41797 C 643.03516 896.05469 643.08984 892.23828 640.71094 889.87109 L 639.83594 889.01953 C 637.50781 886.61718 633.65625 886.61719 631.28906 888.96484 L 601.23828 918.74609 L 591.23828 877.65625 C 590.64941 875.22754 588.6413 873.49561 586.29297 873.11914 z " />
</svg>
