<?xml version="1.0" encoding="UTF-8" standalone="no"?>
<svg
   width="1000"
   height="1000"
   viewBox="0 0 1000 1000"
   version="1.1"
   id="svg1191"
   xmlns="http://www.w3.org/2000/svg"
   xmlns:svg="http://www.w3.org/2000/svg">
  <defs
     id="defs1195" />
  <path
     id="path1182"
     d="M 595.72656 0.7265625 C 569.25391 8.3281255 543.71094 20.964844 520.71094 39.089844 C 481.47266 69.964844 458.63672 112.30859 449.96484 157.10938 C 446.08984 188.27345 445.36328 217.96484 446.12891 246.54688 C 478.87109 254.92578 509 272.36328 532.34375 297.41797 L 533.18359 298.32812 L 534.32812 298 C 547.08984 294.4375 560.07422 292.61719 572.92578 292.61719 C 644.80078 292.61719 705.18359 347.92578 712.16406 419.05469 C 739.91016 413.69141 766.91016 402.49219 791.39844 383.19922 C 814.45312 365.10937 832.71094 343.28906 846.30859 319.28906 C 759.47266 369.03516 661.07422 311.10937 606.34375 242.08984 C 557.49219 180.45312 526.91016 73.398439 595.72656 0.7265625 z M 402.27344 268.03516 C 331.58203 268.03516 270.12891 318.41797 256.21875 387.85547 L 252.96484 404.10938 L 237.52734 410.25391 C 185.4375 430.89062 150.4375 482.32812 150.4375 538.25391 C 150.4375 614.18359 212.25391 676 288.19922 676 L 652.34375 676 C 717.96484 676 771.34375 622.54687 771.34375 556.83594 C 771.32815 510.50781 744.08984 468.01953 701.91016 448.60156 L 685.54688 441.07422 L 684.21875 423.08984 C 679.92578 365.21875 631.05469 319.87109 572.92578 319.87109 C 562.67187 319.87109 552.28906 321.32812 542.05469 324.19922 L 524.10938 329.21875 L 511.4375 315.58203 C 483.34375 285.36328 443.5625 268.03516 402.27344 268.03516 z M 518.72656 716.08984 L 453.94531 716.63672 L 398.98047 826.14453 L 446.83594 826.14453 L 379.63672 992.12891 L 527.94531 790.27344 L 476.76172 789.49219 L 518.72656 716.08984 z M 315.58203 732.45312 C 315.58203 732.45312 268.4922 755.49219 248.89062 793.58203 C 225.80079 838.39844 280.69141 868.78125 304.74609 822.34375 C 323.76172 785.47266 315.58203 732.45312 315.58203 732.45312 z M 686.61719 732.45312 C 686.61719 732.45312 639.52734 755.49219 619.92578 793.58203 C 596.83594 838.39844 651.72656 868.78125 675.78125 822.34375 C 694.80078 785.47266 686.61719 732.45312 686.61719 732.45312 z M 185.60156 870.80078 C 185.60156 870.80078 138.50781 893.83594 118.91016 931.92578 C 95.816402 976.74609 150.71094 1007.1289 174.76172 960.69141 C 193.78125 923.80078 185.60156 870.80078 185.60156 870.80078 z M 328.45312 870.80078 C 328.45312 870.80078 281.36328 893.83594 261.76172 931.92578 C 238.67187 976.74609 293.5625 1007.1289 317.61719 960.69141 C 336.63672 923.80078 328.45312 870.80078 328.45312 870.80078 z M 568.05469 870.80078 C 568.05469 870.80078 520.96484 893.83594 501.36328 931.92578 C 478.27344 976.74609 533.16406 1007.1289 557.21875 960.69141 C 576.23828 923.80078 568.05469 870.80078 568.05469 870.80078 z M 711.49219 870.80078 C 711.49219 870.80078 664.39844 893.83594 644.80078 931.92578 C 621.71094 976.74609 676.60156 1007.1289 700.65625 960.69141 C 719.67187 923.80078 711.49219 870.80078 711.49219 870.80078 z " />
</svg>
