<?xml version="1.0" encoding="UTF-8" standalone="no"?>
<svg
   width="1000"
   height="1000"
   viewBox="0 0 1000 1000"
   version="1.1"
   id="svg977"
   xmlns="http://www.w3.org/2000/svg"
   xmlns:svg="http://www.w3.org/2000/svg">
  <defs
     id="defs981" />
  <path
     id="path970"
     d="M 595.72656 0.7265625 C 569.25391 8.3281255 543.71094 20.964844 520.71094 39.089844 C 481.47266 69.964844 458.63672 112.30859 449.96484 157.10938 C 446.08984 188.27345 445.36328 217.96484 446.12891 246.54688 C 478.87109 254.92578 509 272.36328 532.34375 297.41797 L 533.18359 298.32812 L 534.32812 298 C 547.08984 294.4375 560.07422 292.61719 572.92578 292.61719 C 644.80078 292.61719 705.18359 347.92578 712.16406 419.05469 C 739.91016 413.69141 766.91016 402.49219 791.39844 383.19922 C 814.45312 365.10937 832.71094 343.28906 846.30859 319.28906 C 759.47266 369.03516 661.07422 311.10937 606.34375 242.08984 C 557.49219 180.45312 526.91016 73.398439 595.72656 0.7265625 z M 402.27344 268.03516 C 331.58203 268.03516 270.12891 318.41797 256.21875 387.85547 L 252.96484 404.10938 L 237.52734 410.25391 C 185.4375 430.89062 150.4375 482.32812 150.4375 538.25391 C 150.4375 614.18359 212.25391 676 288.19922 676 L 652.34375 676 C 717.96484 676 771.34375 622.54687 771.34375 556.83594 C 771.32815 510.50781 744.08984 468.01953 701.91016 448.60156 L 685.54688 441.07422 L 684.21875 423.08984 C 679.92578 365.21875 631.05469 319.87109 572.92578 319.87109 C 562.67187 319.87109 552.28906 321.32812 542.05469 324.19922 L 524.10938 329.21875 L 511.4375 315.58203 C 483.34375 285.36328 443.5625 268.03516 402.27344 268.03516 z M 368.03516 732.45312 C 368.03516 732.45312 320.94531 755.49219 301.34375 793.58203 C 278.25391 838.39844 333.14453 868.78125 357.19922 822.34375 C 376.21875 785.47266 368.03516 732.45312 368.03516 732.45312 z M 608 732.45312 C 608 732.45312 560.91016 755.49219 541.30859 793.58203 C 518.21875 838.39844 573.10937 868.78125 597.16406 822.34375 C 616.18359 785.47266 608 732.45312 608 732.45312 z M 244.03516 870.80078 C 244.03516 870.80078 196.94531 893.83594 177.34375 931.92578 C 154.25391 976.74609 209.14453 1007.1289 233.19922 960.69141 C 252.23828 923.80078 244.03516 870.80078 244.03516 870.80078 z M 480.80078 870.80078 C 480.80078 870.80078 433.71094 893.83594 414.10938 931.92578 C 391.01954 976.74609 445.91016 1007.1289 469.96484 960.69141 C 488.98047 923.80078 480.80078 870.80078 480.80078 870.80078 z " />
</svg>
