<?xml version="1.0" encoding="UTF-8" standalone="no"?>
<svg
   width="1000"
   height="1000"
   viewBox="0 0 1000 1000"
   version="1.1"
   id="svg1409"
   xmlns="http://www.w3.org/2000/svg"
   xmlns:svg="http://www.w3.org/2000/svg">
  <defs
     id="defs1413" />
  <path
     id="path1400"
     d="M 595.72656 0.7265625 C 569.25391 8.3281255 543.71094 20.964844 520.71094 39.089844 C 481.47266 69.964844 458.63672 112.30859 449.96484 157.10938 C 446.08984 188.27345 445.36328 217.96484 446.12891 246.54688 C 478.87109 254.92578 509 272.36328 532.34375 297.41797 L 533.18359 298.32812 L 534.32812 298 C 547.08984 294.4375 560.07422 292.61719 572.92578 292.61719 C 644.80078 292.61719 705.18359 347.92578 712.16406 419.05469 C 739.91016 413.69141 766.91016 402.49219 791.39844 383.19922 C 814.45312 365.10937 832.71094 343.28906 846.30859 319.28906 C 759.47266 369.03516 661.07422 311.10937 606.34375 242.08984 C 557.49219 180.45312 526.91016 73.398439 595.72656 0.7265625 z M 402.27344 268.03516 C 331.58203 268.03516 270.12891 318.41797 256.21875 387.85547 L 252.96484 404.10938 L 237.52734 410.25391 C 185.4375 430.89062 150.4375 482.32812 150.4375 538.25391 C 150.4375 614.18359 212.25391 676 288.19922 676 L 652.34375 676 C 717.96484 676 771.34375 622.54687 771.34375 556.83594 C 771.32815 510.50781 744.08984 468.01953 701.91016 448.60156 L 685.54688 441.07422 L 684.21875 423.08984 C 679.92578 365.21875 631.05469 319.87109 572.92578 319.87109 C 562.67187 319.87109 552.28906 321.32812 542.05469 324.19922 L 524.10938 329.21875 L 511.4375 315.58203 C 483.34375 285.36328 443.5625 268.03516 402.27344 268.03516 z M 597.54883 730.26367 C 596.7663 730.13818 595.94629 730.16309 595.12891 730.36328 L 593.96484 730.65625 C 590.72656 731.41797 588.67188 734.78125 589.45312 737.98047 L 599.74609 779.91016 L 557.80078 769.67188 C 554.58203 768.89062 551.25391 770.85547 550.4375 774.12891 L 550.18359 775.28906 C 549.32812 778.58203 551.39844 781.85547 554.63672 782.61719 L 595.61719 792.63672 L 565.67188 822.34375 C 563.30859 824.72656 563.30861 828.5625 565.61719 830.94531 L 566.49219 831.80078 C 568.87109 834.18359 572.67187 834.18358 575.05469 831.85547 L 605.07422 802 L 615.16406 843.16406 C 615.94531 846.39844 619.25391 848.41797 622.47266 847.60156 L 623.63672 847.34375 C 626.92578 846.52734 628.96484 843.25391 628.12891 840.01953 L 617.89062 798.08984 L 659.80078 808.30859 C 663.01953 809.12891 666.32812 807.08984 667.10938 803.87109 L 667.41797 802.71094 C 668.23828 799.47266 666.19922 796.14453 662.98047 795.36328 L 621.96484 785.30859 L 651.96484 755.5625 C 654.28906 753.19922 654.34375 749.38281 651.96484 747.01953 L 651.08984 746.16406 C 648.76172 743.76172 644.91017 743.76174 642.54688 746.10938 L 612.49219 775.89062 L 602.49219 734.80078 C 601.90625 732.37207 599.89642 730.64014 597.54883 730.26367 z M 366.80078 732.45312 C 366.80078 732.45312 319.71094 755.49219 300.10938 793.58203 C 277.01953 838.39844 331.91016 868.78125 355.96484 822.34375 C 374.98047 785.47266 366.80078 732.45312 366.80078 732.45312 z M 227.36719 873.11914 C 226.58447 872.99365 225.76367 873.01855 224.94531 873.21875 L 223.78125 873.50781 C 220.54687 874.27344 218.49219 877.63672 219.27344 880.83594 L 229.5625 922.76172 L 187.61719 912.52734 C 184.39844 911.74609 181.07422 913.71094 180.25391 916.98047 L 180 918.14453 C 179.14453 921.4375 181.21875 924.71094 184.45312 925.47266 L 225.4375 935.49219 L 195.49219 965.19922 C 193.12891 967.58203 193.12892 971.41797 195.4375 973.80078 L 196.30859 974.65625 C 198.69141 977.03516 202.49219 977.03515 204.87109 974.71094 L 234.89062 944.85547 L 244.98047 986.01953 C 245.76172 989.25391 249.07422 991.27345 252.28906 990.45312 L 253.45312 990.19922 C 256.7461 989.38281 258.78125 986.10937 257.94531 982.87109 L 247.71094 940.94531 L 289.61719 951.16406 C 292.83594 951.98047 296.14453 949.94531 296.92578 946.72656 L 297.23828 945.5625 C 298.05469 942.32812 296.01953 939 292.80078 938.21875 L 251.78125 928.16406 L 281.78125 898.41797 C 284.10937 896.05469 284.16406 892.23828 281.78125 889.87109 L 280.91016 889.01953 C 278.58203 886.61719 274.72656 886.6172 272.36328 888.96484 L 242.30859 918.74609 L 232.30859 877.65625 C 231.72266 875.22754 229.71533 873.49561 227.36719 873.11914 z M 521.25391 875.30859 C 521.25391 875.30859 474.16406 898.34375 454.5625 936.4375 C 431.47266 981.25391 486.36328 1011.6367 510.41797 965.19922 C 529.4375 928.32812 521.25391 875.30859 521.25391 875.30859 z " />
</svg>
