<?xml version="1.0" encoding="UTF-8" standalone="no"?>
<svg
   width="1000"
   height="1000"
   viewBox="0 0 1000 1000"
   version="1.1"
   id="svg1555"
   xmlns="http://www.w3.org/2000/svg"
   xmlns:svg="http://www.w3.org/2000/svg">
  <defs
     id="defs1559" />
  <path
     id="path1546"
     d="M 595.72656 0.7265625 C 569.25391 8.3281255 543.71094 20.964844 520.71094 39.089844 C 481.47266 69.964844 458.63672 112.30859 449.96484 157.10938 C 446.08984 188.27345 445.36328 217.96484 446.12891 246.54688 C 478.87109 254.92578 509 272.36328 532.34375 297.41797 L 533.18359 298.32812 L 534.32812 298 C 547.08984 294.4375 560.07422 292.61719 572.92578 292.61719 C 644.80078 292.61719 705.18359 347.92578 712.16406 419.05469 C 739.91016 413.69141 766.91016 402.49219 791.39844 383.19922 C 814.45312 365.10937 832.71094 343.28906 846.30859 319.28906 C 759.47266 369.03516 661.07422 311.10937 606.34375 242.08984 C 557.49219 180.45312 526.91016 73.398439 595.72656 0.7265625 z M 402.27344 268.03516 C 331.58203 268.03516 270.12891 318.41797 256.21875 387.85547 L 252.96484 404.10938 L 237.52734 410.25391 C 185.4375 430.89062 150.4375 482.32812 150.4375 538.25391 C 150.4375 614.18359 212.25391 676 288.19922 676 L 652.34375 676 C 717.96484 676 771.34375 622.54687 771.34375 556.83594 C 771.32815 510.50781 744.08984 468.01953 701.91016 448.60156 L 685.54688 441.07422 L 684.21875 423.08984 C 679.92578 365.21875 631.05469 319.87109 572.92578 319.87109 C 562.67187 319.87109 552.28906 321.32812 542.05469 324.19922 L 524.10938 329.21875 L 511.4375 315.58203 C 483.34375 285.36328 443.5625 268.03516 402.27344 268.03516 z M 441.34766 732.22852 C 440.56494 732.10309 439.74414 732.12793 438.92578 732.32812 L 437.76172 732.61719 C 434.52734 733.38281 432.47266 736.74609 433.25391 739.94531 L 443.54688 781.87109 L 401.60156 771.63672 C 398.38281 770.85547 395.05469 772.81641 394.23828 776.08984 L 393.98047 777.25391 C 393.12891 780.54687 395.19922 783.81641 398.4375 784.58203 L 439.41797 794.60156 L 409.47266 824.30859 C 407.10936 826.69141 407.10937 830.52734 409.41797 832.91016 L 410.28906 833.76172 C 412.67187 836.14454 416.47266 836.14453 418.85547 833.81641 L 448.87109 803.96484 L 458.96484 845.12891 C 459.74609 848.36328 463.05469 850.38281 466.27344 849.5625 L 467.4375 849.30859 C 470.72656 848.49219 472.76172 845.21875 471.92578 841.98047 L 461.69141 800.05469 L 503.60156 810.27344 C 506.81641 811.08984 510.12891 809.05469 510.91016 805.83594 L 511.21875 804.67188 C 512.03516 801.45312 510 798.12892 506.78125 797.32812 L 465.76172 787.27344 L 495.76172 757.52734 C 498.08984 755.16406 498.14453 751.34375 495.76172 748.98047 L 494.89062 748.12891 C 492.56251 745.72655 488.71094 745.72656 486.34375 748.07422 L 456.28906 777.85547 L 446.28906 736.76172 C 445.70312 734.33593 443.6958 732.6048 441.34766 732.22852 z M 303.5625 732.45312 C 303.5625 732.45312 256.47266 755.49219 236.87109 793.58203 C 213.78125 838.39844 268.67187 868.78125 292.72656 822.34375 C 311.76172 785.47266 303.5625 732.45312 303.5625 732.45312 z M 672.10938 732.45312 C 672.10938 732.45312 625.01953 755.49219 605.41797 793.58203 C 582.32812 838.39844 637.21875 868.78125 661.27344 822.34375 C 680.28906 785.47266 672.10938 732.45312 672.10938 732.45312 z M 201.36719 874.51758 C 200.58447 874.39209 199.76367 874.41699 198.94531 874.61719 L 197.78125 874.91016 C 194.54687 875.67187 192.49219 879.03516 193.28906 882.23828 L 203.58203 924.16406 L 161.63672 913.92578 C 158.41797 913.14453 155.08984 915.10937 154.27344 918.38281 L 154.01953 919.54688 C 153.16406 922.83594 155.23828 926.10937 158.47266 926.87109 L 199.45312 936.89062 L 169.50781 966.60156 C 167.14452 968.98047 167.14453 972.81641 169.45312 975.19922 L 170.32812 976.05469 C 172.71095 978.43752 176.50781 978.4375 178.89062 976.10938 L 208.91016 946.25391 L 219 987.41797 C 219.78125 990.65625 223.08984 992.67187 226.30859 991.85547 L 227.47266 991.60156 C 230.76172 990.78125 232.80078 987.50781 231.96484 984.27344 L 221.72656 942.34375 L 263.63672 952.5625 C 266.85547 953.38281 270.16406 951.34375 270.94531 948.12891 L 271.25391 946.96484 C 272.05469 943.74609 270.01953 940.39844 266.80078 939.61719 L 225.78125 929.5625 L 255.78125 899.81641 C 258.10937 897.45312 258.16406 893.63672 255.78125 891.27344 L 254.91016 890.41797 C 252.58203 888.01952 248.72656 888.01953 246.36328 890.36328 L 216.30859 920.14453 L 206.30859 879.05469 C 205.72266 876.62598 203.71533 874.89404 201.36719 874.51758 z M 569.89453 874.51758 C 569.11182 874.39209 568.29101 874.41699 567.47266 874.61719 L 566.30859 874.91016 C 563.07422 875.67187 561.01953 879.03516 561.80078 882.23828 L 572.08984 924.16406 L 530.14453 913.92578 C 526.92578 913.14453 523.60156 915.10937 522.78125 918.38281 L 522.52734 919.54688 C 521.67187 922.83594 523.74609 926.10937 526.98047 926.87109 L 567.96484 936.89062 L 538.01953 966.60156 C 535.65624 968.98047 535.65625 972.81641 537.96484 975.19922 L 538.83594 976.05469 C 541.21875 978.43752 545.01953 978.4375 547.39844 976.10938 L 577.41797 946.25391 L 587.50781 987.41797 C 588.28906 990.65625 591.60156 992.67187 594.81641 991.85547 L 595.98047 991.60156 C 599.27344 990.78125 601.30859 987.50781 600.47266 984.27344 L 590.23828 942.34375 L 632.14453 952.5625 C 635.36328 953.38281 638.67188 951.34375 639.45312 948.12891 L 639.76172 946.96484 C 640.60156 943.74609 638.54688 940.39844 635.32812 939.61719 L 594.30859 929.5625 L 624.30859 899.81641 C 626.63672 897.45312 626.69141 893.63672 624.30859 891.27344 L 623.4375 890.41797 C 621.10937 888.01952 617.25392 888.01953 614.89062 890.36328 L 584.83594 920.14453 L 574.83594 879.05469 C 574.25 876.62598 572.24267 874.89404 569.89453 874.51758 z M 432.12891 876.71094 C 432.12891 876.71094 385.03516 899.74609 365.4375 937.83594 C 342.34375 982.65625 397.23828 1013.0352 421.28906 966.60156 C 440.32812 929.72656 432.12891 876.71094 432.12891 876.71094 z " />
</svg>
