<?xml version="1.0" encoding="UTF-8" standalone="no"?>
<svg
   width="1000"
   height="1000"
   viewBox="0 0 1000 1000"
   version="1.1"
   id="svg1699"
   xmlns="http://www.w3.org/2000/svg"
   xmlns:svg="http://www.w3.org/2000/svg">
  <defs
     id="defs1703" />
  <path
     id="path1692"
     d="M 595.72656 0.7265625 C 569.25391 8.3281255 543.71094 20.964844 520.71094 39.089844 C 481.47266 69.964844 458.63672 112.30859 449.96484 157.10938 C 446.08984 188.27345 445.36328 217.96484 446.12891 246.54688 C 478.87109 254.92578 509 272.36328 532.34375 297.41797 L 533.18359 298.32812 L 534.32812 298 C 547.08984 294.4375 560.07422 292.61719 572.92578 292.61719 C 644.80078 292.61719 705.18359 347.92578 712.16406 419.05469 C 739.91016 413.69141 766.91016 402.49219 791.39844 383.19922 C 814.45312 365.10937 832.71094 343.28906 846.30859 319.28906 C 759.47266 369.03516 661.07422 311.10937 606.34375 242.08984 C 557.49219 180.45312 526.91016 73.398439 595.72656 0.7265625 z M 402.27344 268.03516 C 331.58203 268.03516 270.12891 318.41797 256.21875 387.85547 L 252.96484 404.10938 L 237.52734 410.25391 C 185.4375 430.89062 150.4375 482.32812 150.4375 538.25391 C 150.4375 614.18359 212.25391 676 288.19922 676 L 652.34375 676 C 717.96484 676 771.34375 622.54687 771.34375 556.83594 C 771.32815 510.50781 744.08984 468.01953 701.91016 448.60156 L 685.54688 441.07422 L 684.21875 423.08984 C 679.92578 365.21875 631.05469 319.87109 572.92578 319.87109 C 562.67187 319.87109 552.28906 321.32812 542.05469 324.19922 L 524.10938 329.21875 L 511.4375 315.58203 C 483.34375 285.36328 443.5625 268.03516 402.27344 268.03516 z M 326.80664 730.19141 C 326.40137 730.20703 325.99121 730.26318 325.58203 730.36328 L 324.41797 730.65625 C 321.18359 731.41797 319.12891 734.78125 319.91016 737.98047 L 330.19922 779.91016 L 288.25391 769.67188 C 285.03516 768.89063 281.71094 770.85547 280.89062 774.12891 L 280.63672 775.28906 C 279.78125 778.58203 281.85547 781.85547 285.08984 782.61719 L 326.07422 792.63672 L 296.12891 822.34375 C 293.76171 824.72656 293.76172 828.5625 296.07422 830.94531 L 296.94531 831.80078 C 299.32812 834.1836 303.12891 834.18359 305.50781 831.85547 L 335.52734 802 L 345.61719 843.16406 C 346.39844 846.39844 349.71094 848.41797 352.92578 847.60156 L 354.08984 847.34375 C 357.38281 846.52734 359.41797 843.25391 358.58203 840.01953 L 348.34375 798.08984 L 390.25391 808.30859 C 393.47266 809.12891 396.78125 807.08984 397.5625 803.87109 L 397.87109 802.71094 C 398.69141 799.47266 396.65625 796.14453 393.4375 795.36328 L 352.41797 785.30859 L 382.41797 755.5625 C 384.74609 753.19922 384.80078 749.38281 382.41797 747.01953 L 381.54688 746.16406 C 379.21875 743.76171 375.36328 743.76172 373 746.10938 L 342.94531 775.89062 L 332.94531 734.80078 C 332.26172 731.96729 329.64356 730.08203 326.80664 730.19141 z M 606.58789 730.19141 C 606.18262 730.20703 605.77246 730.26318 605.36328 730.36328 L 604.19922 730.65625 C 600.96484 731.41797 598.91016 734.78125 599.69141 737.98047 L 609.98047 779.91016 L 568.03516 769.67188 C 564.81641 768.89063 561.4922 770.85547 560.67188 774.12891 L 560.41797 775.28906 C 559.5625 778.58203 561.63672 781.85547 564.87109 782.61719 L 605.85547 792.63672 L 575.91016 822.34375 C 573.54686 824.72656 573.54687 828.5625 575.85547 830.94531 L 576.72656 831.80078 C 579.10937 834.1836 582.91016 834.18359 585.28906 831.85547 L 615.30859 802 L 625.39844 843.16406 C 626.18359 846.39844 629.49219 848.41797 632.71094 847.60156 L 633.87109 847.34375 C 637.16406 846.52734 639.19922 843.25391 638.38281 840.01953 L 628.14453 798.08984 L 670.05469 808.30859 C 673.27344 809.12891 676.58203 807.08984 677.36328 803.87109 L 677.67188 802.71094 C 678.47267 799.47266 676.41797 796.14453 673.21875 795.36328 L 632.19922 785.30859 L 662.19922 755.5625 C 664.52734 753.19922 664.58203 749.38281 662.19922 747.01953 L 661.32812 746.16406 C 659 743.76171 655.14453 743.76172 652.78125 746.10938 L 622.72656 775.89062 L 612.72656 734.80078 C 612.04297 731.96729 609.42481 730.08203 606.58789 730.19141 z " />
</svg>
