<?xml version="1.0" encoding="UTF-8" standalone="no"?>
<svg
   width="1000"
   height="1000"
   viewBox="0 0 1000 1000"
   version="1.1"
   id="svg3341"
   xmlns="http://www.w3.org/2000/svg"
   xmlns:svg="http://www.w3.org/2000/svg">
  <defs
     id="defs3345" />
  <path
     id="path3332"
     d="M 687.83594 0.80078125 C 661.34375 8.3085942 635.74609 20.890625 612.69141 38.925781 C 573.36328 69.691406 550.39844 111.96484 541.60156 156.74609 C 541.36328 158.54687 541.25391 160.30859 541.08984 162.07422 C 542.47266 162.03512 543.87109 161.76172 545.25391 161.78125 C 566.92578 161.85545 587.69141 167.27344 606.96484 177.87109 C 639.27344 195.63672 662.87109 222.50781 675.21875 255.61719 C 676.71094 259.61719 682.28906 278.65625 681.41797 294.30859 C 689.49219 295.36328 697.27344 297.07423 704.85547 299.45312 C 705.01953 299.50783 705.21875 299.54682 705.39844 299.60156 C 712.50781 301.85547 719.3086 304.63672 725.89062 307.96484 C 726.80079 308.41797 727.69141 308.87109 728.61719 309.34375 C 734.32812 312.38281 739.78125 315.72656 745 319.50781 C 746.85547 320.81641 748.58203 322.21875 750.36328 323.60156 C 754.47266 326.87109 758.41797 330.23828 762.14453 333.96484 C 764.85547 336.61719 767.28906 339.47266 769.78125 342.34375 C 772.27344 345.27344 774.78125 348.14453 777.01953 351.27344 C 780.23828 355.69141 783.03516 360.36328 785.74609 365.16406 C 786.91016 367.25391 788.21875 369.27344 789.25391 371.41797 C 792.41797 377.78125 794.98047 384.4375 797.14453 391.28906 C 797.45312 392.28906 797.87109 393.21875 798.16406 394.21875 C 800.52734 402.34375 802.21875 410.74609 803.01953 419.41797 C 830.76172 414.16406 857.83594 403.01953 882.36328 383.81641 C 905.47266 365.80078 923.80078 344.03516 937.45312 320.07422 C 850.4922 369.58203 752.25391 311.36328 697.74609 242.18359 C 649.07422 180.39844 618.81641 73.253906 687.83594 0.80078125 z M 355.5293 129.93359 C 278.36031 132.42653 211.97411 188.12158 196.49219 264.36328 L 192.74609 282.69141 L 180.32812 287.58203 C 124.47266 309.5625 82.761719 359.98047 77.417969 419.74609 C 70.835938 493.28906 115.98047 557.4375 180.5625 580.21875 C 180.5625 580.21875 198.28906 585.14453 220.28906 589.14453 C 215.14453 573.05469 212.32811 555.94531 212.38281 538.19922 C 212.58203 470.67187 255 408.69141 317.96484 383.96484 L 318.98047 383.5625 L 319.18359 382.50781 C 336 299.81641 409.36328 240.01953 493.67188 240.27344 C 542.85547 240.41797 590.19922 261.19922 623.58203 297.30859 L 624.41797 298.21875 L 625.58203 297.89062 C 634.61719 295.39845 643.78125 294.08984 652.92578 293.38281 C 653.69141 283.69141 649.45312 268.27344 648.45312 265.60156 C 639.23829 240.91016 621.38281 218.39844 593.23828 202.91016 C 563.05469 186.32812 529.23828 186.89062 500.60156 200.49219 C 499.34375 199.71094 498.52734 199.21875 498.52734 199.21875 L 486.72656 186.4375 C 465.80078 163.80078 439.72656 145.89062 410.18359 137.10938 C 391.71997 131.61694 373.33752 129.3583 355.5293 129.93359 z M 493.61719 268.81641 C 422.92578 268.60156 361.32812 318.80078 347.21875 388.19922 L 343.92578 404.45312 L 328.45312 410.54688 C 276.28907 431.03517 241.14453 482.36328 240.98047 538.28906 C 240.76172 614.21875 302.38281 676.21875 378.32812 676.4375 L 742.47266 677.50781 C 808.08984 677.71094 861.63672 624.41797 861.81641 558.69141 C 861.92578 512.36328 834.81641 469.81641 792.69141 450.25391 L 776.36328 442.69141 L 775.08984 424.72656 C 770.98047 366.81641 722.23829 321.32812 664.10938 321.16406 C 653.85548 321.12891 643.45312 322.58203 633.21875 325.39844 L 615.25391 330.36328 L 602.63672 316.69141 C 574.63672 286.39844 534.89062 268.94531 493.61719 268.81641 z M 588.47266 716.08984 L 523.69141 716.63672 L 468.72656 826.14453 L 516.58203 826.14453 L 449.38281 992.12891 L 597.69141 790.27344 L 546.50781 789.49219 L 588.47266 716.08984 z M 337.29297 730.26367 C 336.51019 730.13818 335.68945 730.16309 334.87109 730.36328 L 333.71094 730.65625 C 330.47266 731.41797 328.41797 734.78125 329.21875 737.98047 L 339.50781 779.91016 L 297.5625 769.67188 C 294.34375 768.89063 291.01953 770.85547 290.19922 774.12891 L 289.94531 775.28906 C 289.08984 778.58203 291.16406 781.85547 294.39844 782.61719 L 335.38281 792.63672 L 305.4375 822.34375 C 303.07421 824.72656 303.07422 828.5625 305.38281 830.94531 L 306.25391 831.80078 C 308.63672 834.1836 312.4375 834.18359 314.81641 831.85547 L 344.83594 802 L 354.92578 843.16406 C 355.71094 846.39844 359.01953 848.41797 362.23828 847.60156 L 363.39844 847.34375 C 366.69141 846.52734 368.72656 843.25391 367.89062 840.01953 L 357.65625 798.08984 L 399.5625 808.30859 C 402.78125 809.12891 406.08984 807.08984 406.87109 803.87109 L 407.18359 802.71094 C 407.98047 799.47266 405.92578 796.14453 402.72656 795.36328 L 361.71094 785.30859 L 391.71094 755.5625 C 394.03516 753.19922 394.08984 749.38281 391.71094 747.01953 L 390.83594 746.16406 C 388.50781 743.76171 384.65625 743.76172 382.28906 746.10938 L 352.23828 775.89062 L 342.23828 734.80078 C 341.64941 732.37207 339.6413 730.64014 337.29297 730.26367 z M 716.49414 730.26367 C 715.71161 730.13818 714.8916 730.16309 714.07422 730.36328 L 712.91016 730.65625 C 709.67187 731.41797 707.61719 734.78125 708.39844 737.98047 L 718.69141 779.91016 L 676.74609 769.67188 C 673.52734 768.89063 670.19922 770.85547 669.38281 774.12891 L 669.12891 775.28906 C 668.27344 778.58203 670.34375 781.85547 673.58203 782.61719 L 714.5625 792.63672 L 684.61719 822.34375 C 682.2539 824.72656 682.25391 828.5625 684.5625 830.94531 L 685.4375 831.80078 C 687.81641 834.1836 691.61719 834.18359 694 831.85547 L 724.01953 802 L 734.10938 843.16406 C 734.89062 846.39844 738.19922 848.41797 741.41797 847.60156 L 742.58203 847.34375 C 745.87109 846.52734 747.91016 843.25391 747.08984 840.01953 L 736.85547 798.08984 L 778.76172 808.30859 C 781.98047 809.12891 785.28906 807.08984 786.07422 803.87109 L 786.38281 802.71094 C 787.18359 799.47266 785.14453 796.14453 781.92578 795.36328 L 740.91016 785.30859 L 770.91016 755.5625 C 773.23828 753.19922 773.28906 749.38281 770.91016 747.01953 L 770.03516 746.16406 C 767.71094 743.76171 763.85547 743.76172 761.49219 746.10938 L 731.4375 775.89062 L 721.4375 734.80078 C 720.85156 732.37207 718.84174 730.64014 716.49414 730.26367 z M 334.69531 873.11914 C 333.9126 872.99365 333.09179 873.01855 332.27344 873.21875 L 331.10938 873.50781 C 327.87109 874.27344 325.81641 877.63672 326.61719 880.83594 L 336.91016 922.76172 L 294.96484 912.52734 C 291.74609 911.74609 288.41797 913.71094 287.60156 916.98047 L 287.34375 918.14453 C 286.49219 921.4375 288.5625 924.71094 291.80078 925.47266 L 332.78125 935.49219 L 302.83594 965.19922 C 300.47265 967.58203 300.47266 971.41797 302.78125 973.80078 L 303.65625 974.65625 C 306.03516 977.03517 309.83594 977.03516 312.21875 974.71094 L 342.23828 944.85547 L 352.32812 986.01953 C 353.10938 989.25391 356.41797 991.27345 359.63672 990.45312 L 360.80078 990.19922 C 364.08984 989.38281 366.12891 986.10937 365.28906 982.87109 L 355.05469 940.94531 L 396.96484 951.16406 C 400.18359 951.98047 403.49219 949.94531 404.27344 946.72656 L 404.58203 945.5625 C 405.38281 942.32812 403.34375 939 400.12891 938.21875 L 359.10938 928.16406 L 389.10938 898.41797 C 391.4375 896.05469 391.49219 892.23828 389.10938 889.87109 L 388.23828 889.01953 C 385.91016 886.61718 382.05469 886.61719 379.69141 888.96484 L 349.63672 918.74609 L 339.63672 877.65625 C 339.05078 875.22754 337.04346 873.49561 334.69531 873.11914 z M 622.6582 873.11914 C 621.87598 872.99365 621.05566 873.01855 620.23828 873.21875 L 619.07422 873.50781 C 615.83594 874.27344 613.78125 877.63672 614.5625 880.83594 L 624.85547 922.76172 L 582.91016 912.54688 C 579.69141 911.76172 576.36329 913.72656 575.54688 917 L 575.28906 918.16406 C 574.4375 921.45312 576.50781 924.72656 579.74609 925.49219 L 620.72656 935.50781 L 590.78125 965.21875 C 588.41796 967.60156 588.41797 971.4375 590.72656 973.81641 L 591.60156 974.67188 C 593.98047 977.05471 597.78125 977.05469 600.16406 974.72656 L 630.18359 944.87109 L 640.27344 986.03516 C 641.05469 989.27344 644.36328 991.28906 647.58203 990.47266 L 648.74609 990.21875 C 652.03516 989.39844 654.07422 986.12892 653.23828 982.89062 L 643 940.96484 L 684.91016 951.18359 C 688.12891 952 691.4375 949.96484 692.21875 946.74609 L 692.52734 945.58203 C 693.36328 942.32812 691.30859 939 688.08984 938.21875 L 647.07422 928.16406 L 677.07422 898.41797 C 679.39844 896.05469 679.45312 892.23828 677.07422 889.87109 L 676.19922 889.01953 C 673.87109 886.61718 670.01953 886.61719 667.65625 888.96484 L 637.60156 918.74609 L 627.60156 877.65625 C 627.0127 875.22754 625.00488 873.49561 622.6582 873.11914 z " />
</svg>
