<?xml version="1.0" encoding="UTF-8" standalone="no"?>
<svg
   width="1000"
   height="1000"
   viewBox="0 0 1000 1000"
   version="1.1"
   id="svg2911"
   xmlns="http://www.w3.org/2000/svg"
   xmlns:svg="http://www.w3.org/2000/svg">
  <defs
     id="defs2915" />
  <path
     id="path2900"
     d="M 687.83594 0.80078125 C 661.34375 8.3085942 635.74609 20.890625 612.69141 38.925781 C 573.36328 69.691406 550.39844 111.96484 541.60156 156.74609 C 541.36328 158.54687 541.25391 160.30859 541.08984 162.07422 C 542.47266 162.03512 543.87109 161.76172 545.25391 161.78125 C 566.92578 161.85545 587.69141 167.27344 606.96484 177.87109 C 639.27344 195.63672 662.87109 222.50781 675.21875 255.61719 C 676.71094 259.61719 682.28906 278.65625 681.41797 294.30859 C 689.49219 295.36328 697.27344 297.07423 704.85547 299.45312 C 705.01953 299.50783 705.21875 299.54682 705.39844 299.60156 C 712.50781 301.85547 719.3086 304.63672 725.89062 307.96484 C 726.80079 308.41797 727.69141 308.87109 728.61719 309.34375 C 734.32812 312.38281 739.78125 315.72656 745 319.50781 C 746.85547 320.81641 748.58203 322.21875 750.36328 323.60156 C 754.47266 326.87109 758.41797 330.23828 762.14453 333.96484 C 764.85547 336.61719 767.28906 339.47266 769.78125 342.34375 C 772.27344 345.27344 774.78125 348.14453 777.01953 351.27344 C 780.23828 355.69141 783.03516 360.36328 785.74609 365.16406 C 786.91016 367.25391 788.21875 369.27344 789.25391 371.41797 C 792.41797 377.78125 794.98047 384.4375 797.14453 391.28906 C 797.45312 392.28906 797.87109 393.21875 798.16406 394.21875 C 800.52734 402.34375 802.21875 410.74609 803.01953 419.41797 C 830.76172 414.16406 857.83594 403.01953 882.36328 383.81641 C 905.47266 365.80078 923.80078 344.03516 937.45312 320.07422 C 850.4922 369.58203 752.25391 311.36328 697.74609 242.18359 C 649.07422 180.39844 618.81641 73.253906 687.83594 0.80078125 z M 355.5293 129.93359 C 278.36031 132.42653 211.97411 188.12158 196.49219 264.36328 L 192.74609 282.69141 L 180.32812 287.58203 C 124.47266 309.5625 82.761719 359.98047 77.417969 419.74609 C 70.835938 493.28906 115.98047 557.4375 180.5625 580.21875 C 180.5625 580.21875 198.28906 585.14453 220.28906 589.14453 C 215.14453 573.05469 212.32811 555.94531 212.38281 538.19922 C 212.58203 470.67187 255 408.69141 317.96484 383.96484 L 318.98047 383.5625 L 319.18359 382.50781 C 336 299.81641 409.36328 240.01953 493.67188 240.27344 C 542.85547 240.41797 590.19922 261.19922 623.58203 297.30859 L 624.41797 298.21875 L 625.58203 297.89062 C 634.61719 295.39845 643.78125 294.08984 652.92578 293.38281 C 653.69141 283.69141 649.45312 268.27344 648.45312 265.60156 C 639.23829 240.91016 621.38281 218.39844 593.23828 202.91016 C 563.05469 186.32812 529.23828 186.89062 500.60156 200.49219 C 499.34375 199.71094 498.52734 199.21875 498.52734 199.21875 L 486.72656 186.4375 C 465.80078 163.80078 439.72656 145.89062 410.18359 137.10938 C 391.71997 131.61694 373.33752 129.3583 355.5293 129.93359 z M 493.61719 268.81641 C 422.92578 268.60156 361.32812 318.80078 347.21875 388.19922 L 343.92578 404.45312 L 328.45312 410.54688 C 276.28907 431.03517 241.14453 482.36328 240.98047 538.28906 C 240.76172 614.21875 302.38281 676.21875 378.32812 676.4375 L 742.47266 677.50781 C 808.08984 677.71094 861.63672 624.41797 861.81641 558.69141 C 861.92578 512.36328 834.81641 469.81641 792.69141 450.25391 L 776.36328 442.69141 L 775.08984 424.72656 C 770.98047 366.81641 722.23829 321.32812 664.10938 321.16406 C 653.85548 321.12891 643.45312 322.58203 633.21875 325.39844 L 615.25391 330.36328 L 602.63672 316.69141 C 574.63672 286.39844 534.89062 268.94531 493.61719 268.81641 z M 573.27344 716.08984 L 508.49219 716.63672 L 453.52734 826.14453 L 501.38281 826.14453 L 434.18359 992.12891 L 582.49219 790.27344 L 531.30859 789.49219 L 573.27344 716.08984 z M 685.6582 730.26367 C 684.87598 730.13818 684.05566 730.16309 683.23828 730.36328 L 682.07422 730.65625 C 678.83594 731.41797 676.78125 734.78125 677.5625 737.98047 L 687.85547 779.91016 L 645.91016 769.67188 C 642.69141 768.89063 639.36329 770.85547 638.54688 774.12891 L 638.28906 775.28906 C 637.4375 778.58203 639.50781 781.85547 642.74609 782.61719 L 683.72656 792.63672 L 653.78125 822.34375 C 651.41796 824.72656 651.41797 828.5625 653.72656 830.94531 L 654.60156 831.80078 C 656.98047 834.1836 660.78125 834.18359 663.16406 831.85547 L 693.18359 802 L 703.27344 843.16406 C 704.05469 846.39844 707.36328 848.41797 710.58203 847.60156 L 711.74609 847.34375 C 715.03516 846.52734 717.07422 843.25391 716.25391 840.01953 L 706.01953 798.08984 L 747.92578 808.30859 C 751.14453 809.12891 754.45312 807.08984 755.23828 803.87109 L 755.54688 802.71094 C 756.34375 799.47266 754.30859 796.14453 751.08984 795.36328 L 710.07422 785.30859 L 740.07422 755.5625 C 742.39844 753.19922 742.45312 749.38281 740.07422 747.01953 L 739.19922 746.16406 C 736.87109 743.76171 733.01953 743.76172 730.65625 746.10938 L 700.60156 775.89062 L 690.60156 734.80078 C 690.0127 732.37207 688.00488 730.64014 685.6582 730.26367 z M 382.85547 732.45312 C 382.85547 732.45312 335.76172 755.49219 316.16406 793.58203 C 293.07422 838.39844 347.96484 868.78125 372.01953 822.34375 C 391.03516 785.47266 382.85547 732.45312 382.85547 732.45312 z M 317.76562 873.11914 C 316.98285 872.99365 316.16211 873.01855 315.34375 873.21875 L 314.18359 873.50781 C 310.94531 874.27344 308.89062 877.63672 309.69141 880.83594 L 319.98047 922.76172 L 278.03516 912.52734 C 274.81641 911.74609 271.49219 913.71094 270.67188 916.98047 L 270.41797 918.14453 C 269.5625 921.4375 271.63672 924.71094 274.87109 925.47266 L 315.85547 935.49219 L 285.91016 965.19922 C 283.54686 967.58203 283.54687 971.41797 285.85547 973.80078 L 286.72656 974.65625 C 289.10937 977.03517 292.91016 977.03516 295.28906 974.71094 L 325.30859 944.85547 L 335.39844 986.01953 C 336.18359 989.25391 339.49219 991.27345 342.71094 990.45312 L 343.87109 990.19922 C 347.16406 989.38281 349.19922 986.10937 348.36328 982.87109 L 338.12891 940.94531 L 380.03516 951.16406 C 383.25391 951.98047 386.5625 949.94531 387.34375 946.72656 L 387.65625 945.5625 C 388.47266 942.32812 386.41797 939 383.19922 938.21875 L 342.18359 928.16406 L 372.18359 898.41797 C 374.50781 896.05469 374.5625 892.23828 372.18359 889.87109 L 371.30859 889.01953 C 368.98047 886.61718 365.12891 886.61719 362.76172 888.96484 L 332.71094 918.74609 L 322.71094 877.65625 C 322.12207 875.22754 320.11395 873.49561 317.76562 873.11914 z M 682.30859 875.30859 C 682.30859 875.30859 635.21875 898.34375 615.61719 936.4375 C 592.52734 981.25391 647.41797 1011.6367 671.47266 965.19922 C 690.49219 928.32812 682.30859 875.30859 682.30859 875.30859 z " />
</svg>
