<?xml version="1.0" encoding="UTF-8" standalone="no"?>
<svg
   width="1000"
   height="1000"
   viewBox="0 0 1000 1000"
   version="1.1"
   id="svg3057"
   xmlns="http://www.w3.org/2000/svg"
   xmlns:svg="http://www.w3.org/2000/svg">
  <defs
     id="defs3061" />
  <path
     id="path3046"
     d="M 687.83594 0.80078125 C 661.34375 8.3085942 635.74609 20.890625 612.69141 38.925781 C 573.36328 69.691406 550.39844 111.96484 541.60156 156.74609 C 541.36328 158.54687 541.25391 160.30859 541.08984 162.07422 C 542.47266 162.03512 543.87109 161.76172 545.25391 161.78125 C 566.92578 161.85545 587.69141 167.27344 606.96484 177.87109 C 639.27344 195.63672 662.87109 222.50781 675.21875 255.61719 C 676.71094 259.61719 682.28906 278.65625 681.41797 294.30859 C 689.49219 295.36328 697.27344 297.07423 704.85547 299.45312 C 705.01953 299.50783 705.21875 299.54682 705.39844 299.60156 C 712.50781 301.85547 719.3086 304.63672 725.89062 307.96484 C 726.80079 308.41797 727.69141 308.87109 728.61719 309.34375 C 734.32812 312.38281 739.78125 315.72656 745 319.50781 C 746.85547 320.81641 748.58203 322.21875 750.36328 323.60156 C 754.47266 326.87109 758.41797 330.23828 762.14453 333.96484 C 764.85547 336.61719 767.28906 339.47266 769.78125 342.34375 C 772.27344 345.27344 774.78125 348.14453 777.01953 351.27344 C 780.23828 355.69141 783.03516 360.36328 785.74609 365.16406 C 786.91016 367.25391 788.21875 369.27344 789.25391 371.41797 C 792.41797 377.78125 794.98047 384.4375 797.14453 391.28906 C 797.45312 392.28906 797.87109 393.21875 798.16406 394.21875 C 800.52734 402.34375 802.21875 410.74609 803.01953 419.41797 C 830.76172 414.16406 857.83594 403.01953 882.36328 383.81641 C 905.47266 365.80078 923.80078 344.03516 937.45312 320.07422 C 850.4922 369.58203 752.25391 311.36328 697.74609 242.18359 C 649.07422 180.39844 618.81641 73.253906 687.83594 0.80078125 z M 355.5293 129.93359 C 278.36031 132.42653 211.97411 188.12158 196.49219 264.36328 L 192.74609 282.69141 L 180.32812 287.58203 C 124.47266 309.5625 82.761719 359.98047 77.417969 419.74609 C 70.835938 493.28906 115.98047 557.4375 180.5625 580.21875 C 180.5625 580.21875 198.28906 585.14453 220.28906 589.14453 C 215.14453 573.05469 212.32811 555.94531 212.38281 538.19922 C 212.58203 470.67187 255 408.69141 317.96484 383.96484 L 318.98047 383.5625 L 319.18359 382.50781 C 336 299.81641 409.36328 240.01953 493.67188 240.27344 C 542.85547 240.41797 590.19922 261.19922 623.58203 297.30859 L 624.41797 298.21875 L 625.58203 297.89062 C 634.61719 295.39845 643.78125 294.08984 652.92578 293.38281 C 653.69141 283.69141 649.45312 268.27344 648.45312 265.60156 C 639.23829 240.91016 621.38281 218.39844 593.23828 202.91016 C 563.05469 186.32812 529.23828 186.89062 500.60156 200.49219 C 499.34375 199.71094 498.52734 199.21875 498.52734 199.21875 L 486.72656 186.4375 C 465.80078 163.80078 439.72656 145.89062 410.18359 137.10938 C 391.71997 131.61694 373.33752 129.3583 355.5293 129.93359 z M 493.61719 268.81641 C 422.92578 268.60156 361.32812 318.80078 347.21875 388.19922 L 343.92578 404.45312 L 328.45312 410.54688 C 276.28907 431.03517 241.14453 482.36328 240.98047 538.28906 C 240.76172 614.21875 302.38281 676.21875 378.32812 676.4375 L 742.47266 677.50781 C 808.08984 677.71094 861.63672 624.41797 861.81641 558.69141 C 861.92578 512.36328 834.81641 469.81641 792.69141 450.25391 L 776.36328 442.69141 L 775.08984 424.72656 C 770.98047 366.81641 722.23829 321.32812 664.10938 321.16406 C 653.85548 321.12891 643.45312 322.58203 633.21875 325.39844 L 615.25391 330.36328 L 602.63672 316.69141 C 574.63672 286.39844 534.89062 268.94531 493.61719 268.81641 z M 573.27344 716.08984 L 508.49219 716.63672 L 453.52734 826.14453 L 501.38281 826.14453 L 434.18359 992.12891 L 582.49219 790.27344 L 531.30859 789.49219 L 573.27344 716.08984 z M 340.01953 732.45312 C 340.01953 732.45312 292.92579 755.49219 273.32812 793.58203 C 250.23828 838.39844 305.12891 868.78125 329.18359 822.34375 C 348.19922 785.47266 340.01953 732.45312 340.01953 732.45312 z M 758.67188 732.45312 C 758.67187 732.45312 711.58203 755.49219 691.98047 793.58203 C 668.89062 838.39844 723.78125 868.78125 747.83594 822.34375 C 766.85547 785.47266 758.67188 732.45312 758.67188 732.45312 z M 175.42188 872.26367 C 174.63916 872.13818 173.81836 872.16309 173 872.36328 L 171.83594 872.65625 C 168.60156 873.41797 166.54688 876.78125 167.32812 879.98047 L 177.61719 921.91016 L 135.67188 911.67188 C 132.45312 910.89063 129.12891 912.85547 128.30859 916.12891 L 128.05469 917.28906 C 127.19922 920.58203 129.27344 923.85547 132.50781 924.61719 L 173.49219 934.63672 L 143.54688 964.34375 C 141.18358 966.72656 141.18359 970.5625 143.49219 972.94531 L 144.36328 973.80078 C 146.74609 976.1836 150.54687 976.18359 152.92578 973.85547 L 182.94531 944 L 193.03516 985.16406 C 193.81641 988.39844 197.12891 990.41797 200.34375 989.60156 L 201.50781 989.34375 C 204.80078 988.52734 206.83594 985.25391 206.01953 982.01953 L 195.78125 940.08984 L 237.69141 950.30859 C 240.91016 951.12891 244.21875 949.08984 245 945.87109 L 245.30859 944.71094 C 246.12891 941.49219 244.07422 938.14453 240.85547 937.36328 L 199.83594 927.30859 L 229.83594 897.5625 C 232.16406 895.19922 232.21875 891.38281 229.83594 889.01953 L 228.96484 888.16406 C 226.63672 885.76171 222.78125 885.76172 220.41797 888.10938 L 190.36328 917.89062 L 180.36328 876.80078 C 179.77734 874.37207 177.77002 872.64014 175.42188 872.26367 z M 608.18359 872.26367 C 607.40082 872.13818 606.58008 872.16309 605.76172 872.36328 L 604.60156 872.65625 C 601.36328 873.41797 599.30859 876.78125 600.08984 879.98047 L 610.38281 921.91016 L 568.4375 911.67188 C 565.21875 910.89063 561.89062 912.85547 561.07422 916.12891 L 560.81641 917.28906 C 559.96484 920.58203 562.03516 923.85547 565.27344 924.61719 L 606.25391 934.63672 L 576.30859 964.34375 C 573.94529 966.72656 573.94531 970.5625 576.25391 972.94531 L 577.12891 973.80078 C 579.50781 976.1836 583.30859 976.18359 585.69141 973.85547 L 615.71094 944 L 625.80078 985.16406 C 626.58203 988.39844 629.89062 990.41797 633.10938 989.60156 L 634.27344 989.34375 C 637.5625 988.52734 639.60156 985.25391 638.76172 982.01953 L 628.52734 940.08984 L 670.4375 950.30859 C 673.65625 951.12891 676.96484 949.08984 677.74609 945.87109 L 678.05469 944.71094 C 678.87109 941.49219 676.83594 938.14453 673.61719 937.36328 L 632.60156 927.30859 L 662.60156 897.5625 C 664.92578 895.19922 664.98047 891.38281 662.60156 889.01953 L 661.72656 888.16406 C 659.39844 885.76171 655.54687 885.76172 653.18359 888.10938 L 623.12891 917.89062 L 613.12891 876.80078 C 612.54004 874.37207 610.53192 872.64014 608.18359 872.26367 z M 762.80469 872.26367 C 762.02197 872.13818 761.20117 872.16309 760.38281 872.36328 L 759.21875 872.65625 C 755.98047 873.41797 753.92578 876.78125 754.71094 879.98047 L 765 921.91016 L 723.05469 911.67188 C 719.83594 910.89063 716.50781 912.85547 715.69141 916.12891 L 715.4375 917.28906 C 714.58203 920.58203 716.65625 923.85547 719.89062 924.61719 L 760.87109 934.63672 L 730.91016 964.39844 C 728.54686 966.78125 728.54687 970.61719 730.85547 973 L 731.72656 973.85547 C 734.10937 976.23829 737.91016 976.23828 740.28906 973.91016 L 770.30859 944.05469 L 780.39844 985.21875 C 781.18359 988.45312 784.49219 990.47266 787.71094 989.65625 L 788.87109 989.39844 C 792.16406 988.58203 794.19922 985.30859 793.36328 982.07422 L 783.12891 940.14453 L 825.03516 950.36328 C 828.25391 951.18359 831.5625 949.14453 832.34375 945.92578 L 832.65625 944.76172 C 833.50781 941.49219 831.45312 938.14453 828.23828 937.36328 L 787.21875 927.30859 L 817.21875 897.5625 C 819.54687 895.19922 819.60156 891.38281 817.21875 889.01953 L 816.34375 888.16406 C 814.01953 885.76171 810.16406 885.76172 807.80078 888.10938 L 777.74609 917.89062 L 767.74609 876.80078 C 767.16016 874.37207 765.15283 872.64014 762.80469 872.26367 z M 377 874.47266 C 377 874.47266 329.91016 897.50781 310.30859 935.60156 C 287.21875 980.41797 342.10937 1010.8008 366.16406 964.36328 C 385.18359 927.47266 377 874.47266 377 874.47266 z " />
</svg>
