<?xml version="1.0" encoding="UTF-8" standalone="no"?>
<svg
   width="1000"
   height="1000"
   viewBox="0 0 1000 1000"
   version="1.1"
   id="svg1245"
   xmlns="http://www.w3.org/2000/svg"
   xmlns:svg="http://www.w3.org/2000/svg">
  <defs
     id="defs1249" />
  <g
     id="surface1">
    <path
       d="M 466.164062 759 C 469.382812 759.78125 471.417969 763.109375 470.601562 766.34375 L 470.289062 767.507812 C 469.507812 770.726562 466.199219 772.761719 462.980469 771.945312 L 421.074219 761.726562 L 431.308594 803.65625 C 432.144531 806.890625 430.109375 810.164062 426.816406 810.980469 L 425.65625 811.238281 C 422.4375 812.054688 419.128906 810.035156 418.34375 806.800781 L 408.253906 765.636719 L 378.238281 795.492188 C 375.855469 797.816406 372.054688 797.816406 369.671875 795.4375 L 368.800781 794.582031 C 366.492188 792.199219 366.492188 788.363281 368.855469 785.980469 L 398.800781 756.273438 L 357.816406 746.253906 C 354.582031 745.492188 352.507812 742.21875 353.363281 738.925781 L 353.617188 737.761719 C 354.4375 734.492188 357.761719 732.527344 360.980469 733.308594 L 402.925781 743.546875 L 392.636719 701.617188 C 391.855469 698.417969 393.910156 695.054688 397.144531 694.289062 L 398.308594 694 C 401.582031 693.199219 404.890625 695.199219 405.671875 698.4375 L 415.671875 739.527344 L 445.726562 709.746094 C 448.089844 707.398438 451.945312 707.398438 454.273438 709.800781 L 455.144531 710.65625 C 457.527344 713.019531 457.472656 716.835938 455.144531 719.199219 L 425.144531 748.945312 Z M 745.945312 759 C 749.144531 759.78125 751.199219 763.109375 750.398438 766.34375 L 750.089844 767.507812 C 749.308594 770.726562 746 772.761719 742.78125 771.945312 L 700.871094 761.726562 L 711.109375 803.65625 C 711.925781 806.890625 709.890625 810.164062 706.601562 810.980469 L 705.4375 811.238281 C 702.21875 812.054688 698.910156 810.035156 698.128906 806.800781 L 688.035156 765.636719 L 658.019531 795.492188 C 655.636719 797.816406 651.835938 797.816406 649.453125 795.4375 L 648.582031 794.582031 C 646.273438 792.199219 646.273438 788.363281 648.636719 785.980469 L 678.582031 756.273438 L 637.601562 746.253906 C 634.363281 745.492188 632.289062 742.21875 633.144531 738.925781 L 633.398438 737.761719 C 634.21875 734.492188 637.546875 732.527344 640.761719 733.308594 L 682.710938 743.546875 L 672.417969 701.617188 C 671.636719 698.417969 673.691406 695.054688 676.925781 694.289062 L 678.089844 694 C 681.363281 693.199219 684.671875 695.199219 685.453125 698.4375 L 695.453125 739.527344 L 725.507812 709.746094 C 727.871094 707.398438 731.726562 707.398438 734.054688 709.800781 L 734.925781 710.65625 C 737.308594 713.019531 737.253906 716.835938 734.925781 719.199219 L 704.925781 748.945312 Z M 745.945312 759 "
       id="path1240" />
    <path
       stroke="#000000"
       stroke-width="1.4"
       d="M 6.060098,29.503008 H 45.191953 M 4.560918,24.400898 H 43.518965 M 9.76207,34.605977 H 48.719902 M 6.060098,9.093066 H 45.191953 M 11.689004,19.29793 h 39.13207 M 4.560918,3.990098 H 43.518965 M 10.289941,14.159941 h 38.958047"
       transform="matrix(18.181818,0,0,18.181818,0,-36.363636)"
       id="path1242" />
  </g>
</svg>
