<?xml version="1.0" encoding="UTF-8" standalone="no"?>
<svg
   width="1000"
   height="1000"
   viewBox="0 0 1000 1000"
   version="1.1"
   id="svg1453"
   xmlns="http://www.w3.org/2000/svg"
   xmlns:svg="http://www.w3.org/2000/svg">
  <defs
     id="defs1457" />
  <g
     id="surface1">
    <path
       d="M 597.691406 753.910156 L 546.507812 753.128906 L 588.472656 679.726562 L 523.691406 680.273438 L 468.726562 789.78125 L 516.582031 789.78125 L 449.382812 955.761719 Z M 597.691406 753.910156 "
       id="path1446" />
    <path
       d="M 688.089844 901.855469 C 691.308594 902.636719 693.363281 905.964844 692.527344 909.21875 L 692.21875 910.382812 C 691.4375 913.601562 688.128906 915.636719 684.910156 914.816406 L 643 904.601562 L 653.238281 946.527344 C 654.074219 949.761719 652.035156 953.035156 648.746094 953.855469 L 647.582031 954.109375 C 644.363281 954.925781 641.054688 952.910156 640.273438 949.671875 L 630.183594 908.507812 L 600.164062 938.363281 C 597.78125 940.691406 593.980469 940.691406 591.601562 938.308594 L 590.726562 937.453125 C 588.417969 935.074219 588.417969 931.238281 590.78125 928.855469 L 620.726562 899.144531 L 579.746094 889.128906 C 576.507812 888.363281 574.4375 885.089844 575.289062 881.800781 L 575.546875 880.636719 C 576.363281 877.363281 579.691406 875.398438 582.910156 876.183594 L 624.855469 886.398438 L 614.5625 844.472656 C 613.78125 841.273438 615.835938 837.910156 619.074219 837.144531 L 620.238281 836.855469 C 623.507812 836.054688 626.816406 838.054688 627.601562 841.289062 L 637.601562 882.382812 L 667.65625 852.601562 C 670.019531 850.253906 673.871094 850.253906 676.199219 852.65625 L 677.074219 853.507812 C 679.453125 855.871094 679.398438 859.691406 677.074219 862.054688 L 647.074219 891.800781 Z M 781.925781 759 C 785.144531 759.78125 787.183594 763.109375 786.382812 766.34375 L 786.074219 767.507812 C 785.289062 770.726562 781.980469 772.761719 778.761719 771.945312 L 736.855469 761.726562 L 747.089844 803.65625 C 747.910156 806.890625 745.871094 810.164062 742.582031 810.980469 L 741.417969 811.238281 C 738.199219 812.054688 734.890625 810.035156 734.109375 806.800781 L 724.019531 765.636719 L 694 795.492188 C 691.617188 797.816406 687.816406 797.816406 685.4375 795.4375 L 684.5625 794.582031 C 682.253906 792.199219 682.253906 788.363281 684.617188 785.980469 L 714.5625 756.273438 L 673.582031 746.253906 C 670.34375 745.492188 668.273438 742.21875 669.128906 738.925781 L 669.382812 737.761719 C 670.199219 734.492188 673.527344 732.527344 676.746094 733.308594 L 718.691406 743.546875 L 708.398438 701.617188 C 707.617188 698.417969 709.671875 695.054688 712.910156 694.289062 L 714.074219 694 C 717.34375 693.199219 720.65625 695.199219 721.4375 698.4375 L 731.4375 739.527344 L 761.492188 709.746094 C 763.855469 707.398438 767.710938 707.398438 770.035156 709.800781 L 770.910156 710.65625 C 773.289062 713.019531 773.238281 716.835938 770.910156 719.199219 L 740.910156 748.945312 Z M 400.128906 901.855469 C 403.34375 902.636719 405.382812 905.964844 404.582031 909.199219 L 404.273438 910.363281 C 403.492188 913.582031 400.183594 915.617188 396.964844 914.800781 L 355.054688 904.582031 L 365.289062 946.507812 C 366.128906 949.746094 364.089844 953.019531 360.800781 953.835938 L 359.636719 954.089844 C 356.417969 954.910156 353.109375 952.890625 352.328125 949.65625 L 342.238281 908.492188 L 312.21875 938.34375 C 309.835938 940.671875 306.035156 940.671875 303.65625 938.289062 L 302.78125 937.4375 C 300.472656 935.054688 300.472656 931.21875 302.835938 928.835938 L 332.78125 899.128906 L 291.800781 889.109375 C 288.5625 888.34375 286.492188 885.074219 287.34375 881.78125 L 287.601562 880.617188 C 288.417969 877.34375 291.746094 875.382812 294.964844 876.164062 L 336.910156 886.398438 L 326.617188 844.472656 C 325.816406 841.273438 327.871094 837.910156 331.109375 837.144531 L 332.273438 836.855469 C 335.546875 836.054688 338.855469 838.054688 339.636719 841.289062 L 349.636719 882.382812 L 379.691406 852.601562 C 382.054688 850.253906 385.910156 850.253906 388.238281 852.65625 L 389.109375 853.507812 C 391.492188 855.871094 391.4375 859.691406 389.109375 862.054688 L 359.109375 891.800781 Z M 402.726562 759 C 405.925781 759.78125 407.980469 763.109375 407.183594 766.34375 L 406.871094 767.507812 C 406.089844 770.726562 402.78125 772.761719 399.5625 771.945312 L 357.65625 761.726562 L 367.890625 803.65625 C 368.726562 806.890625 366.691406 810.164062 363.398438 810.980469 L 362.238281 811.238281 C 359.019531 812.054688 355.710938 810.035156 354.925781 806.800781 L 344.835938 765.636719 L 314.816406 795.492188 C 312.4375 797.816406 308.636719 797.816406 306.253906 795.4375 L 305.382812 794.582031 C 303.074219 792.199219 303.074219 788.363281 305.4375 785.980469 L 335.382812 756.273438 L 294.398438 746.253906 C 291.164062 745.492188 289.089844 742.21875 289.945312 738.925781 L 290.199219 737.761719 C 291.019531 734.492188 294.34375 732.527344 297.5625 733.308594 L 339.507812 743.546875 L 329.21875 701.617188 C 328.417969 698.417969 330.472656 695.054688 333.710938 694.289062 L 334.871094 694 C 338.144531 693.199219 341.453125 695.199219 342.238281 698.4375 L 352.238281 739.527344 L 382.289062 709.746094 C 384.65625 707.398438 388.507812 707.398438 390.835938 709.800781 L 391.710938 710.65625 C 394.089844 713.019531 394.035156 716.835938 391.710938 719.199219 L 361.710938 748.945312 Z M 402.726562 759 "
       id="path1448" />
    <path
       stroke="#000000"
       stroke-width="1.4"
       d="M 6.060098,29.503008 H 45.191953 M 4.560918,24.400898 H 43.518965 M 9.76207,34.605977 H 48.719902 M 6.060098,9.093066 H 45.191953 M 11.689004,19.29793 h 39.13207 M 4.560918,3.990098 H 43.518965 M 10.289941,14.159941 h 38.958047"
       transform="matrix(18.181818,0,0,18.181818,0,-36.363636)"
       id="path1450" />
  </g>
</svg>
