<?xml version="1.0" encoding="UTF-8" standalone="no"?>
<svg
   width="1000"
   height="1000"
   viewBox="0 0 1000 1000"
   version="1.1"
   id="svg1521"
   xmlns="http://www.w3.org/2000/svg"
   xmlns:svg="http://www.w3.org/2000/svg">
  <defs
     id="defs1525" />
  <g
     id="surface1">
    <path
       d="m 392.28906,759 c 3.21875,0.78125 5.27344,4.10937 4.45703,7.34375 l -0.30859,1.16406 c -0.78125,3.21875 -4.09375,5.25391 -7.30859,4.4375 l -41.91016,-10.21875 10.23437,41.92969 c 0.83594,3.23437 -1.19921,6.50781 -4.48828,7.32422 l -1.16406,0.25781 c -3.21875,0.81641 -6.52734,-1.20312 -7.30859,-4.4375 l -10.09375,-41.16406 -30.01563,29.85547 c -2.38281,2.32422 -6.18359,2.32422 -8.5664,-0.0547 l -0.8711,-0.85547 c -2.30859,-2.38281 -2.30859,-6.21875 0.0547,-8.60156 l 29.94531,-29.70703 -40.98047,-10.01953 c -3.23828,-0.76172 -5.30859,-4.03516 -4.45703,-7.32813 l 0.25391,-1.16406 c 0.82031,-3.26953 4.14844,-5.23438 7.36719,-4.45313 l 41.94531,10.23828 -10.29297,-41.92968 c -0.80078,-3.19922 1.25391,-6.5625 4.49219,-7.32813 L 324.4375,694 c 3.27344,-0.80078 6.58203,1.19922 7.36328,4.4375 l 10,41.08984 30.05469,-29.78125 c 2.36328,-2.34765 6.21875,-2.34765 8.54297,0.0547 l 0.875,0.85547 c 2.38281,2.36328 2.32812,6.17969 0,8.54297 l -30,29.74609 z m 286.98438,142.85547 c 3.21875,0.78125 5.27343,4.10937 4.4375,7.34375 l -0.3125,1.16406 c -0.78125,3.21875 -4.08985,5.25391 -7.3086,4.4375 l -41.90625,-10.21875 10.23438,41.92578 c 0.83594,3.23828 -1.19922,6.51172 -4.49219,7.32813 l -1.16406,0.2539 c -3.21485,0.82032 -6.52344,-1.19922 -7.3086,-4.43359 l -10.08984,-41.16406 -30.01953,29.85156 c -2.37891,2.32812 -6.17969,2.32812 -8.5625,-0.0547 l -0.87109,-0.85156 c -2.3086,-2.38281 -2.3086,-6.21875 0.0547,-8.60156 l 29.94532,-29.70703 -40.98438,-10.01954 c -3.23437,-0.76562 -5.30859,-4.03515 -4.45312,-7.32812 l 0.2539,-1.16406 c 0.82031,-3.27344 4.14453,-5.23438 7.36328,-4.45313 l 41.94532,10.23438 -10.28907,-41.92578 c -0.78125,-3.19922 1.27344,-6.5625 4.50782,-7.32813 l 1.16406,-0.28906 c 3.27344,-0.80078 6.58203,1.19922 7.36328,4.43359 l 10,41.09375 30.05469,-29.78125 c 2.36328,-2.34765 6.21875,-2.34765 8.54687,0.0547 l 0.8711,0.85156 c 2.38281,2.36328 2.32812,6.1836 0,8.54688 l -30,29.74609 z m -182.32813,0 c 3.21875,0.78125 5.27344,4.10937 4.4375,7.34375 l -0.30859,1.16406 c -0.78516,3.21875 -4.09375,5.25391 -7.3125,4.4375 l -41.90625,-10.21875 10.23437,41.92578 c 0.83594,3.23828 -1.19922,6.51172 -4.48828,7.32813 l -1.16406,0.2539 c -3.21875,0.82032 -6.52734,-1.19922 -7.30859,-4.43359 l -10.09375,-41.16406 -30.01563,29.85156 c -2.38281,2.32812 -6.18359,2.32812 -8.56641,-0.0547 l -0.87109,-0.85156 c -2.30859,-2.38281 -2.30859,-6.21875 0.0547,-8.60156 l 29.94531,-29.70703 -40.98047,-10.01954 c -3.23828,-0.76562 -5.3125,-4.03515 -4.45703,-7.32812 l 0.25391,-1.16406 c 0.82031,-3.27344 4.14843,-5.23438 7.36328,-4.45313 l 41.94922,10.23438 -10.29297,-41.92578 c -0.78125,-3.19922 1.27344,-6.5625 4.50781,-7.32813 l 1.16406,-0.28906 c 3.27344,-0.80078 6.58203,1.19922 7.36328,4.43359 l 10,41.09375 30.05469,-29.78125 c 2.36328,-2.34765 6.21875,-2.34765 8.54688,0.0547 l 0.87109,0.85156 c 2.38281,2.36328 2.32813,6.1836 0,8.54688 l -30,29.74609 z m -204.80078,0 c 3.21875,0.78125 5.25391,4.10937 4.45703,7.34375 l -0.3125,1.16406 c -0.78125,3.21875 -4.08984,5.25391 -7.30859,4.4375 l -41.90625,-10.21875 10.23437,41.92578 c 0.82032,3.23828 -1.21875,6.51172 -4.50781,7.32813 l -1.16406,0.2539 c -3.21875,0.82032 -6.52735,-1.19922 -7.3086,-4.43359 l -10.08984,-41.16406 -30.01953,29.85156 c -2.38281,2.32812 -6.18359,2.32812 -8.5625,-0.0547 l -0.875,-0.85156 c -2.30859,-2.38281 -2.30859,-6.21875 0.0547,-8.60156 l 29.94531,-29.70703 -40.98047,-10.01954 c -3.23828,-0.76562 -5.30859,-4.03515 -4.45703,-7.32812 l 0.25781,-1.16406 c 0.81641,-3.27344 4.14453,-5.23438 7.36328,-4.45313 l 41.94532,10.23438 -10.29297,-41.92578 c -0.78125,-3.19922 1.27343,-6.5625 4.51172,-7.32813 l 1.16015,-0.28906 c 3.27344,-0.80078 6.58203,1.19922 7.36719,4.43359 l 10,41.09375 30.05469,-29.78125 c 2.36328,-2.34765 6.21484,-2.34765 8.54297,0.0547 l 0.875,0.85156 c 2.3789,2.36328 2.32421,6.1836 0,8.54688 l -30,29.74609 z M 779.4375,759 c 3.21875,0.78125 5.25391,4.10937 4.43359,7.34375 l -0.30859,1.16406 c -0.78125,3.21875 -4.08984,5.25391 -7.30859,4.4375 l -41.91016,-10.21875 10.23828,41.92969 c 0.83594,3.23437 -1.19922,6.50781 -4.49219,7.32422 l -1.16406,0.25781 c -3.21484,0.81641 -6.52734,-1.20312 -7.30859,-4.4375 l -10.08985,-41.16406 -30.01953,29.85547 c -2.3789,2.32422 -6.17969,2.32422 -8.5625,-0.0547 l -0.87109,-0.85547 c -2.3125,-2.38281 -2.3125,-6.21875 0.0547,-8.60156 l 29.94531,-29.70703 -40.98438,-10.01953 c -3.23437,-0.76172 -5.30859,-4.03516 -4.45312,-7.32813 l 0.2539,-1.16406 c 0.82032,-3.26953 4.14454,-5.23438 7.36329,-4.45313 l 41.94531,10.23828 -10.28906,-41.92968 c -0.78125,-3.19922 1.27343,-6.5625 4.50781,-7.32813 L 711.58203,694 c 3.27344,-0.80078 6.58203,1.19922 7.36328,4.4375 l 10,41.08984 L 759,709.74609 c 2.36328,-2.34765 6.21875,-2.34765 8.54687,0.0547 l 0.8711,0.85547 c 2.38281,2.36328 2.32812,6.17969 0,8.54297 l -30,29.74609 z m -193.56641,0 c 3.20313,0.78125 5.25782,4.10937 4.4375,7.34375 L 590,767.50781 c -0.78125,3.21875 -4.08984,5.25391 -7.30859,4.4375 l -41.91016,-10.21875 10.23828,41.92969 c 0.83594,3.23437 -1.20312,6.50781 -4.49219,7.32422 l -1.16406,0.25781 c -3.21875,0.81641 -6.52734,-1.20312 -7.30859,-4.4375 l -10.08985,-41.16406 -30.01953,29.85547 c -2.38281,2.32422 -6.18359,2.32422 -8.5625,-0.0547 l -0.875,-0.85547 c -2.30859,-2.38281 -2.30859,-6.21875 0.0547,-8.60156 l 29.94531,-29.70703 -40.98047,-10.01953 c -3.23828,-0.76172 -5.30859,-4.03516 -4.45312,-7.32813 l 0.2539,-1.16406 c 0.81641,-3.26953 4.14454,-5.23438 7.36329,-4.45313 l 41.94531,10.23828 -10.29297,-41.92968 c -0.78125,-3.19922 1.27344,-6.5625 4.51172,-7.32813 L 518.01953,694 c 3.26953,-0.80078 6.58203,1.19922 7.36328,4.4375 l 10,41.08984 30.05469,-29.78125 c 2.36328,-2.34765 6.21875,-2.34765 8.54297,0.0547 l 0.875,0.85547 c 2.38281,2.36328 2.32812,6.17969 0,8.54297 l -30,29.74609 z"
       id="path1516" />
    <path
       stroke="#000000"
       stroke-width="1.4"
       d="M 6.060098,29.503008 H 45.191953 M 4.560918,24.400898 H 43.518965 M 9.76207,34.605977 H 48.719902 M 6.060098,9.093066 H 45.191953 M 11.689004,19.29793 h 39.13207 M 4.560918,3.990098 H 43.518965 M 10.289941,14.159941 h 38.958047"
       transform="matrix(18.181818,0,0,18.181818,0,-36.363636)"
       id="path1518" />
  </g>
</svg>
