<?xml version="1.0" encoding="UTF-8" standalone="no"?>
<!-- Created with Inkscape (http://www.inkscape.org/) -->

<svg
   width="1000"
   height="800"
   version="1.1"
   id="svg10"
   xmlns="http://www.w3.org/2000/svg"
   xmlns:svg="http://www.w3.org/2000/svg"
   xmlns:rdf="http://www.w3.org/1999/02/22-rdf-syntax-ns#"
   xmlns:cc="http://creativecommons.org/ns#"
   xmlns:dc="http://purl.org/dc/elements/1.1/">
  <defs
     id="defs5498" />
  <metadata
     id="metadata5594">
    <rdf:RDF>
      <cc:Work
         rdf:about="">
        <dc:format>image/svg+xml</dc:format>
        <dc:type
           rdf:resource="http://purl.org/dc/dcmitype/StillImage" />
      </cc:Work>
    </rdf:RDF>
  </metadata>
  <g
     id="g3770"
     transform="matrix(1.1123471,0,0,1.1123471,-56.17355,-156.17355)">
    <path
       id="path1319"
       style="fill:#000000;fill-opacity:1;fill-rule:nonzero;stroke:none"
       d="m 500,142.62891 c -259.50391,0 -432.121094,141.40234 -449.5,154.53906 L 499.61328,856.98828 500,857.37109 500.38672,856.98828 949.5,297.16797 C 932.12109,284.03125 759.11719,142.62891 500,142.62891 Z m 0,19.99804 c 125.92106,0 231.02368,34.37402 306.81641,70.40625 55.13707,26.21244 93.26052,52.22997 114.21093,67.66992 L 500,825.51562 78.966797,300.69531 C 99.891857,285.25111 137.93365,259.24482 193.04297,233.0293 268.78276,196.99985 373.88016,162.62695 500,162.62695 Z" />
    <path
       style="fill:#000000;fill-opacity:1;fill-rule:nonzero;stroke:none"
       d="m 221.57422,510.42969 278.03906,346.9414 H 500 l 0.38672,-0.38281 278.03906,-346.94141 C 764.52344,499.61328 658.32812,413.07031 500,413.07031 c -158.32813,0 -264.52344,86.54297 -278.42578,97.35938 z m 0,0"
       id="path8" />
  </g>
</svg>
