<?xml version="1.0" encoding="UTF-8" standalone="no"?>
<!-- Created with Inkscape (http://www.inkscape.org/) -->

<svg
   width="1000"
   height="800"
   version="1.1"
   id="svg10"
   xmlns="http://www.w3.org/2000/svg"
   xmlns:svg="http://www.w3.org/2000/svg"
   xmlns:rdf="http://www.w3.org/1999/02/22-rdf-syntax-ns#"
   xmlns:cc="http://creativecommons.org/ns#"
   xmlns:dc="http://purl.org/dc/elements/1.1/">
  <defs
     id="defs5498" />
  <metadata
     id="metadata5594">
    <rdf:RDF>
      <cc:Work
         rdf:about="">
        <dc:format>image/svg+xml</dc:format>
        <dc:type
           rdf:resource="http://purl.org/dc/dcmitype/StillImage" />
      </cc:Work>
    </rdf:RDF>
  </metadata>
  <g
     id="g3736"
     transform="matrix(1.1123471,0,0,1.1123471,-56.17355,-156.17355)">
    <path
       id="path1054"
       style="fill:#000000;fill-opacity:0.94748;fill-rule:nonzero;stroke:none"
       d="m 500,142.62891 c -259.50391,0 -432.121094,141.40234 -449.5,154.53906 L 499.61328,856.98828 500,857.37109 500.38672,856.98828 949.5,297.16797 C 932.12109,284.03125 759.11719,142.62891 500,142.62891 Z m 0,19.99023 c 125.92223,0 231.02499,34.37566 306.81836,70.4082 55.14123,26.21441 93.2672,52.23615 114.2168,67.67578 L 500,825.52344 78.957031,300.69336 C 99.881083,285.24957 137.92678,259.24326 193.04102,233.02539 268.78146,196.99563 373.87899,162.61914 500,162.61914 Z" />
    <path
       style="fill:#000000;fill-opacity:1;fill-rule:nonzero;stroke:none"
       d="M 172.91406,449.77344 499.61328,856.98828 500,857.37109 500.38672,856.98828 827.08594,449.77344 C 810.48047,437.02344 685.74609,335.80078 500,335.80078 c -185.74609,0 -310.48047,101.22266 -327.08594,113.97266 z m 0,0"
       id="path8" />
  </g>
</svg>
