<?xml version="1.0" encoding="UTF-8" standalone="no"?>
<!-- Created with Inkscape (http://www.inkscape.org/) -->

<svg
   xmlns:dc="http://purl.org/dc/elements/1.1/"
   xmlns:cc="http://creativecommons.org/ns#"
   xmlns:rdf="http://www.w3.org/1999/02/22-rdf-syntax-ns#"
   xmlns:svg="http://www.w3.org/2000/svg"
   xmlns="http://www.w3.org/2000/svg"
   xmlns:sodipodi="http://sodipodi.sourceforge.net/DTD/sodipodi-0.dtd"
   xmlns:inkscape="http://www.inkscape.org/namespaces/inkscape"
   width="50.000401"
   height="49.940292"
   viewBox="0 0 50.000401 49.940292"
   id="svg4852"
   version="1.1"
   inkscape:version="0.91 r13725"
   sodipodi:docname="corner.svg">
  <defs
     id="defs4854" />
  <sodipodi:namedview
     id="base"
     pagecolor="#ffffff"
     bordercolor="#666666"
     borderopacity="1.0"
     inkscape:pageopacity="0.0"
     inkscape:pageshadow="2"
     inkscape:zoom="5.6"
     inkscape:cx="6.3505584"
     inkscape:cy="27.757539"
     inkscape:document-units="px"
     inkscape:current-layer="layer1"
     showgrid="false"
     fit-margin-top="0"
     fit-margin-left="0"
     fit-margin-right="0"
     fit-margin-bottom="0"
     inkscape:window-width="1366"
     inkscape:window-height="744"
     inkscape:window-x="0"
     inkscape:window-y="24"
     inkscape:window-maximized="1"
     units="px" />
  <metadata
     id="metadata4857">
    <rdf:RDF>
      <cc:Work
         rdf:about="">
        <dc:format>image/svg+xml</dc:format>
        <dc:type
           rdf:resource="http://purl.org/dc/dcmitype/StillImage" />
        <dc:title></dc:title>
      </cc:Work>
    </rdf:RDF>
  </metadata>
  <g
     inkscape:label="Layer 1"
     inkscape:groupmode="layer"
     id="layer1"
     transform="translate(-114.9998,-273.10634)">
    <path
       inkscape:connector-curvature="0"
       style="fill:#000000;fill-opacity:1;fill-rule:evenodd;stroke:none;stroke-width:0.1;stroke-linecap:butt;stroke-linejoin:miter;stroke-miterlimit:4;stroke-dasharray:none;stroke-opacity:1"
       d="m 157.90379,273.12194 c 1.42291,-0.0852 2.74674,0.18035 3.86216,0.75492 1.48725,0.76611 2.70553,1.95192 3.10726,3.52094 0.40175,1.56902 -0.19943,3.67055 -1.1052,4.90094 -0.90577,1.23038 -2.34207,1.95371 -3.58739,2.07152 -1.2453,0.11781 -2.38919,-0.27199 -3.17669,-1.10522 -0.78752,-0.83323 -1.16497,-2.41539 -0.96631,-3.38204 0.19867,-0.96669 0.78837,-1.52873 1.5189,-1.86314 0.35793,-0.16373 1.17446,-0.34269 1.83597,-0.0935 0.68868,0.25926 1.1924,0.71894 1.25315,1.21693 0.049,0.40265 0.0388,0.50155 -0.0302,0.84249 -0.069,0.34094 -0.40765,0.54354 -0.40765,0.54354 0,0 0.85192,0.22483 1.17466,-0.0362 0.26693,-0.21599 0.4685,-0.80781 0.50127,-0.98743 0.055,-0.30156 0.10714,-0.59114 0.009,-1.03575 -0.12987,-0.58839 -0.58048,-1.31621 -1.06596,-1.62459 -0.85226,-0.54144 -2.32175,-1.02355 -3.82291,-0.48315 -1.50116,0.5404 -2.8296,2.97739 -4.13999,4.55671 -1.51026,1.82017 -2.49319,3.99039 -4.28191,5.65887 -1.7887,1.66852 -3.36201,2.86263 -4.13998,3.33072 -0.42426,0.25527 -1.17806,0.62012 -2.73281,0.84853 -1.29608,0.19048 -3.38775,0.20525 -4.22152,0.1509 -1.83391,-0.11936 -3.71145,-0.42517 -6.04541,-1.76953 -0.3305,-0.19037 -0.66685,-0.41537 -1.00254,-0.61602 0.19281,0.32339 0.40845,0.64784 0.59187,0.9663 1.34436,2.33397 1.65018,4.21149 1.76954,6.04541 0.0542,0.83376 0.0395,2.92545 -0.15106,4.22151 -0.2284,1.55477 -0.59325,2.30857 -0.84853,2.73282 -0.46809,0.77797 -1.66219,2.35129 -3.3307,4.13998 -1.66847,1.78873 -3.83872,2.76863 -5.65889,4.27889 -1.57932,1.31039 -4.0163,2.64184 -4.5567,4.14301 -0.54039,1.50116 -0.0583,2.96765 0.48316,3.8199 0.30838,0.48549 1.03621,0.93902 1.62459,1.06896 0.44461,0.0982 0.73417,0.046 1.03574,-0.009 0.17963,-0.0326 0.77144,-0.23434 0.98743,-0.50127 0.26109,-0.32274 0.0362,-1.17466 0.0362,-1.17466 0,0 -0.20258,0.3387 -0.54354,0.40766 -0.34094,0.069 -0.43683,0.0792 -0.83947,0.0302 -0.498,-0.0607 -0.96071,-0.56447 -1.21997,-1.25316 -0.24908,-0.6615 -0.07,-1.47805 0.0935,-1.83597 0.3344,-0.73054 0.89646,-1.32022 1.86315,-1.5189 0.96666,-0.19866 2.5488,0.17881 3.38204,0.9663 0.83321,0.78751 1.22296,1.92839 1.1052,3.17367 -0.11781,1.24532 -0.84111,2.68463 -2.07149,3.59042 -1.23039,0.90575 -3.33192,1.50693 -4.90095,1.1052 -1.56902,-0.40176 -2.75486,-1.62002 -3.52096,-3.10727 -0.76609,-1.48723 -0.98284,-3.34667 -0.54957,-5.31464 0.43323,-1.96792 3.44847,-5.79779 3.44847,-5.79779 0,0 -2.05666,-1.04182 -2.69053,-2.00205 -0.63389,-0.96022 -0.90285,-2.31989 -0.8274,-3.45149 0.0754,-1.13164 0.48771,-2.2127 1.17164,-3.03478 0.68393,-0.82211 1.39968,-1.17127 2.38253,-1.44945 0.98282,-0.27818 2.15741,-0.32263 3.14047,0.0846 0.98305,0.40717 2.0367,0.86156 2.3463,1.96883 0.30956,1.10727 0.22679,2.40149 -0.54658,2.97136 -0.77339,0.56984 -1.62601,0.76966 -2.35232,0.42578 -0.37763,-0.17889 -0.85242,-0.23466 -1.19882,-0.67037 -0.31975,-0.40218 -0.52543,-1.19278 -0.52542,-1.19278 0,0 -0.6559,0.36903 -0.48314,1.10521 0.075,0.31975 0.30544,0.9566 0.69149,1.32262 0.50276,0.47674 1.23152,0.66423 1.86014,0.81833 1.1113,0.27245 2.35917,-0.0857 3.45149,-0.76097 1.09232,-0.67529 1.96001,-1.87449 2.65732,-2.96834 0.6973,-1.09386 1.25761,-2.03435 1.55211,-3.51793 0.29448,-1.48359 0.0866,-3.90188 -0.34423,-5.45354 -0.43074,-1.55166 -0.99874,-2.68399 -1.9326,-3.7263 -1.0517,-1.17391 -2.04953,-2.2545 -3.56928,-2.67241 -0.86628,-0.23821 -2.24447,-0.19849 -3.05591,0.18722 -0.86802,0.4126 -1.61564,1.23061 -1.93259,2.13793 -0.36491,1.04459 -0.24953,2.58608 0.20533,3.3126 0.22935,0.36646 0.66301,0.7825 1.03576,0.88477 0.14858,0.0408 0.51481,-0.0176 0.63716,-0.18723 0.17908,-0.24816 0.0875,-0.65225 0.0875,-0.65225 0,0 -0.61254,0.30894 -0.84853,-0.27781 -0.20201,-0.50228 -0.26577,-0.87458 -0.29292,-1.47964 -0.0272,-0.60509 0.31373,-1.49455 1.03576,-1.87522 0.97346,-0.51322 2.4703,-0.24612 3.31561,0.19628 0.73085,0.3825 1.17465,1.52795 1.17465,1.52795 0,0 0.58373,1.51481 0.32008,2.75395 -0.21411,1.00623 -1.19459,1.7151 -1.83898,2.21646 -1.43797,1.11885 -4.30479,1.04975 -5.72834,0.27478 -1.42355,-0.77497 -1.86619,-1.95525 -2.24663,-3.32768 -0.38038,-1.37251 -0.38671,-3.20782 0.17514,-4.67749 0.56182,-1.46969 1.5715,-2.47074 2.75093,-3.07707 1.17941,-0.60632 2.0506,-0.82532 2.93815,-1.0297 1.10263,-0.25388 2.57665,-0.23261 3.79575,0.0513 0.21949,0.0512 0.40372,0.1124 0.59185,0.17514 -0.0566,-0.17481 -0.11611,-0.34193 -0.16307,-0.54353 -0.28395,-1.2191 -0.30521,-2.69312 -0.0513,-3.79575 0.20438,-0.88756 0.42336,-1.75874 1.02971,-2.93815 0.60632,-1.17943 1.60738,-2.18911 3.07706,-2.75093 1.46965,-0.56183 3.30498,-0.55553 4.67748,-0.17514 1.37246,0.38044 2.55575,0.82309 3.33071,2.24664 0.77499,1.42356 0.84105,4.29037 -0.2778,5.72834 -0.50138,0.64438 -1.21022,1.62489 -2.21646,1.83899 -1.23914,0.26367 -2.75395,-0.32009 -2.75395,-0.32009 0,0 -1.14243,-0.44381 -1.52494,-1.17466 -0.44241,-0.84533 -0.71252,-2.34517 -0.19929,-3.31863 0.38067,-0.72203 1.27015,-1.05994 1.87522,-1.03272 0.60506,0.0272 0.97737,0.0909 1.47964,0.2929 0.58676,0.23599 0.27782,0.84853 0.27782,0.84853 0,0 0.40406,0.0915 0.65224,-0.0875 0.16956,-0.1223 0.22804,-0.48858 0.18723,-0.63716 -0.10219,-0.37275 -0.51529,-0.80637 -0.88176,-1.03575 -0.7265,-0.45484 -2.271,-0.57027 -3.31561,-0.20533 -0.90732,0.31695 -1.72532,1.0646 -2.13793,1.93259 -0.38571,0.81143 -0.42545,2.18965 -0.18722,3.05592 0.41789,1.51974 1.4985,2.51757 2.67242,3.56926 1.04228,0.93387 2.17463,1.50186 3.72629,1.93259 1.55166,0.43077 3.96998,0.63875 5.45354,0.34425 1.48359,-0.29448 2.42406,-0.85482 3.51793,-1.55212 1.09387,-0.69731 2.29302,-1.565 2.96834,-2.65732 0.67527,-1.09234 1.03342,-2.34018 0.76097,-3.45149 -0.15414,-0.62861 -0.33858,-1.35738 -0.81531,-1.86014 -0.36603,-0.38605 -1.00589,-0.61952 -1.32563,-0.69451 -0.7362,-0.17275 -1.10522,0.48315 -1.10522,0.48315 0,0 0.7906,0.20566 1.19278,0.52542 0.43569,0.34638 0.49451,0.8242 0.67338,1.20183 0.34388,0.72631 0.141,1.57896 -0.42879,2.35234 -0.56988,0.77338 -1.8641,0.85612 -2.97137,0.54655 -1.10725,-0.30957 -1.56165,-1.36324 -1.96882,-2.34628 -0.4072,-0.98309 -0.36275,-2.15764 -0.0846,-3.14048 0.27818,-0.98285 0.62736,-1.69861 1.44945,-2.38253 0.8221,-0.68393 1.90618,-1.09618 3.0378,-1.17163 1.13162,-0.0754 2.48824,0.19348 3.44848,0.82739 0.96021,0.63387 2.00204,2.69054 2.00204,2.69054 0,0 3.82985,-3.01825 5.79779,-3.45149 0.49199,-0.10838 0.97818,-0.17393 1.45248,-0.20232 z m -38.18994,0.32915 a 3.9044349,3.9044349 0 0 1 3.90446,3.90444 3.9044349,3.9044349 0 0 1 -3.90446,3.90445 3.9044349,3.9044349 0 0 1 -3.90445,-3.90445 3.9044349,3.9044349 0 0 1 3.90445,-3.90444 z"
       id="path3430-9"
       inkscape:export-xdpi="90"
       inkscape:export-ydpi="90" />
  </g>
</svg>
